<svg xmlns="http://www.w3.org/2000/svg" xmlns:xlink="http://www.w3.org/1999/xlink" width="500" zoomAndPan="magnify" viewBox="0 0 375 374.999991" height="500" preserveAspectRatio="xMidYMid meet" version="1.2"><defs><clipPath id="c6424c9f2b"><path d="M 0 178.339844 L 375 178.339844 L 375 300 L 0 300 Z M 0 178.339844 "/></clipPath><clipPath id="9c418dd206"><path d="M 58 44.042969 L 316 44.042969 L 316 330.933594 L 58 330.933594 Z M 58 44.042969 "/></clipPath></defs><g id="d369b939fc"><path style=" stroke:none;fill-rule:nonzero;fill:#611f69;fill-opacity:1;" d="M 301.140625 295.371094 C 301.714844 298.355469 304.585938 292.613281 308.316406 283.144531 C 308.027344 285.324219 307.28125 285.664062 306.996094 288.597656 C 306.824219 290.429688 306.308594 295.304688 308.71875 296.632812 C 310.441406 297.601562 312.851562 296.34375 313.769531 295.824219 C 315.488281 296.972656 320.3125 299.898438 326.96875 299.675781 C 331.503906 299.5 334.945312 297.953125 336.78125 296.917969 C 337.472656 297.542969 341.316406 300.875 346.882812 300.414062 C 353.886719 299.898438 357.445312 293.871094 357.671875 293.359375 C 360.65625 294.675781 364.160156 294.273438 366.742188 292.265625 C 370.644531 289.28125 370.300781 284.515625 370.300781 284.230469 C 369.609375 283.195312 367.488281 280.382812 363.585938 279.0625 C 357.902344 277.171875 353.023438 280.039062 352.277344 280.5 C 350.902344 279.875 348.144531 278.839844 344.585938 279.011719 C 341.085938 279.179688 338.445312 280.382812 337.125 281.074219 C 335.980469 280.5625 333.796875 279.703125 330.984375 279.808594 C 329.035156 279.875 327.425781 280.382812 326.394531 280.785156 C 327.773438 279.523438 329.722656 277.40625 330.929688 274.359375 C 333.453125 267.757812 329.78125 263.804688 331.558594 257.253906 C 333.167969 251.292969 336.953125 252.203125 339.652344 246.011719 C 343.210938 237.804688 341.375 224.890625 333.683594 221.097656 C 332.421875 220.472656 331.101562 220.121094 329.839844 220.011719 L 335.519531 200.960938 C 335.921875 198.714844 336.667969 193.039062 333.453125 187.585938 C 332.765625 186.4375 329.609375 181.097656 325.992188 181.445312 C 323.007812 181.734375 321.058594 185.75 319.105469 191.03125 C 313.652344 205.601562 312.503906 217.601562 312.503906 217.601562 C 310.667969 236.765625 306.710938 235.445312 303.207031 257.605469 C 301.832031 266.386719 298.042969 279.523438 301.140625 295.371094 Z M 73.925781 296.230469 C 73.351562 299.214844 70.484375 293.476562 66.753906 284.003906 C 67.039062 286.1875 67.785156 286.523438 68.074219 289.457031 C 68.246094 291.289062 68.761719 296.167969 66.351562 297.492188 C 64.628906 298.464844 62.21875 297.207031 61.300781 296.683594 C 59.578125 297.832031 54.753906 300.757812 48.097656 300.535156 C 43.5625 300.363281 40.121094 298.8125 38.285156 297.78125 C 37.597656 298.40625 33.75 301.734375 28.183594 301.273438 C 21.179688 300.757812 17.625 294.734375 17.394531 294.222656 C 14.410156 295.535156 10.910156 295.132812 8.328125 293.125 C 4.421875 290.140625 4.765625 285.378906 4.765625 285.089844 C 5.457031 284.058594 7.578125 281.246094 11.484375 279.925781 C 17.164062 278.03125 22.042969 280.902344 22.789062 281.359375 C 24.164062 280.734375 26.921875 279.703125 30.476562 279.875 C 33.980469 280.039062 36.617188 281.246094 37.9375 281.933594 C 39.085938 281.421875 41.269531 280.5625 44.078125 280.671875 C 46.03125 280.734375 47.640625 281.246094 48.671875 281.648438 C 47.292969 280.382812 45.34375 278.265625 44.136719 275.21875 C 41.613281 268.617188 45.285156 264.664062 43.507812 258.117188 C 41.902344 252.152344 38.113281 253.066406 35.414062 246.875 C 31.855469 238.667969 33.691406 225.753906 41.382812 221.960938 C 42.644531 221.332031 43.964844 220.984375 45.226562 220.875 L 39.546875 201.820312 C 39.144531 199.578125 38.398438 193.898438 41.613281 188.449219 C 42.300781 187.300781 45.457031 181.957031 49.074219 182.308594 C 52.058594 182.59375 54.007812 186.613281 55.960938 191.890625 C 61.414062 206.464844 62.5625 218.464844 62.5625 218.464844 C 64.398438 237.628906 68.359375 236.308594 71.859375 258.464844 C 73.296875 267.246094 77.082031 280.449219 73.925781 296.230469 "/><g clip-rule="nonzero" clip-path="url(#c6424c9f2b)"><path style=" stroke:none;fill-rule:nonzero;fill:#0f0e0c;fill-opacity:1;" d="M 370.757812 290.140625 C 369.957031 290.714844 369.09375 291.179688 368.175781 291.46875 L 361.347656 283.65625 C 365.652344 283.03125 369.957031 282.457031 374.203125 281.933594 C 374.890625 284.6875 373.457031 288.132812 370.757812 290.140625 Z M 361.691406 291 C 361.632812 290.945312 361.519531 290.945312 361.460938 291 C 361.402344 291.066406 361.289062 291.117188 361.289062 291.179688 C 360.828125 292.265625 360.199219 293.238281 359.453125 294.101562 C 358.878906 294.796875 358.191406 295.371094 357.5 295.824219 L 347.113281 285.835938 C 351.589844 285.089844 356.066406 284.464844 360.601562 283.769531 L 367.488281 291.640625 C 365.59375 292.039062 363.527344 291.863281 361.691406 291 Z M 349.066406 297.953125 C 344.875 297.714844 341.832031 295.65625 340.398438 294.445312 C 340.339844 294.386719 340.285156 294.386719 340.167969 294.386719 C 340.113281 294.386719 340.054688 294.386719 339.996094 294.445312 C 339.421875 294.796875 338.675781 295.25 337.699219 295.65625 L 331.617188 288.535156 C 334.542969 288.023438 337.527344 287.449219 340.457031 286.984375 C 342.351562 286.640625 344.300781 286.351562 346.195312 286.015625 L 356.8125 296.230469 C 353.769531 298.003906 350.269531 298.003906 349.066406 297.953125 Z M 329.492188 296.855469 C 327.140625 296.570312 324.960938 295.824219 322.835938 294.507812 C 322.089844 294.222656 319.738281 293.1875 318.875 290.945312 C 322.894531 290.140625 326.910156 289.34375 330.929688 288.597656 L 337.070312 295.824219 C 335.117188 296.632812 332.476562 297.257812 329.492188 296.855469 Z M 313.308594 295.371094 L 320.253906 271.429688 L 335.863281 264.601562 C 336.035156 266.671875 335.921875 268.847656 334.886719 271.429688 C 333.855469 274.132812 332.078125 276.597656 329.722656 278.777344 C 326.566406 279.300781 322.949219 280.5625 320.425781 283.65625 C 319.507812 284.75 317.15625 287.621094 318.128906 290.828125 C 318.417969 291.804688 318.933594 292.550781 319.566406 293.1875 C 317.613281 295.199219 315.144531 295.824219 313.308594 295.371094 Z M 312.734375 295.132812 C 312.503906 295.019531 312.21875 294.910156 312.046875 294.730469 C 310.667969 293.699219 310.441406 291.753906 310.382812 291.117188 C 310.09375 288.769531 310.898438 286.925781 311.585938 285.492188 C 311.703125 285.207031 311.816406 284.917969 311.933594 284.6875 C 313.078125 281.996094 312.621094 280.039062 312.046875 277.628906 C 311.644531 275.90625 311.1875 274.015625 311.128906 271.265625 C 311.070312 269.65625 311.1875 268.511719 311.414062 267.363281 L 318.703125 274.644531 Z M 310.210938 286.984375 L 307.28125 293.359375 C 306.710938 294.050781 305.734375 294.847656 305.160156 294.847656 C 307.339844 276.144531 310.667969 257.371094 315.03125 239.003906 C 319.394531 220.8125 324.902344 202.679688 331.386719 185.113281 C 331.445312 184.941406 331.386719 184.769531 331.214844 184.71875 C 331.042969 184.65625 330.871094 184.71875 330.8125 184.890625 C 324.328125 202.445312 318.820312 220.640625 314.457031 238.890625 C 310.09375 257.03125 306.824219 275.621094 304.644531 294.222656 C 304.585938 293.933594 304.527344 293.476562 304.585938 292.785156 C 305.617188 266.265625 306.191406 252.949219 309.003906 242.449219 C 309.578125 240.273438 309.980469 238.890625 310.496094 237.230469 C 311.128906 235.042969 311.875 232.640625 313.195312 227.699219 C 314.054688 224.488281 314.800781 221.960938 315.375 219.949219 C 316.582031 215.761719 317.328125 213.234375 317.785156 210.023438 C 318.1875 206.921875 322.894531 182.996094 328.746094 179.605469 C 329.4375 179.203125 330.125 179.152344 330.8125 179.4375 C 337.472656 182.136719 339.136719 191.605469 337.414062 197.164062 C 335.863281 202.222656 333.050781 214.671875 332.59375 216.570312 C 327.082031 216.792969 321.402344 220.640625 319.105469 225.0625 C 318.074219 227.007812 318.015625 228.386719 317.84375 231.203125 C 317.726562 233.5 317.554688 236.707031 316.753906 241.875 C 316.234375 245.089844 315.777344 247.328125 315.203125 250.195312 C 313.710938 257.425781 312.503906 261.273438 311.757812 263.855469 C 310.839844 266.789062 310.382812 268.222656 310.496094 271.378906 C 310.613281 274.132812 311.070312 276.195312 311.472656 277.863281 C 312.046875 280.273438 312.449219 282.046875 311.359375 284.515625 C 311.242188 284.75 311.128906 285.039062 311.011719 285.324219 C 310.726562 285.726562 310.441406 286.351562 310.210938 286.984375 Z M 336.4375 217.65625 C 343.785156 220.121094 346.710938 231.429688 344.359375 239.527344 C 343.382812 242.855469 341.832031 244.34375 340.167969 245.949219 C 339.363281 246.753906 338.5625 247.5 337.816406 248.53125 L 326.507812 249.570312 L 333.625 225.0625 C 333.683594 224.890625 333.570312 224.714844 333.394531 224.65625 C 333.222656 224.605469 333.050781 224.714844 332.996094 224.890625 L 330.355469 233.960938 L 320.539062 223.796875 C 323.925781 219.261719 330.929688 215.816406 336.4375 217.65625 Z M 315.433594 252.089844 C 315.546875 251.515625 315.664062 250.890625 315.835938 250.253906 C 316.410156 247.382812 316.867188 245.152344 317.382812 241.933594 C 318.1875 236.707031 318.359375 233.5 318.472656 231.203125 C 318.648438 228.507812 318.703125 227.125 319.621094 225.351562 C 319.792969 225 320.023438 224.65625 320.253906 224.316406 L 330.238281 234.648438 L 325.878906 249.859375 L 323.066406 259.664062 Z M 322.777344 260.359375 L 318.875 273.960938 L 311.53125 266.609375 C 311.703125 265.8125 311.988281 265.003906 312.332031 263.96875 C 313.023438 261.730469 314.054688 258.519531 315.261719 252.835938 Z M 335.691406 253.238281 C 334.832031 256.628906 335.175781 259.328125 335.519531 261.910156 C 335.636719 262.59375 335.691406 263.230469 335.75 263.855469 L 320.425781 270.570312 L 326.335938 250.195312 L 337.355469 249.167969 C 336.726562 250.253906 336.152344 251.578125 335.691406 253.238281 Z M 321.917969 289.683594 C 320.828125 289.917969 319.792969 290.082031 318.703125 290.320312 C 318.074219 287.558594 320.140625 284.976562 320.941406 284.003906 C 323.007812 281.53125 325.878906 280.273438 328.574219 279.636719 Z M 334.945312 278.949219 C 337.183594 278.949219 339.480469 279.179688 341.660156 279.753906 C 341.777344 279.753906 341.890625 279.753906 341.949219 279.703125 C 342.523438 279.128906 343.496094 278.375 344.816406 277.746094 L 338.90625 286.472656 C 336.265625 286.925781 333.570312 287.386719 330.871094 287.910156 L 330.8125 287.910156 C 328.058594 288.417969 325.363281 288.9375 322.664062 289.457031 L 329.320312 279.414062 C 331.730469 279.011719 333.796875 279.011719 334.945312 278.949219 Z M 345.964844 277.40625 C 346.710938 277.171875 347.457031 277.003906 348.375 276.882812 C 351.359375 276.652344 353.65625 277.746094 354.804688 278.4375 C 354.917969 278.492188 355.035156 278.492188 355.089844 278.4375 C 356.410156 277.800781 357.789062 277.289062 359.164062 277.003906 L 354.6875 283.941406 C 349.925781 284.6875 345.160156 285.441406 340.398438 286.238281 C 340.226562 286.300781 340.054688 286.300781 339.882812 286.351562 Z M 360.027344 276.882812 C 361.230469 276.652344 362.378906 276.597656 363.585938 276.652344 C 370.703125 277.003906 373.167969 279.351562 373.972656 281.359375 C 369.554688 281.933594 365.132812 282.507812 360.714844 283.144531 L 360.542969 283.144531 C 358.878906 283.367188 357.214844 283.605469 355.492188 283.890625 Z M 374.660156 281.308594 C 373.511719 278.03125 369.78125 276.257812 363.585938 275.972656 C 362.320312 275.90625 361.058594 276.023438 359.796875 276.257812 L 359.683594 276.257812 C 358.074219 276.542969 356.410156 277.054688 354.917969 277.800781 C 353.714844 277.054688 351.304688 275.972656 348.261719 276.257812 C 347.285156 276.308594 346.425781 276.542969 345.679688 276.769531 L 345.621094 276.769531 C 343.785156 277.40625 342.464844 278.375 341.660156 279.0625 C 339.480469 278.492188 337.183594 278.265625 334.945312 278.265625 C 334.027344 278.265625 332.535156 278.265625 330.8125 278.492188 C 332.9375 276.429688 334.488281 274.070312 335.460938 271.550781 C 336.554688 268.683594 336.609375 266.265625 336.4375 264.027344 C 336.382812 263.28125 336.265625 262.535156 336.152344 261.796875 C 335.808594 259.265625 335.460938 256.628906 336.265625 253.351562 C 336.726562 251.464844 337.414062 250.082031 338.21875 248.996094 C 338.964844 247.957031 339.765625 247.210938 340.570312 246.351562 C 342.234375 244.742188 343.898438 243.144531 344.933594 239.636719 C 347.054688 232.289062 344.875 219.835938 336.554688 217.027344 C 335.460938 216.621094 334.257812 216.457031 333.109375 216.457031 C 333.625 214.097656 336.324219 202.160156 337.875 197.230469 C 339.59375 191.542969 338.160156 181.671875 330.871094 178.691406 C 330.011719 178.339844 329.09375 178.40625 328.230469 178.914062 C 322.03125 182.472656 317.382812 206.527344 316.925781 209.855469 C 316.523438 213.011719 315.777344 215.53125 314.570312 219.664062 C 313.996094 221.671875 313.25 224.253906 312.390625 227.410156 C 311.070312 232.289062 310.324219 234.757812 309.695312 236.945312 C 309.234375 238.601562 308.773438 240.039062 308.203125 242.160156 C 305.332031 252.664062 304.816406 266.035156 303.78125 292.613281 C 303.726562 293.648438 303.78125 294.847656 304.527344 295.25 L 304.585938 295.25 C 304.757812 295.304688 304.871094 295.371094 305.042969 295.371094 C 306.136719 295.371094 307.457031 293.933594 307.742188 293.648438 L 307.800781 293.585938 L 309.578125 289.683594 C 309.578125 290.140625 309.578125 290.605469 309.636719 291.117188 C 309.75 291.804688 309.980469 293.984375 311.585938 295.199219 C 311.933594 295.421875 312.277344 295.59375 312.734375 295.769531 C 312.734375 295.769531 312.792969 295.824219 312.851562 295.824219 L 312.90625 295.824219 C 313.425781 295.996094 313.941406 296.058594 314.570312 296.058594 C 316.351562 296.058594 318.417969 295.25 320.082031 293.527344 C 321.113281 294.386719 322.203125 294.847656 322.605469 295.019531 C 324.730469 296.34375 327.027344 297.207031 329.492188 297.429688 C 334.371094 298.003906 338.21875 296.167969 340.226562 294.960938 C 341.777344 296.230469 344.875 298.238281 349.066406 298.464844 L 349.8125 298.464844 C 351.53125 298.464844 354.746094 298.175781 357.617188 296.398438 C 357.671875 296.398438 357.730469 296.34375 357.730469 296.34375 C 358.535156 295.824219 359.28125 295.199219 359.96875 294.445312 C 360.714844 293.648438 361.289062 292.667969 361.75 291.640625 C 363.8125 292.5 366.109375 292.613281 368.175781 292.039062 C 369.210938 291.753906 370.242188 291.230469 371.160156 290.605469 C 374.203125 288.363281 375.75 284.34375 374.660156 281.308594 Z M 70.539062 295.082031 C 68.359375 276.542969 65.089844 257.945312 60.726562 239.75 C 56.363281 221.5 50.851562 203.371094 44.367188 185.75 C 44.3125 185.578125 44.136719 185.515625 43.964844 185.578125 C 43.792969 185.628906 43.738281 185.800781 43.792969 185.972656 C 50.277344 203.542969 55.789062 221.671875 60.152344 239.867188 C 64.515625 258.179688 67.84375 277.003906 70.023438 295.707031 C 69.449219 295.707031 68.472656 294.910156 67.902344 294.222656 L 64.972656 287.84375 C 64.742188 287.164062 64.457031 286.589844 64.226562 286.066406 C 64.113281 285.777344 63.996094 285.550781 63.882812 285.261719 C 62.792969 282.742188 63.25 281.019531 63.769531 278.605469 C 64.171875 276.941406 64.628906 274.933594 64.742188 272.125 C 64.859375 268.96875 64.398438 267.535156 63.480469 264.601562 C 62.679688 262.082031 61.472656 258.230469 60.039062 250.941406 C 59.464844 248.074219 59.003906 245.839844 58.488281 242.621094 C 57.683594 237.457031 57.511719 234.246094 57.398438 231.953125 C 57.222656 229.132812 57.164062 227.761719 56.132812 225.804688 C 53.78125 221.332031 48.15625 217.539062 42.644531 217.316406 C 42.242188 215.421875 39.433594 202.96875 37.824219 197.917969 C 36.101562 192.351562 37.824219 182.933594 44.425781 180.179688 C 45.113281 179.890625 45.800781 179.949219 46.492188 180.351562 C 52.34375 183.742188 57.050781 207.675781 57.457031 210.769531 C 57.914062 213.988281 58.601562 216.507812 59.867188 220.695312 C 60.441406 222.707031 61.1875 225.230469 62.046875 228.445312 C 63.367188 233.386719 64.113281 235.796875 64.742188 237.976562 C 65.203125 239.636719 65.664062 241.011719 66.234375 243.195312 C 69.046875 253.640625 69.621094 266.960938 70.65625 293.527344 C 70.65625 294.273438 70.597656 294.730469 70.539062 295.082031 Z M 64.742188 292.039062 C 64.6875 292.667969 64.398438 294.625 63.078125 295.65625 C 62.851562 295.824219 62.621094 295.941406 62.390625 296.058594 L 56.476562 275.570312 L 63.769531 268.273438 C 63.996094 269.421875 64.113281 270.570312 64.054688 272.175781 C 63.941406 274.875 63.539062 276.832031 63.136719 278.554688 C 62.5625 281.019531 62.105469 282.910156 63.25 285.613281 C 63.367188 285.835938 63.480469 286.125 63.597656 286.410156 C 64.226562 287.84375 65.089844 289.683594 64.742188 292.039062 Z M 55.558594 294.050781 C 56.191406 293.414062 56.707031 292.667969 56.992188 291.691406 C 57.914062 288.480469 55.558594 285.613281 54.699219 284.515625 C 52.171875 281.476562 48.554688 280.210938 45.398438 279.636719 C 42.988281 277.457031 41.269531 274.996094 40.234375 272.292969 C 39.257812 269.710938 39.085938 267.535156 39.257812 265.460938 L 54.871094 272.292969 L 61.816406 296.230469 C 59.921875 296.683594 57.457031 296.109375 55.558594 294.050781 Z M 52.171875 295.421875 C 50.164062 296.683594 47.925781 297.492188 45.574219 297.78125 C 42.589844 298.117188 39.949219 297.542969 37.9375 296.742188 L 44.078125 289.507812 C 48.097656 290.253906 52.171875 291 56.132812 291.863281 C 55.328125 294.050781 52.976562 295.132812 52.171875 295.421875 Z M 35.070312 295.304688 C 34.957031 295.25 34.78125 295.25 34.667969 295.304688 C 33.234375 296.515625 30.191406 298.578125 26 298.8125 C 24.796875 298.863281 21.238281 298.863281 18.140625 297.027344 L 28.757812 286.8125 C 30.710938 287.097656 32.601562 287.449219 34.496094 287.789062 C 37.421875 288.308594 40.40625 288.820312 43.335938 289.34375 L 37.363281 296.515625 C 36.449219 296.109375 35.644531 295.65625 35.070312 295.304688 Z M 15.671875 295.019531 C 14.925781 294.160156 14.292969 293.1875 13.835938 292.09375 C 13.777344 292.039062 13.71875 291.925781 13.664062 291.925781 L 13.546875 291.925781 C 13.492188 291.925781 13.433594 291.925781 13.433594 291.976562 C 11.597656 292.839844 9.53125 293.011719 7.636719 292.613281 L 14.523438 284.75 C 19 285.378906 23.535156 286.066406 28.011719 286.8125 L 17.625 296.804688 C 16.933594 296.230469 16.246094 295.65625 15.671875 295.019531 Z M 6.949219 292.328125 C 6.03125 292.039062 5.167969 291.574219 4.363281 291 C 1.609375 288.992188 0.234375 285.550781 0.921875 282.792969 C 5.226562 283.316406 9.472656 283.890625 13.777344 284.515625 Z M 11.484375 277.515625 C 12.632812 277.457031 13.835938 277.578125 15.039062 277.746094 L 19.519531 284.75 C 17.851562 284.515625 16.1875 284.230469 14.46875 284.003906 L 14.292969 284.003906 C 9.875 283.367188 5.457031 282.792969 1.035156 282.222656 C 1.898438 280.210938 4.363281 277.863281 11.484375 277.515625 Z M 20.035156 279.351562 C 20.148438 279.414062 20.261719 279.414062 20.320312 279.351562 C 21.410156 278.664062 23.707031 277.578125 26.746094 277.800781 C 27.609375 277.863281 28.414062 278.03125 29.15625 278.316406 L 35.242188 287.269531 C 35.070312 287.214844 34.898438 287.214844 34.726562 287.164062 C 30.019531 286.351562 25.199219 285.613281 20.433594 284.867188 L 15.957031 277.917969 C 17.335938 278.265625 18.710938 278.726562 20.035156 279.351562 Z M 46.546875 280.5 C 49.246094 281.136719 52.113281 282.394531 54.179688 284.867188 C 54.984375 285.835938 57.050781 288.417969 56.417969 291.179688 C 55.328125 290.945312 54.296875 290.777344 53.207031 290.542969 Z M 33.0625 280.613281 C 33.121094 280.671875 33.234375 280.734375 33.347656 280.671875 C 35.527344 280.097656 37.824219 279.808594 40.0625 279.875 C 41.269531 279.875 43.335938 279.925781 45.632812 280.328125 L 52.285156 290.371094 C 49.589844 289.855469 46.835938 289.34375 44.136719 288.820312 L 44.078125 288.820312 C 41.382812 288.308594 38.746094 287.84375 36.101562 287.386719 L 30.191406 278.664062 C 31.511719 279.300781 32.488281 280.097656 33.0625 280.613281 Z M 37.710938 250.082031 L 48.730469 251.113281 L 54.582031 271.488281 L 39.257812 264.78125 C 39.316406 264.140625 39.433594 263.453125 39.488281 262.824219 C 39.832031 260.238281 40.179688 257.542969 39.316406 254.160156 C 38.972656 252.441406 38.398438 251.175781 37.710938 250.082031 Z M 59.867188 253.761719 C 61.128906 259.378906 62.105469 262.65625 62.792969 264.886719 C 63.136719 265.925781 63.367188 266.789062 63.597656 267.535156 L 56.25 274.875 L 52.285156 261.222656 Z M 52.113281 260.527344 L 44.882812 235.507812 L 54.871094 225.179688 C 55.101562 225.515625 55.269531 225.863281 55.503906 226.210938 C 56.417969 227.984375 56.535156 229.367188 56.648438 232.066406 C 56.765625 234.414062 56.9375 237.570312 57.742188 242.792969 C 58.257812 246.011719 58.71875 248.308594 59.292969 251.113281 C 59.40625 251.75 59.578125 252.378906 59.695312 252.949219 Z M 34.898438 246.808594 C 33.234375 245.203125 31.683594 243.714844 30.710938 240.386719 C 28.355469 232.351562 31.285156 221.046875 38.628906 218.515625 C 39.777344 218.113281 40.980469 217.941406 42.1875 218.003906 L 42.359375 218.003906 C 47.007812 218.113281 51.828125 220.984375 54.46875 224.605469 L 44.652344 234.757812 L 42.015625 225.691406 C 41.957031 225.515625 41.785156 225.402344 41.613281 225.464844 C 41.441406 225.515625 41.328125 225.691406 41.382812 225.863281 L 48.5 250.367188 L 37.191406 249.335938 C 36.503906 248.421875 35.703125 247.613281 34.898438 246.808594 Z M 66.808594 243.144531 C 66.234375 240.960938 65.777344 239.527344 65.316406 237.914062 C 64.6875 235.734375 63.941406 233.324219 62.621094 228.386719 C 61.757812 225.179688 61.011719 222.648438 60.441406 220.640625 C 59.234375 216.507812 58.488281 213.988281 58.085938 210.832031 C 57.628906 207.558594 52.976562 183.507812 46.777344 179.890625 C 45.917969 179.375 45 179.316406 44.136719 179.660156 C 36.851562 182.644531 35.414062 192.515625 37.136719 198.203125 C 38.628906 203.132812 41.382812 215.070312 41.902344 217.429688 C 40.753906 217.429688 39.546875 217.601562 38.457031 218.003906 C 30.136719 220.8125 27.953125 233.265625 30.078125 240.613281 C 31.109375 244.117188 32.773438 245.726562 34.441406 247.328125 C 35.300781 248.136719 36.101562 248.933594 36.792969 249.964844 C 37.597656 251.058594 38.226562 252.441406 38.746094 254.335938 C 39.546875 257.605469 39.203125 260.238281 38.859375 262.769531 C 38.746094 263.515625 38.6875 264.257812 38.570312 265.003906 C 38.339844 267.246094 38.398438 269.65625 39.546875 272.527344 C 40.523438 275.046875 42.070312 277.40625 44.195312 279.464844 C 42.476562 279.238281 41.039062 279.238281 40.0625 279.238281 C 37.824219 279.238281 35.527344 279.464844 33.347656 280.039062 C 32.546875 279.351562 31.226562 278.375 29.390625 277.746094 L 29.332031 277.746094 C 28.527344 277.457031 27.722656 277.289062 26.746094 277.226562 C 23.707031 277.003906 21.296875 278.03125 20.09375 278.777344 C 18.539062 278.03125 16.933594 277.515625 15.269531 277.226562 L 15.214844 277.226562 C 13.949219 277.003906 12.6875 276.882812 11.425781 276.941406 C 5.226562 277.226562 1.496094 279.011719 0.347656 282.285156 C -0.742188 285.324219 0.808594 289.34375 3.90625 291.640625 C 4.824219 292.328125 5.800781 292.785156 6.890625 293.074219 C 8.957031 293.648438 11.25 293.527344 13.320312 292.667969 C 13.777344 293.699219 14.410156 294.625 15.097656 295.484375 C 15.789062 296.28125 16.53125 296.855469 17.335938 297.378906 C 17.394531 297.429688 17.394531 297.429688 17.449219 297.429688 C 20.320312 299.214844 23.535156 299.5 25.257812 299.5 L 26 299.5 C 30.191406 299.265625 33.292969 297.257812 34.839844 295.996094 C 35.472656 296.398438 36.277344 296.804688 37.25 297.207031 C 39.375 298.066406 42.242188 298.8125 45.574219 298.40625 C 47.984375 298.117188 50.335938 297.316406 52.34375 295.996094 C 52.804688 295.824219 53.894531 295.371094 54.929688 294.445312 C 56.589844 296.230469 58.601562 297.027344 60.382812 297.027344 C 61.011719 297.027344 61.585938 296.917969 62.105469 296.742188 C 62.5625 296.570312 62.964844 296.398438 63.308594 296.109375 C 64.859375 294.960938 65.144531 292.785156 65.261719 292.039062 C 65.316406 291.519531 65.316406 291.066406 65.316406 290.605469 L 67.097656 294.507812 L 67.15625 294.558594 C 67.441406 294.910156 68.761719 296.28125 69.851562 296.28125 C 70.023438 296.28125 70.195312 296.230469 70.3125 296.167969 L 70.367188 296.167969 C 71.113281 295.769531 71.171875 294.558594 71.113281 293.527344 C 70.195312 267.011719 69.679688 253.695312 66.808594 243.140625 "/></g><path style=" stroke:none;fill-rule:nonzero;fill:#ffffff;fill-opacity:1;" d="M 89.539062 138.167969 L 61.585938 138.167969 L 61.585938 297.257812 L 75.476562 297.257812 L 60.667969 310.917969 L 64.226562 315.105469 L 80.066406 303.457031 C 81.214844 301.394531 82.363281 299.324219 83.453125 297.257812 L 84.085938 297.257812 L 83.453125 322.109375 L 89.480469 322.109375 L 95.21875 297.257812 L 276.292969 297.257812 L 283.179688 326.933594 L 289.203125 326.933594 L 288.515625 300.820312 C 289.894531 303.285156 291.269531 305.816406 292.589844 308.28125 L 308.429688 319.925781 L 311.988281 315.742188 L 295.917969 300.875 C 295.976562 299.675781 296.035156 298.527344 296.089844 297.316406 L 309.347656 297.316406 L 309.347656 138.167969 L 89.539062 138.167969 "/><path style=" stroke:none;fill-rule:nonzero;fill:#611f69;fill-opacity:1;" d="M 122.59375 304.550781 L 122.59375 289.796875 L 213.792969 289.796875 L 213.792969 314.53125 L 213.847656 314.53125 L 198.179688 314.53125 L 198.179688 329.28125 L 122.421875 329.28125 M 122.480469 329.28125 L 106.925781 329.28125 L 106.925781 304.550781 L 122.59375 304.550781 "/><path style=" stroke:none;fill-rule:nonzero;fill:#611f69;fill-opacity:1;" d="M 80.757812 240.613281 L 152.324219 240.613281 L 152.324219 245.949219 L 80.757812 245.949219 Z M 141.304688 183.167969 L 111.117188 183.167969 L 111.117188 179.152344 L 141.304688 179.152344 Z M 154.675781 176.792969 L 111.117188 176.792969 L 111.117188 172.773438 L 154.675781 172.773438 Z M 119.957031 275.332031 C 119.957031 277.746094 117.945312 279.753906 115.535156 279.753906 L 94.589844 279.753906 C 94.589844 278.949219 94.53125 278.152344 94.359375 277.34375 C 94.070312 276.308594 93.785156 275.332031 93.496094 274.359375 C 93.269531 273.273438 93.152344 272.175781 93.152344 271.03125 L 93.152344 270.914062 L 115.59375 270.914062 C 117.945312 270.914062 119.957031 272.921875 119.957031 275.332031 Z M 155.023438 279.808594 L 128.621094 279.808594 C 126.441406 279.808594 124.71875 278.03125 124.71875 275.90625 L 124.71875 274.875 C 124.71875 272.699219 126.496094 270.976562 128.621094 270.976562 L 155.023438 270.976562 C 157.203125 270.976562 158.925781 272.75 158.925781 274.875 L 158.925781 275.90625 C 158.980469 278.03125 157.203125 279.808594 155.023438 279.808594 Z M 80.757812 221.960938 L 159.382812 221.960938 L 159.382812 234.820312 L 80.757812 234.820312 Z M 237.496094 249.679688 L 205.984375 226.835938 L 178.207031 263.453125 L 167.707031 193.722656 L 299.191406 174.152344 L 309.292969 228.507812 L 272.675781 202.332031 Z M 303.609375 169.445312 L 164.03125 189.882812 L 175.914062 271.09375 L 315.488281 250.65625 L 303.609375 169.445312 "/><path style=" stroke:none;fill-rule:nonzero;fill:#611f69;fill-opacity:1;" d="M 298.328125 152.6875 L 288.402344 152.6875 C 287.882812 152.6875 287.484375 152.289062 287.484375 151.769531 C 287.484375 151.253906 287.882812 150.855469 288.402344 150.855469 L 298.328125 150.855469 C 298.847656 150.855469 299.25 151.253906 299.25 151.769531 C 299.25 152.289062 298.847656 152.6875 298.328125 152.6875 Z M 298.328125 155.90625 L 288.402344 155.90625 C 287.882812 155.90625 287.484375 155.5 287.484375 154.984375 C 287.484375 154.472656 287.882812 154.0625 288.402344 154.0625 L 298.328125 154.0625 C 298.847656 154.0625 299.25 154.472656 299.25 154.984375 C 299.25 155.5 298.847656 155.90625 298.328125 155.90625 Z M 298.328125 159.0625 L 288.402344 159.0625 C 287.882812 159.0625 287.484375 158.65625 287.484375 158.140625 C 287.484375 157.628906 287.882812 157.222656 288.402344 157.222656 L 298.328125 157.222656 C 298.847656 157.222656 299.25 157.628906 299.25 158.140625 C 299.25 158.65625 298.847656 159.0625 298.328125 159.0625 Z M 281.6875 155.957031 C 281.6875 157.851562 280.136719 159.402344 278.242188 159.402344 L 94.761719 159.402344 C 92.867188 159.402344 91.316406 157.851562 91.316406 155.957031 L 91.316406 152.75 C 91.316406 150.855469 92.867188 149.304688 94.761719 149.304688 L 278.300781 149.304688 C 280.195312 149.304688 281.742188 150.855469 281.742188 152.75 Z M 61.585938 146.777344 L 61.585938 162.621094 L 309.347656 162.621094 L 309.347656 146.777344 L 61.585938 146.777344 "/><path style=" stroke:none;fill-rule:nonzero;fill:#611f69;fill-opacity:1;" d="M 98.664062 253.300781 L 118.289062 256.222656 L 118.289062 253.8125 L 104.058594 248.710938 L 92.351562 237.691406 L 76.910156 235.273438 C 75.535156 235.273438 71.285156 235.042969 67.328125 231.886719 C 62.21875 227.761719 61.703125 221.84375 61.644531 220.875 L 59.75 220.875 C 59.464844 222.992188 59.175781 227.410156 61.128906 232.40625 C 62.679688 236.421875 65.03125 239.0625 66.523438 240.496094 Z M 274.109375 258.117188 L 254.480469 261.050781 L 254.480469 258.636719 L 268.714844 253.523438 L 280.421875 242.503906 L 295.863281 240.101562 C 297.238281 240.101562 301.488281 239.867188 305.445312 236.707031 C 310.554688 232.578125 311.070312 226.664062 311.128906 225.691406 L 313.136719 225.691406 C 313.425781 227.8125 313.710938 232.238281 311.757812 237.230469 C 310.210938 241.25 307.855469 243.882812 306.363281 245.316406 L 274.109375 258.117188 "/><path style=" stroke:none;fill-rule:nonzero;fill:#ffffff;fill-opacity:1;" d="M 117.890625 256.054688 C 118.863281 256.28125 120.300781 256.566406 122.019531 256.679688 C 124.316406 256.855469 126.957031 256.746094 127.015625 256.457031 C 127.015625 256.28125 125.980469 255.933594 120.929688 255.308594 C 122.019531 254.558594 122.539062 253.984375 122.421875 253.695312 C 122.25 253.238281 120.757812 253.238281 117.890625 253.695312 Z M 61.300781 220.695312 C 61.988281 217.316406 62.21875 215.53125 61.816406 215.421875 C 61.644531 215.359375 61.359375 215.644531 60.957031 216.335938 C 60.957031 213.585938 60.785156 212.949219 60.554688 212.890625 C 60.210938 212.839844 59.695312 214.5625 59.464844 215.710938 C 59.003906 217.769531 59.121094 219.492188 59.292969 220.695312 Z M 87.125 225.753906 C 87.125 227.410156 89.421875 228.507812 91.660156 229.707031 C 92.636719 226.953125 91.03125 222.074219 91.03125 222.074219 C 89.136719 222.882812 87.125 224.203125 87.125 225.753906 Z M 254.882812 258.464844 C 252.070312 258 250.523438 258 250.351562 258.464844 C 250.234375 258.804688 250.75 259.328125 251.84375 260.074219 C 246.847656 260.699219 245.757812 261.050781 245.757812 261.222656 C 245.757812 261.507812 248.457031 261.621094 250.75 261.445312 C 252.472656 261.335938 253.910156 261.050781 254.882812 260.8125 Z M 313.480469 225.515625 C 313.652344 224.316406 313.710938 222.597656 313.308594 220.523438 C 313.078125 219.375 312.5625 217.65625 312.21875 217.71875 C 312.046875 217.71875 311.816406 218.34375 311.816406 221.160156 C 311.414062 220.472656 311.128906 220.1875 310.957031 220.238281 C 310.613281 220.351562 310.785156 222.132812 311.472656 225.515625 Z M 145.953125 104.253906 C 147.273438 102.296875 147.847656 101.210938 147.617188 101.035156 C 147.503906 100.921875 147.160156 101.09375 146.640625 101.5 C 147.101562 99.316406 147.101562 98.167969 146.816406 98.050781 C 146.355469 97.878906 145.265625 99.488281 143.542969 102.820312 Z M 155.539062 93.863281 C 159.269531 92.65625 161.046875 91.679688 160.992188 91.050781 C 160.933594 90.648438 160.1875 90.417969 158.695312 90.246094 C 161.738281 88.640625 162.3125 88.066406 162.253906 87.835938 C 162.082031 87.492188 159.613281 87.894531 157.546875 89.042969 C 155.996094 89.902344 154.90625 90.992188 154.277344 91.796875 Z M 152.09375 132.664062 L 163.230469 137.878906 C 164.605469 137.082031 165.925781 136.273438 167.304688 135.410156 C 165.8125 133.925781 163.574219 131.800781 160.644531 129.441406 C 156.054688 125.828125 153.757812 123.992188 150.832031 123.359375 C 144.75 122.097656 139.007812 126.515625 136.828125 128.410156 L 117.144531 139.488281 L 134.648438 157.054688 L 152.726562 170.304688 L 155.539062 166.925781 L 144.347656 152.226562 L 134.304688 136.15625 L 136.484375 139.664062 C 141.59375 137.367188 146.988281 134.957031 152.09375 132.664062 Z M 281.742188 226.835938 C 281.742188 226.835938 280.136719 231.777344 281.113281 234.472656 C 283.351562 233.265625 285.644531 232.175781 285.644531 230.515625 C 285.644531 229.019531 283.636719 227.699219 281.742188 226.835938 Z M 116.398438 88.121094 C 115.652344 89.269531 114.789062 90.015625 114.160156 90.53125 C 113.066406 90.359375 112.035156 90.933594 111.691406 91.851562 C 111.289062 92.941406 111.863281 94.320312 113.125 94.777344 C 113.125 95.066406 113.242188 96.15625 112.4375 97.128906 C 111.863281 97.820312 111.175781 98.105469 110.886719 98.222656 C 111.175781 99.253906 111.519531 100.289062 111.804688 101.320312 C 112.378906 101.496094 113.640625 101.835938 115.25 101.496094 C 116.511719 101.207031 117.429688 100.632812 117.890625 100.230469 L 117.890625 96.671875 C 118.464844 96.328125 119.265625 95.695312 119.898438 94.664062 C 121.390625 92.253906 120.703125 89.441406 120.183594 87.375 C 119.898438 86.113281 119.265625 84.21875 117.832031 82.09375 C 117.945312 83.011719 118.003906 85.597656 116.398438 88.121094 Z M 288.515625 297.316406 L 289.03125 297.316406 L 288.574219 300.875 Z M 288.515625 297.316406 "/><g clip-rule="nonzero" clip-path="url(#9c418dd206)"><path style=" stroke:none;fill-rule:nonzero;fill:#0f0e0c;fill-opacity:1;" d="M 151.980469 171.976562 L 109.109375 171.976562 L 109.109375 175.355469 L 151.980469 175.355469 Z M 152.613281 175.992188 L 108.417969 175.992188 L 108.417969 171.28125 L 152.613281 171.28125 Z M 315.144531 250.367188 L 312.964844 235.617188 C 312.792969 236.191406 312.621094 236.765625 312.390625 237.339844 C 311.1875 240.386719 309.292969 243.257812 306.9375 245.554688 C 307.28125 245.839844 307.570312 246.179688 307.855469 246.585938 C 308.773438 247.847656 309.347656 249.507812 309.464844 251.230469 Z M 309.003906 254.269531 C 306.882812 260.011719 297.871094 260.476562 297.582031 265.003906 C 297.296875 268.847656 303.324219 270.339844 302.863281 274.015625 C 302.632812 275.734375 301.085938 277.40625 299.074219 278.605469 C 299.074219 278.664062 299.132812 278.664062 299.132812 278.726562 C 299.191406 279.636719 299.191406 280.5625 299.019531 281.421875 C 298.730469 283.367188 298.042969 285.261719 296.894531 286.984375 L 296.4375 296.972656 L 309.003906 296.972656 Z M 295.746094 301.109375 C 295.691406 301.046875 295.632812 300.9375 295.632812 300.875 L 296.320312 286.925781 C 296.320312 286.875 296.320312 286.8125 296.378906 286.761719 C 297.46875 285.089844 298.214844 283.316406 298.445312 281.421875 C 298.558594 280.613281 298.558594 279.808594 298.558594 279.011719 C 296.378906 280.160156 293.738281 280.671875 291.671875 280.097656 C 291.960938 280.957031 292.1875 282.167969 291.902344 283.65625 C 291.613281 285.089844 290.925781 286.125 290.351562 286.761719 L 288.804688 296.855469 L 288.917969 300.820312 L 292.933594 308.164062 L 308.488281 319.589844 L 311.644531 315.859375 Z M 283.523438 326.648438 L 288.917969 326.648438 L 288.171875 296.742188 L 289.722656 286.523438 C 289.722656 286.472656 289.777344 286.410156 289.777344 286.351562 C 290.296875 285.777344 290.925781 284.804688 291.214844 283.484375 C 291.5 282.046875 291.214844 280.847656 290.925781 280.097656 C 290.867188 280.039062 290.925781 279.925781 290.925781 279.875 C 290.8125 279.808594 290.695312 279.753906 290.582031 279.703125 C 287.65625 278.152344 288.976562 274.761719 285.761719 270.339844 C 284.554688 268.683594 283.179688 267.535156 281.800781 266.671875 L 276.347656 295.878906 Z M 255.226562 260.648438 L 274.511719 257.777344 C 274.628906 257.777344 274.742188 257.777344 274.800781 257.890625 C 278.242188 254.558594 285.53125 251.34375 285.074219 247.097656 C 284.84375 245.089844 283.007812 243.832031 281.167969 242.621094 C 281.167969 242.621094 281.167969 242.683594 281.113281 242.683594 L 269.402344 253.695312 C 269.347656 253.761719 269.347656 253.761719 269.289062 253.761719 L 255.285156 258.804688 L 255.285156 260.648438 Z M 254.539062 260.761719 L 254.539062 258.863281 C 251.097656 258.289062 250.695312 258.691406 250.636719 258.691406 C 250.636719 258.691406 250.695312 259.039062 252.015625 259.953125 C 252.128906 260.011719 252.1875 260.1875 252.128906 260.296875 C 252.070312 260.410156 252.015625 260.527344 251.84375 260.527344 C 249.144531 260.871094 247.652344 261.15625 246.847656 261.273438 C 247.765625 261.335938 249.203125 261.335938 250.695312 261.273438 C 252.015625 261.273438 253.335938 261.050781 254.539062 260.761719 Z M 281.972656 227.296875 C 281.628906 228.386719 280.769531 231.832031 281.34375 234.011719 L 281.515625 233.960938 C 283.523438 232.925781 285.417969 231.886719 285.417969 230.566406 C 285.359375 229.535156 284.152344 228.386719 281.972656 227.296875 Z M 176.199219 270.691406 L 245.703125 260.527344 C 245.875 260.527344 246.046875 260.648438 246.046875 260.8125 L 246.046875 260.933594 C 246.675781 260.699219 248.054688 260.476562 251.039062 260.074219 C 250.234375 259.4375 249.949219 258.976562 250.121094 258.519531 C 250.292969 258 251.039062 257.65625 254.882812 258.289062 L 268.945312 253.1875 L 280.539062 242.28125 C 278.703125 241.132812 277.09375 239.984375 277.210938 238.378906 C 277.324219 236.828125 279.046875 235.683594 280.941406 234.699219 C 280.882812 234.648438 280.824219 234.648438 280.824219 234.535156 C 279.851562 231.714844 281.34375 226.953125 281.457031 226.664062 C 281.34375 226.613281 281.226562 226.550781 281.113281 226.5 C 281.398438 225.179688 281.742188 223.796875 282.03125 222.480469 C 290.007812 221.621094 293.394531 223.394531 294.945312 225.402344 C 298.042969 229.484375 294.3125 235.394531 296.089844 239.699219 L 296.207031 239.699219 C 298.214844 239.699219 302.058594 239.238281 305.5625 236.371094 C 310.265625 232.578125 311.011719 227.238281 311.128906 225.574219 C 310.210938 221.214844 310.324219 220.300781 310.667969 220.011719 L 306.136719 189.074219 L 291.328125 171.453125 L 173.101562 188.734375 L 167.589844 209.503906 C 167.535156 209.683594 167.417969 209.734375 167.304688 209.734375 L 167.246094 209.734375 Z M 167.132812 208.929688 L 172.410156 188.957031 L 164.375 190.105469 Z M 173.328125 188.210938 L 290.925781 170.996094 L 290.296875 170.253906 L 245.816406 138.515625 L 231.179688 138.515625 L 173.675781 186.898438 Z M 231.925781 137.878906 L 244.839844 137.878906 L 239.503906 134.097656 C 238.699219 134.035156 238.011719 133.746094 237.320312 133.351562 Z M 303.378906 169.847656 L 292.1875 171.515625 L 306.078125 188.046875 Z M 246.90625 138.515625 L 290.695312 169.730469 L 290.753906 169.796875 L 291.671875 170.878906 L 303.609375 169.160156 C 303.667969 169.160156 303.78125 169.160156 303.839844 169.222656 C 303.898438 169.273438 303.953125 169.332031 303.953125 169.445312 L 306.824219 188.957031 L 308.488281 190.96875 C 308.601562 191.082031 308.601562 191.316406 308.429688 191.425781 C 308.316406 191.542969 308.085938 191.542969 307.972656 191.371094 L 306.996094 190.167969 L 309.0625 204.230469 L 309.0625 138.515625 Z M 311.070312 220.8125 C 311.070312 221.214844 311.128906 222.359375 311.703125 225.289062 L 313.136719 225.289062 C 313.308594 223.742188 313.25 222.195312 312.90625 220.695312 C 312.679688 219.726562 312.390625 218.867188 312.21875 218.402344 C 312.160156 218.75 312.046875 219.546875 312.105469 221.269531 C 312.105469 221.449219 311.988281 221.558594 311.875 221.558594 C 311.757812 221.621094 311.585938 221.558594 311.53125 221.386719 C 311.359375 221.160156 311.1875 220.925781 311.070312 220.8125 Z M 306.480469 245.089844 C 308.773438 242.855469 310.613281 240.101562 311.757812 237.117188 C 312.160156 236.019531 312.503906 234.988281 312.734375 233.960938 L 312.734375 233.898438 C 313.480469 230.804688 313.425781 227.984375 313.195312 225.976562 L 311.816406 225.976562 C 311.644531 227.933594 310.726562 233.214844 306.019531 236.945312 C 302.460938 239.8125 298.558594 240.324219 296.4375 240.386719 C 296.609375 240.726562 296.835938 241.070312 297.125 241.359375 C 299.707031 244.226562 303.550781 243.023438 306.480469 245.089844 C 306.421875 245.089844 306.480469 245.089844 306.480469 245.089844 Z M 210.921875 293.238281 L 120.355469 293.238281 L 120.355469 302.308594 L 196.171875 302.308594 C 196.34375 302.308594 196.515625 302.480469 196.515625 302.660156 L 196.515625 317.34375 L 210.921875 317.34375 Z M 195.886719 302.996094 L 105.320312 302.996094 L 105.320312 327.101562 L 195.886719 327.101562 Z M 96.425781 291.066406 L 90.972656 261.847656 C 89.59375 262.707031 88.21875 263.855469 87.011719 265.527344 C 83.796875 269.945312 85.117188 273.273438 82.191406 274.875 C 82.078125 274.933594 81.960938 274.996094 81.847656 275.046875 C 81.847656 275.109375 81.902344 275.21875 81.847656 275.28125 C 81.558594 276.023438 81.273438 277.226562 81.558594 278.664062 C 81.847656 280.039062 82.476562 280.957031 82.996094 281.53125 C 83.050781 281.59375 83.050781 281.648438 83.050781 281.710938 L 84.601562 291.925781 L 84.488281 296.109375 L 84.488281 296.167969 L 83.855469 321.820312 L 89.25 321.820312 Z M 83.855469 295.945312 L 83.96875 291.925781 L 82.421875 281.882812 C 81.847656 281.246094 81.15625 280.210938 80.871094 278.777344 C 80.585938 277.34375 80.8125 276.078125 81.101562 275.21875 C 79.035156 275.792969 76.394531 275.28125 74.214844 274.132812 C 74.15625 274.933594 74.214844 275.734375 74.328125 276.542969 C 74.617188 278.4375 75.304688 280.210938 76.394531 281.882812 C 76.453125 281.933594 76.453125 281.996094 76.453125 282.046875 L 77.140625 295.996094 C 77.140625 296.109375 77.082031 296.167969 77.027344 296.230469 L 61.070312 310.917969 L 64.226562 314.648438 L 79.78125 303.230469 Z M 75.363281 296.96875 L 76.507812 295.878906 L 75.878906 282.167969 C 74.730469 280.449219 74.042969 278.605469 73.753906 276.597656 C 73.640625 275.734375 73.582031 274.824219 73.640625 273.898438 C 73.640625 273.847656 73.640625 273.785156 73.695312 273.785156 C 71.6875 272.578125 70.140625 270.914062 69.910156 269.191406 C 69.449219 265.527344 75.476562 264.027344 75.1875 260.1875 C 74.84375 255.480469 65.144531 255.132812 63.539062 248.648438 C 62.964844 246.234375 63.597656 243.542969 64.917969 241.707031 C 65.203125 241.300781 65.546875 240.960938 65.835938 240.675781 C 64.34375 239.175781 63.023438 237.457031 61.933594 235.617188 L 61.933594 296.917969 L 75.363281 296.917969 Z M 61.011719 232.289062 C 62.160156 235.273438 63.996094 238.027344 66.292969 240.273438 L 66.292969 240.324219 C 69.21875 238.265625 73.066406 239.414062 75.589844 236.59375 C 75.878906 236.308594 76.109375 235.96875 76.28125 235.617188 C 74.15625 235.5625 70.253906 235.042969 66.695312 232.175781 C 62.046875 228.445312 61.128906 223.171875 60.898438 221.214844 L 59.519531 221.214844 C 59.292969 223.851562 59.292969 227.871094 61.011719 232.289062 Z M 59.578125 220.523438 L 61.011719 220.523438 C 61.644531 217.539062 61.703125 216.457031 61.644531 216.046875 C 61.53125 216.167969 61.414062 216.335938 61.242188 216.679688 C 61.1875 216.792969 61.011719 216.855469 60.898438 216.855469 C 60.785156 216.792969 60.667969 216.679688 60.667969 216.570312 C 60.667969 214.898438 60.613281 214.097656 60.554688 213.699219 C 60.324219 214.160156 60.039062 215.019531 59.867188 215.996094 C 59.519531 217.429688 59.40625 218.976562 59.578125 220.523438 Z M 61.300781 215.308594 L 61.300781 215.472656 L 61.359375 215.421875 C 61.300781 215.421875 61.300781 215.359375 61.300781 215.308594 Z M 90.800781 222.480469 C 88.5625 223.566406 87.414062 224.714844 87.414062 225.753906 C 87.414062 227.074219 89.308594 228.101562 91.316406 229.132812 L 91.488281 229.195312 C 92.003906 227.007812 91.144531 223.566406 90.800781 222.480469 Z M 91.71875 237.855469 C 89.882812 239.0625 88.046875 240.324219 87.816406 242.332031 C 87.355469 246.523438 94.644531 249.742188 98.089844 253.125 C 98.144531 253.066406 98.261719 253.015625 98.375 253.015625 L 117.660156 255.882812 L 117.660156 254.097656 L 103.65625 249.046875 C 103.597656 249.046875 103.597656 248.996094 103.542969 248.996094 L 91.832031 237.976562 C 91.71875 237.914062 91.71875 237.855469 91.71875 237.855469 Z M 118.234375 254.097656 L 118.234375 255.992188 C 119.496094 256.28125 120.757812 256.457031 122.078125 256.566406 C 123.570312 256.679688 125.003906 256.679688 125.925781 256.566406 C 125.121094 256.394531 123.6875 256.171875 120.929688 255.820312 C 120.816406 255.820312 120.703125 255.707031 120.644531 255.597656 C 120.585938 255.480469 120.644531 255.308594 120.757812 255.246094 C 122.078125 254.335938 122.136719 253.984375 122.136719 253.984375 C 122.078125 253.875 121.675781 253.523438 118.234375 254.097656 Z M 93.957031 274.421875 L 95.507812 282.621094 L 112.148438 282.621094 C 114.386719 282.621094 116.28125 280.785156 116.28125 278.492188 C 116.28125 276.195312 114.445312 274.359375 112.148438 274.359375 L 93.957031 274.359375 Z M 163.457031 137.878906 Z M 140.617188 137.878906 L 163.058594 137.878906 L 152.09375 132.714844 Z M 240.25 51.332031 C 240.25 47.660156 237.265625 44.675781 233.589844 44.675781 C 232.273438 44.675781 230.953125 45.078125 229.859375 45.824219 C 228.023438 47.085938 226.933594 49.09375 226.933594 51.332031 C 226.933594 55.007812 229.917969 57.992188 233.589844 57.992188 C 237.265625 57.992188 240.25 55.007812 240.25 51.332031 Z M 315.835938 250.605469 C 315.835938 250.769531 315.71875 250.941406 315.546875 250.941406 L 309.695312 251.804688 L 309.695312 297.257812 C 309.695312 297.429688 309.519531 297.601562 309.347656 297.601562 L 296.4375 297.601562 L 296.265625 300.699219 L 312.332031 315.507812 C 312.449219 315.625 312.449219 315.859375 312.332031 315.96875 L 312.277344 316.03125 L 314.398438 318.550781 C 310.09375 325.4375 307.570312 328.707031 306.765625 328.371094 C 306.136719 328.082031 306.652344 325.378906 308.375 320.273438 C 308.316406 320.273438 308.316406 320.273438 308.257812 320.214844 L 292.417969 308.570312 C 292.359375 308.570312 292.359375 308.507812 292.304688 308.449219 L 288.859375 302.136719 L 289.492188 326.933594 C 289.492188 327.050781 289.433594 327.101562 289.375 327.160156 C 289.320312 327.222656 289.203125 327.273438 289.148438 327.273438 L 289.089844 327.273438 L 288.457031 330.378906 C 278.988281 331.117188 274.167969 331.117188 274.054688 330.378906 C 273.9375 329.742188 276.863281 328.65625 282.835938 327.050781 L 276.117188 297.601562 L 211.609375 297.601562 L 211.609375 317.632812 C 211.609375 317.804688 211.4375 317.976562 211.265625 317.976562 L 196.515625 317.976562 L 196.515625 327.386719 C 196.515625 327.5625 196.34375 327.734375 196.171875 327.734375 L 104.976562 327.734375 C 104.804688 327.734375 104.632812 327.5625 104.632812 327.386719 L 104.632812 302.660156 C 104.632812 302.480469 104.804688 302.308594 104.976562 302.308594 L 119.726562 302.308594 L 119.726562 297.601562 L 95.5625 297.601562 L 89.882812 322.222656 C 95.792969 323.832031 98.71875 324.925781 98.664062 325.550781 C 98.546875 326.296875 93.726562 326.296875 84.257812 325.550781 L 83.625 322.457031 L 83.570312 322.457031 C 83.453125 322.457031 83.394531 322.394531 83.339844 322.34375 C 83.28125 322.28125 83.222656 322.171875 83.222656 322.109375 L 83.855469 297.316406 L 80.410156 303.628906 C 80.410156 303.691406 80.355469 303.691406 80.296875 303.742188 L 64.457031 315.394531 C 64.457031 315.394531 64.398438 315.394531 64.34375 315.457031 C 66.0625 320.558594 66.582031 323.257812 65.949219 323.542969 C 65.203125 323.945312 62.621094 320.671875 58.316406 313.734375 L 60.441406 311.203125 L 60.382812 311.152344 C 60.265625 311.03125 60.265625 310.800781 60.382812 310.691406 L 74.558594 297.601562 L 61.53125 297.601562 C 61.359375 297.601562 61.1875 297.429688 61.1875 297.257812 L 61.1875 235.507812 C 61.1875 235.332031 61.359375 235.160156 61.53125 235.160156 L 61.585938 235.160156 C 61.128906 234.296875 60.667969 233.386719 60.324219 232.460938 C 58.488281 227.8125 58.546875 223.566406 58.890625 220.8125 C 58.660156 219.089844 58.71875 217.429688 59.121094 215.761719 C 59.808594 212.605469 60.382812 212.660156 60.554688 212.726562 C 60.898438 212.777344 61.128906 213.011719 61.1875 215.1875 L 61.1875 138.167969 C 61.1875 137.996094 61.359375 137.828125 61.53125 137.828125 L 115.019531 137.828125 C 115.191406 137.828125 115.363281 137.996094 115.363281 138.167969 C 115.363281 138.339844 115.191406 138.515625 115.019531 138.515625 L 61.875 138.515625 L 61.875 215.246094 C 62.332031 215.421875 62.5625 215.933594 61.53125 220.875 C 61.644531 222.480469 62.390625 227.871094 67.097656 231.664062 C 70.597656 234.46875 74.441406 234.933594 76.453125 234.988281 L 76.566406 234.988281 C 78.347656 230.683594 74.671875 224.777344 77.714844 220.695312 C 79.265625 218.6875 82.648438 216.855469 90.628906 217.769531 C 90.914062 219.089844 91.257812 220.472656 91.546875 221.785156 C 91.429688 221.84375 91.316406 221.90625 91.203125 221.960938 C 91.316406 222.246094 92.808594 227.007812 91.832031 229.820312 C 91.832031 229.878906 91.777344 229.941406 91.71875 229.992188 C 93.554688 230.96875 95.277344 232.117188 95.449219 233.671875 C 95.5625 235.273438 93.957031 236.371094 92.121094 237.570312 L 103.714844 248.472656 L 117.773438 253.589844 C 121.675781 252.949219 122.367188 253.300781 122.539062 253.8125 C 122.710938 254.214844 122.421875 254.671875 121.621094 255.363281 C 127.242188 256.109375 127.1875 256.394531 127.1875 256.746094 C 127.1875 257.082031 126.84375 257.253906 125.234375 257.320312 L 124.03125 257.320312 C 123.285156 257.320312 122.539062 257.320312 121.847656 257.253906 C 120.472656 257.140625 119.035156 256.96875 117.660156 256.628906 L 98.433594 253.761719 C 99.292969 254.734375 99.753906 255.707031 99.582031 256.679688 C 99.179688 259.210938 95.277344 259.328125 91.375 261.558594 C 91.375 261.621094 91.429688 261.621094 91.429688 261.675781 L 93.726562 273.847656 L 112.035156 273.847656 C 114.675781 273.847656 116.796875 275.972656 116.796875 278.605469 C 116.796875 281.246094 114.675781 283.367188 112.035156 283.367188 L 95.507812 283.367188 L 96.941406 291.066406 L 96.941406 291.179688 L 95.5625 297.027344 L 119.554688 297.027344 L 119.554688 293.011719 C 119.554688 292.839844 119.726562 292.667969 119.898438 292.667969 L 211.265625 292.667969 C 211.4375 292.667969 211.609375 292.839844 211.609375 293.011719 L 211.609375 297.027344 L 276.003906 297.027344 L 275.773438 295.996094 L 275.773438 295.878906 L 281.285156 266.5 C 281.285156 266.4375 281.285156 266.4375 281.34375 266.386719 C 277.4375 264.140625 273.535156 264.027344 273.132812 261.507812 C 272.960938 260.476562 273.421875 259.5 274.28125 258.574219 L 255.054688 261.445312 C 253.679688 261.796875 252.300781 261.960938 250.867188 262.082031 C 250.292969 262.132812 249.433594 262.132812 248.628906 262.132812 C 247.308594 262.132812 245.988281 262.082031 245.703125 261.796875 C 245.644531 261.730469 245.585938 261.621094 245.585938 261.507812 C 245.585938 261.445312 245.585938 261.335938 245.644531 261.273438 L 176.085938 271.429688 L 176.027344 271.429688 C 175.96875 271.429688 175.914062 271.429688 175.855469 271.378906 C 175.796875 271.316406 175.742188 271.265625 175.742188 271.144531 L 164.203125 193.148438 L 82.304688 193.148438 C 82.132812 193.148438 81.960938 192.976562 81.960938 192.804688 C 81.960938 192.636719 82.132812 192.464844 82.304688 192.464844 L 164.089844 192.464844 L 163.6875 189.882812 C 163.6875 189.703125 163.804688 189.53125 163.976562 189.53125 L 172.640625 188.269531 L 173.101562 186.613281 C 173.101562 186.546875 173.15625 186.492188 173.214844 186.4375 L 230.207031 138.515625 L 177.40625 138.515625 C 177.347656 138.515625 177.289062 138.515625 177.289062 138.453125 C 176.542969 139.089844 172.296875 139.316406 164.605469 139.140625 L 163.976562 138.402344 C 163.917969 138.453125 163.859375 138.453125 163.804688 138.453125 L 139.238281 138.453125 L 137.058594 139.429688 L 144.691406 151.71875 L 155.882812 166.402344 L 155.882812 166.460938 C 160.300781 164.054688 162.769531 163.132812 163.171875 163.707031 C 163.6875 164.394531 161.164062 167.4375 155.597656 172.664062 L 153.011719 170.191406 C 152.957031 170.253906 152.839844 170.304688 152.785156 170.304688 C 152.726562 170.304688 152.667969 170.304688 152.613281 170.253906 L 134.53125 156.933594 L 116.972656 139.378906 C 116.855469 139.261719 116.855469 139.027344 116.972656 138.914062 C 117.085938 138.804688 117.316406 138.804688 117.429688 138.914062 L 134.933594 156.480469 L 152.726562 169.558594 L 155.195312 166.640625 L 144.117188 152.113281 L 134.074219 135.984375 C 133.957031 135.820312 134.015625 135.648438 134.1875 135.53125 C 134.359375 135.410156 134.53125 135.46875 134.648438 135.648438 L 136.714844 138.914062 C 136.714844 138.914062 136.769531 138.855469 136.828125 138.855469 L 139.066406 137.878906 L 152.09375 132.027344 C 152.210938 131.96875 152.265625 131.96875 152.382812 132.027344 L 163.402344 137.191406 L 166.960938 135.074219 C 164.949219 133.066406 162.828125 131.164062 160.644531 129.441406 C 156.113281 125.828125 153.816406 124.054688 151.003906 123.417969 C 145.378906 122.210938 139.984375 126.0625 137.289062 128.410156 C 137.171875 128.523438 136.941406 128.523438 136.828125 128.359375 C 136.714844 128.238281 136.714844 128.007812 136.886719 127.898438 C 139.699219 125.425781 145.324219 121.523438 151.175781 122.734375 C 154.160156 123.359375 156.457031 125.203125 161.105469 128.871094 C 163.457031 130.707031 165.695312 132.714844 167.761719 134.839844 C 167.820312 134.894531 167.878906 135.011719 167.878906 135.125 C 173.386719 136.273438 176.542969 137.191406 177.40625 137.878906 C 177.460938 137.828125 177.519531 137.765625 177.632812 137.765625 L 231.238281 137.765625 L 237.148438 132.777344 C 236.863281 132.542969 236.574219 132.253906 236.347656 131.96875 C 235.371094 130.707031 235.082031 128.984375 235.601562 127.496094 C 236.003906 126.351562 236.804688 125.539062 237.550781 124.914062 C 237.894531 124.566406 238.242188 124.277344 238.527344 123.933594 C 239.273438 122.957031 239.734375 121.695312 239.847656 120.324219 L 239.847656 120.261719 C 237.320312 119.800781 235.429688 117.621094 235.429688 114.984375 C 235.429688 112.117188 237.722656 109.757812 240.535156 109.644531 L 240.535156 54.320312 C 239.386719 56.84375 236.863281 58.625 233.878906 58.625 C 229.859375 58.625 226.589844 55.351562 226.589844 51.335938 C 226.589844 49.898438 226.992188 48.582031 227.738281 47.433594 L 162.195312 88.46875 C 161.792969 88.8125 161.046875 89.273438 159.671875 90.019531 C 160.703125 90.246094 161.164062 90.535156 161.277344 90.992188 C 161.390625 91.625 160.761719 92.429688 155.710938 94.148438 L 148.019531 101.152344 C 148.019531 101.550781 147.617188 102.359375 146.242188 104.421875 C 146.183594 104.539062 146.070312 104.539062 145.953125 104.539062 C 145.894531 104.539062 145.839844 104.539062 145.78125 104.476562 C 145.609375 104.367188 145.609375 104.191406 145.722656 104.019531 C 146.699219 102.582031 147.101562 101.835938 147.273438 101.4375 C 147.160156 101.5 147.042969 101.609375 146.871094 101.722656 C 146.757812 101.785156 146.640625 101.835938 146.527344 101.722656 C 146.414062 101.671875 146.355469 101.5 146.355469 101.382812 C 146.757812 99.257812 146.757812 98.570312 146.699219 98.339844 C 146.46875 98.511719 145.722656 99.316406 143.832031 102.871094 C 143.773438 103.042969 143.542969 103.105469 143.371094 102.984375 C 143.199219 102.933594 143.140625 102.699219 143.257812 102.53125 C 145.839844 97.652344 146.46875 97.421875 146.929688 97.59375 C 147.332031 97.765625 147.5625 98.339844 147.101562 100.636719 C 147.273438 100.578125 147.386719 100.519531 147.5625 100.519531 L 155.308594 93.460938 C 155.308594 93.460938 155.367188 93.460938 155.367188 93.402344 C 155.367188 93.402344 155.421875 93.402344 155.421875 93.347656 C 160.589844 91.625 160.644531 90.933594 160.644531 90.878906 C 160.644531 90.878906 160.53125 90.535156 158.636719 90.304688 C 158.523438 90.304688 158.40625 90.191406 158.351562 90.019531 C 158.351562 89.902344 158.40625 89.730469 158.523438 89.671875 C 158.808594 89.5 159.097656 89.386719 159.382812 89.214844 L 161.679688 87.777344 C 160.933594 87.835938 159.269531 88.238281 157.660156 89.097656 C 156.457031 89.785156 155.421875 90.648438 154.503906 91.796875 C 154.390625 91.914062 154.160156 91.96875 154.046875 91.855469 C 153.929688 91.738281 153.875 91.507812 153.988281 91.394531 C 154.964844 90.191406 156.054688 89.273438 157.375 88.582031 C 159.269531 87.550781 161.566406 87.035156 162.253906 87.261719 C 162.3125 87.320312 162.367188 87.320312 162.425781 87.378906 L 228.253906 46.167969 C 228.3125 46.113281 228.425781 46.113281 228.542969 46.113281 C 228.828125 45.824219 229.171875 45.539062 229.515625 45.308594 C 230.722656 44.503906 232.15625 44.046875 233.589844 44.046875 C 236.863281 44.046875 239.675781 46.226562 240.535156 49.210938 C 240.707031 49.210938 240.878906 49.382812 240.878906 49.554688 L 240.878906 109.753906 C 243.636719 109.992188 245.875 112.285156 245.875 115.09375 C 245.875 117.738281 243.980469 119.914062 241.453125 120.371094 L 241.453125 120.542969 C 241.339844 122.328125 240.707031 124.050781 239.734375 125.25 C 239.386719 125.710938 238.929688 126.113281 238.527344 126.460938 C 237.894531 127.035156 237.320312 127.546875 237.09375 128.292969 C 236.804688 129.152344 236.976562 130.191406 237.550781 130.9375 C 238.296875 131.914062 239.503906 132.375 240.707031 132.085938 C 241.972656 131.800781 242.890625 130.816406 243.175781 129.554688 C 243.289062 129.042969 243.808594 128.695312 244.324219 128.808594 C 244.839844 128.929688 245.183594 129.441406 245.070312 129.957031 C 244.609375 131.964844 243.117188 133.519531 241.109375 133.921875 C 240.9375 133.976562 240.765625 133.976562 240.59375 134.03125 L 245.929688 137.824219 L 309.292969 137.824219 C 309.464844 137.824219 309.636719 137.992188 309.636719 138.164062 L 309.636719 206.121094 C 309.636719 206.289062 309.519531 206.460938 309.292969 206.460938 L 311.300781 220.234375 C 311.359375 220.296875 311.359375 220.296875 311.414062 220.351562 C 311.472656 217.886719 311.703125 217.652344 312.105469 217.601562 C 312.621094 217.539062 313.078125 218.578125 313.539062 220.636719 C 313.882812 222.308594 313.941406 223.964844 313.769531 225.6875 C 314.054688 227.8125 314.113281 230.738281 313.367188 234.070312 Z M 98.03125 153.609375 C 98.03125 152.6875 97.285156 151.890625 96.308594 151.890625 C 95.390625 151.890625 94.589844 152.628906 94.589844 153.609375 C 94.589844 154.523438 95.335938 155.332031 96.308594 155.332031 C 97.285156 155.332031 98.03125 154.585938 98.03125 153.609375 Z M 98.664062 153.609375 C 98.664062 154.0625 98.546875 154.472656 98.320312 154.808594 L 100.269531 156.417969 C 100.382812 156.53125 100.441406 156.765625 100.328125 156.882812 C 100.269531 156.933594 100.15625 156.992188 100.097656 156.992188 C 100.039062 156.992188 99.925781 156.992188 99.867188 156.933594 L 97.917969 155.332031 C 97.515625 155.734375 96.941406 155.957031 96.308594 155.957031 C 94.988281 155.957031 93.957031 154.925781 93.957031 153.609375 C 93.957031 152.289062 94.988281 151.253906 96.308594 151.253906 C 97.628906 151.253906 98.664062 152.34375 98.664062 153.609375 Z M 109.050781 181.671875 L 138.550781 181.671875 L 138.550781 178.289062 L 109.050781 178.289062 Z M 108.417969 177.652344 L 139.238281 177.652344 L 139.238281 182.359375 L 108.417969 182.359375 Z M 119.898438 87.375 C 119.554688 85.941406 118.980469 84.503906 118.234375 83.183594 C 118.175781 84.5625 117.832031 86.457031 116.683594 88.234375 C 116.050781 89.210938 115.304688 90.015625 114.332031 90.703125 C 114.273438 90.761719 114.160156 90.761719 114.101562 90.761719 C 113.183594 90.589844 112.265625 91.105469 111.976562 91.910156 C 111.804688 92.367188 111.804688 92.886719 112.035156 93.34375 C 112.265625 93.859375 112.722656 94.261719 113.242188 94.433594 C 113.355469 94.492188 113.46875 94.605469 113.46875 94.722656 C 113.527344 95.179688 113.527344 96.269531 112.722656 97.304688 C 112.265625 97.878906 111.75 98.222656 111.289062 98.394531 L 112.09375 101.035156 C 112.839844 101.261719 113.929688 101.433594 115.191406 101.148438 C 116.050781 100.976562 116.855469 100.574219 117.601562 100.058594 L 117.601562 96.617188 C 117.601562 96.5 117.660156 96.382812 117.773438 96.328125 C 118.578125 95.8125 119.210938 95.179688 119.667969 94.433594 C 121.046875 92.140625 120.355469 89.382812 119.898438 87.375 Z M 103.769531 91.621094 C 103.253906 87.03125 106.699219 83.988281 107.042969 83.703125 C 107.445312 80.488281 109.910156 78.078125 112.894531 77.789062 C 115.363281 77.5625 117.773438 78.878906 119.035156 81.175781 C 119.265625 82.382812 119.4375 83.53125 119.667969 84.734375 C 120.011719 85.597656 120.300781 86.398438 120.527344 87.320312 C 121.046875 89.441406 121.734375 92.3125 120.183594 94.894531 C 119.667969 95.695312 119.035156 96.382812 118.234375 96.902344 L 118.234375 100.289062 C 118.234375 100.402344 118.175781 100.460938 118.117188 100.519531 C 117.316406 101.148438 116.339844 101.605469 115.363281 101.835938 C 114.847656 101.957031 114.332031 102.007812 113.871094 102.007812 C 113.011719 102.007812 112.265625 101.835938 111.75 101.667969 C 111.632812 101.605469 111.574219 101.546875 111.519531 101.433594 L 110.945312 99.484375 C 107.042969 98.453125 104.230469 95.296875 103.769531 91.621094 Z M 151.175781 274.417969 L 125.75 274.417969 C 123.511719 274.417969 121.621094 276.253906 121.621094 278.550781 C 121.621094 280.84375 123.457031 282.675781 125.75 282.675781 L 151.175781 282.675781 C 153.414062 282.675781 155.308594 280.84375 155.308594 278.550781 C 155.308594 276.253906 153.472656 274.417969 151.175781 274.417969 Z M 125.75 273.78125 L 151.175781 273.78125 C 153.816406 273.78125 155.941406 275.902344 155.941406 278.550781 C 155.941406 281.183594 153.816406 283.3125 151.175781 283.3125 L 125.75 283.3125 C 123.113281 283.3125 120.988281 281.183594 120.988281 278.550781 C 120.988281 275.902344 123.113281 273.78125 125.75 273.78125 Z M 185.496094 317.628906 L 130.917969 317.628906 L 130.917969 318.773438 L 185.554688 318.773438 L 185.554688 317.628906 Z M 179.296875 314.304688 L 130.917969 314.304688 L 130.917969 315.90625 L 179.296875 315.90625 Z M 185.496094 311.3125 L 130.917969 311.3125 L 130.917969 312.699219 L 185.496094 312.699219 Z M 117.832031 315.453125 L 112.207031 321.816406 C 112.667969 322.050781 113.125 322.167969 113.640625 322.167969 L 121.734375 322.167969 C 122.421875 322.167969 122.996094 321.933594 123.511719 321.59375 Z M 111.574219 308.617188 C 110.945312 309.191406 110.484375 310.050781 110.484375 310.976562 L 110.484375 319.0625 C 110.484375 320.09375 111.003906 321.019531 111.804688 321.59375 L 117.542969 315.101562 Z M 123.859375 321.304688 C 124.488281 320.730469 124.832031 319.921875 124.832031 319.011719 L 124.832031 310.914062 C 124.832031 310 124.433594 309.140625 123.800781 308.566406 L 118.117188 314.992188 Z M 111.921875 308.328125 C 112.4375 308.042969 113.011719 307.820312 113.585938 307.820312 L 121.675781 307.820312 C 122.308594 307.820312 122.882812 307.992188 123.398438 308.328125 L 117.773438 314.707031 L 111.921875 308.328125 "/></g><path style=" stroke:none;fill-rule:nonzero;fill:#611f69;fill-opacity:1;" d="M 115.25 101.5 C 113.699219 101.835938 112.4375 101.550781 111.804688 101.324219 C 110.140625 103.847656 108.304688 107.460938 107.5 112.054688 C 104.976562 126.113281 114.214844 137.191406 115.824219 139.140625 C 117.890625 139.316406 122.421875 139.429688 127.300781 137.019531 C 133.441406 134.035156 136.371094 129.097656 137.34375 127.324219 L 127.53125 115.445312 C 128.910156 115.898438 132.582031 116.933594 136.714844 115.445312 C 144.058594 112.800781 145.894531 104.765625 146.011719 104.253906 L 143.542969 102.871094 C 142.855469 103.792969 140.617188 106.714844 136.542969 107.75 C 134.132812 108.386719 132.121094 108.097656 130.917969 107.863281 C 133.84375 105.804688 137.058594 103.679688 140.617188 101.550781 C 145.894531 98.453125 150.890625 95.929688 155.539062 93.863281 L 154.277344 91.855469 L 117.890625 100.234375 C 117.371094 100.578125 116.511719 101.210938 115.25 101.5 Z M 130.6875 209.734375 L 124.546875 216.679688 C 125.003906 216.910156 125.523438 217.082031 126.097656 217.082031 L 134.878906 217.082031 C 135.625 217.082031 136.253906 216.855469 136.828125 216.457031 Z M 123.859375 202.332031 C 123.113281 202.96875 122.652344 203.878906 122.652344 204.914062 L 122.652344 213.699219 C 122.652344 214.847656 123.226562 215.816406 124.085938 216.457031 L 130.285156 209.394531 Z M 137.230469 216.167969 C 137.917969 215.53125 138.320312 214.671875 138.320312 213.699219 L 138.320312 204.914062 C 138.320312 203.878906 137.863281 203.019531 137.171875 202.394531 L 131.03125 209.394531 Z M 130.6875 208.996094 L 136.828125 202.042969 C 136.3125 201.699219 135.625 201.46875 134.933594 201.46875 L 126.152344 201.46875 C 125.464844 201.46875 124.832031 201.699219 124.316406 202.042969 Z M 109.683594 209.855469 L 103.597656 216.792969 C 104.058594 217.027344 104.574219 217.195312 105.148438 217.195312 L 113.929688 217.195312 C 114.675781 217.195312 115.304688 216.964844 115.878906 216.570312 Z M 102.910156 202.445312 C 102.164062 203.082031 101.703125 203.996094 101.703125 205.027344 L 101.703125 213.808594 C 101.703125 214.957031 102.277344 215.933594 103.140625 216.570312 L 109.335938 209.503906 Z M 116.28125 216.28125 C 116.972656 215.644531 117.371094 214.785156 117.371094 213.808594 L 117.371094 205.027344 C 117.371094 203.996094 116.914062 203.132812 116.226562 202.507812 L 110.082031 209.503906 Z M 109.683594 209.109375 L 115.824219 202.160156 C 115.304688 201.820312 114.617188 201.585938 113.929688 201.585938 L 105.148438 201.585938 C 104.460938 201.585938 103.828125 201.820312 103.3125 202.160156 Z M 88.675781 209.734375 L 82.535156 216.679688 C 82.996094 216.910156 83.511719 217.082031 84.085938 217.082031 L 92.867188 217.082031 C 93.613281 217.082031 94.242188 216.855469 94.816406 216.457031 Z M 81.902344 202.332031 C 81.15625 202.96875 80.699219 203.878906 80.699219 204.914062 L 80.699219 213.699219 C 80.699219 214.847656 81.273438 215.816406 82.132812 216.457031 L 88.332031 209.394531 Z M 95.277344 216.21875 C 95.964844 215.59375 96.367188 214.734375 96.367188 213.753906 L 96.367188 204.976562 C 96.367188 203.945312 95.90625 203.082031 95.21875 202.445312 L 89.019531 209.394531 Z M 88.675781 209.046875 L 94.816406 202.105469 C 94.300781 201.757812 93.613281 201.535156 92.921875 201.535156 L 84.140625 201.535156 C 83.453125 201.535156 82.824219 201.757812 82.304688 202.105469 Z M 92.003906 167.609375 C 86.609375 167.609375 82.304688 171.976562 82.304688 177.308594 C 82.304688 182.644531 86.667969 187.011719 92.003906 187.011719 C 97.34375 187.011719 101.703125 182.644531 101.703125 177.308594 C 101.703125 171.976562 97.398438 167.609375 92.003906 167.609375 Z M 241.914062 204.117188 C 241.914062 210.367188 236.863281 215.421875 230.605469 215.421875 C 224.351562 215.421875 219.300781 210.367188 219.300781 204.117188 C 219.300781 197.855469 224.351562 192.804688 230.605469 192.804688 C 236.863281 192.804688 241.914062 197.855469 241.914062 204.117188 "/></g></svg>