<svg width="273" height="239" viewBox="0 0 273 239" fill="none" xmlns="http://www.w3.org/2000/svg">
<path d="M154.239 0.524064C147.11 1.31362 139.73 2.96138 135.467 4.71212L132.852 5.7763H109.28H85.6722L84.9199 6.70317C84.0243 7.80168 84.2034 9.07183 85.3498 9.96436C86.0304 10.5479 87.4992 10.5823 104.73 10.5823H123.359L121.245 11.9897C118.307 13.9808 113.794 17.6882 111.358 20.1256C109.208 22.2539 108.85 23.2838 109.674 24.6226C110.032 25.1375 109.853 25.5494 108.599 27.1285C107.166 28.9823 107.059 29.0509 105.733 28.8793C104.515 28.7076 104.265 28.8106 103.333 29.9091C101.829 31.6599 98.4612 38.0106 96.9208 41.9927C94.1624 49.03 92.4428 57.8181 92.4428 64.6494C92.4428 68.2539 93.2668 75.3256 94.0549 78.7241C97.7447 94.2748 107.775 108.658 121.245 117.652L123.359 119.06H104.73C87.4992 119.06 86.0304 119.094 85.3498 119.643C84.2034 120.57 84.0243 121.84 84.9199 122.939L85.6722 123.866H109.244H132.78L135.825 125.033C157.212 133.306 183.327 129.393 201.884 115.112C217.575 103.063 227.139 84.045 227.139 64.8211C227.139 47.2793 219.222 29.8748 205.61 17.5853C193.465 6.60018 175.983 0.112124 159.182 0.318094C157.069 0.352422 154.848 0.455407 154.239 0.524064ZM170.717 21.0181C179.494 23.1465 186.516 26.9226 192.749 32.8614C200.702 40.4136 204.929 48.6181 206.505 59.6718C206.935 62.5897 207.186 63.3793 207.795 63.8599C208.225 64.2032 208.834 64.4778 209.12 64.4778C209.514 64.4778 209.586 64.9927 209.514 66.9494C209.407 69.3868 209.371 69.4554 208.44 69.5584C207.938 69.627 207.293 69.8673 207.078 70.1076C206.863 70.3823 206.147 72.6479 205.502 75.1539C203.102 84.2509 199.125 91.0136 192.677 96.9524C186.193 102.926 180.031 106.255 171.398 108.452C167.35 109.517 166.777 109.551 160.329 109.585C154.991 109.62 152.841 109.482 150.477 109.002C134.5 105.706 121.352 94.8927 115.621 80.2688C113.543 74.9479 113.041 72.03 113.041 64.8211C113.041 57.6121 113.543 54.6942 115.621 49.3733C121.317 34.8181 135.001 23.5584 150.298 20.7435C151.874 20.4688 153.486 20.1599 153.88 20.0569C154.274 19.9539 157.427 19.9539 160.866 20.0226C166.168 20.0912 167.708 20.2629 170.717 21.0181Z" fill="#4682B4"/>
<path d="M158.179 26.5447C157.355 27.2999 157.284 27.6432 157.284 30.2864C157.284 32.9984 157.355 33.2387 158.215 33.8909C158.752 34.3029 159.433 34.6118 159.791 34.6118C160.149 34.6118 160.83 34.3029 161.367 33.8909C162.263 33.2387 162.299 33.0327 162.299 30.1491C162.299 27.2655 162.263 27.0596 161.367 26.4073C160.114 25.4805 159.254 25.5148 158.179 26.5447Z" fill="#4682B4"/>
<path d="M131.777 36.7059C130.488 37.1865 129.879 38.8 130.559 40.0701C131.204 41.2029 133.998 43.7089 134.965 44.0179C136.721 44.5671 138.619 42.7134 138.082 40.997C137.688 39.7268 133.676 36.1567 132.852 36.3626C132.78 36.3626 132.315 36.5343 131.777 36.7059Z" fill="#4682B4"/>
<path d="M185.405 36.9461C184.08 37.7357 181.787 40.1386 181.5 41.0655C180.927 42.7476 182.862 44.5327 184.653 44.0177C185.62 43.7431 188.343 41.2371 189.059 39.967C189.776 38.6625 189.167 37.1864 187.662 36.7058C187.053 36.4998 186.551 36.3282 186.516 36.3282C186.48 36.3282 186.014 36.6028 185.405 36.9461Z" fill="#4682B4"/>
<path d="M158 41.8211C157.319 42.4734 157.284 42.954 157.284 54.1793C157.284 65.4047 157.319 65.8853 158 66.5376C158.681 67.1898 159.182 67.2241 165.523 67.2241C171.864 67.2241 172.365 67.1898 173.046 66.5376C173.44 66.1599 173.762 65.4047 173.762 64.8211C173.762 64.2376 173.44 63.4823 173.046 63.1047C172.401 62.4868 171.864 62.4182 167.314 62.4182H162.299V52.4629C162.299 42.954 162.263 42.4734 161.582 41.8211C161.188 41.4435 160.4 41.1346 159.791 41.1346C159.182 41.1346 158.394 41.4435 158 41.8211Z" fill="#4682B4"/>
<path d="M119.705 63.3107C119.275 63.8256 118.952 64.4779 118.952 64.8211C118.952 65.1644 119.275 65.8167 119.705 66.3316C120.385 67.1898 120.6 67.2241 123.609 67.2241C126.619 67.2241 126.833 67.1898 127.514 66.3316C127.944 65.8167 128.266 65.1644 128.266 64.8211C128.266 64.4779 127.944 63.8256 127.514 63.3107C126.833 62.4525 126.619 62.4182 123.609 62.4182C120.6 62.4182 120.385 62.4525 119.705 63.3107Z" fill="#4682B4"/>
<path d="M192.068 63.3107C191.638 63.8256 191.316 64.4779 191.316 64.8211C191.316 65.1644 191.638 65.8167 192.068 66.3316C192.749 67.1898 192.964 67.2241 195.973 67.2241C198.982 67.2241 199.197 67.1898 199.878 66.3316C200.308 65.8167 200.63 65.1644 200.63 64.8211C200.63 64.4779 200.308 63.8256 199.878 63.3107C199.197 62.4525 198.982 62.4182 195.973 62.4182C192.964 62.4182 192.749 62.4525 192.068 63.3107Z" fill="#4682B4"/>
<path d="M134.536 85.7955C133.389 86.4134 131.132 88.6104 130.559 89.6059C129.413 91.6999 131.741 93.9313 133.927 92.8328C134.464 92.5581 135.61 91.6313 136.506 90.7731C137.76 89.5029 138.082 88.9537 138.082 87.9925C138.082 87.3402 137.831 86.5507 137.581 86.3104C136.828 85.5895 135.359 85.3492 134.536 85.7955Z" fill="#4682B4"/>
<path d="M182.79 85.7614C181.858 86.139 181.178 87.6151 181.5 88.6107C181.823 89.5375 184.438 92.2151 185.62 92.833C186.945 93.4853 188.593 92.9017 189.166 91.5972C189.704 90.3614 189.131 89.2629 186.945 87.2375C185.262 85.6927 184.08 85.2808 182.79 85.7614Z" fill="#4682B4"/>
<path d="M158.215 95.7508C157.355 96.403 157.284 96.6433 157.284 99.3553C157.284 101.999 157.355 102.342 158.179 103.097C159.254 104.127 160.114 104.161 161.367 103.234C162.263 102.582 162.299 102.376 162.299 99.4926C162.299 96.609 162.263 96.403 161.367 95.7508C160.83 95.3388 160.149 95.0299 159.791 95.0299C159.433 95.0299 158.752 95.3388 158.215 95.7508Z" fill="#4682B4"/>
<path d="M60.0583 24.6912C58.9478 25.5495 58.8403 26.9569 59.8076 28.1241L60.4882 28.948L74.961 29.0509C90.4009 29.1196 90.7233 29.0853 91.5831 27.4375C92.1563 26.339 91.5831 24.8629 90.4367 24.348C89.8277 24.0733 85.1707 23.9703 75.2834 23.9703C61.3838 23.9703 60.9898 24.0047 60.0583 24.6912Z" fill="#4682B4"/>
<path d="M75.8207 41.8554C74.7102 42.7136 74.6027 44.1211 75.57 45.2883C76.2148 46.0778 76.4656 46.1121 81.9466 46.2151C88.4665 46.3524 90.0069 46.0778 90.6159 44.636C91.1174 43.4689 90.6875 42.0271 89.6128 41.5121C89.1829 41.2718 86.4245 41.1345 82.8422 41.1345C77.2537 41.1345 76.7163 41.2032 75.8207 41.8554Z" fill="#4682B4"/>
<path d="M49.4545 53.9387C47.5559 54.8656 47.6992 57.5775 49.6695 58.3328C50.2785 58.5387 55.7953 58.6417 64.5721 58.5731L78.5433 58.4701L79.2239 57.6462C80.1912 56.479 80.0837 55.0716 78.9732 54.2134C78.0417 53.5268 77.6477 53.4925 64.178 53.4925C53.7892 53.4925 50.1352 53.5954 49.4545 53.9387Z" fill="#4682B4"/>
<path d="M49.4545 71.4464C47.5559 72.3733 47.6992 75.0852 49.6695 75.8061C50.2068 76.0121 56.1894 76.1494 64.2855 76.1494C77.6477 76.1494 78.0417 76.1151 78.9732 75.4285C80.0837 74.5703 80.1912 73.1628 79.2239 71.9957L78.5433 71.1718L64.4288 71.0688C53.5742 71.0345 50.1352 71.1031 49.4545 71.4464Z" fill="#4682B4"/>
<path d="M76.4297 83.7014C74.7102 84.3879 74.3519 86.6879 75.8207 87.7864C76.7163 88.4387 77.2536 88.5073 82.8421 88.5073C86.4245 88.5073 89.1829 88.37 89.6128 88.1297C91.4398 87.2028 91.1532 84.3879 89.1471 83.7357C87.8216 83.2894 77.5402 83.2551 76.4297 83.7014Z" fill="#4682B4"/>
<path d="M60.6673 100.866C58.9478 101.552 58.5895 103.852 60.0583 104.951C60.9897 105.638 61.3838 105.672 75.2833 105.672C85.1706 105.672 89.8277 105.569 90.4367 105.294C92.3354 104.47 92.2279 101.896 90.2934 100.969C89.2187 100.454 61.9928 100.351 60.6673 100.866Z" fill="#4682B4"/>
<path d="M268.337 208.313V219.642H270.128H271.919V208.313V196.985H270.128H268.337V208.313Z" fill="#4682B4"/>
<path d="M91.2607 198.049C90.0427 198.942 89.9711 200.487 91.0816 201.242C92.1921 201.997 93.3743 201.928 94.2341 201.104C95.1296 200.246 95.1296 199.354 94.3415 198.427C93.3385 197.363 92.3354 197.225 91.2607 198.049Z" fill="#4682B4"/>
<path d="M8.00665 207.593C4.24517 208.828 1.84499 211.506 1.0927 215.351C-0.340244 222.663 4.35265 228.567 11.6965 228.601C14.5982 228.636 17.1058 227.846 18.8612 226.336L20.2583 225.134L19.0045 224.139L17.7865 223.143L16.5685 224.173C15.0281 225.443 13.9892 225.821 11.9831 225.821C9.04553 225.821 6.717 224.448 5.28406 221.873C4.67506 220.809 4.49594 219.882 4.49594 217.754C4.49594 215.351 4.63923 214.801 5.499 213.394C6.53788 211.678 8.57983 210.27 10.6934 209.858C12.4488 209.515 15.1714 210.27 16.461 211.472L17.5715 212.501L18.8254 211.712C19.506 211.266 20.0792 210.785 20.0792 210.648C20.0792 210.545 19.3985 209.858 18.5746 209.206C15.9237 207.009 11.6965 206.357 8.00665 207.593Z" fill="#4682B4"/>
<path d="M30.5755 207.558C27.9245 208.451 26.3125 209.618 24.9512 211.575C23.4824 213.669 22.9451 215.385 22.9451 217.994C22.9451 221.907 25.2736 225.684 28.8201 227.469C30.468 228.293 31.0054 228.396 34.4086 228.396C37.6327 228.396 38.385 228.293 39.6747 227.606C42.039 226.404 43.6153 224.894 44.69 222.8C45.5497 221.118 45.693 220.431 45.693 217.925C45.693 215.488 45.5497 214.698 44.7616 213.119C44.2601 212.09 43.2929 210.716 42.6122 210.064C39.7822 207.352 34.4444 206.254 30.5755 207.558ZM36.8088 210.201C41.5375 211.54 43.7227 217.17 41.3226 221.736C39.9613 224.276 37.991 225.546 35.1609 225.752C31.3994 226.027 28.8918 224.654 27.3872 221.53C25.1303 216.896 27.2797 211.609 32.0443 210.167C33.9787 209.584 34.6594 209.584 36.8088 210.201Z" fill="#4682B4"/>
<path d="M59.1269 207.249C57.5149 207.73 55.9744 208.622 55.2222 209.549L54.4699 210.476V209.034V207.627H52.6429C50.9233 207.627 50.8159 207.661 51.0308 208.382C51.1383 208.828 51.2457 213.463 51.2457 218.681V228.224H52.822H54.434L54.5415 221.221L54.649 214.218L55.7237 212.742C57.3716 210.545 58.4821 209.893 60.6673 209.893C62.9959 209.893 64.2497 210.648 65.002 212.467C65.4677 213.566 65.5752 215.248 65.5752 221.015V228.224H67.1514H68.7276L68.8709 221.427C68.9784 215.179 69.0501 214.527 69.8382 213.016C71.8085 209.137 77.2537 208.622 79.3672 212.09C80.0121 213.188 80.0837 214.012 80.1912 220.74L80.3345 228.224H81.9465H83.5228L83.4153 220.225C83.3078 212.673 83.272 212.193 82.4839 210.613C81.3375 208.451 79.2956 207.284 76.1431 207.009C74.137 206.872 73.5638 206.975 71.8801 207.764C70.7696 208.279 69.5516 209.172 69.1217 209.721L68.3694 210.785L67.2589 209.481C65.3961 207.352 62.0286 206.425 59.1269 207.249Z" fill="#4682B4"/>
<path d="M108.707 207.49C107.919 207.764 106.665 208.485 105.984 209.103L104.695 210.236L104.48 208.931C104.265 207.627 104.229 207.627 102.581 207.627H100.933L101.184 209.412C101.291 210.407 101.399 215.042 101.399 219.71V228.224H102.975H104.587L104.695 221.221L104.802 214.218L105.877 212.742C107.345 210.751 108.958 209.893 111.322 209.893C113.579 209.893 114.868 210.648 115.907 212.639C116.516 213.806 116.624 214.904 116.731 221.084L116.875 228.224H118.487H120.099L119.955 220.397C119.776 211.712 119.49 210.407 117.197 208.588C115.191 206.94 111.644 206.494 108.707 207.49Z" fill="#4682B4"/>
<path d="M133.461 207.421C128.625 208.897 126.117 212.09 125.83 217.102C125.687 219.607 125.795 220.122 126.654 222.01C128.481 225.924 131.885 227.984 136.506 228.018C139.909 228.052 141.879 227.503 143.527 225.993C144.244 225.34 144.924 224.791 145.032 224.791C145.39 224.791 144.674 230.49 144.172 231.657C142.954 234.437 140.554 235.776 136.685 235.776C133.819 235.776 131.992 235.124 129.95 233.373C128.446 232.137 127.98 232.172 126.869 233.648L126.117 234.678L127.443 235.776C129.234 237.321 131.24 238.11 134.392 238.522C139.336 239.209 143.635 237.905 145.927 235.021C147.862 232.584 147.969 231.863 147.969 219.264V207.627H146.536H145.104V209C145.104 209.755 144.996 210.373 144.889 210.373C144.781 210.373 144.029 209.824 143.205 209.172C140.733 207.146 136.757 206.425 133.461 207.421ZM140.626 210.613C143.456 211.987 144.853 214.321 144.889 217.582C144.924 221.393 142.954 223.933 139.157 224.997C136.506 225.718 134.106 225.203 132.135 223.487C130.129 221.736 129.27 219.985 129.305 217.548C129.305 211.884 135.431 208.107 140.626 210.613Z" fill="#4682B4"/>
<path d="M171.111 207.455C167.816 208.554 166.49 210.442 166.705 213.531C166.884 216.484 168.675 217.994 173.046 218.955C178.025 220.054 179.602 221.393 178.563 223.727C177.381 226.405 171.971 226.542 169.499 223.967C168.425 222.869 168.138 222.869 166.777 223.899L165.702 224.723L166.454 225.718C167.708 227.331 170.323 228.396 173.404 228.499C177.882 228.705 180.748 227.503 181.858 224.894C182.503 223.452 182.503 220.878 181.858 219.711C180.891 217.96 179.422 217.205 173.727 215.728C171.111 215.008 170.144 214.287 170.108 212.845C170.073 211.437 170.968 210.476 172.759 209.996C174.694 209.515 176.091 209.893 177.703 211.3L179.1 212.467L180.354 211.678C181.07 211.231 181.644 210.717 181.644 210.511C181.644 210.339 181.106 209.652 180.426 209.034C178.384 207.112 174.156 206.391 171.111 207.455Z" fill="#4682B4"/>
<path d="M194.003 207.421C191.817 208.073 190.564 208.828 189.095 210.27C183.363 215.969 186.157 226.233 193.967 228.258C196.331 228.876 200.917 228.533 202.779 227.606C206.541 225.718 208.547 222.731 208.798 218.543C209.049 214.218 207.437 210.888 204.033 208.828C201.06 207.009 197.155 206.46 194.003 207.421ZM201.347 210.819C203.711 211.987 205.036 214.218 205.215 217.307C205.395 220.294 204.678 222.251 202.815 223.864C201.06 225.375 199.269 225.924 196.689 225.752C192.677 225.478 189.955 222.663 189.632 218.475C189.095 212.055 195.4 207.902 201.347 210.819Z" fill="#4682B4"/>
<path d="M220.799 207.558C218.148 208.451 216.536 209.618 215.174 211.575C213.706 213.669 213.168 215.385 213.168 217.994C213.168 221.907 215.497 225.684 219.043 227.469C220.691 228.293 221.229 228.396 224.632 228.396C227.856 228.396 228.608 228.293 229.898 227.606C232.262 226.404 233.839 224.894 234.913 222.8C235.773 221.118 235.916 220.431 235.916 217.925C235.916 215.488 235.773 214.698 234.985 213.119C234.483 212.09 233.516 210.716 232.835 210.064C230.005 207.352 224.668 206.254 220.799 207.558ZM227.032 210.201C231.761 211.54 233.946 217.17 231.546 221.736C230.185 224.276 228.214 225.546 225.384 225.752C221.623 226.027 219.115 224.654 217.61 221.53C215.354 216.896 217.503 211.609 222.268 210.167C224.202 209.584 224.883 209.584 227.032 210.201Z" fill="#4682B4"/>
<path d="M248.419 207.73C247.416 208.21 246.162 209.034 245.624 209.549L244.693 210.545V209.069V207.627H242.866C241.147 207.627 241.039 207.661 241.254 208.382C241.361 208.828 241.469 213.463 241.469 218.681V228.224H243.045H244.657L244.765 221.427L244.872 214.596L245.947 212.948C247.272 210.888 248.92 209.927 251.105 209.893C253.47 209.858 254.831 210.51 255.834 212.193C256.658 213.566 256.694 213.978 256.801 220.912L256.945 228.224H258.557H260.169L260.026 220.225C259.918 212.673 259.882 212.158 259.094 210.613C257.912 208.382 255.87 207.249 252.646 207.043C250.64 206.94 249.923 207.043 248.419 207.73Z" fill="#4682B4"/>
<path d="M91.0099 217.925V228.224H92.6219H94.234V217.925V207.627H92.6219H91.0099V217.925Z" fill="#4682B4"/>
<path d="M269.411 223.658C267.871 224.207 267.047 226.199 267.907 227.4C269.232 229.322 272.635 228.293 272.635 225.958C272.635 224.516 270.773 223.212 269.411 223.658Z" fill="#4682B4"/>
</svg>
