<?xml version="1.0" encoding="utf-8"?>
<!-- Generator: Adobe Illustrator 25.3.1, SVG Export Plug-In . SVG Version: 6.00 Build 0)  -->
<svg version="1.1" id="Layer_1" xmlns="http://www.w3.org/2000/svg" xmlns:xlink="http://www.w3.org/1999/xlink" x="0px" y="0px"
	 width="6629.8px" height="1800px" viewBox="0 0 6629.8 1800" style="enable-background:new 0 0 6629.8 1800;" xml:space="preserve"
	>
<style type="text/css">
	.st0{fill:#28B8CE;}
	.st1{fill:#FFFFFF;}
	.st2{enable-background:new    ;}
	.st3{fill:#353535;}
</style>
<rect y="0" class="st0" width="1800" height="1800"/>
<path class="st1" d="M1555,740.4c-37-18.8-67.5-26.6-103.9-26.6c-127.9,0-230.4,100.6-230.4,226.6c0,127.2,100,225.9,228.5,225.9
	c36.3,0,67.5-7.1,105.8-25.3v-99.3c-33.8,33.8-63.6,47.4-101.9,47.4c-85,0-145.4-61.7-145.4-149.3c0-83.1,62.3-148.7,141.5-148.7
	c40.2,0,70.8,14.3,105.8,48.7V740.4z M655.9,1156.5h85l43.5-266.8l114.9,272.6h23.4l118.8-272.6l39,266.8h85l-72-440.8H1035
	l-122.7,283l-118.2-283h-57.8L655.9,1156.5z M329.4,1083.1V796.9h22.7c54.5,0,87.6,9.7,115.5,35.1c29.2,26,46.8,66.2,46.8,107.8
	s-17.5,83.1-46.8,109.1c-26.6,24-61,34.4-115.5,34.4h-22.7V1083.1z M245,1156.5h123.3c65.6,0,113-14.9,154.5-50
	c49.3-40.2,78.5-102.6,78.5-166.2c0-127.9-95.4-216.8-232.4-216.8H245V1156.5z"/>
<polygon class="st1" points="1555,394.9 1465.2,394.9 1465.2,305 1414.8,305 1414.8,394.9 1325,394.9 1325,445.1 1414.8,445.1 
	1414.8,535 1465.2,535 1465.2,445.1 1555,445.1 "/>
<g class="st2">
	<path class="st0" d="M2256.1,1351.6c0,21.7-4.2,41.5-12.7,59.2c-8.5,17.7-19.5,32.4-33.2,44.1c-14.2,12.1-30.1,21.2-47.6,27.5
		c-17.5,6.2-35.8,9.3-55,9.3h-99.4l2.4-10.6c2.8,0,6.7-0.3,11.8-0.8c5.1-0.5,8.7-1.2,10.8-2.1c3.9-1.5,6.8-3.6,8.8-6.3
		c2-2.7,3.3-6,4.1-9.7l37.9-163.9c0.3-1.3,0.6-2.7,0.9-4.3c0.3-1.6,0.4-2.8,0.4-3.8c0-2.4-0.4-4.4-1.2-6.2s-2.4-3.2-4.9-4.4
		c-2.8-1.3-6.2-2.4-10.3-3.3c-4.1-0.9-7.2-1.5-9.3-1.8l2.4-10.6h96.5c9.6,0,20.1,1.4,31.5,4.1c11.3,2.7,21.9,7.4,31.8,14
		c10.4,7,18.7,16.2,25,27.9S2256.1,1335.3,2256.1,1351.6z M2218.4,1351.8c0-24-6.4-42.6-19.3-55.9c-12.9-13.3-29.9-19.9-51.3-19.9
		c-4.4,0-8.9,0.1-13.7,0.2c-4.7,0.2-8.4,0.3-11.1,0.4l-40.7,176.9c-0.3,1.5-0.6,3-0.8,4.3c-0.2,1.4-0.3,2.7-0.3,4
		c0,6.4,2.7,11,8,13.6c5.4,2.6,14.1,3.9,26.3,3.9c16,0,30.5-3.6,43.6-10.9s24-17,32.7-29.1c8.9-12.5,15.5-26.2,19.9-41
		C2216.1,1383.5,2218.4,1368.1,2218.4,1351.8z"/>
	<path class="st0" d="M2407.9,1362.9c0,11.4-3.6,21.1-10.7,29.3c-7.1,8.1-17.5,14.6-31.1,19.5c-10,3.6-20,6.6-30.2,8.8
		c-10.2,2.3-21.4,4.1-33.7,5.6c0,16.9,3.1,29.8,9.4,38.8s15.4,13.4,27.5,13.4c10.7,0,20.2-2.7,28.3-8c8.2-5.4,16.2-13.3,24.2-23.9
		l9.2,6.7c-8.6,13.1-19.3,23.5-32.1,31.3c-12.8,7.8-26.2,11.7-40,11.7c-18.9,0-33.4-5.3-43.4-15.9c-10-10.6-15-25.7-15-45.2
		c0-13.5,2.1-26.4,6.3-38.7c4.2-12.3,10.4-23.5,18.5-33.7c7.9-10,17.6-18,29.1-24.1c11.5-6.1,24.2-9.2,38.1-9.2
		c15.4,0,26.8,3.1,34.3,9.4C2404.1,1345.1,2407.9,1353.2,2407.9,1362.9z M2378.3,1359c0-4.2-0.6-7.4-1.8-9.9
		c-1.2-2.4-2.7-4.2-4.5-5.4c-1.9-1.3-4-2.1-6.1-2.4c-2.1-0.3-4.3-0.5-6.6-0.5c-12.8,0-24.7,7.1-35.6,21.2
		c-10.9,14.1-17.7,31.7-20.6,52.7c7.5-1.1,15.9-2.6,25.4-4.6c9.4-2,17.2-4.6,23.4-7.8c8.9-4.6,15.5-10.5,19.8-17.7
		C2376.2,1377.5,2378.3,1368.9,2378.3,1359z"/>
	<path class="st0" d="M2510.8,1245.5l-44.9,193.3c-1,4.1-1.9,8.1-2.7,12.2c-0.8,4.1-1.3,7.4-1.3,10c0,6.1,1.4,10.3,4.1,12.5
		c2.7,2.2,7.1,3.4,13.2,3.4c2.1,0,5.3-0.3,9.5-0.8s7.4-1.2,9.5-1.9l-2.4,10.3c-9.6,3.9-17,6.6-22.2,8.2c-5.2,1.6-11.1,2.4-17.6,2.4
		c-8.6,0-15.1-2.2-19.5-6.7c-4.4-4.4-6.7-9.9-6.7-16.5c0-2.5,0.2-5,0.7-7.7c0.5-2.7,1.1-6.1,2-10.1l39.1-169.2
		c0.7-3.3,1.3-5.6,1.5-6.9c0.3-1.3,0.4-2.9,0.4-4.8c0-3.9-0.6-6.8-1.9-8.9c-1.3-2.1-3.1-3.7-5.5-4.7c-2.3-1-5.1-1.6-8.6-1.9
		c-3.4-0.3-6.9-0.7-10.5-1.1l2.3-9.8l59.7-3.5L2510.8,1245.5z"/>
	<path class="st0" d="M2596.5,1474.1l-2.4,10.3c-9.9,4-17.7,6.7-23.6,8.3c-5.9,1.6-10.9,2.3-15.1,2.3c-8.6,0-15-2.2-19.3-6.7
		c-4.3-4.4-6.4-9.9-6.4-16.5c0-2.5,0.2-5,0.6-7.7c0.4-2.7,1.1-6.1,2.1-10.1l17-68.3c0.9-3.7,1.7-7.8,2.5-12.1s1.2-7.9,1.2-10.9
		c0-6-1-10-3-12s-6-3-12.1-3c-2.4,0-5.5,0.4-9.4,1.1c-3.9,0.7-6.9,1.4-8.9,1.9l2.4-10.3c8.3-3.7,15.8-6.5,22.5-8.3
		c6.6-1.8,11.9-2.7,15.7-2.7c8.8,0,15.1,2.1,19.1,6.3c4,4.2,5.9,9.8,5.9,16.9c0,1.9-0.2,4.6-0.6,7.9c-0.4,3.3-1.1,6.6-1.9,10
		l-17.1,68.3c-1.1,4.2-2,8.3-2.8,12.3s-1.2,7.3-1.2,9.9c0,6.1,1.4,10.3,4.1,12.5c2.7,2.3,7.1,3.4,13.2,3.4c2,0,4.9-0.3,8.7-0.8
		C2591.6,1475.5,2594.5,1474.9,2596.5,1474.1z M2607.9,1268.8c0,6.1-2,11.4-5.9,16c-4,4.5-8.9,6.8-14.8,6.8
		c-5.5,0-10.2-2.2-14.1-6.5c-4-4.3-5.9-9.3-5.9-14.9c0-5.9,2-11,5.9-15.4c4-4.4,8.7-6.6,14.1-6.6c6.1,0,11.1,2.1,14.9,6.2
		C2606,1258.5,2607.9,1263.3,2607.9,1268.8z"/>
	<path class="st0" d="M2772.7,1359.2c0,16.3-2.5,32.8-7.4,49.6s-11.7,31.4-20.2,44c-8.7,13-19,23.5-31,31.6s-25.2,12.1-39.5,12.1
		c-14,0-25.2-3.9-33.6-11.7c-8.3-7.8-12.5-18.2-12.5-31.3c0-2.5,0.3-5.2,0.9-8.4c0.6-3.1,1-5.2,1.2-6.3l14-51.4
		c1.1-4.2,2-8.3,2.8-12.3s1.2-7.5,1.2-10.5c0-6-1-10-3.1-12.1s-6.2-3.1-12.3-3.1c-2.2,0-5.3,0.5-9.2,1.4c-3.9,0.9-6.7,1.6-8.7,2.1
		l2.4-10.2c8.4-3.7,15.8-6.6,22.3-8.6s11.6-3,15.5-3c8.6,0,14.9,2,19,6s6.2,9.7,6.2,17.2c0,2.1-0.2,4.7-0.6,7.8c-0.4,3.1-1,6.4-2,10
		l-15.5,60c-1.1,4.1-1.9,8-2.4,11.7c-0.5,3.8-0.8,6.2-0.8,7.2c0,5.6,0.9,10.1,2.6,13.6c1.8,3.5,4,6.2,6.7,8.1
		c2.6,1.8,5.4,3.1,8.4,3.9c3.1,0.7,6.2,1.1,9.4,1.1c7.3,0,14.8-2.3,22.6-6.9c7.8-4.6,14.5-10.6,20.3-18c6.3-8,11.4-17,15.3-26.9
		c3.9-9.9,5.8-20.9,5.8-32.9c0-6.4-0.9-11.4-2.6-14.9c-1.8-3.5-3.7-6.5-5.9-9.1c-2.1-2.7-4.1-5.5-5.9-8.4c-1.8-2.9-2.6-7.1-2.6-12.5
		c0-6.1,2-10.8,6.1-14c4.1-3.2,8.3-4.8,12.8-4.8c6.3,0,11.3,2.5,14.9,7.6C2770.9,1342.2,2772.7,1349.5,2772.7,1359.2z"/>
	<path class="st0" d="M2931.5,1362.9c0,11.4-3.6,21.1-10.7,29.3c-7.1,8.1-17.5,14.6-31.1,19.5c-10,3.6-20,6.6-30.2,8.8
		c-10.2,2.3-21.4,4.1-33.7,5.6c0,16.9,3.1,29.8,9.4,38.8c6.3,8.9,15.4,13.4,27.5,13.4c10.7,0,20.2-2.7,28.3-8
		c8.2-5.4,16.2-13.3,24.2-23.9l9.2,6.7c-8.6,13.1-19.3,23.5-32.1,31.3c-12.8,7.8-26.2,11.7-40,11.7c-18.9,0-33.4-5.3-43.4-15.9
		c-10-10.6-15-25.7-15-45.2c0-13.5,2.1-26.4,6.3-38.7c4.2-12.3,10.4-23.5,18.5-33.7c7.9-10,17.6-18,29.1-24.1
		c11.5-6.1,24.2-9.2,38.1-9.2c15.4,0,26.8,3.1,34.3,9.4C2927.8,1345.1,2931.5,1353.2,2931.5,1362.9z M2901.9,1359
		c0-4.2-0.6-7.4-1.8-9.9c-1.2-2.4-2.7-4.2-4.5-5.4c-1.9-1.3-4-2.1-6.1-2.4c-2.1-0.3-4.3-0.5-6.6-0.5c-12.8,0-24.7,7.1-35.6,21.2
		c-10.9,14.1-17.7,31.7-20.6,52.7c7.5-1.1,16-2.6,25.4-4.6s17.2-4.6,23.4-7.8c8.9-4.6,15.5-10.5,19.8-17.7
		C2899.8,1377.5,2901.9,1368.9,2901.9,1359z"/>
	<path class="st0" d="M3091.1,1355.6c0,3-0.4,6.3-1.3,9.9c-0.9,3.6-2.1,6.6-3.7,8.9c-1.9,2.9-4,5.1-6.3,6.7
		c-2.3,1.6-5.6,2.3-9.9,2.3c-5.8,0-10.1-1.4-13-4.3c-2.9-2.9-4.3-6.1-4.3-9.6c0-3.3,0.8-7,2.4-11.2c1.6-4.2,3.3-8.2,5-12.3
		c-1.3,0-3.4,0.3-6.3,1c-2.9,0.7-6.5,2.1-10.7,4.1s-8.9,5.1-14.2,9.2s-10.9,9.5-16.9,16.2l-25.9,115.1h-30l23.4-104.2
		c0.5-2.6,1.3-6.4,2.3-11.6c1-5.1,1.5-9,1.5-11.4c0-6-1-10-3.1-12.1c-2-2-6.1-3.1-12.2-3.1c-2.4,0-5.3,0.4-9,1.2
		c-3.6,0.8-6.5,1.5-8.5,2l2.4-10.3c8.3-3.7,15.7-6.5,22.2-8.3c6.4-1.8,11.9-2.7,16.5-2.7c8.6,0,14.7,2.3,18.3,7
		c3.6,4.7,5.5,11.7,5.5,21h1c12.7-11,22.4-18.7,29-23.1s13.5-6.6,20.6-6.6c3.4,0,6.7,0.4,10,1.3s5.9,2.3,8.2,4.3
		c2.4,2.2,4.1,4.8,5.2,7.8S3091.1,1350.1,3091.1,1355.6z"/>
	<path class="st0" d="M3178.1,1474.1l-2.4,10.3c-9.9,4-17.7,6.7-23.6,8.3c-5.9,1.6-10.9,2.3-15.1,2.3c-8.6,0-15-2.2-19.3-6.7
		c-4.3-4.4-6.4-9.9-6.4-16.5c0-2.5,0.2-5,0.6-7.7c0.4-2.7,1.1-6.1,2.1-10.1l17-68.3c0.9-3.7,1.7-7.8,2.5-12.1s1.2-7.9,1.2-10.9
		c0-6-1-10-3-12s-6-3-12.1-3c-2.4,0-5.5,0.4-9.4,1.1c-3.9,0.7-6.9,1.4-8.9,1.9l2.4-10.3c8.3-3.7,15.8-6.5,22.5-8.3
		c6.6-1.8,11.9-2.7,15.7-2.7c8.8,0,15.1,2.1,19.1,6.3s5.9,9.8,5.9,16.9c0,1.9-0.2,4.6-0.6,7.9c-0.4,3.3-1.1,6.6-1.9,10l-17.1,68.3
		c-1.1,4.2-2,8.3-2.8,12.3s-1.2,7.3-1.2,9.9c0,6.1,1.4,10.3,4.1,12.5c2.7,2.3,7.1,3.4,13.2,3.4c2,0,4.9-0.3,8.7-0.8
		C3173.2,1475.5,3176.1,1474.9,3178.1,1474.1z M3189.5,1268.8c0,6.1-2,11.4-5.9,16c-4,4.5-8.9,6.8-14.8,6.8
		c-5.5,0-10.2-2.2-14.1-6.5c-4-4.3-5.9-9.3-5.9-14.9c0-5.9,2-11,5.9-15.4c4-4.4,8.7-6.6,14.1-6.6c6.1,0,11.1,2.1,14.9,6.2
		S3189.5,1263.3,3189.5,1268.8z"/>
	<path class="st0" d="M3371.9,1473l-2.4,10.3c-9.7,3.9-17.2,6.7-22.6,8.4c-5.4,1.8-10.8,2.6-16.3,2.6c-8.6,0-15-2.2-19.3-6.7
		c-4.3-4.4-6.4-9.9-6.4-16.5c0-2.4,0.2-5,0.6-7.8c0.4-2.8,1.1-6.2,2.1-10l15.9-60c1.2-4.6,2.1-8.8,2.8-12.5c0.7-3.7,1-6.7,1-9
		c0-7.2-1.7-12.9-5.1-17c-3.4-4.2-8.5-6.3-15.1-6.3c-6.5,0-13.8,2.1-21.8,6.4c-8.1,4.3-15.7,10.5-22.8,18.7l-27.4,118h-30
		l24.1-104.2c0.5-2.6,1.3-6.3,2.3-11.2s1.5-8.8,1.5-11.8c0-6-1-10-3.1-12.1c-2-2-6.1-3.1-12.3-3.1c-2.4,0-5.4,0.4-9,1.2
		c-3.6,0.8-6.5,1.5-8.6,2l2.4-10.3c8.4-3.7,15.8-6.5,22.3-8.3c6.5-1.8,12-2.7,16.6-2.7c8.5,0,14.6,2.3,18.2,6.9
		c3.7,4.6,5.6,11,5.8,19.1h1c11.7-9.4,21.9-16.4,30.4-21s18.2-6.8,29.1-6.8c10.2,0,18.2,3,24,8.9c5.8,6,8.6,13.7,8.6,23.4
		c0,1.9-0.3,5.4-0.9,10.3c-0.6,4.9-1.5,9.8-2.8,14.6l-13.5,51.6c-1,3.4-1.9,7.4-2.8,11.8c-0.9,4.4-1.4,7.9-1.4,10.4
		c0,6.1,1.3,10.3,4,12.5c2.7,2.2,7.1,3.3,13.2,3.3c2,0,5-0.3,8.8-1C3367,1474.5,3369.9,1473.8,3371.9,1473z"/>
	<path class="st0" d="M3495.3,1469.9l-1.1-0.3c-2.1,1.7-5.2,4.1-9.1,7.2c-3.9,3.1-8,5.8-12.3,8.2c-4.9,2.9-9.9,5.2-14.9,7.1
		c-5,1.8-10.6,2.7-16.7,2.7c-15.5,0-27.5-5.5-35.9-16.5s-12.6-26.1-12.6-45.4c0-13.3,2.4-26.2,7.3-38.7c4.9-12.5,11.5-23.7,20-33.4
		c8.1-9.4,17.9-17,29.2-22.7c11.3-5.7,23.2-8.6,35.6-8.6c7.7,0,15,1,21.8,3c6.9,2,12.4,4.3,16.5,7l29.4-7.6l1.9,2.4l-27,126.6
		c-4.1,19.2-9.3,35.4-15.7,48.6s-13.7,23.7-22.1,31.4c-8.6,7.9-18,13.6-28.3,16.9c-10.3,3.4-22,5.1-35.1,5.1
		c-8.9,0-16.1-0.7-21.8-2.1c-5.6-1.4-10-3.2-13.2-5.5c-3.2-2.3-5.4-4.8-6.5-7.6c-1.1-2.8-1.7-5.5-1.7-8.1c0-4.8,1.4-8.9,4.3-12.1
		c2.9-3.3,6.8-4.9,11.9-4.9c4,0,7.3,1.2,10.1,3.5c2.8,2.3,5,4.8,6.7,7.5c1.8,2.8,3.6,6.1,5.3,10s3,6.7,3.9,8.7h4.8
		c5.9,0,12.2-1.3,18.9-4c6.7-2.7,12.9-7,18.5-13c5.7-6.2,11-14.5,15.9-25C3488.5,1499.7,3492.4,1486.3,3495.3,1469.9z
		 M3516.6,1367.2c0-3-0.5-6.1-1.4-9.2c-0.9-3.2-2.6-6.1-5.1-8.8c-2.4-2.6-5.3-4.6-9-6.1c-3.6-1.5-8.3-2.3-13.9-2.3
		c-8.2,0-16,2.5-23.3,7.5s-13.9,11.8-19.8,20.5c-5.4,8.1-9.9,18-13.3,29.6c-3.4,11.6-5.1,23.2-5.1,34.9c0,6.3,0.5,12.1,1.4,17.4
		s2.5,9.9,4.7,13.9s5.2,7,8.9,9.2c3.7,2.2,8.5,3.3,14.4,3.3c7.5,0,14.9-2.2,22.3-6.5c7.4-4.3,14.4-9.9,21-16.6L3516.6,1367.2z"/>
	<path class="st0" d="M3933.4,1263.8l-2.4,10.6c-3,0.1-6.7,0.6-11.2,1.4c-4.5,0.9-7.9,1.7-10.3,2.4c-4.2,1.4-7.2,3.6-9,6.6
		s-3.2,6.2-4,9.6l-38.2,165.9c-0.2,0.9-0.4,1.8-0.5,2.9c-0.1,1.1-0.2,2-0.2,2.7c0,2.2,0.5,4.2,1.4,5.9c1,1.7,2.5,3.3,4.7,4.7
		c1.6,1,4.5,1.9,8.8,2.9c4.2,1,7.8,1.5,10.8,1.6l-2.4,10.6h-94.6l2.4-10.6c2.7-0.2,6.5-0.5,11.4-1c4.9-0.4,8.4-1.1,10.4-1.9
		c3.7-1.4,6.6-3.4,8.7-6.1c2-2.7,3.5-6,4.3-10l19-82.3h-107.1l-18.5,80.6c-0.2,0.9-0.4,1.8-0.5,2.7c-0.1,1-0.2,1.9-0.2,2.7
		c0,2.1,0.5,4.2,1.5,6.1c1,1.9,2.5,3.5,4.6,4.7c1.6,1,4.5,1.9,8.8,2.9c4.2,1,7.8,1.5,10.8,1.6l-2.4,10.6h-94.6l2.4-10.6
		c2.7-0.2,6.5-0.5,11.4-1c4.9-0.4,8.4-1.1,10.4-1.9c3.7-1.4,6.6-3.4,8.7-6.1c2-2.7,3.5-6,4.3-10l38.4-166c0.2-0.9,0.4-1.7,0.5-2.6
		c0.1-0.9,0.2-1.8,0.2-2.8c0-2.4-0.5-4.4-1.4-6.1c-0.9-1.7-2.5-3.2-4.9-4.5c-2.6-1.4-5.8-2.6-9.6-3.7c-3.9-1.1-7.3-1.7-10.3-1.9
		l2.4-10.6h94.5l-2.4,10.6c-3,0.1-6.7,0.6-11.2,1.4c-4.5,0.9-7.9,1.7-10.3,2.4c-4.2,1.4-7.2,3.6-9,6.6s-3.2,6.2-4,9.6l-16.5,71.8
		h107.1l16.2-70.2c0.2-0.9,0.4-1.7,0.5-2.6c0.1-0.9,0.2-1.8,0.2-2.6c0-2.4-0.5-4.4-1.4-6.2c-0.9-1.8-2.5-3.3-4.9-4.6
		c-2.6-1.4-5.8-2.6-9.6-3.7c-3.9-1.1-7.3-1.7-10.3-1.9l2.4-10.6H3933.4L3933.4,1263.8z"/>
	<path class="st0" d="M4065.8,1362.9c0,11.4-3.6,21.1-10.7,29.3c-7.1,8.1-17.5,14.6-31.1,19.5c-10,3.6-20,6.6-30.2,8.8
		c-10.2,2.3-21.4,4.1-33.7,5.6c0,16.9,3.1,29.8,9.4,38.8c6.3,8.9,15.4,13.4,27.5,13.4c10.7,0,20.2-2.7,28.3-8
		c8.2-5.4,16.2-13.3,24.2-23.9l9.2,6.7c-8.6,13.1-19.3,23.5-32.1,31.3c-12.8,7.8-26.2,11.7-40,11.7c-18.9,0-33.4-5.3-43.4-15.9
		c-10-10.6-15-25.7-15-45.2c0-13.5,2.1-26.4,6.3-38.7c4.2-12.3,10.4-23.5,18.5-33.7c7.9-10,17.6-18,29.1-24.1
		c11.5-6.1,24.2-9.2,38.1-9.2c15.4,0,26.8,3.1,34.3,9.4C4062,1345.1,4065.8,1353.2,4065.8,1362.9z M4036.2,1359
		c0-4.2-0.6-7.4-1.8-9.9c-1.2-2.4-2.7-4.2-4.5-5.4c-1.9-1.3-4-2.1-6.1-2.4c-2.1-0.3-4.3-0.5-6.6-0.5c-12.8,0-24.7,7.1-35.6,21.2
		c-10.9,14.1-17.7,31.7-20.6,52.7c7.5-1.1,16-2.6,25.4-4.6s17.2-4.6,23.4-7.8c8.9-4.6,15.5-10.5,19.8-17.7
		C4034.1,1377.5,4036.2,1368.9,4036.2,1359z"/>
	<path class="st0" d="M4183.8,1470.4h-1.1c-2.4,1.9-5.2,4.4-8.4,7.3c-3.3,2.9-7.1,5.8-11.5,8.4c-4.2,2.7-8.7,5-13.6,7s-10.3,3-16,3
		c-15.5,0-27.7-5.6-36.5-16.7c-8.8-11.1-13.2-26.4-13.2-45.7c0-13.3,2.5-26.2,7.4-38.7s11.7-23.8,20.4-33.8
		c8.2-9.5,18-17.2,29.4-23.1c11.3-5.8,23-8.8,35-8.8c7.6,0,14.8,1,21.7,3.1c6.9,2,12.3,4.3,16.3,6.9l29.5-7.6l1.9,2.4l-24.6,103.9
		c-0.9,3.3-1.7,7.4-2.6,12.1c-0.9,4.8-1.4,8.3-1.4,10.5c0,6.1,1.3,10.2,3.9,12.4c2.6,2.1,6.9,3.2,13,3.2c2,0,4.9-0.3,8.7-1
		c3.8-0.6,6.6-1.3,8.7-2.1l-2.4,10.3c-9.7,3.9-16.8,6.6-21.6,8.3c-4.7,1.7-10.5,2.6-17.2,2.6c-7.7,0-13.8-2.3-18.3-6.7
		C4186.7,1483.1,4184.2,1477.4,4183.8,1470.4z M4207,1368.8c0-3.5-0.4-6.9-1.1-10.1c-0.7-3.2-2.3-6.2-4.7-9
		c-2.1-2.7-5.1-4.8-8.8-6.4c-3.7-1.6-8.5-2.4-14.1-2.4c-7.8,0-15.4,2.6-22.8,7.7c-7.4,5.1-14,12.1-19.9,20.7
		c-5.6,8.1-10.1,18-13.7,29.6c-3.5,11.6-5.3,23.3-5.3,35.2c0,6.5,0.4,12.3,1.1,17.4c0.7,5,2.2,9.6,4.3,13.8c2,4.1,5,7.2,8.8,9.5
		c3.8,2.3,8.7,3.4,14.6,3.4c6,0,12.3-1.7,18.8-5.1c6.6-3.4,14-9.3,22.2-17.8L4207,1368.8z"/>
	<path class="st0" d="M4357.1,1245.5l-44.9,193.3c-1,4.1-1.9,8.1-2.7,12.2c-0.9,4.1-1.3,7.4-1.3,10c0,6.1,1.4,10.3,4.1,12.5
		c2.7,2.2,7.1,3.4,13.2,3.4c2.1,0,5.3-0.3,9.5-0.8s7.4-1.2,9.5-1.9l-2.4,10.3c-9.6,3.9-17,6.6-22.2,8.2c-5.2,1.6-11.1,2.4-17.6,2.4
		c-8.6,0-15.1-2.2-19.5-6.7c-4.4-4.4-6.7-9.9-6.7-16.5c0-2.5,0.2-5,0.7-7.7c0.5-2.7,1.1-6.1,2-10.1l39.1-169.2
		c0.7-3.3,1.3-5.6,1.5-6.9c0.2-1.3,0.4-2.9,0.4-4.8c0-3.9-0.6-6.8-1.9-8.9s-3.1-3.7-5.5-4.7c-2.3-1-5.1-1.6-8.6-1.9
		c-3.4-0.3-6.9-0.7-10.5-1.1l2.3-9.8l59.7-3.5L4357.1,1245.5z"/>
	<path class="st0" d="M4403,1495c-10.2,0-17.6-2.1-22.3-6.2c-4.7-4.1-7.1-10-7.1-17.7c0-2.5,0.2-4.8,0.5-7c0.3-2.2,0.7-4.7,1.3-7.5
		l25-107.3h-28.7l3.4-14.6h29.3l11.2-47h28.9l-10.9,47h44.7l-3.4,14.6h-44.3l-20.7,88.5c-1,4.1-1.8,8-2.4,11.8c-0.6,3.8-1,7-1,9.7
		c0,5.9,1.5,10.2,4.4,12.9c2.9,2.7,8.3,4.1,16,4.1c2.8,0,6.7-0.3,11.7-1c5-0.7,8.9-1.6,11.7-2.6l-2.7,11.7
		c-7.5,2.9-14.6,5.4-21.2,7.5S4412,1495,4403,1495z"/>
	<path class="st0" d="M4644,1473l-2.4,10.3c-9.6,3.9-17.1,6.7-22.5,8.4c-5.4,1.8-10.8,2.6-16.2,2.6c-8.6,0-15-2.2-19.3-6.7
		c-4.3-4.4-6.4-9.9-6.4-16.5c0-2.4,0.2-5,0.6-7.8c0.4-2.8,1.1-6.2,2.1-10l15.7-60c1.2-4.6,2.1-8.8,2.8-12.5c0.7-3.7,1-6.7,1-9
		c0-7.2-1.7-12.9-5.1-17c-3.4-4.2-8.5-6.3-15.1-6.3c-6.8,0-14.2,2.2-22.1,6.6c-7.9,4.4-15.4,10.6-22.5,18.5l-27.3,118h-30
		l47.8-206.8c0.5-2.5,1-4.5,1.4-6.3c0.4-1.7,0.6-3.5,0.6-5.5c0-3.9-0.6-6.8-1.9-8.9c-1.3-2.1-3.1-3.7-5.5-4.7c-2-1-4.8-1.6-8.4-1.9
		c-3.5-0.3-7.1-0.7-10.6-1.1l2.3-9.8l59.7-3.5l1.6,2.4l-25.7,111h0.6c11-8.9,20.8-15.6,29.4-20.2c8.6-4.6,18.4-6.8,29.4-6.8
		c10.2,0,18.2,3,24,8.9c5.8,6,8.6,13.7,8.6,23.4c0,1.9-0.3,5.4-0.9,10.3s-1.5,9.8-2.8,14.6l-13.5,51.6c-0.9,3.4-1.8,7.4-2.7,11.8
		c-1,4.4-1.4,7.9-1.4,10.4c0,6.1,1.3,10.3,4,12.5c2.7,2.2,7.1,3.3,13.2,3.3c2,0,5-0.3,8.8-1C4639,1474.5,4641.9,1473.8,4644,1473z"
		/>
	<path class="st0" d="M4741.9,1474.1l-2.4,10.3c-9.8,4-17.7,6.7-23.6,8.3s-10.9,2.3-15.1,2.3c-8.6,0-15-2.2-19.3-6.7
		c-4.3-4.4-6.4-9.9-6.4-16.5c0-2.5,0.2-5,0.6-7.7c0.4-2.7,1.1-6.1,2.1-10.1l17-68.3c0.9-3.7,1.7-7.8,2.5-12.1s1.2-7.9,1.2-10.9
		c0-6-1-10-3-12s-6-3-12.1-3c-2.4,0-5.5,0.4-9.4,1.1c-3.9,0.7-6.9,1.4-8.9,1.9l2.4-10.3c8.3-3.7,15.8-6.5,22.5-8.3
		c6.6-1.8,11.9-2.7,15.7-2.7c8.8,0,15.1,2.1,19.1,6.3c4,4.2,5.9,9.8,5.9,16.9c0,1.9-0.2,4.6-0.6,7.9c-0.4,3.3-1.1,6.6-1.9,10
		l-17.1,68.3c-1.1,4.2-2,8.3-2.8,12.3s-1.2,7.3-1.2,9.9c0,6.1,1.4,10.3,4.1,12.5c2.7,2.3,7.1,3.4,13.2,3.4c2,0,4.9-0.3,8.7-0.8
		C4737,1475.5,4739.9,1474.9,4741.9,1474.1z M4753.3,1268.8c0,6.1-2,11.4-5.9,16c-4,4.5-8.9,6.8-14.8,6.8c-5.5,0-10.2-2.2-14.1-6.5
		c-4-4.3-5.9-9.3-5.9-14.9c0-5.9,2-11,5.9-15.4c4-4.4,8.7-6.6,14.1-6.6c6.1,0,11.1,2.1,14.9,6.2
		C4751.4,1258.5,4753.3,1263.3,4753.3,1268.8z"/>
	<path class="st0" d="M4899.9,1362.9c0,11.4-3.6,21.1-10.7,29.3c-7.1,8.1-17.5,14.6-31.1,19.5c-10,3.6-20,6.6-30.2,8.8
		c-10.2,2.3-21.4,4.1-33.7,5.6c0,16.9,3.1,29.8,9.4,38.8s15.4,13.4,27.5,13.4c10.7,0,20.2-2.7,28.3-8c8.2-5.4,16.2-13.3,24.2-23.9
		l9.2,6.7c-8.6,13.1-19.3,23.5-32.1,31.3c-12.8,7.8-26.2,11.7-40,11.7c-18.9,0-33.4-5.3-43.4-15.9c-10-10.6-15-25.7-15-45.2
		c0-13.5,2.1-26.4,6.3-38.7c4.2-12.3,10.4-23.5,18.5-33.7c7.9-10,17.6-18,29.1-24.1c11.5-6.1,24.2-9.2,38.1-9.2
		c15.4,0,26.8,3.1,34.3,9.4C4896.2,1345.1,4899.9,1353.2,4899.9,1362.9z M4870.4,1359c0-4.2-0.6-7.4-1.8-9.9
		c-1.2-2.4-2.7-4.2-4.5-5.4c-1.9-1.3-4-2.1-6.1-2.4c-2.1-0.3-4.3-0.5-6.6-0.5c-12.8,0-24.7,7.1-35.6,21.2
		c-10.9,14.1-17.7,31.7-20.6,52.7c7.5-1.1,16-2.6,25.4-4.6s17.2-4.6,23.4-7.8c8.9-4.6,15.5-10.5,19.8-17.7
		C4868.2,1377.5,4870.4,1368.9,4870.4,1359z"/>
	<path class="st0" d="M5059.5,1355.6c0,3-0.4,6.3-1.3,9.9s-2.1,6.6-3.7,8.9c-1.9,2.9-4,5.1-6.3,6.7c-2.3,1.6-5.6,2.3-9.9,2.3
		c-5.8,0-10.1-1.4-13-4.3c-2.9-2.9-4.3-6.1-4.3-9.6c0-3.3,0.8-7,2.4-11.2c1.6-4.1,3.3-8.2,5-12.3c-1.3,0-3.4,0.3-6.3,1
		c-2.9,0.7-6.5,2.1-10.7,4.1s-8.9,5.1-14.2,9.2c-5.3,4.1-10.9,9.5-16.9,16.2l-25.9,115.1h-30l23.4-104.2c0.5-2.6,1.3-6.4,2.3-11.6
		c1-5.1,1.5-9,1.5-11.4c0-6-1-10-3.1-12.1c-2-2-6.1-3.1-12.2-3.1c-2.4,0-5.3,0.4-9,1.2s-6.5,1.5-8.5,2l2.4-10.3
		c8.3-3.7,15.7-6.5,22.2-8.3c6.4-1.8,11.9-2.7,16.5-2.7c8.6,0,14.7,2.3,18.3,7c3.6,4.7,5.5,11.7,5.5,21h1c12.7-11,22.4-18.7,29-23.1
		c6.6-4.4,13.5-6.6,20.6-6.6c3.4,0,6.7,0.4,10,1.3c3.3,0.9,5.9,2.3,8.2,4.3c2.4,2.2,4.1,4.8,5.2,7.8
		C5059,1345.8,5059.5,1350.1,5059.5,1355.6z"/>
	<path class="st0" d="M5374.6,1351.5c0,20.3-3.7,39.5-11.2,57.4s-17.3,33.3-29.4,46c-12.4,13.1-26.6,23.4-42.5,30.9
		s-32.4,11.3-49.4,11.3c-26.5,0-48-8.6-64.2-25.9c-16.3-17.2-24.4-39.3-24.4-66.3c0-20.8,3.7-40.1,11.2-57.9
		c7.5-17.8,17.2-33.2,29.2-46.2c12.1-13.2,26.2-23.6,42.3-31.2c16.1-7.6,32.7-11.4,49.7-11.4c26.1,0,47.4,8.4,63.9,25.3
		C5366.3,1300.5,5374.6,1323.1,5374.6,1351.5z M5313.2,1437.2c7.6-13.3,13.4-28.3,17.5-45c4.1-16.7,6.1-33.4,6.1-50.1
		c0-21.4-4.5-38.5-13.6-51.2c-9.1-12.7-22.5-19.1-40.1-19.1c-13.7,0-26.4,4.1-38.2,12.2c-11.8,8.1-22.1,20.1-30.8,35.8
		c-7.6,13.8-13.3,29-17.1,45.6c-3.8,16.6-5.7,32.2-5.7,46.9c0,22.5,4.6,40,13.9,52.5s22.5,18.8,39.7,18.8c14.7,0,27.8-4.4,39.5-13.2
		C5296,1461.7,5305.6,1450.6,5313.2,1437.2z"/>
	<path class="st0" d="M5491.2,1469.2h-1c-4.9,4-9.6,7.6-14.1,10.9c-4.5,3.3-8.9,6.1-13.3,8.3c-5.1,2.6-9.8,4.4-14,5.5
		s-9.6,1.7-16.4,1.7c-10.3,0-18.3-3-23.9-8.9c-5.7-5.9-8.5-13.7-8.5-23.4c0-2.6,0.2-5.6,0.6-9.2c0.4-3.5,1.4-8.8,3-15.7l12.5-50.9
		c1.1-4.7,1.9-8.9,2.6-12.5s1-7.1,1-10.4c0-6-1-10-3-12s-6-3-12.1-3c-2.4,0-5.3,0.5-9,1.3c-3.6,0.9-6.5,1.6-8.5,2.2l2.4-10.4
		c8.4-3.8,15.7-6.6,22.1-8.6c6.4-1.9,11.5-2.9,15.3-2.9c8.6,0,14.9,2,18.9,6s6,9.7,6,17.1c0,1.9-0.2,4.5-0.6,7.9
		c-0.4,3.3-1.1,6.6-1.9,10l-14.2,59.4c-1.1,4.5-1.9,8.7-2.6,12.6c-0.7,3.9-1,6.9-1,8.9c0,7.2,1.6,12.8,4.7,17
		c3.1,4.2,8,6.3,14.8,6.3s13.9-1.8,21.1-5.4s14.5-9,21.7-16.3l28-120.9l28-1.9l1.9,2.4l-23.9,103.4c-1.1,4.4-2,8.8-2.9,13.2
		s-1.3,7.6-1.3,9.4c0,6.1,1.3,10.2,3.9,12.4c2.6,2.2,7,3.3,13.1,3.3c2,0,4.9-0.3,8.7-1c3.7-0.6,6.6-1.3,8.7-2.1l-2.4,10.3
		c-8.9,3.6-16.3,6.4-22.2,8.2c-5.9,1.8-11.4,2.7-16.5,2.7c-8.7,0-15.1-2.5-19.3-7.5C5493.3,1481.8,5491.2,1475.9,5491.2,1469.2z"/>
	<path class="st0" d="M5615.4,1495c-10.2,0-17.6-2.1-22.3-6.2c-4.7-4.1-7.1-10-7.1-17.7c0-2.5,0.2-4.8,0.5-7
		c0.3-2.2,0.7-4.7,1.3-7.5l25-107.3h-28.7l3.4-14.6h29.3l11.2-47h28.9l-10.9,47h44.7l-3.4,14.6H5643l-20.7,88.5
		c-1,4.1-1.8,8-2.4,11.8c-0.6,3.8-1,7-1,9.7c0,5.9,1.5,10.2,4.4,12.9c2.9,2.7,8.3,4.1,16,4.1c2.8,0,6.7-0.3,11.7-1
		c5-0.7,8.9-1.6,11.7-2.6l-2.7,11.7c-7.5,2.9-14.6,5.4-21.2,7.5C5632.2,1494,5624.4,1495,5615.4,1495z"/>
	<path class="st0" d="M5752.4,1496.1c-18.7,0-33.5-5.5-44.4-16.4s-16.3-26.5-16.3-46.6c0-13.4,2.1-26.2,6.2-38.5
		c4.1-12.3,9.9-23.2,17.3-32.7s16.7-17.3,28-23.4s23.8-9.1,37.7-9.1c15.3,0,26.9,3.2,34.9,9.7s12,14.6,12,24.5
		c0,7.4-1.7,13.9-5.2,19.4c-3.5,5.6-8.7,8.3-15.7,8.3c-5.8,0-10.1-1.4-13-4.3s-4.3-6.1-4.3-9.6c0-3.4,1.2-8.1,3.5-14
		c2.3-5.9,4.2-10.7,5.5-14.3c-1.2-2.9-3.8-5-7.9-6.3c-4.1-1.3-8.3-2-12.7-2c-14.6,0-27.1,8.5-37.7,25.5
		c-10.5,17-15.8,37.8-15.8,62.4c0,15.2,3.4,27.3,10.2,36.2c6.8,8.9,16,13.4,27.6,13.4c10.4,0,19.6-2.8,27.7-8.3
		c8.1-5.6,15.8-13.4,23.2-23.6l9.2,6.7c-7.4,11.7-17.4,21.8-30.1,30.3S5766.3,1496.1,5752.4,1496.1z"/>
	<path class="st0" d="M5996,1392.6c0,12.6-2.1,25.3-6.4,37.9s-10.5,23.7-18.6,33.3c-8.2,9.9-18.2,17.8-29.8,23.7
		c-11.6,5.9-25.1,8.9-40.4,8.9c-17.8,0-32.2-5.7-43.3-17.2c-11.1-11.5-16.6-26.9-16.6-46.3c0-14.2,2.4-27.5,7.1-39.9
		c4.7-12.3,11-23.1,18.9-32.5c8-9.3,18-16.8,29.8-22.6c11.8-5.7,24.6-8.6,38.5-8.6c19.1,0,34,5.8,44.7,17.4
		C5990.6,1358.5,5996,1373.8,5996,1392.6z M5963.2,1386.5c0-15.2-2.7-26.6-8.1-34.2c-5.4-7.6-13.2-11.4-23.4-11.4
		c-8.9,0-17.3,2.7-25.1,8.2c-7.9,5.5-14.6,14.4-20.3,26.7c-4.4,9.3-7.6,19.7-9.6,31.1s-3.1,21.9-3.1,31.6c0,15.3,2.6,26.9,7.9,34.8
		s13.3,11.8,24,11.8c9.5,0,18-3,25.4-9s13.4-13.6,18-22.8c4.6-9,8.1-19.3,10.6-30.9C5962,1410.7,5963.2,1398.7,5963.2,1386.5z"/>
	<path class="st0" d="M6286.5,1473.5l-2.4,10.3c-9.9,4-17.8,6.7-23.7,8.3c-5.9,1.6-11,2.3-15.1,2.3c-8.6,0-15-2.2-19.3-6.7
		c-4.3-4.4-6.4-9.9-6.4-16.5c0-2.4,0.2-5,0.6-7.8c0.4-2.8,1.1-6.2,2.1-10l15.9-60c1.2-4.6,2.1-8.8,2.8-12.5c0.7-3.7,1-6.7,1-9
		c0-7.2-1.5-12.9-4.6-17c-3.1-4.2-8-6.3-14.7-6.3c-7.1,0-14.1,1.7-21,5.1c-6.9,3.4-14.6,9.7-23.2,18.9l-28.2,119.1h-29.8l25.3-107.4
		c0.5-2.4,1-4.8,1.5-7.5c0.5-2.6,0.7-4.6,0.7-5.9c0-7-1.7-12.4-5.2-16.4s-8.5-6-15.2-6c-6.1,0-12.8,1.5-20.1,4.6
		c-7.3,3.1-15.8,9.9-25.5,20.5l-27.4,118h-30l24.1-104.2c0.9-3.8,1.7-7.8,2.5-12.1c0.8-4.3,1.2-7.9,1.2-10.9c0-6.2-1-10.3-3.1-12.3
		c-2-2-6-3-11.9-3c-2.4,0-5.4,0.5-9.1,1.3c-3.7,0.9-6.6,1.6-8.6,2.2l2.4-10.4c8.4-3.8,15.8-6.6,22.3-8.4c6.5-1.8,12-2.7,16.6-2.7
		c8.6,0,14.7,2.3,18.3,7c3.6,4.7,5.5,11,5.7,19h1c12.6-10,23-17.1,31.1-21.4c8.1-4.3,17.8-6.4,29-6.4c9.5,0,17.2,2.8,23.2,8.3
		c5.9,5.5,9.3,12.5,10,20.8h0.6c11.4-9.5,21.6-16.8,30.5-21.7s19.3-7.4,31.1-7.4c10.2,0,18.1,3,23.6,8.9c5.5,6,8.2,13.7,8.2,23.4
		c0,1.9-0.3,5.4-0.9,10.3c-0.6,4.9-1.5,9.8-2.8,14.6l-13.5,51.6c-1,3.4-1.9,7.4-2.7,11.8c-0.9,4.4-1.3,7.9-1.3,10.4
		c0,6.1,1.3,10.3,3.9,12.5c2.6,2.2,6.9,3.3,13,3.3c2,0,5-0.3,8.8-0.8C6281.5,1474.9,6284.4,1474.2,6286.5,1473.5z"/>
	<path class="st0" d="M6444.6,1362.9c0,11.4-3.6,21.1-10.7,29.3c-7.1,8.1-17.5,14.6-31.1,19.5c-10,3.6-20,6.6-30.2,8.8
		c-10.2,2.2-21.4,4.1-33.7,5.6c0,16.9,3.1,29.8,9.4,38.8s15.4,13.4,27.5,13.4c10.7,0,20.2-2.7,28.3-8c8.2-5.4,16.2-13.3,24.2-23.9
		l9.2,6.7c-8.6,13.1-19.3,23.5-32.1,31.3c-12.8,7.8-26.2,11.7-40,11.7c-18.9,0-33.4-5.3-43.4-15.9c-10-10.6-15-25.7-15-45.2
		c0-13.5,2.1-26.4,6.3-38.7c4.2-12.3,10.4-23.5,18.5-33.7c7.9-10,17.6-18,29.1-24.1c11.5-6.1,24.2-9.2,38.1-9.2
		c15.4,0,26.8,3.1,34.3,9.4C6440.9,1345.1,6444.6,1353.2,6444.6,1362.9z M6415.1,1359c0-4.2-0.6-7.4-1.8-9.9s-2.7-4.2-4.5-5.4
		c-1.9-1.3-4-2.1-6.1-2.4c-2.1-0.3-4.3-0.5-6.6-0.5c-12.8,0-24.7,7.1-35.6,21.2c-10.9,14.1-17.7,31.7-20.6,52.7
		c7.5-1.1,16-2.6,25.4-4.6s17.2-4.6,23.4-7.8c8.9-4.6,15.5-10.5,19.8-17.7C6412.9,1377.5,6415.1,1368.9,6415.1,1359z"/>
	<path class="st0" d="M6509.2,1496.5c-15.8,0-29-2.8-39.6-8.4c-10.5-5.6-15.8-13-15.8-22.1c0-4.3,1.6-8.3,4.7-12
		c3.1-3.7,6.9-5.6,11.4-5.6c4.3,0,7.7,1,10.4,3c2.6,2,4.7,4.3,6.2,7c1.6,2.8,3,6.1,4.3,10s2.3,7,3.1,9.5c1.6,1.8,3.8,3.5,6.7,5.1
		s6.9,2.3,12.3,2.3c11.6,0,20.3-2.9,26.3-8.7c5.9-5.8,8.9-13.6,8.9-23.5c0-7.3-2.8-13.1-8.3-17.5s-13.9-8.3-24.9-12
		c-4-1.3-8.6-3.2-14-5.9c-5.4-2.6-9.6-5.4-12.8-8.4c-3.9-3.4-7-7.5-9.3-12.2c-2.3-4.7-3.5-10.3-3.5-16.7c0-13.7,6.1-25.6,18.4-35.6
		s27.3-15,45.2-15c4.2,0,8.7,0.2,13.5,0.6c4.8,0.4,10.1,1.6,15.9,3.5c5,1.7,9.3,4.3,12.8,7.6c3.5,3.4,5.3,7.7,5.3,13.1
		c0,4.4-1.5,8.4-4.4,12s-6.8,5.4-11.6,5.4c-4,0-7.2-0.9-9.8-2.6c-2.6-1.7-4.7-4-6.4-6.9s-3.1-6-4.2-9.3c-1.1-3.3-2.2-6.6-3.5-9.8
		c-2-0.9-3.9-1.4-5.5-1.8c-1.6-0.3-3.7-0.5-6.4-0.5c-10.5,0-18.4,2.8-23.8,8.5c-5.4,5.6-8.1,12.3-8.1,20c0,7.5,2.4,13.2,7.3,17
		c4.9,3.8,12.9,7.7,24.2,11.8c14.6,5.3,25.1,11.3,31.7,18c6.6,6.8,9.9,15.1,9.9,25.1c0,16.3-6.3,29.6-18.8,39.8
		C6544,1491.3,6528.2,1496.5,6509.2,1496.5z"/>
</g>
<g>
	<path class="st3" d="M2232.32,438.47c0,44.66-12.71,78.86-38.13,102.61s-62.13,35.62-110.12,35.62h-76.82V305.43h85.17
		c44.28,0,78.67,11.69,103.16,35.07S2232.32,396.53,2232.32,438.47z M2172.58,439.95c0-58.26-25.73-87.39-77.19-87.39h-30.62V529.2
		h24.68C2144.87,529.2,2172.58,499.45,2172.58,439.95z"/>
	<path class="st3" d="M2403.4,576.7l-65.31-212.82h-1.67c2.35,43.3,3.53,72.18,3.53,86.65V576.7h-51.4V305.43h78.3l64.2,207.44h1.11
		l68.1-207.44h78.3V576.7h-53.62V448.3c0-6.06,0.09-13.05,0.28-20.97c0.19-7.91,1.02-28.95,2.5-63.09h-1.67l-69.95,212.45H2403.4z"
		/>
	<path class="st3" d="M2762.06,349.41c-21.65,0-38.41,8.14-50.28,24.4c-11.88,16.27-17.81,38.94-17.81,68
		c0,60.49,22.7,90.73,68.1,90.73c19.05,0,42.12-4.76,69.21-14.29v48.24c-22.27,9.28-47.13,13.92-74.59,13.92
		c-39.46,0-69.64-11.97-90.55-35.9c-20.91-23.94-31.36-58.29-31.36-103.07c0-28.2,5.13-52.91,15.4-74.13
		c10.27-21.21,25.02-37.48,44.25-48.8c19.23-11.32,41.78-16.98,67.63-16.98c26.35,0,52.82,6.37,79.41,19.11l-18.55,46.76
		c-10.14-4.82-20.35-9.03-30.62-12.62C2782.03,351.2,2771.95,349.41,2762.06,349.41z"/>
	<path class="st3" d="M2122.48,805.41c-21.65,0-38.41,8.14-50.28,24.4c-11.88,16.27-17.81,38.94-17.81,68
		c0,60.49,22.7,90.73,68.1,90.73c19.05,0,42.12-4.76,69.21-14.29v48.24c-22.27,9.28-47.13,13.92-74.59,13.92
		c-39.46,0-69.64-11.97-90.55-35.9c-20.91-23.94-31.36-58.29-31.36-103.07c0-28.2,5.13-52.91,15.4-74.13
		c10.27-21.21,25.02-37.48,44.25-48.8c19.23-11.32,41.78-16.98,67.63-16.98c26.35,0,52.82,6.37,79.41,19.11l-18.55,46.76
		c-10.14-4.82-20.35-9.03-30.62-12.62C2142.45,807.2,2132.37,805.41,2122.48,805.41z"/>
	<path class="st3" d="M2436.42,1032.7h-56.59V911.54c0-29.93-11.13-44.9-33.4-44.9c-15.84,0-27.28,5.38-34.33,16.14
		s-10.58,28.2-10.58,52.32v97.6h-56.59V743.99h56.59v58.82c0,4.58-0.44,15.34-1.3,32.29l-1.3,16.7h2.97
		c12.62-20.29,32.66-30.43,60.12-30.43c24.37,0,42.86,6.56,55.48,19.67c12.62,13.11,18.93,31.91,18.93,56.41V1032.7z"/>
	<path class="st3" d="M2626.42,1032.7l-10.95-28.2h-1.48c-9.53,12-19.33,20.32-29.41,24.96c-10.08,4.64-23.23,6.96-39.43,6.96
		c-19.92,0-35.6-5.69-47.04-17.07c-11.44-11.38-17.16-27.58-17.16-48.61c0-22.02,7.7-38.25,23.1-48.71
		c15.4-10.45,38.62-16.24,69.67-17.35l36-1.11v-9.09c0-21.03-10.76-31.54-32.29-31.54c-16.58,0-36.06,5.01-58.45,15.03l-18.74-38.22
		c23.87-12.49,50.34-18.74,79.41-18.74c27.83,0,49.17,6.06,64.01,18.18c14.84,12.12,22.27,30.55,22.27,55.29v138.23H2626.42z
		 M2609.73,936.59l-21.89,0.74c-16.45,0.5-28.7,3.46-36.74,8.91c-8.04,5.44-12.06,13.73-12.06,24.86c0,15.96,9.15,23.94,27.46,23.94
		c13.11,0,23.59-3.77,31.45-11.32c7.85-7.54,11.78-17.56,11.78-30.06V936.59z"/>
	<path class="st3" d="M2789.89,1036.41c-24.37,0-43.51-9.46-57.43-28.39c-13.92-18.93-20.87-45.15-20.87-78.67
		c0-34.02,7.08-60.52,21.25-79.51c14.16-18.99,33.68-28.48,58.54-28.48c26.1,0,46.02,10.14,59.75,30.43h1.86
		c-2.85-15.46-4.27-29.25-4.27-41.38v-66.43h56.78v288.71h-43.42l-10.95-26.9h-2.41
		C2835.84,1026.21,2816.24,1036.41,2789.89,1036.41z M2809.75,991.32c14.47,0,25.08-4.2,31.82-12.62
		c6.74-8.41,10.42-22.7,11.04-42.86v-6.12c0-22.27-3.43-38.22-10.3-47.87s-18.03-14.47-33.49-14.47c-12.62,0-22.42,5.35-29.41,16.05
		c-6.99,10.7-10.48,26.25-10.48,46.67s3.53,35.72,10.58,45.92S2796.63,991.32,2809.75,991.32z"/>
	<path class="st3" d="M3135.19,1032.7l-15.96-72.55l-21.52-91.66h-1.3l-37.85,164.21h-60.86l-59-207.44h56.41l23.94,91.85
		c3.83,16.45,7.73,39.15,11.69,68.1h1.11c0.49-9.4,2.66-24.31,6.49-44.72l2.97-15.77l25.61-99.45h62.34l24.31,99.45
		c0.49,2.72,1.27,6.74,2.32,12.06c1.05,5.32,2.07,10.98,3.06,16.98c0.99,6,1.88,11.88,2.69,17.63c0.8,5.75,1.27,10.36,1.39,13.82
		h1.11c1.11-8.91,3.09-21.12,5.94-36.65c2.84-15.52,4.88-26.01,6.12-31.45l24.86-91.85h55.48l-59.75,207.44H3135.19z"/>
	<path class="st3" d="M3287.53,771.64c0-18.43,10.27-27.65,30.8-27.65c20.53,0,30.8,9.22,30.8,27.65c0,8.78-2.57,15.62-7.7,20.5
		c-5.13,4.89-12.83,7.33-23.1,7.33C3297.79,799.47,3287.53,790.19,3287.53,771.64z M3346.53,1032.7h-56.59V825.26h56.59V1032.7z"/>
	<path class="st3" d="M3490.15,1036.41c-64.57,0-96.86-35.44-96.86-106.32c0-35.25,8.78-62.19,26.35-80.81
		c17.56-18.62,42.74-27.92,75.52-27.92c24,0,45.52,4.7,64.57,14.1l-16.7,43.79c-8.91-3.59-17.2-6.52-24.86-8.81
		c-7.67-2.29-15.34-3.43-23.01-3.43c-29.44,0-44.16,20.91-44.16,62.71c0,40.57,14.72,60.86,44.16,60.86
		c10.88,0,20.97-1.45,30.24-4.36c9.28-2.91,18.55-7.45,27.83-13.64v48.43c-9.16,5.82-18.4,9.83-27.74,12.06
		C3516.15,1035.3,3504.37,1036.41,3490.15,1036.41z"/>
	<path class="st3" d="M3655.65,919.89l24.68-31.54l58.08-63.09h63.83l-82.38,89.99l87.39,117.45h-65.31l-59.75-84.05l-24.31,19.48
		v64.57h-56.59V743.99h56.59v128.77l-2.97,47.13H3655.65z"/>
	<path class="st3" d="M3997.62,928.61v104.09h-57.52V761.43h79.04c36.86,0,64.13,6.71,81.83,20.13
		c17.69,13.42,26.53,33.8,26.53,61.14c0,15.96-4.39,30.15-13.17,42.58c-8.79,12.43-21.22,22.17-37.29,29.22
		c40.82,60.98,67.41,100.38,79.79,118.19h-63.83l-64.76-104.09H3997.62z M3997.62,881.85h18.55c18.18,0,31.6-3.03,40.26-9.09
		c8.66-6.06,12.99-15.59,12.99-28.57c0-12.86-4.42-22.02-13.27-27.46c-8.85-5.44-22.54-8.16-41.1-8.16h-17.44V881.85z"/>
	<path class="st3" d="M4375.02,928.61c0,33.77-8.91,60.18-26.72,79.23c-17.81,19.05-42.62,28.57-74.4,28.57
		c-19.92,0-37.48-4.36-52.7-13.08c-15.21-8.72-26.9-21.25-35.07-37.57s-12.25-35.38-12.25-57.15c0-33.89,8.84-60.24,26.53-79.04
		c17.69-18.8,42.55-28.2,74.59-28.2c19.91,0,37.48,4.33,52.7,12.99c15.21,8.66,26.9,21.09,35.07,37.29
		C4370.94,887.85,4375.02,906.84,4375.02,928.61z M4231.59,928.61c0,20.53,3.37,36.06,10.11,46.57
		c6.74,10.51,17.72,15.77,32.94,15.77c15.09,0,25.94-5.22,32.56-15.68c6.62-10.45,9.93-26.01,9.93-46.67
		c0-20.53-3.34-35.93-10.02-46.2c-6.68-10.27-17.63-15.4-32.84-15.4c-15.09,0-25.98,5.1-32.66,15.31S4231.59,907.95,4231.59,928.61z
		"/>
	<path class="st3" d="M4553.52,1032.7l-10.95-28.2h-1.48c-9.53,12-19.33,20.32-29.41,24.96c-10.08,4.64-23.22,6.96-39.43,6.96
		c-19.92,0-35.6-5.69-47.04-17.07c-11.44-11.38-17.16-27.58-17.16-48.61c0-22.02,7.7-38.25,23.1-48.71
		c15.4-10.45,38.62-16.24,69.67-17.35l36-1.11v-9.09c0-21.03-10.76-31.54-32.29-31.54c-16.58,0-36.06,5.01-58.45,15.03l-18.74-38.22
		c23.87-12.49,50.34-18.74,79.41-18.74c27.83,0,49.17,6.06,64.01,18.18c14.84,12.12,22.27,30.55,22.27,55.29v138.23H4553.52z
		 M4536.82,936.59l-21.89,0.74c-16.45,0.5-28.7,3.46-36.74,8.91c-8.04,5.44-12.06,13.73-12.06,24.86c0,15.96,9.15,23.94,27.46,23.94
		c13.11,0,23.59-3.77,31.45-11.32c7.85-7.54,11.78-17.56,11.78-30.06V936.59z"/>
	<path class="st3" d="M4716.98,1036.41c-24.37,0-43.51-9.46-57.43-28.39c-13.92-18.93-20.87-45.15-20.87-78.67
		c0-34.02,7.08-60.52,21.24-79.51c14.16-18.99,33.68-28.48,58.54-28.48c26.1,0,46.02,10.14,59.75,30.43h1.86
		c-2.85-15.46-4.27-29.25-4.27-41.38v-66.43h56.78v288.71h-43.42l-10.95-26.9h-2.41
		C4762.93,1026.21,4743.33,1036.41,4716.98,1036.41z M4736.84,991.32c14.47,0,25.08-4.2,31.82-12.62
		c6.74-8.41,10.42-22.7,11.04-42.86v-6.12c0-22.27-3.43-38.22-10.3-47.87s-18.03-14.47-33.49-14.47c-12.62,0-22.42,5.35-29.41,16.05
		c-6.99,10.7-10.48,26.25-10.48,46.67s3.53,35.72,10.58,45.92S4723.72,991.32,4736.84,991.32z"/>
	<path class="st3" d="M5155.06,957.37c0,24.49-8.81,43.79-26.44,57.89c-17.63,14.1-42.15,21.15-73.57,21.15
		c-28.95,0-54.55-5.44-76.82-16.33v-53.44c18.3,8.16,33.8,13.92,46.48,17.26c12.68,3.34,24.28,5.01,34.79,5.01
		c12.62,0,22.29-2.41,29.04-7.24c6.74-4.82,10.11-12,10.11-21.52c0-5.32-1.48-10.05-4.45-14.19c-2.97-4.14-7.33-8.13-13.08-11.97
		c-5.75-3.83-17.47-9.96-35.16-18.37c-16.58-7.79-29.01-15.28-37.29-22.45c-8.29-7.17-14.91-15.52-19.85-25.05
		c-4.95-9.52-7.42-20.66-7.42-33.4c0-24,8.13-42.86,24.4-56.59c16.27-13.73,38.75-20.6,67.45-20.6c14.1,0,27.55,1.67,40.36,5.01
		s26.19,8.04,40.17,14.1l-18.55,44.72c-14.47-5.94-26.44-10.08-35.9-12.43c-9.46-2.35-18.77-3.53-27.92-3.53
		c-10.89,0-19.24,2.54-25.05,7.61c-5.82,5.07-8.72,11.69-8.72,19.85c0,5.07,1.17,9.49,3.53,13.27c2.35,3.77,6.09,7.42,11.22,10.95
		c5.13,3.53,17.29,9.87,36.46,19.02c25.36,12.12,42.74,24.28,52.14,36.46C5150.36,924.74,5155.06,939.68,5155.06,957.37z"/>
	<path class="st3" d="M5346.73,1032.7l-7.61-26.53h-2.97c-6.06,9.65-14.66,17.1-25.79,22.36c-11.13,5.26-23.81,7.89-38.04,7.89
		c-24.37,0-42.74-6.52-55.11-19.58c-12.37-13.05-18.55-31.82-18.55-56.31V825.26h56.59v121.16c0,14.97,2.66,26.19,7.98,33.68
		c5.32,7.49,13.79,11.23,25.42,11.23c15.83,0,27.28-5.29,34.33-15.86s10.58-28.11,10.58-52.6v-97.6h56.59v207.44H5346.73z"/>
	<path class="st3" d="M5565.3,821.36c7.67,0,14.04,0.56,19.11,1.67l-4.27,53.07c-4.58-1.23-10.14-1.86-16.7-1.86
		c-18.06,0-32.13,4.64-42.21,13.92c-10.08,9.28-15.12,22.27-15.12,38.96v105.58h-56.59V825.26h42.86l8.35,34.88h2.78
		c6.43-11.63,15.12-21,26.07-28.11C5540.53,824.92,5552.44,821.36,5565.3,821.36z"/>
	<path class="st3" d="M5802.62,825.26v28.76l-32.47,8.35c5.94,9.28,8.91,19.67,8.91,31.17c0,22.27-7.76,39.61-23.29,52.05
		c-15.53,12.43-37.08,18.65-64.66,18.65l-10.21-0.56l-8.35-0.93c-5.82,4.45-8.72,9.4-8.72,14.84c0,8.16,10.39,12.25,31.17,12.25
		h35.25c22.76,0,40.11,4.89,52.04,14.66c11.94,9.77,17.91,24.12,17.91,43.05c0,24.24-10.11,43.05-30.34,56.41
		s-49.26,20.04-87.11,20.04c-28.95,0-51.06-5.04-66.33-15.12c-15.28-10.08-22.91-24.21-22.91-42.4c0-12.5,3.9-22.95,11.69-31.36
		c7.79-8.41,19.23-14.41,34.33-18c-5.82-2.47-10.89-6.52-15.21-12.15c-4.33-5.63-6.49-11.6-6.49-17.91c0-7.92,2.29-14.5,6.87-19.76
		c4.57-5.26,11.19-10.42,19.85-15.49c-10.89-4.7-19.52-12.25-25.88-22.64c-6.37-10.39-9.55-22.64-9.55-36.74
		c0-22.64,7.36-40.14,22.08-52.51c14.72-12.37,35.75-18.55,63.09-18.55c5.81,0,12.71,0.53,20.69,1.58
		c7.98,1.05,13.08,1.83,15.31,2.32H5802.62z M5642.49,1062.02c0,7.79,3.74,13.92,11.22,18.37c7.48,4.45,17.97,6.68,31.45,6.68
		c20.29,0,36.18-2.78,47.69-8.35s17.26-13.17,17.26-22.82c0-7.79-3.4-13.17-10.21-16.14c-6.8-2.97-17.32-4.45-31.54-4.45h-29.32
		c-10.39,0-19.08,2.44-26.07,7.33C5645.98,1047.51,5642.49,1053.97,5642.49,1062.02z M5663.09,893.17c0,11.26,2.56,20.16,7.7,26.72
		c5.13,6.56,12.96,9.83,23.47,9.83c10.64,0,18.43-3.28,23.38-9.83c4.95-6.56,7.42-15.46,7.42-26.72c0-24.98-10.27-37.48-30.8-37.48
		C5673.48,855.69,5663.09,868.18,5663.09,893.17z"/>
	<path class="st3" d="M5930.64,1036.41c-33.4,0-59.5-9.21-78.3-27.65c-18.8-18.43-28.2-44.53-28.2-78.3
		c0-34.76,8.69-61.63,26.07-80.62c17.38-18.99,41.41-28.48,72.09-28.48c29.32,0,52.14,8.35,68.47,25.05s24.49,39.77,24.49,69.21
		v27.46h-133.78c0.62,16.08,5.38,28.64,14.29,37.67c8.91,9.03,21.4,13.54,37.48,13.54c12.49,0,24.31-1.3,35.44-3.9
		s22.76-6.74,34.88-12.43v43.79c-9.9,4.95-20.47,8.63-31.73,11.04C5960.58,1035.21,5946.85,1036.41,5930.64,1036.41z
		 M5922.67,861.63c-12,0-21.4,3.8-28.2,11.41c-6.8,7.61-10.7,18.4-11.69,32.38h79.41c-0.25-13.98-3.9-24.77-10.95-32.38
		S5934.66,861.63,5922.67,861.63z"/>
	<path class="st3" d="M6177.05,821.36c7.67,0,14.04,0.56,19.11,1.67l-4.27,53.07c-4.58-1.23-10.14-1.86-16.7-1.86
		c-18.06,0-32.13,4.64-42.21,13.92c-10.08,9.28-15.12,22.27-15.12,38.96v105.58h-56.59V825.26h42.86l8.35,34.88h2.78
		c6.43-11.63,15.12-21,26.07-28.11C6152.28,824.92,6164.18,821.36,6177.05,821.36z"/>
	<path class="st3" d="M6204.14,825.26h61.97l39.15,116.71c3.34,10.14,5.63,22.14,6.87,36h1.11c1.36-12.74,4.02-24.74,7.98-36
		l38.41-116.71h60.67l-87.76,233.97c-8.04,21.64-19.52,37.85-34.42,48.61c-14.91,10.76-32.32,16.14-52.23,16.14
		c-9.77,0-19.36-1.05-28.76-3.15v-44.9c6.8,1.61,14.22,2.41,22.27,2.41c10.02,0,18.77-3.06,26.25-9.18
		c7.48-6.12,13.33-15.37,17.54-27.74l3.34-10.21L6204.14,825.26z"/>
</g>
</svg>
