<svg width="18" height="14" viewBox="0 0 18 14" fill="none" xmlns="http://www.w3.org/2000/svg">
<path d="M15.6667 0.333332H2.33335C1.41419 0.333332 0.666687 1.08083 0.666687 2V12C0.666687 12.9192 1.41419 13.6667 2.33335 13.6667H15.6667C16.5859 13.6667 17.3334 12.9192 17.3334 12V2C17.3334 1.08083 16.5859 0.333332 15.6667 0.333332ZM15.6667 2V2.42583L9.00002 7.61167L2.33335 2.42667V2H15.6667ZM2.33335 12V4.53667L8.48835 9.32416C8.63427 9.43875 8.81444 9.50108 9.00002 9.50108C9.1856 9.50108 9.36577 9.43875 9.51169 9.32416L15.6667 4.53667L15.6684 12H2.33335Z" fill="#611F69"/>
</svg>
