<svg xmlns="http://www.w3.org/2000/svg" xmlns:xlink="http://www.w3.org/1999/xlink" width="500" zoomAndPan="magnify" viewBox="0 0 375 374.999991" height="500" preserveAspectRatio="xMidYMid meet" version="1.2"><g id="67c0948037"><path style=" stroke:none;fill-rule:nonzero;fill:#4682b4;fill-opacity:1;" d="M 284.632812 103.269531 C 248.070312 66.460938 258.539062 43.394531 233.523438 26.355469 C 195.03125 0.132812 123.1875 22.691406 80.804688 58.757812 C 28.894531 102.933594 2.109375 183.585938 32.621094 256.550781 C 65.113281 334.257812 150.601562 374.597656 226.886719 362.4375 C 295.007812 351.582031 361.972656 297.882812 368.683594 233.472656 C 369.410156 226.492188 372.621094 188.753906 350.105469 156.21875 C 331.492188 129.324219 313.613281 132.445312 284.632812 103.269531 "/><path style=" stroke:none;fill-rule:nonzero;fill:#000000;fill-opacity:1;" d="M 119.085938 360.730469 L 127.589844 360.730469 L 127.589844 256.671875 L 119.085938 256.671875 L 119.085938 360.730469 "/><path style=" stroke:none;fill-rule:nonzero;fill:#000000;fill-opacity:1;" d="M 165.820312 359.839844 L 125.601562 355.085938 L 121.914062 355.085938 L 80.859375 359.839844 L 80.859375 363.609375 L 165.820312 363.609375 L 165.820312 359.839844 "/><path style=" stroke:none;fill-rule:nonzero;fill:#000000;fill-opacity:1;" d="M 124.742188 131.621094 L 124.742188 160.765625 C 124.742188 189.273438 140.613281 212.378906 160.195312 212.378906 C 179.773438 212.378906 195.644531 235.484375 195.644531 263.988281 C 195.644531 266.527344 194.195312 268.585938 192.40625 268.585938 L 98.5625 268.585938 C 69.210938 268.585938 45.414062 233.949219 45.414062 191.21875 L 45.414062 129.03125 C 45.414062 112.03125 54.878906 98.253906 66.554688 98.253906 L 101.824219 98.253906 C 114.480469 98.253906 124.742188 113.195312 124.742188 131.621094 "/><path style=" stroke:none;fill-rule:nonzero;fill:#ffffff;fill-opacity:1;" d="M 184.324219 326.523438 C 185.488281 325.347656 192.210938 304.433594 192.210938 304.433594 L 205.492188 313.914062 L 190.929688 333.484375 L 184.324219 326.523438 "/><path style=" stroke:none;fill-rule:nonzero;fill:#000000;fill-opacity:1;" d="M 185.113281 326.4375 L 190.871094 332.503906 L 204.601562 314.050781 L 192.546875 305.453125 C 191.105469 309.910156 186.6875 323.425781 185.113281 326.4375 Z M 190.929688 334.113281 C 190.757812 334.113281 190.589844 334.046875 190.472656 333.917969 L 183.867188 326.957031 C 183.632812 326.710938 183.636719 326.328125 183.871094 326.082031 C 184.710938 325.097656 189.0625 312.167969 191.609375 304.242188 C 191.671875 304.050781 191.820312 303.898438 192.011719 303.835938 C 192.203125 303.773438 192.414062 303.804688 192.578125 303.917969 L 205.859375 313.398438 C 206 313.496094 206.089844 313.648438 206.117188 313.816406 C 206.144531 313.980469 206.101562 314.152344 206 314.289062 L 191.4375 333.863281 C 191.324219 334.011719 191.152344 334.105469 190.96875 334.113281 C 190.953125 334.113281 190.941406 334.113281 190.929688 334.113281 "/><path style=" stroke:none;fill-rule:nonzero;fill:#000000;fill-opacity:1;" d="M 208.261719 352.964844 L 199.429688 352.910156 C 193.582031 352.878906 188.148438 349.90625 184.960938 345.007812 L 176.226562 331.179688 C 173.8125 327.355469 175.160156 322.292969 179.152344 320.171875 C 182.800781 318.234375 186.621094 316.347656 187.515625 316.433594 C 189.332031 316.605469 190.066406 325.203125 190.066406 325.203125 L 197.933594 325.503906 C 197.933594 325.503906 201.824219 341.671875 205.242188 343.511719 C 207.738281 344.851562 209.476562 346.816406 210.648438 348.609375 C 211.875 350.488281 210.507812 352.976562 208.261719 352.964844 "/><path style=" stroke:none;fill-rule:nonzero;fill:#ffffff;fill-opacity:1;" d="M 207.375 350.144531 C 207.34375 350.144531 207.3125 350.144531 207.277344 350.140625 L 195.195312 348.320312 C 192.289062 347.882812 189.753906 346.183594 188.242188 343.660156 L 177.570312 325.820312 C 177.390625 325.523438 177.488281 325.136719 177.785156 324.957031 C 178.085938 324.777344 178.472656 324.875 178.652344 325.171875 L 189.328125 343.011719 C 190.644531 345.207031 192.851562 346.6875 195.382812 347.070312 L 207.46875 348.886719 C 207.8125 348.941406 208.050781 349.261719 208 349.609375 C 207.953125 349.921875 207.683594 350.144531 207.375 350.144531 "/><path style=" stroke:none;fill-rule:nonzero;fill:#ffffff;fill-opacity:1;" d="M 192.457031 336.734375 C 192.179688 336.734375 191.925781 336.546875 191.851562 336.265625 C 191.757812 335.929688 191.957031 335.582031 192.292969 335.492188 L 199.027344 333.65625 C 199.363281 333.566406 199.710938 333.761719 199.800781 334.101562 C 199.894531 334.4375 199.695312 334.785156 199.355469 334.875 L 192.625 336.710938 C 192.570312 336.726562 192.511719 336.734375 192.457031 336.734375 "/><path style=" stroke:none;fill-rule:nonzero;fill:#ffffff;fill-opacity:1;" d="M 195.964844 340.191406 C 195.679688 340.191406 195.421875 339.996094 195.351562 339.707031 C 195.269531 339.367188 195.476562 339.027344 195.816406 338.941406 L 200.328125 337.839844 C 200.667969 337.753906 201.011719 337.964844 201.09375 338.304688 C 201.175781 338.644531 200.96875 338.984375 200.628906 339.066406 L 196.117188 340.171875 C 196.066406 340.183594 196.015625 340.191406 195.964844 340.191406 "/><path style=" stroke:none;fill-rule:nonzero;fill:#ffffff;fill-opacity:1;" d="M 229.648438 322.53125 L 245.070312 338.027344 L 253.246094 335.027344 L 239.03125 315.203125 L 229.648438 322.53125 "/><path style=" stroke:none;fill-rule:nonzero;fill:#000000;fill-opacity:1;" d="M 230.597656 322.589844 L 245.230469 337.296875 L 252.246094 334.71875 L 238.898438 316.105469 Z M 245.070312 338.660156 C 244.90625 338.660156 244.742188 338.59375 244.625 338.476562 L 229.199219 322.980469 C 229.074219 322.851562 229.007812 322.675781 229.015625 322.496094 C 229.027344 322.3125 229.117188 322.148438 229.257812 322.035156 L 238.640625 314.703125 C 238.773438 314.597656 238.949219 314.550781 239.117188 314.578125 C 239.289062 314.601562 239.445312 314.695312 239.542969 314.832031 L 253.757812 334.65625 C 253.875 334.816406 253.90625 335.023438 253.851562 335.210938 C 253.792969 335.398438 253.648438 335.550781 253.464844 335.617188 L 245.289062 338.621094 C 245.21875 338.648438 245.144531 338.660156 245.070312 338.660156 "/><path style=" stroke:none;fill-rule:nonzero;fill:#000000;fill-opacity:1;" d="M 240.199219 335.605469 C 240.199219 335.605469 239.453125 342.195312 240.71875 348.019531 C 241.390625 351.125 244.1875 353.308594 247.363281 353.308594 L 285.214844 353.308594 C 287.917969 353.308594 289.148438 349.933594 287.070312 348.195312 C 280.339844 342.554688 267.960938 333.945312 252.742188 331.417969 L 248.496094 337.359375 L 240.199219 335.605469 "/><path style=" stroke:none;fill-rule:nonzero;fill:#ffffff;fill-opacity:1;" d="M 283.414062 348.738281 L 244.1875 348.738281 C 243.839844 348.738281 243.558594 348.453125 243.558594 348.105469 C 243.558594 347.753906 243.839844 347.472656 244.1875 347.472656 L 283.414062 347.472656 C 283.761719 347.472656 284.046875 347.753906 284.046875 348.105469 C 284.046875 348.453125 283.761719 348.738281 283.414062 348.738281 "/><path style=" stroke:none;fill-rule:nonzero;fill:#ffffff;fill-opacity:1;" d="M 261.527344 341.769531 C 261.449219 341.769531 261.367188 341.753906 261.285156 341.722656 C 260.964844 341.589844 260.808594 341.21875 260.945312 340.894531 L 263.019531 335.859375 C 263.152344 335.535156 263.523438 335.382812 263.84375 335.515625 C 264.167969 335.648438 264.320312 336.019531 264.1875 336.339844 L 262.113281 341.378906 C 262.011719 341.621094 261.777344 341.769531 261.527344 341.769531 "/><path style=" stroke:none;fill-rule:nonzero;fill:#ffffff;fill-opacity:1;" d="M 268.355469 343.09375 C 268.289062 343.09375 268.222656 343.082031 268.15625 343.058594 C 267.824219 342.949219 267.644531 342.59375 267.753906 342.261719 L 269.253906 337.71875 C 269.367188 337.386719 269.722656 337.207031 270.054688 337.316406 C 270.386719 337.425781 270.566406 337.785156 270.457031 338.117188 L 268.953125 342.660156 C 268.867188 342.925781 268.621094 343.09375 268.355469 343.09375 "/><path style=" stroke:none;fill-rule:nonzero;fill:#611f69;fill-opacity:1;" d="M 148.015625 214.105469 C 148.015625 214.105469 218.5 205.898438 239.457031 224.042969 C 260.414062 242.1875 206.375 320.203125 206.375 320.203125 L 189.28125 307.527344 L 205.492188 252.386719 L 140.339844 233.882812 L 148.015625 214.105469 "/><path style=" stroke:none;fill-rule:nonzero;fill:#000000;fill-opacity:1;" d="M 190.011719 307.28125 L 206.21875 319.300781 C 210.933594 312.371094 258.4375 241.308594 239.042969 224.519531 C 219.316406 207.445312 154.058594 214.085938 148.46875 214.691406 L 141.179688 233.464844 L 205.667969 251.777344 C 205.828125 251.824219 205.964844 251.933594 206.046875 252.078125 C 206.128906 252.230469 206.148438 252.402344 206.101562 252.5625 Z M 206.375 320.835938 C 206.238281 320.835938 206.105469 320.789062 205.996094 320.710938 L 188.90625 308.035156 C 188.691406 307.875 188.601562 307.601562 188.675781 307.347656 L 204.707031 252.820312 L 140.167969 234.492188 C 139.996094 234.441406 139.855469 234.324219 139.773438 234.167969 C 139.695312 234.003906 139.6875 233.820312 139.75 233.652344 L 147.429688 213.875 C 147.511719 213.65625 147.710938 213.503906 147.945312 213.476562 C 148.121094 213.457031 165.835938 211.425781 185.882812 211.636719 C 212.898438 211.925781 231.0625 215.941406 239.871094 223.566406 C 248.808594 231.300781 245.9375 250.023438 231.339844 279.207031 C 220.550781 300.769531 207.027344 320.367188 206.890625 320.5625 C 206.792969 320.703125 206.644531 320.796875 206.476562 320.824219 C 206.441406 320.832031 206.40625 320.835938 206.375 320.835938 "/><path style=" stroke:none;fill-rule:nonzero;fill:#611f69;fill-opacity:1;" d="M 103.070312 252.378906 C 111.378906 259.183594 137.785156 257.464844 163.386719 257.113281 C 170.664062 257.015625 177.378906 261.035156 180.683594 267.515625 C 188.265625 282.386719 204.679688 309.164062 231.417969 326.523438 L 244.1875 319.640625 L 211.597656 246.273438 C 208.621094 239.578125 203.054688 234.371094 196.171875 231.847656 L 131.578125 208.160156 C 131.578125 208.160156 109.886719 196.507812 100.066406 214.386719 C 98.3125 217.582031 97.996094 217.386719 97.21875 219.964844 C 94.5625 228.796875 91.5 242.898438 103.070312 252.378906 "/><path style=" stroke:none;fill-rule:nonzero;fill:#000000;fill-opacity:1;" d="M 163.660156 256.480469 C 171.136719 256.480469 177.855469 260.578125 181.246094 267.230469 C 188.609375 281.671875 204.90625 308.433594 231.449219 325.789062 L 243.375 319.363281 L 211.019531 246.53125 C 208.128906 240.023438 202.636719 234.890625 195.957031 232.4375 L 131.363281 208.753906 C 131.332031 208.742188 131.304688 208.730469 131.28125 208.714844 C 131.226562 208.6875 125.863281 205.84375 119.40625 205.191406 C 110.875 204.332031 104.554688 207.53125 100.621094 214.691406 C 100.003906 215.8125 99.570312 216.515625 99.21875 217.074219 C 98.59375 218.082031 98.308594 218.542969 97.824219 220.144531 C 94.777344 230.273438 92.664062 243.035156 103.46875 251.890625 C 110.414062 257.574219 130.816406 257.144531 152.417969 256.6875 C 156.007812 256.609375 159.722656 256.53125 163.378906 256.480469 C 163.472656 256.480469 163.566406 256.480469 163.660156 256.480469 Z M 231.417969 327.15625 C 231.300781 327.15625 231.179688 327.121094 231.074219 327.050781 C 204.097656 309.542969 187.570312 282.414062 180.121094 267.800781 C 176.90625 261.5 170.5 257.660156 163.398438 257.746094 C 159.746094 257.796875 156.03125 257.875 152.441406 257.949219 C 130.601562 258.414062 109.972656 258.851562 102.667969 252.867188 C 91.15625 243.433594 93.699219 229.464844 96.613281 219.78125 C 97.144531 218.015625 97.480469 217.480469 98.144531 216.410156 C 98.488281 215.859375 98.914062 215.175781 99.511719 214.085938 C 103.660156 206.53125 110.59375 203.023438 119.570312 203.941406 C 126.039062 204.597656 131.285156 207.289062 131.835938 207.582031 L 196.390625 231.253906 C 203.394531 233.820312 209.144531 239.203125 212.171875 246.019531 L 244.765625 319.386719 C 244.898438 319.6875 244.78125 320.042969 244.488281 320.199219 L 231.71875 327.078125 C 231.625 327.128906 231.523438 327.15625 231.417969 327.15625 "/><path style=" stroke:none;fill-rule:nonzero;fill:#ffffff;fill-opacity:1;" d="M 210.914062 72.527344 C 209.429688 77.691406 208.199219 81.023438 208.199219 81.023438 C 208.199219 81.023438 207.75 73.101562 207.542969 68.78125 C 207.25 62.589844 204.230469 59.792969 203.582031 67.246094 C 203.070312 73.125 202.78125 74.984375 202.78125 74.984375 C 202.78125 74.984375 201.445312 67.363281 201.230469 65.019531 C 200.847656 60.828125 197.8125 59.558594 197.558594 64.925781 C 197.257812 71.199219 197.675781 76.75 197.675781 76.75 C 197.675781 76.75 191.269531 60.921875 188.898438 65.023438 C 186.808594 68.640625 192.867188 79.714844 193.609375 81.667969 C 194.355469 83.621094 190.277344 75.199219 186.78125 76.511719 C 183.511719 77.738281 197.800781 97.445312 197.84375 105.074219 C 197.894531 114.023438 198.097656 140.183594 196.253906 137.011719 C 187.324219 121.636719 183.46875 119.402344 183.46875 119.402344 L 166.339844 132.648438 C 166.339844 132.648438 177.910156 158.300781 198.078125 164.101562 C 219.554688 170.28125 213.738281 124.898438 210.445312 105.835938 C 209.621094 101.058594 209.726562 96.238281 210.769531 91.679688 C 212.472656 84.242188 214.90625 73.304688 214.980469 71.226562 C 215.183594 65.605469 212.269531 67.820312 210.914062 72.527344 "/><path style=" stroke:none;fill-rule:nonzero;fill:#000000;fill-opacity:1;" d="M 167.128906 132.835938 C 168.789062 136.269531 180.058594 158.261719 198.253906 163.496094 C 201.992188 164.570312 204.9375 164.085938 207.25 162.011719 C 216.832031 153.421875 212.238281 119.941406 209.820312 105.941406 C 208.976562 101.046875 209.089844 96.199219 210.15625 91.535156 C 212.804688 79.960938 214.292969 72.738281 214.347656 71.203125 C 214.433594 68.863281 213.941406 68.527344 213.9375 68.527344 C 213.585938 68.496094 212.339844 69.863281 211.523438 72.703125 L 210.914062 72.527344 L 211.523438 72.703125 C 210.046875 77.828125 208.804688 81.210938 208.792969 81.242188 C 208.6875 81.523438 208.402344 81.695312 208.105469 81.648438 C 207.808594 81.605469 207.585938 81.359375 207.570312 81.058594 C 207.566406 80.980469 207.117188 73.085938 206.914062 68.808594 C 206.734375 65.097656 205.625 63.425781 205.296875 63.402344 C 205.136719 63.4375 204.480469 64.199219 204.210938 67.300781 C 203.703125 73.136719 203.414062 75.003906 203.402344 75.082031 C 203.355469 75.386719 203.09375 75.613281 202.785156 75.617188 C 202.78125 75.617188 202.78125 75.617188 202.78125 75.617188 C 202.472656 75.617188 202.207031 75.394531 202.15625 75.09375 C 202.101562 74.78125 200.8125 67.421875 200.601562 65.078125 C 200.414062 63.023438 199.585938 62.003906 199.167969 62.003906 C 199.167969 62.003906 199.164062 62.003906 199.164062 62.003906 C 198.890625 62.007812 198.292969 62.738281 198.1875 64.953125 C 197.894531 71.113281 198.304688 76.648438 198.308594 76.703125 C 198.332031 77.011719 198.125 77.292969 197.820312 77.367188 C 197.519531 77.4375 197.210938 77.277344 197.089844 76.988281 C 194.734375 71.167969 191.394531 65.082031 189.882812 64.980469 C 189.824219 64.972656 189.664062 64.964844 189.449219 65.339844 C 187.894531 68.027344 191.722656 76.125 193.355469 79.582031 C 193.765625 80.449219 194.058594 81.074219 194.199219 81.445312 C 194.292969 81.6875 194.511719 82.253906 193.984375 82.527344 C 193.457031 82.796875 193.183594 82.386719 192.765625 81.765625 C 191.859375 80.417969 189.105469 76.3125 187.003906 77.101562 C 186.988281 77.109375 186.980469 77.113281 186.964844 77.152344 C 186.507812 78.347656 189.210938 83.5 191.597656 88.042969 C 194.8125 94.15625 198.453125 101.089844 198.476562 105.070312 L 198.480469 105.796875 C 198.652344 135.035156 197.835938 137.585938 196.753906 137.878906 C 196.566406 137.933594 196.085938 137.980469 195.707031 137.328125 C 188.472656 124.871094 184.574219 121.105469 183.476562 120.199219 Z M 201.8125 165.304688 C 200.589844 165.308594 199.289062 165.109375 197.902344 164.710938 C 177.6875 158.894531 165.882812 133.164062 165.765625 132.90625 C 165.644531 132.640625 165.722656 132.328125 165.953125 132.148438 L 183.082031 118.90625 C 183.285156 118.746094 183.5625 118.726562 183.785156 118.855469 C 183.945312 118.949219 187.785156 121.289062 196.453125 136.101562 C 197.058594 133.316406 197.316406 123.144531 197.214844 105.804688 L 197.210938 105.078125 C 197.191406 101.40625 193.625 94.617188 190.480469 88.628906 C 187.058594 82.117188 185.15625 78.351562 185.785156 76.699219 C 185.925781 76.324219 186.195312 76.054688 186.558594 75.917969 C 188.128906 75.332031 189.703125 76.261719 191.019531 77.539062 C 188.613281 72.164062 186.925781 67.179688 188.351562 64.707031 C 188.859375 63.828125 189.511719 63.683594 189.972656 63.71875 C 192.1875 63.871094 195.117188 69.460938 196.878906 73.304688 C 196.808594 71.101562 196.773438 68.082031 196.925781 64.894531 C 197.101562 61.183594 198.53125 60.75 199.136719 60.738281 C 200.472656 60.714844 201.636719 62.484375 201.863281 64.964844 C 201.960938 66.054688 202.3125 68.34375 202.652344 70.445312 C 202.742188 69.53125 202.84375 68.453125 202.953125 67.191406 C 203.246094 63.839844 204.03125 62.140625 205.292969 62.140625 C 205.300781 62.140625 205.3125 62.140625 205.320312 62.140625 C 207.066406 62.175781 208.023438 65.59375 208.175781 68.75 C 208.296875 71.273438 208.5 75.058594 208.652344 77.753906 C 209.109375 76.34375 209.6875 74.503906 210.308594 72.351562 C 211.058594 69.734375 212.589844 67.039062 214.140625 67.277344 C 215.207031 67.449219 215.703125 68.785156 215.613281 71.25 C 215.539062 73.316406 213.273438 83.578125 211.386719 91.820312 C 210.359375 96.316406 210.25 100.996094 211.066406 105.730469 C 214.117188 123.371094 217.78125 154.269531 208.09375 162.953125 C 206.34375 164.519531 204.242188 165.304688 201.8125 165.304688 "/><path style=" stroke:none;fill-rule:nonzero;fill:#ffffff;fill-opacity:1;" d="M 96.832031 217.652344 C 94.921875 224.257812 104.644531 222.75 111.519531 222.765625 L 151.53125 221.589844 C 155.09375 221.496094 166.449219 222.003906 169.703125 220.546875 C 175.484375 220.164062 174.226562 204.832031 174.3125 199.199219 C 174.503906 186.324219 175.523438 161.339844 175.171875 150.199219 C 175.160156 149.835938 194.726562 133.585938 194.160156 130.296875 C 194.019531 129.472656 180.613281 105.507812 142.152344 103.324219 C 115.445312 101.808594 98.15625 116.183594 99.585938 135.566406 C 100.25 144.585938 100.261719 148.023438 100.40625 152.515625 C 100.546875 157.007812 101.355469 175.332031 99.847656 194.054688 L 96.832031 217.652344 "/><path style=" stroke:none;fill-rule:nonzero;fill:#000000;fill-opacity:1;" d="M 96.832031 217.652344 L 96.835938 217.652344 Z M 138.289062 103.84375 C 125.460938 103.84375 114.714844 107.652344 107.753906 114.734375 C 102.234375 120.347656 99.625 127.535156 100.214844 135.519531 C 100.769531 143.058594 100.875 146.75 100.972656 150.320312 C 100.992188 151.035156 101.011719 151.75 101.039062 152.496094 L 101.078125 153.730469 C 101.296875 160.027344 101.875 176.75 100.476562 194.105469 L 97.457031 217.734375 C 97.453125 217.765625 97.445312 217.796875 97.4375 217.828125 C 97.082031 219.058594 97.15625 219.976562 97.667969 220.632812 C 99.097656 222.476562 103.890625 222.328125 108.121094 222.203125 C 109.257812 222.167969 110.433594 222.140625 111.519531 222.132812 L 151.511719 220.960938 C 152.3125 220.9375 153.503906 220.945312 154.878906 220.957031 C 159.429688 220.988281 167.039062 221.046875 169.445312 219.96875 C 169.511719 219.9375 169.585938 219.917969 169.660156 219.914062 C 173.984375 219.628906 173.800781 208.339844 173.703125 202.273438 C 173.683594 201.074219 173.667969 200.035156 173.679688 199.191406 C 173.742188 194.90625 173.902344 189.261719 174.066406 183.28125 C 174.398438 171.261719 174.773438 157.636719 174.539062 150.21875 C 174.527344 149.835938 174.527344 149.835938 177.539062 147.152344 C 180.261719 144.726562 184.375 141.0625 187.792969 137.652344 C 193.171875 132.296875 193.570312 130.796875 193.542969 130.433594 C 193.238281 129.65625 189.671875 123.597656 181.820312 117.574219 C 174.527344 111.972656 161.714844 105.066406 142.117188 103.953125 C 140.824219 103.882812 139.546875 103.84375 138.289062 103.84375 Z M 104.734375 223.535156 C 101.214844 223.535156 98.050781 223.191406 96.667969 221.40625 C 95.910156 220.433594 95.757812 219.125 96.210938 217.523438 L 99.21875 193.976562 C 100.609375 176.722656 100.03125 160.046875 99.816406 153.773438 L 99.773438 152.535156 C 99.75 151.789062 99.730469 151.070312 99.710938 150.355469 C 99.609375 146.796875 99.507812 143.121094 98.953125 135.609375 C 98.339844 127.253906 101.070312 119.726562 106.851562 113.847656 C 114.753906 105.808594 127.300781 101.851562 142.1875 102.691406 C 162.320312 103.835938 175.449219 111.007812 182.914062 116.820312 C 191.414062 123.441406 194.703125 129.726562 194.785156 130.191406 C 195.191406 132.5625 188.808594 138.800781 178.378906 148.09375 C 177.253906 149.101562 176.179688 150.058594 175.808594 150.421875 C 176.03125 157.929688 175.660156 171.410156 175.328125 183.316406 C 175.164062 189.289062 175.007812 194.933594 174.945312 199.210938 C 174.933594 200.035156 174.949219 201.0625 174.964844 202.25 C 175.085938 209.589844 175.265625 220.65625 169.855469 221.164062 C 167.113281 222.308594 159.757812 222.257812 154.871094 222.21875 C 153.503906 222.210938 152.328125 222.199219 151.546875 222.222656 L 111.535156 223.398438 C 110.460938 223.402344 109.339844 223.429688 108.160156 223.464844 C 107.011719 223.5 105.855469 223.535156 104.734375 223.535156 "/><path style=" stroke:none;fill-rule:nonzero;fill:#ffffff;fill-opacity:1;" d="M 164.71875 85.957031 L 163.722656 103.355469 C 163.707031 105.632812 165.082031 107.691406 167.191406 108.542969 L 173.046875 111.597656 L 168.730469 113.390625 C 161.453125 115.578125 146.917969 118.6875 139.054688 110.941406 L 133.445312 105.421875 L 141.1875 104.714844 C 143.410156 104.511719 145.472656 101.648438 146.148438 99.519531 L 152.425781 77.140625 L 164.71875 85.957031 "/><path style=" stroke:none;fill-rule:nonzero;fill:#000000;fill-opacity:1;" d="M 134.863281 105.925781 L 139.496094 110.492188 C 146.953125 117.835938 160.863281 115.089844 168.515625 112.792969 L 171.554688 111.535156 L 166.925781 109.117188 C 164.574219 108.15625 163.070312 105.894531 163.09375 103.351562 L 164.066406 86.269531 L 152.789062 78.179688 L 146.753906 99.691406 C 146.054688 101.902344 143.886719 105.105469 141.246094 105.34375 Z M 153.582031 116.515625 C 148.046875 116.515625 142.53125 115.253906 138.609375 111.394531 L 133.003906 105.871094 C 132.828125 105.699219 132.769531 105.441406 132.851562 105.207031 C 132.933594 104.976562 133.144531 104.8125 133.390625 104.789062 L 141.128906 104.085938 C 143.082031 103.910156 144.949219 101.207031 145.542969 99.328125 L 151.816406 76.96875 C 151.871094 76.769531 152.019531 76.609375 152.214844 76.542969 C 152.410156 76.476562 152.625 76.503906 152.792969 76.625 L 165.085938 85.445312 C 165.261719 85.570312 165.359375 85.777344 165.347656 85.992188 L 164.355469 103.390625 C 164.339844 105.394531 165.546875 107.195312 167.429688 107.957031 C 167.449219 107.964844 167.46875 107.972656 167.488281 107.984375 L 173.339844 111.039062 C 173.558594 111.15625 173.6875 111.382812 173.675781 111.628906 C 173.667969 111.871094 173.515625 112.089844 173.289062 112.183594 L 168.972656 113.972656 C 168.953125 113.980469 168.933594 113.988281 168.910156 113.992188 C 164.914062 115.195312 159.238281 116.515625 153.582031 116.515625 "/><path style=" stroke:none;fill-rule:nonzero;fill:#000000;fill-opacity:1;" d="M 187.414062 64.5 C 183.550781 61.769531 186.003906 69.03125 173.902344 55.46875 C 169.082031 50.066406 167.75 58.8125 166.496094 57.414062 C 161.863281 52.253906 162.027344 52.421875 158.8125 51.429688 C 156.683594 50.765625 153.382812 53.394531 152.148438 56.125 C 150.519531 59.730469 152.722656 62.300781 150.753906 70.835938 C 149.367188 76.832031 147.070312 79.566406 148.597656 81.515625 C 150.140625 83.488281 153.296875 81.730469 155.144531 83.757812 C 157.535156 86.382812 153.8125 91.050781 155.332031 94.894531 C 156.289062 97.320312 160.054688 100.515625 168.722656 101.425781 C 170.128906 101.574219 171.449219 100.695312 171.855469 99.339844 C 172.378906 97.601562 173.027344 95.398438 173.46875 93.246094 C 175.585938 82.980469 173.804688 79.246094 176.230469 77.761719 C 179.945312 75.480469 185.015625 81.28125 187.753906 79.210938 C 190.59375 77.0625 192.699219 68.238281 187.414062 64.5 "/><path style=" stroke:none;fill-rule:nonzero;fill:#ffffff;fill-opacity:1;" d="M 166.042969 67.640625 L 165.847656 70.496094 C 165.753906 71.839844 165.570312 73.171875 165.292969 74.492188 C 164.777344 76.96875 163.917969 81.234375 163.621094 83.65625 C 163.179688 87.21875 174.085938 89.335938 174.085938 89.335938 L 175.683594 87.964844 L 176.964844 88.183594 C 177.214844 88.226562 177.472656 88.21875 177.710938 88.132812 C 178.304688 87.914062 178.65625 87.355469 178.632812 86.769531 C 178.523438 83.558594 178.511719 76.503906 180.214844 71.242188 C 180.214844 71.242188 174.746094 65.488281 166.042969 67.640625 "/><path style=" stroke:none;fill-rule:nonzero;fill:#000000;fill-opacity:1;" d="M 166.640625 68.152344 L 166.476562 70.539062 C 166.382812 71.90625 166.195312 73.28125 165.914062 74.625 C 165.421875 76.984375 164.546875 81.308594 164.246094 83.734375 C 164 85.738281 169.648438 87.785156 173.910156 88.65625 L 175.269531 87.484375 C 175.414062 87.363281 175.605469 87.308594 175.789062 87.339844 L 177.074219 87.5625 C 177.230469 87.589844 177.378906 87.582031 177.492188 87.539062 C 177.808594 87.421875 178.015625 87.121094 178.003906 86.792969 C 177.878906 83.25 177.914062 76.621094 179.496094 71.429688 C 178.355469 70.40625 173.589844 66.640625 166.640625 68.152344 Z M 174.085938 89.96875 C 174.046875 89.96875 174.003906 89.964844 173.964844 89.957031 C 172.046875 89.585938 162.507812 87.523438 162.992188 83.582031 C 163.296875 81.109375 164.179688 76.746094 164.675781 74.367188 C 164.945312 73.082031 165.125 71.761719 165.214844 70.453125 L 165.410156 67.597656 C 165.429688 67.324219 165.625 67.09375 165.890625 67.027344 C 174.847656 64.8125 180.441406 70.5625 180.675781 70.808594 C 180.832031 70.976562 180.890625 71.21875 180.816406 71.4375 C 179.117188 76.6875 179.164062 83.894531 179.265625 86.746094 C 179.296875 87.625 178.761719 88.421875 177.929688 88.726562 C 177.605469 88.84375 177.234375 88.871094 176.859375 88.808594 L 175.867188 88.636719 L 174.5 89.816406 C 174.382812 89.914062 174.238281 89.96875 174.085938 89.96875 "/><path style=" stroke:none;fill-rule:nonzero;fill:#ffffff;fill-opacity:1;" d="M 162.980469 76.117188 C 162.980469 76.117188 163.457031 69.257812 160.292969 69.722656 C 157.128906 70.1875 156.792969 77.75 162.980469 76.117188 "/><path style=" stroke:none;fill-rule:nonzero;fill:#ffffff;fill-opacity:1;" d="M 161.945312 82.144531 C 159.40625 86.832031 158.164062 87.550781 158.164062 87.550781 C 158.164062 87.550781 160.230469 80.191406 161.417969 76.089844 C 163.722656 68.140625 160.3125 66.351562 157.597656 73.238281 C 155.457031 78.671875 154.65625 80.355469 154.65625 80.355469 C 154.65625 80.355469 155.511719 72.769531 155.964844 70.492188 C 156.777344 66.417969 153.007812 64.800781 151.890625 69.40625 C 150.421875 75.441406 149.355469 81.917969 149.355469 81.917969 C 149.355469 81.917969 147.808594 74.019531 147.203125 70.832031 C 146.5625 67.453125 143.117188 66.902344 143.222656 71.019531 C 143.339844 75.515625 143.820312 82.152344 143.988281 84.207031 C 144.152344 86.261719 142.605469 77.167969 138.882812 77.46875 C 135.398438 77.742188 139.042969 83.359375 139.824219 90.078125 C 140.933594 99.660156 143.578125 100.292969 141.480469 107.539062 C 139.019531 116.035156 133.8125 132.628906 132.597656 136.046875 C 129.445312 144.886719 131.238281 145.460938 128.1875 139.558594 C 122.722656 128.980469 102.003906 139.632812 105.65625 148.757812 C 109.875 159.304688 116 167.640625 125.609375 173.308594 C 145.261719 184.894531 151.167969 130.636719 153.355469 111.675781 C 153.90625 106.921875 155.359375 102.382812 157.640625 98.34375 C 161.355469 91.757812 165.347656 84.453125 166.210938 82.59375 C 168.320312 78.054688 164.917969 76.664062 161.945312 82.144531 "/><path style=" stroke:none;fill-rule:nonzero;fill:#000000;fill-opacity:1;" d="M 120.332031 135.796875 C 118.179688 135.796875 115.886719 136.375 113.796875 137.332031 C 108.867188 139.585938 104.542969 144.273438 106.242188 148.523438 C 110.753906 159.800781 117.011719 167.503906 125.933594 172.765625 C 128.902344 174.515625 131.570312 174.753906 134.089844 173.5 C 146.304688 167.421875 150.730469 128.957031 152.621094 112.53125 L 152.726562 111.601562 C 153.289062 106.730469 154.757812 102.164062 157.089844 98.035156 C 160.984375 91.136719 164.820312 84.089844 165.636719 82.328125 C 166.472656 80.53125 166.304688 79.449219 165.917969 79.253906 C 165.503906 79.046875 164.066406 79.558594 162.503906 82.445312 C 159.949219 87.152344 158.621094 88.011719 158.480469 88.097656 C 158.257812 88.222656 157.976562 88.203125 157.773438 88.046875 C 157.574219 87.890625 157.484375 87.625 157.554688 87.378906 C 157.574219 87.304688 159.636719 79.972656 160.8125 75.914062 C 162.09375 71.492188 161.398438 69.746094 161 69.609375 C 160.640625 69.484375 159.4375 70.292969 158.1875 73.46875 C 156.0625 78.863281 155.261719 80.558594 155.230469 80.625 C 155.09375 80.90625 154.78125 81.046875 154.484375 80.964844 C 154.1875 80.878906 153.996094 80.589844 154.027344 80.285156 C 154.0625 79.972656 154.894531 72.648438 155.347656 70.371094 C 155.683594 68.664062 155.097656 67.429688 154.359375 67.265625 C 153.746094 67.132812 152.933594 67.785156 152.503906 69.554688 C 151.058594 75.496094 149.988281 81.957031 149.980469 82.019531 C 149.929688 82.324219 149.671875 82.542969 149.367188 82.550781 C 149.078125 82.554688 148.792969 82.339844 148.734375 82.039062 C 148.71875 81.960938 147.183594 74.101562 146.582031 70.953125 C 146.308594 69.503906 145.441406 68.683594 144.792969 68.75 C 144.1875 68.8125 143.820312 69.699219 143.855469 71.007812 C 143.96875 75.480469 144.457031 82.167969 144.617188 84.15625 C 144.636719 84.410156 144.6875 85.011719 144.109375 85.128906 C 143.523438 85.246094 143.375 84.777344 143.148438 84.070312 C 142.660156 82.546875 141.175781 77.925781 138.933594 78.09375 C 138.382812 78.140625 138.242188 78.335938 138.199219 78.402344 C 137.734375 79.074219 138.3125 81.09375 138.929688 83.226562 C 139.476562 85.140625 140.164062 87.515625 140.449219 90.007812 C 140.863281 93.578125 141.5 95.910156 142.011719 97.78125 C 142.875 100.945312 143.441406 103.035156 142.089844 107.714844 C 139.703125 115.957031 134.441406 132.75 133.191406 136.257812 C 132.265625 138.855469 131.777344 140.710938 131.453125 141.941406 C 131.042969 143.488281 130.90625 144.011719 130.277344 144.066406 C 129.65625 144.121094 129.429688 143.628906 128.820312 142.3125 C 128.539062 141.703125 128.152344 140.867188 127.628906 139.847656 C 126.132812 136.957031 123.375 135.796875 120.332031 135.796875 Z M 130.84375 175.546875 C 129.0625 175.546875 127.203125 174.980469 125.289062 173.851562 C 116.113281 168.445312 109.691406 160.546875 105.070312 148.992188 C 103.058594 143.964844 107.671875 138.742188 113.269531 136.183594 C 118.863281 133.625 125.816406 133.589844 128.75 139.269531 C 129.289062 140.308594 129.679688 141.160156 129.96875 141.78125 C 130.015625 141.882812 130.0625 141.984375 130.105469 142.082031 C 130.148438 141.933594 130.1875 141.777344 130.230469 141.617188 C 130.558594 140.371094 131.054688 138.484375 132 135.835938 C 133.246094 132.339844 138.492188 115.585938 140.875 107.363281 C 142.128906 103.027344 141.625 101.175781 140.792969 98.113281 C 140.269531 96.199219 139.621094 93.820312 139.195312 90.152344 C 138.917969 87.765625 138.277344 85.539062 137.714844 83.578125 C 136.925781 80.832031 136.351562 78.847656 137.160156 77.683594 C 137.507812 77.183594 138.070312 76.898438 138.832031 76.835938 C 140.777344 76.683594 142.148438 78.480469 143.074219 80.359375 C 142.878906 77.511719 142.664062 73.84375 142.589844 71.039062 C 142.527344 68.59375 143.617188 67.601562 144.65625 67.492188 C 145.871094 67.363281 147.394531 68.449219 147.824219 70.714844 C 148.167969 72.535156 148.828125 75.921875 149.328125 78.476562 C 149.785156 76.023438 150.472656 72.5625 151.277344 69.257812 C 151.949219 66.480469 153.503906 65.78125 154.632812 66.03125 C 155.960938 66.328125 157.097656 68.03125 156.585938 70.617188 C 156.378906 71.675781 156.074219 73.925781 155.8125 76.003906 C 156.15625 75.164062 156.550781 74.171875 157.011719 73.007812 C 158.335938 69.644531 159.980469 67.925781 161.410156 68.414062 C 163.03125 68.96875 163.269531 71.976562 162.027344 76.265625 C 161.3125 78.722656 160.277344 82.382812 159.566406 84.902344 C 160.066406 84.160156 160.675781 83.160156 161.390625 81.839844 C 163.238281 78.433594 165.28125 77.519531 166.488281 78.125 C 167.421875 78.597656 168.058594 80.117188 166.785156 82.859375 C 165.953125 84.648438 162.097656 91.734375 158.191406 98.65625 C 155.941406 102.636719 154.527344 107.042969 153.984375 111.746094 L 153.875 112.671875 C 151.964844 129.304688 147.480469 168.25 134.65625 174.632812 C 133.429688 175.242188 132.15625 175.546875 130.84375 175.546875 "/><path style=" stroke:none;fill-rule:nonzero;fill:#99b9ff;fill-opacity:1;" d="M 251.085938 224.59375 L 152.984375 224.59375 C 151.328125 224.59375 149.984375 223.25 149.984375 221.597656 L 149.984375 219.003906 L 254.082031 219.003906 L 254.082031 221.597656 C 254.082031 223.25 252.742188 224.59375 251.085938 224.59375 "/><path style=" stroke:none;fill-rule:nonzero;fill:#000000;fill-opacity:1;" d="M 150.617188 219.636719 L 150.617188 221.597656 C 150.617188 222.902344 151.679688 223.960938 152.984375 223.960938 L 251.085938 223.960938 C 252.390625 223.960938 253.449219 222.902344 253.449219 221.597656 L 253.449219 219.636719 Z M 251.085938 225.226562 L 152.984375 225.226562 C 150.980469 225.226562 149.355469 223.597656 149.355469 221.597656 L 149.355469 219.003906 C 149.355469 218.65625 149.636719 218.371094 149.984375 218.371094 L 254.082031 218.371094 C 254.433594 218.371094 254.714844 218.65625 254.714844 219.003906 L 254.714844 221.597656 C 254.714844 223.597656 253.085938 225.226562 251.085938 225.226562 "/><path style=" stroke:none;fill-rule:nonzero;fill:#99b9ff;fill-opacity:1;" d="M 254.085938 219.105469 L 194.519531 219.105469 L 213.445312 163.398438 C 214.578125 161.65625 216.550781 160.597656 218.671875 160.597656 L 269.023438 160.597656 C 271.308594 160.597656 272.78125 162.816406 272.03125 164.773438 C 271.738281 165.550781 271.417969 166.320312 271.160156 167.113281 L 254.085938 219.105469 "/><path style=" stroke:none;fill-rule:nonzero;fill:#000000;fill-opacity:1;" d="M 254.085938 219.738281 L 194.519531 219.738281 C 194.316406 219.738281 194.125 219.640625 194.007812 219.476562 C 193.890625 219.308594 193.855469 219.097656 193.921875 218.902344 L 212.847656 163.195312 C 212.863281 163.144531 212.886719 163.097656 212.917969 163.054688 C 214.171875 161.121094 216.324219 159.964844 218.671875 159.964844 L 223.804688 159.964844 C 224.152344 159.964844 224.4375 160.25 224.4375 160.597656 C 224.4375 160.949219 224.152344 161.230469 223.804688 161.230469 L 218.671875 161.230469 C 216.78125 161.230469 215.046875 162.144531 214.019531 163.679688 L 195.402344 218.472656 L 253.625 218.472656 L 261.863281 193.394531 C 261.972656 193.0625 262.328125 192.882812 262.660156 192.992188 C 262.992188 193.101562 263.171875 193.457031 263.0625 193.789062 L 254.683594 219.304688 C 254.601562 219.5625 254.359375 219.738281 254.085938 219.738281 "/><path style=" stroke:none;fill-rule:nonzero;fill:#ffffff;fill-opacity:1;" d="M 231.980469 189.101562 C 231.273438 191.457031 232.355469 193.867188 234.402344 194.484375 C 236.449219 195.101562 238.6875 193.695312 239.394531 191.339844 C 240.105469 188.984375 239.019531 186.570312 236.972656 185.957031 C 234.925781 185.335938 232.6875 186.746094 231.980469 189.101562 "/><path style=" stroke:none;fill-rule:nonzero;fill:#99b9ff;fill-opacity:1;" d="M 306.894531 265.199219 C 305.394531 271.6875 298.917969 275.726562 292.429688 274.226562 C 285.941406 272.726562 281.898438 266.25 283.398438 259.761719 C 284.902344 253.273438 291.378906 249.230469 297.867188 250.730469 C 304.355469 252.234375 308.398438 258.707031 306.894531 265.199219 Z M 302.890625 239.398438 L 298.328125 238.34375 L 296.105469 242.953125 C 295.003906 242.898438 293.914062 242.929688 292.84375 243.058594 L 290.3125 238.617188 L 285.835938 239.988281 L 286.214844 245.089844 C 285.246094 245.589844 284.320312 246.164062 283.449219 246.816406 L 279.03125 244.234375 L 275.835938 247.660156 L 278.710938 251.882812 C 278.128906 252.785156 277.617188 253.75 277.183594 254.765625 L 272.066406 254.738281 L 271.011719 259.300781 L 275.621094 261.523438 C 275.566406 262.621094 275.601562 263.710938 275.726562 264.785156 L 271.289062 267.316406 L 272.65625 271.792969 L 277.757812 271.414062 C 278.257812 272.382812 278.835938 273.304688 279.484375 274.179688 L 276.902344 278.597656 L 280.324219 281.792969 L 284.550781 278.917969 C 285.457031 279.5 286.421875 280.011719 287.433594 280.445312 L 287.40625 285.5625 L 291.96875 286.617188 L 294.191406 282.007812 C 295.289062 282.0625 296.382812 282.027344 297.453125 281.902344 L 299.980469 286.339844 L 304.460938 284.972656 L 304.082031 279.867188 C 305.050781 279.371094 305.976562 278.792969 306.847656 278.144531 L 311.265625 280.726562 L 314.460938 277.300781 L 311.582031 273.078125 C 312.167969 272.171875 312.679688 271.207031 313.113281 270.195312 L 318.226562 270.222656 L 319.285156 265.660156 L 314.675781 263.4375 C 314.730469 262.335938 314.695312 261.246094 314.570312 260.175781 L 319.007812 257.644531 L 317.640625 253.164062 L 312.539062 253.542969 C 312.039062 252.578125 311.460938 251.652344 310.8125 250.78125 L 313.394531 246.363281 L 309.96875 243.167969 L 305.746094 246.042969 C 304.839844 245.457031 303.875 244.949219 302.863281 244.515625 L 302.890625 239.398438 "/><path style=" stroke:none;fill-rule:nonzero;fill:#611f69;fill-opacity:1;" d="M 293.796875 252.261719 C 291.683594 252.261719 289.605469 252.855469 287.769531 254 C 285.179688 255.617188 283.375 258.144531 282.6875 261.117188 C 282 264.09375 282.511719 267.15625 284.128906 269.746094 C 285.746094 272.332031 288.269531 274.140625 291.246094 274.828125 C 294.21875 275.515625 297.28125 275.003906 299.871094 273.386719 C 302.460938 271.769531 304.265625 269.242188 304.953125 266.269531 C 305.640625 263.296875 305.128906 260.230469 303.511719 257.644531 C 301.894531 255.054688 299.371094 253.25 296.394531 252.5625 C 295.53125 252.363281 294.660156 252.261719 293.796875 252.261719 Z M 293.84375 276.386719 C 292.886719 276.386719 291.917969 276.277344 290.960938 276.054688 C 287.660156 275.292969 284.851562 273.289062 283.054688 270.414062 C 281.261719 267.539062 280.691406 264.136719 281.457031 260.832031 C 282.222656 257.53125 284.226562 254.722656 287.101562 252.925781 C 289.976562 251.132812 293.378906 250.566406 296.679688 251.332031 C 299.980469 252.09375 302.789062 254.097656 304.585938 256.972656 C 306.378906 259.847656 306.949219 263.25 306.183594 266.550781 C 305.421875 269.855469 303.417969 272.664062 300.539062 274.457031 C 298.5 275.730469 296.191406 276.386719 293.84375 276.386719 Z M 286.714844 286.273438 L 290.289062 287.101562 L 292.292969 282.945312 C 292.402344 282.71875 292.644531 282.578125 292.894531 282.589844 C 293.960938 282.640625 295.023438 282.609375 296.050781 282.488281 C 296.304688 282.457031 296.546875 282.582031 296.671875 282.800781 L 298.953125 286.800781 L 302.46875 285.730469 L 302.125 281.128906 C 302.105469 280.875 302.238281 280.636719 302.464844 280.519531 C 303.398438 280.039062 304.300781 279.476562 305.140625 278.851562 C 305.34375 278.699219 305.621094 278.683594 305.839844 278.8125 L 309.820312 281.136719 L 312.328125 278.453125 L 309.734375 274.648438 C 309.589844 274.4375 309.585938 274.160156 309.726562 273.949219 C 310.285156 273.082031 310.785156 272.140625 311.203125 271.160156 C 311.304688 270.925781 311.53125 270.777344 311.785156 270.777344 C 311.785156 270.777344 311.785156 270.777344 311.789062 270.777344 L 316.398438 270.800781 L 317.226562 267.222656 L 313.074219 265.222656 C 312.84375 265.109375 312.703125 264.875 312.714844 264.621094 C 312.769531 263.554688 312.734375 262.492188 312.613281 261.464844 C 312.582031 261.210938 312.707031 260.96875 312.929688 260.839844 L 316.925781 258.558594 L 315.855469 255.046875 L 311.257812 255.386719 C 311.007812 255.40625 310.765625 255.273438 310.648438 255.046875 C 310.167969 254.117188 309.605469 253.214844 308.976562 252.371094 C 308.824219 252.167969 308.808594 251.894531 308.9375 251.675781 L 311.265625 247.695312 L 308.582031 245.1875 L 304.773438 247.777344 C 304.566406 247.921875 304.289062 247.925781 304.074219 247.789062 C 303.203125 247.226562 302.265625 246.726562 301.289062 246.3125 C 301.054688 246.210938 300.902344 245.980469 300.902344 245.726562 L 300.925781 241.113281 L 297.351562 240.285156 L 295.347656 244.441406 C 295.238281 244.667969 295 244.804688 294.746094 244.796875 C 293.679688 244.742188 292.621094 244.777344 291.59375 244.898438 C 291.339844 244.929688 291.09375 244.808594 290.96875 244.585938 L 288.6875 240.585938 L 285.171875 241.660156 L 285.515625 246.257812 C 285.535156 246.511719 285.402344 246.75 285.175781 246.867188 C 284.242188 247.347656 283.339844 247.910156 282.5 248.535156 C 282.296875 248.6875 282.019531 248.703125 281.804688 248.578125 L 277.820312 246.25 L 275.316406 248.933594 L 277.90625 252.738281 C 278.050781 252.949219 278.054688 253.222656 277.914062 253.4375 C 277.355469 254.308594 276.855469 255.246094 276.4375 256.226562 C 276.335938 256.460938 276.109375 256.609375 275.855469 256.609375 C 275.855469 256.609375 275.855469 256.609375 275.851562 256.609375 L 271.242188 256.585938 L 270.414062 260.164062 L 274.566406 262.167969 C 274.796875 262.277344 274.9375 262.511719 274.925781 262.765625 C 274.871094 263.832031 274.90625 264.894531 275.027344 265.921875 C 275.058594 266.175781 274.933594 266.421875 274.714844 266.546875 L 270.714844 268.828125 L 271.785156 272.339844 L 276.386719 271.996094 C 276.636719 271.976562 276.878906 272.113281 276.992188 272.339844 C 277.472656 273.273438 278.035156 274.171875 278.664062 275.015625 C 278.816406 275.21875 278.832031 275.492188 278.703125 275.710938 L 276.375 279.691406 L 279.0625 282.199219 L 282.867188 279.605469 C 283.078125 279.464844 283.351562 279.460938 283.566406 279.597656 C 284.433594 280.160156 285.371094 280.65625 286.351562 281.078125 C 286.589844 281.175781 286.738281 281.40625 286.738281 281.660156 Z M 290.640625 288.460938 C 290.59375 288.460938 290.546875 288.457031 290.5 288.445312 L 285.933594 287.390625 C 285.648438 287.324219 285.445312 287.066406 285.445312 286.769531 L 285.472656 282.070312 C 284.695312 281.71875 283.945312 281.320312 283.234375 280.886719 L 279.355469 283.527344 C 279.109375 283.695312 278.785156 283.667969 278.566406 283.46875 L 275.144531 280.269531 C 274.925781 280.070312 274.878906 279.746094 275.027344 279.492188 L 277.402344 275.429688 C 276.914062 274.746094 276.464844 274.027344 276.066406 273.289062 L 271.375 273.636719 C 271.082031 273.664062 270.8125 273.476562 270.726562 273.191406 L 269.355469 268.714844 C 269.269531 268.429688 269.390625 268.125 269.648438 267.980469 L 273.726562 265.652344 C 273.648438 264.820312 273.617188 263.976562 273.644531 263.125 L 269.410156 261.082031 C 269.144531 260.957031 269 260.660156 269.066406 260.371094 L 270.125 255.808594 C 270.191406 255.519531 270.441406 255.300781 270.742188 255.316406 L 275.445312 255.34375 C 275.792969 254.570312 276.191406 253.820312 276.628906 253.109375 L 273.984375 249.226562 C 273.820312 248.984375 273.84375 248.65625 274.042969 248.441406 L 277.242188 245.015625 C 277.441406 244.800781 277.769531 244.753906 278.023438 244.902344 L 282.085938 247.273438 C 282.769531 246.785156 283.484375 246.339844 284.226562 245.9375 L 283.875 241.25 C 283.855469 240.953125 284.039062 240.683594 284.320312 240.597656 L 288.800781 239.230469 C 289.082031 239.144531 289.390625 239.261719 289.535156 239.519531 L 291.863281 243.597656 C 292.691406 243.519531 293.539062 243.492188 294.390625 243.515625 L 296.429688 239.285156 C 296.558594 239.015625 296.855469 238.875 297.140625 238.941406 L 301.707031 239.996094 C 301.992188 240.0625 302.195312 240.320312 302.195312 240.617188 L 302.167969 245.316406 C 302.945312 245.667969 303.695312 246.066406 304.40625 246.5 L 308.285156 243.859375 C 308.53125 243.691406 308.859375 243.71875 309.074219 243.917969 L 312.496094 247.113281 C 312.714844 247.316406 312.761719 247.640625 312.613281 247.894531 L 310.238281 251.957031 C 310.726562 252.640625 311.175781 253.359375 311.578125 254.097656 L 316.265625 253.75 C 316.5625 253.726562 316.832031 253.910156 316.917969 254.195312 L 318.285156 258.675781 C 318.371094 258.957031 318.25 259.261719 317.992188 259.40625 L 313.914062 261.734375 C 313.992188 262.5625 314.023438 263.414062 313.996094 264.261719 L 318.230469 266.300781 C 318.496094 266.433594 318.640625 266.726562 318.574219 267.015625 L 317.519531 271.578125 C 317.449219 271.867188 317.195312 272.066406 316.902344 272.066406 C 316.902344 272.066406 316.898438 272.066406 316.898438 272.066406 L 312.195312 272.042969 C 311.847656 272.820312 311.449219 273.566406 311.011719 274.277344 L 313.65625 278.15625 C 313.820312 278.402344 313.796875 278.730469 313.597656 278.949219 L 310.398438 282.371094 C 310.199219 282.585938 309.875 282.632812 309.617188 282.484375 L 305.558594 280.109375 C 304.871094 280.601562 304.15625 281.050781 303.414062 281.449219 L 303.765625 286.136719 C 303.789062 286.433594 303.601562 286.703125 303.320312 286.789062 L 298.839844 288.15625 C 298.558594 288.242188 298.25 288.121094 298.105469 287.867188 L 295.78125 283.785156 C 294.949219 283.867188 294.105469 283.894531 293.25 283.867188 L 291.210938 288.105469 C 291.101562 288.324219 290.878906 288.460938 290.640625 288.460938 "/><path style=" stroke:none;fill-rule:nonzero;fill:#99b9ff;fill-opacity:1;" d="M 347.691406 317.757812 C 346.605469 327.195312 338.070312 333.960938 328.636719 332.871094 C 319.199219 331.78125 312.433594 323.25 313.519531 313.8125 C 314.609375 304.378906 323.144531 297.613281 332.578125 298.699219 C 342.015625 299.789062 348.78125 308.320312 347.691406 317.757812 Z M 337.886719 281.835938 L 331.25 281.070312 L 328.839844 287.957031 C 327.273438 288.054688 325.734375 288.28125 324.234375 288.628906 L 319.9375 282.742188 L 313.804688 285.398438 L 315.164062 292.570312 C 313.871094 293.433594 312.652344 294.394531 311.519531 295.457031 L 304.847656 292.503906 L 300.863281 297.871094 L 305.617188 303.394531 C 304.933594 304.773438 304.363281 306.222656 303.910156 307.726562 L 296.65625 308.503906 L 295.890625 315.144531 L 302.777344 317.554688 C 302.875 319.121094 303.101562 320.664062 303.453125 322.160156 L 297.566406 326.457031 L 300.222656 332.585938 L 307.394531 331.230469 C 308.253906 332.523438 309.21875 333.742188 310.28125 334.875 L 307.328125 341.546875 L 312.691406 345.53125 L 318.214844 340.777344 C 319.59375 341.460938 321.042969 342.03125 322.546875 342.480469 L 323.328125 349.734375 L 329.964844 350.503906 L 332.375 343.617188 C 333.941406 343.519531 335.484375 343.292969 336.980469 342.941406 L 341.277344 348.828125 L 347.40625 346.171875 L 346.054688 339.003906 C 347.34375 338.140625 348.5625 337.175781 349.695312 336.113281 L 356.367188 339.066406 L 360.351562 333.699219 L 355.597656 328.175781 C 356.28125 326.800781 356.851562 325.351562 357.304688 323.84375 L 364.558594 323.066406 L 365.324219 316.429688 L 358.4375 314.019531 C 358.339844 312.449219 358.113281 310.910156 357.765625 309.414062 L 363.648438 305.117188 L 360.996094 298.984375 L 353.824219 300.339844 C 352.964844 299.046875 351.996094 297.832031 350.933594 296.699219 L 353.886719 290.023438 L 348.523438 286.042969 L 343 290.796875 C 341.617188 290.113281 340.171875 289.542969 338.667969 289.089844 L 337.886719 281.835938 "/><path style=" stroke:none;fill-rule:nonzero;fill:#611f69;fill-opacity:1;" d="M 345.636719 319.992188 L 345.640625 319.992188 Z M 328.539062 301.457031 C 320.246094 301.457031 313.066406 307.691406 312.09375 316.125 C 311.046875 325.199219 317.578125 333.433594 326.652344 334.480469 C 331.046875 334.988281 335.378906 333.753906 338.84375 331.003906 C 342.3125 328.253906 344.503906 324.320312 345.007812 319.921875 C 346.054688 310.847656 339.527344 302.613281 330.453125 301.566406 C 329.808594 301.492188 329.171875 301.457031 328.539062 301.457031 Z M 328.585938 335.855469 C 327.898438 335.855469 327.203125 335.816406 326.507812 335.734375 C 316.742188 334.609375 309.710938 325.746094 310.839844 315.976562 C 311.964844 306.210938 320.828125 299.179688 330.597656 300.308594 C 340.363281 301.4375 347.390625 310.300781 346.265625 320.066406 C 345.71875 324.796875 343.363281 329.035156 339.628906 331.992188 C 336.449219 334.519531 332.589844 335.855469 328.585938 335.855469 Z M 321.84375 351.402344 L 327.476562 352.054688 L 329.722656 345.640625 C 329.808594 345.402344 330.023438 345.238281 330.277344 345.222656 C 331.8125 345.125 333.328125 344.90625 334.78125 344.5625 C 335.027344 344.503906 335.285156 344.601562 335.433594 344.804688 L 339.433594 350.285156 L 344.636719 348.03125 L 343.375 341.355469 C 343.328125 341.105469 343.4375 340.851562 343.644531 340.710938 C 344.90625 339.875 346.101562 338.925781 347.207031 337.886719 C 347.390625 337.714844 347.664062 337.671875 347.894531 337.773438 L 354.105469 340.519531 L 357.488281 335.96875 L 353.0625 330.824219 C 352.898438 330.632812 352.863281 330.359375 352.976562 330.132812 C 353.636719 328.796875 354.199219 327.375 354.640625 325.902344 C 354.714844 325.65625 354.925781 325.480469 355.179688 325.453125 L 361.933594 324.730469 L 362.582031 319.097656 L 356.171875 316.851562 C 355.933594 316.765625 355.765625 316.546875 355.75 316.296875 C 355.65625 314.757812 355.433594 313.246094 355.089844 311.792969 C 355.035156 311.546875 355.128906 311.289062 355.335938 311.140625 L 360.8125 307.140625 L 358.558594 301.9375 L 351.882812 303.199219 C 351.632812 303.246094 351.382812 303.140625 351.242188 302.929688 C 350.402344 301.667969 349.453125 300.472656 348.417969 299.367188 C 348.246094 299.183594 348.199219 298.910156 348.300781 298.679688 L 351.050781 292.46875 L 346.496094 289.085938 L 341.355469 293.511719 C 341.164062 293.675781 340.890625 293.710938 340.660156 293.597656 C 339.324219 292.933594 337.902344 292.375 336.429688 291.933594 C 336.1875 291.859375 336.011719 291.648438 335.984375 291.394531 L 335.257812 284.640625 L 329.625 283.992188 L 327.382812 290.402344 C 327.296875 290.644531 327.078125 290.808594 326.824219 290.824219 C 325.289062 290.917969 323.773438 291.140625 322.324219 291.480469 C 322.074219 291.539062 321.816406 291.445312 321.667969 291.242188 L 317.667969 285.761719 L 312.464844 288.015625 L 313.726562 294.691406 C 313.773438 294.9375 313.667969 295.191406 313.457031 295.332031 C 312.199219 296.171875 311 297.125 309.898438 298.15625 C 309.710938 298.332031 309.441406 298.375 309.207031 298.273438 L 302.996094 295.523438 L 299.617188 300.078125 L 304.039062 305.21875 C 304.207031 305.410156 304.242188 305.683594 304.128906 305.914062 C 303.464844 307.25 302.902344 308.675781 302.460938 310.144531 C 302.386719 310.386719 302.175781 310.5625 301.921875 310.589844 L 295.171875 311.316406 L 294.519531 316.949219 L 300.929688 319.191406 C 301.171875 319.277344 301.335938 319.496094 301.351562 319.75 C 301.449219 321.285156 301.667969 322.796875 302.011719 324.253906 C 302.070312 324.5 301.972656 324.757812 301.769531 324.90625 L 296.289062 328.90625 L 298.542969 334.109375 L 305.21875 332.847656 C 305.46875 332.800781 305.722656 332.90625 305.863281 333.117188 C 306.703125 334.378906 307.652344 335.574219 308.6875 336.675781 C 308.859375 336.863281 308.90625 337.132812 308.800781 337.367188 L 306.054688 343.578125 L 310.605469 346.957031 L 315.75 342.535156 C 315.941406 342.367188 316.210938 342.332031 316.441406 342.445312 C 317.777344 343.109375 319.203125 343.671875 320.675781 344.113281 C 320.917969 344.1875 321.09375 344.398438 321.121094 344.652344 Z M 327.90625 353.371094 C 327.882812 353.371094 327.859375 353.371094 327.835938 353.367188 L 321.199219 352.601562 C 320.90625 352.566406 320.675781 352.335938 320.644531 352.039062 L 319.90625 345.199219 C 318.648438 344.800781 317.425781 344.320312 316.257812 343.761719 L 311.046875 348.246094 C 310.824219 348.4375 310.496094 348.449219 310.257812 348.273438 L 304.894531 344.292969 C 304.65625 344.117188 304.574219 343.800781 304.691406 343.53125 L 307.480469 337.234375 C 306.601562 336.269531 305.785156 335.242188 305.042969 334.167969 L 298.28125 335.445312 C 297.988281 335.5 297.703125 335.34375 297.585938 335.074219 L 294.929688 328.945312 C 294.8125 328.671875 294.898438 328.359375 295.136719 328.183594 L 300.6875 324.128906 C 300.410156 322.871094 300.222656 321.566406 300.121094 320.25 L 293.625 317.976562 C 293.347656 317.878906 293.171875 317.601562 293.207031 317.308594 L 293.972656 310.667969 C 294.007812 310.378906 294.238281 310.144531 294.535156 310.113281 L 301.375 309.378906 C 301.773438 308.121094 302.253906 306.894531 302.8125 305.730469 L 298.328125 300.519531 C 298.136719 300.296875 298.125 299.96875 298.300781 299.730469 L 302.28125 294.367188 C 302.457031 294.128906 302.773438 294.046875 303.042969 294.164062 L 309.339844 296.949219 C 310.304688 296.074219 311.332031 295.257812 312.40625 294.515625 L 311.128906 287.753906 C 311.074219 287.464844 311.230469 287.171875 311.5 287.058594 L 317.628906 284.402344 C 317.902344 284.28125 318.214844 284.367188 318.390625 284.609375 L 322.445312 290.160156 C 323.707031 289.882812 325.007812 289.695312 326.324219 289.59375 L 328.597656 283.097656 C 328.695312 282.816406 328.976562 282.644531 329.265625 282.679688 L 335.90625 283.445312 C 336.195312 283.480469 336.429688 283.710938 336.460938 284.003906 L 337.195312 290.847656 C 338.457031 291.246094 339.679688 291.726562 340.84375 292.28125 L 346.054688 287.800781 C 346.277344 287.605469 346.605469 287.597656 346.84375 287.769531 L 352.207031 291.753906 C 352.445312 291.929688 352.53125 292.246094 352.410156 292.515625 L 349.625 298.8125 C 350.503906 299.777344 351.320312 300.804688 352.058594 301.878906 L 358.820312 300.601562 C 359.113281 300.542969 359.402344 300.699219 359.519531 300.96875 L 362.171875 307.101562 C 362.292969 307.371094 362.207031 307.6875 361.964844 307.863281 L 356.414062 311.914062 C 356.691406 313.175781 356.882812 314.476562 356.980469 315.796875 L 363.476562 318.070312 C 363.757812 318.167969 363.929688 318.445312 363.894531 318.738281 L 363.128906 325.375 C 363.09375 325.667969 362.863281 325.902344 362.570312 325.929688 L 355.726562 326.667969 C 355.328125 327.929688 354.847656 329.152344 354.292969 330.316406 L 358.773438 335.527344 C 358.96875 335.75 358.980469 336.078125 358.804688 336.316406 L 354.820312 341.679688 C 354.644531 341.917969 354.328125 342 354.058594 341.882812 L 347.761719 339.09375 C 346.796875 339.976562 345.769531 340.789062 344.695312 341.53125 L 345.972656 348.292969 C 346.027344 348.582031 345.875 348.871094 345.605469 348.988281 L 339.472656 351.644531 C 339.203125 351.761719 338.886719 351.675781 338.710938 351.4375 L 334.660156 345.886719 C 333.398438 346.164062 332.097656 346.355469 330.777344 346.453125 L 328.503906 352.949219 C 328.414062 353.203125 328.171875 353.371094 327.90625 353.371094 "/><path style=" stroke:none;fill-rule:nonzero;fill:#ffffff;fill-opacity:1;" d="M 358.972656 131.117188 L 258.726562 131.886719 L 268.195312 37.457031 C 268.539062 34.019531 271.535156 31.210938 274.886719 31.1875 L 362.992188 30.507812 C 366.34375 30.484375 368.78125 33.25 368.4375 36.691406 L 358.972656 131.117188 "/><path style=" stroke:none;fill-rule:nonzero;fill:#611f69;fill-opacity:1;" d="M 368.203125 39.667969 L 368.503906 36.691406 C 368.847656 33.25 366.335938 30.558594 362.988281 30.585938 L 274.878906 31.261719 C 271.527344 31.285156 268.554688 34.019531 268.210938 37.457031 L 267.914062 40.4375 L 368.203125 39.667969 "/><path style=" stroke:none;fill-rule:nonzero;fill:#4682b4;fill-opacity:1;" d="M 355.839844 95.382812 L 268.828125 95.425781 L 269.367188 89.417969 L 356.375 89.375 L 355.839844 95.382812 "/><path style=" stroke:none;fill-rule:nonzero;fill:#99b9ff;fill-opacity:1;" d="M 356.683594 86.074219 L 269.679688 86.117188 L 273.695312 46.050781 L 360.742188 45.578125 L 356.683594 86.074219 "/><path style=" stroke:none;fill-rule:nonzero;fill:#99b9ff;fill-opacity:1;" d="M 292.667969 128.332031 L 265.277344 128.398438 L 267.296875 108.101562 L 294.683594 108.035156 L 292.667969 128.332031 "/><path style=" stroke:none;fill-rule:nonzero;fill:#99b9ff;fill-opacity:1;" d="M 322.6875 128.398438 L 295.296875 128.464844 L 297.316406 108.167969 L 324.707031 108.101562 L 322.6875 128.398438 "/><path style=" stroke:none;fill-rule:nonzero;fill:#4682b4;fill-opacity:1;" d="M 275.832031 35.929688 C 275.730469 36.933594 274.859375 37.75 273.878906 37.757812 C 272.90625 37.765625 272.195312 36.960938 272.292969 35.957031 C 272.394531 34.957031 273.269531 34.136719 274.246094 34.128906 C 275.222656 34.121094 275.933594 34.929688 275.832031 35.929688 "/><path style=" stroke:none;fill-rule:nonzero;fill:#4682b4;fill-opacity:1;" d="M 281.195312 35.890625 C 281.09375 36.890625 280.222656 37.710938 279.242188 37.71875 C 278.265625 37.726562 277.554688 36.917969 277.65625 35.917969 C 277.757812 34.914062 278.632812 34.097656 279.609375 34.089844 C 280.585938 34.082031 281.292969 34.886719 281.195312 35.890625 "/><path style=" stroke:none;fill-rule:nonzero;fill:#4682b4;fill-opacity:1;" d="M 286.542969 35.964844 C 286.445312 36.96875 285.570312 37.789062 284.59375 37.796875 C 283.617188 37.800781 282.90625 36.996094 283.007812 35.996094 C 283.109375 34.992188 283.984375 34.171875 284.957031 34.167969 C 285.933594 34.160156 286.644531 34.964844 286.542969 35.964844 "/><path style=" stroke:none;fill-rule:nonzero;fill:#000000;fill-opacity:1;" d="M 358.972656 131.117188 L 358.976562 131.117188 Z M 363.039062 31.140625 C 363.027344 31.140625 363.011719 31.140625 363 31.140625 L 274.890625 31.816406 C 271.859375 31.839844 269.136719 34.398438 268.820312 37.519531 L 259.425781 131.246094 L 358.398438 130.488281 L 367.808594 36.625 C 367.960938 35.109375 367.523438 33.699219 366.574219 32.660156 C 365.683594 31.679688 364.425781 31.140625 363.039062 31.140625 Z M 258.726562 132.519531 C 258.546875 132.519531 258.378906 132.441406 258.257812 132.3125 C 258.136719 132.179688 258.078125 132 258.097656 131.824219 L 267.566406 37.394531 C 267.9375 33.652344 271.222656 30.582031 274.878906 30.554688 L 362.992188 29.878906 C 363.007812 29.878906 363.023438 29.878906 363.042969 29.878906 C 364.789062 29.878906 366.375 30.5625 367.507812 31.808594 C 368.703125 33.117188 369.257812 34.871094 369.066406 36.753906 L 359.597656 131.179688 C 359.566406 131.5 359.300781 131.75 358.976562 131.75 L 258.730469 132.519531 C 258.730469 132.519531 258.726562 132.519531 258.726562 132.519531 "/><path style=" stroke:none;fill-rule:nonzero;fill:#ffffff;fill-opacity:1;" d="M 331.597656 74.722656 C 333.5 64.691406 326.984375 55.796875 317.042969 54.855469 C 307.101562 53.914062 297.5 61.285156 295.597656 71.316406 C 293.695312 81.347656 300.214844 90.242188 310.15625 91.183594 C 320.09375 92.125 329.695312 84.753906 331.597656 74.722656 "/><path style=" stroke:none;fill-rule:nonzero;fill:#000000;fill-opacity:1;" d="M 315.328125 55.40625 C 306.328125 55.40625 297.953125 62.289062 296.21875 71.433594 C 295.320312 76.183594 296.324219 80.800781 299.058594 84.433594 C 301.699219 87.949219 305.660156 90.125 310.214844 90.554688 C 310.765625 90.605469 311.316406 90.632812 311.867188 90.632812 C 320.871094 90.632812 329.242188 83.75 330.976562 74.605469 C 331.878906 69.855469 330.871094 65.238281 328.140625 61.605469 C 325.5 58.089844 321.535156 55.917969 316.984375 55.484375 C 316.429688 55.433594 315.875 55.40625 315.328125 55.40625 Z M 311.859375 91.894531 C 311.273438 91.894531 310.6875 91.867188 310.097656 91.8125 C 305.183594 91.347656 300.90625 88.996094 298.046875 85.195312 C 295.097656 81.273438 294.011719 76.304688 294.976562 71.199219 C 296.933594 60.871094 306.859375 53.253906 317.101562 54.226562 C 322.011719 54.691406 326.292969 57.042969 329.148438 60.84375 C 332.097656 64.765625 333.1875 69.738281 332.21875 74.839844 C 330.375 84.574219 321.453125 91.894531 311.859375 91.894531 "/><path style=" stroke:none;fill-rule:nonzero;fill:#000000;fill-opacity:1;" d="M 315.519531 84.519531 C 315.359375 86.195312 313.875 87.550781 312.207031 87.550781 C 310.535156 87.550781 309.3125 86.195312 309.472656 84.519531 C 309.632812 82.847656 311.117188 81.488281 312.789062 81.488281 C 314.457031 81.488281 315.679688 82.847656 315.519531 84.519531 "/><path style=" stroke:none;fill-rule:nonzero;fill:#000000;fill-opacity:1;" d="M 315.507812 58.488281 L 314.472656 58.488281 C 313.019531 58.488281 311.738281 59.699219 311.648438 61.152344 L 310.742188 76.050781 C 310.65625 77.4375 311.683594 78.535156 313.070312 78.535156 C 314.453125 78.535156 315.695312 77.4375 315.875 76.050781 L 317.820312 61.152344 C 318.011719 59.699219 316.960938 58.488281 315.507812 58.488281 "/><path style=" stroke:none;fill-rule:nonzero;fill:#ffffff;fill-opacity:1;" d="M 352.152344 106.394531 C 352.316406 104.902344 351.328125 103.578125 350.046875 103.578125 L 236.367188 103.578125 C 235.71875 103.578125 235.167969 104.148438 235.085938 104.90625 L 225.917969 185.425781 C 225.824219 186.25 226.371094 186.980469 227.078125 186.980469 L 341.851562 186.980469 C 342.5 186.980469 343.050781 186.410156 343.136719 185.652344 L 352.152344 106.394531 "/><path style=" stroke:none;fill-rule:nonzero;fill:#000000;fill-opacity:1;" d="M 345.382812 166.539062 C 345.359375 166.539062 345.335938 166.539062 345.308594 166.535156 C 344.964844 166.496094 344.714844 166.183594 344.753906 165.835938 L 351.523438 106.324219 C 351.566406 105.976562 351.875 105.726562 352.222656 105.765625 C 352.570312 105.808594 352.820312 106.121094 352.78125 106.464844 L 346.007812 165.980469 C 345.972656 166.304688 345.699219 166.539062 345.382812 166.539062 "/><path style=" stroke:none;fill-rule:nonzero;fill:#000000;fill-opacity:1;" d="M 287.65625 187.613281 L 227.078125 187.613281 C 226.59375 187.613281 226.136719 187.402344 225.800781 187.023438 C 225.40625 186.582031 225.222656 185.972656 225.289062 185.355469 L 234.457031 104.835938 C 234.574219 103.761719 235.394531 102.949219 236.367188 102.949219 L 350.046875 102.949219 C 350.777344 102.949219 351.460938 103.265625 351.980469 103.84375 C 352.597656 104.53125 352.886719 105.484375 352.78125 106.464844 C 352.742188 106.808594 352.429688 107.0625 352.085938 107.023438 C 351.734375 106.984375 351.484375 106.671875 351.523438 106.328125 C 351.589844 105.714844 351.410156 105.101562 351.035156 104.6875 C 350.765625 104.382812 350.414062 104.210938 350.046875 104.210938 L 236.367188 104.210938 C 236.046875 104.210938 235.757812 104.546875 235.714844 104.976562 L 226.546875 185.5 C 226.519531 185.753906 226.589844 186.007812 226.742188 186.179688 C 226.8125 186.253906 226.925781 186.347656 227.078125 186.347656 L 287.65625 186.347656 C 288.003906 186.347656 288.285156 186.628906 288.285156 186.980469 C 288.285156 187.328125 288.003906 187.613281 287.65625 187.613281 "/><path style=" stroke:none;fill-rule:nonzero;fill:#99b9ff;fill-opacity:1;" d="M 325.902344 165.90625 L 244.90625 165.90625 L 249.40625 127.261719 L 330.402344 127.261719 L 325.902344 165.90625 "/><path style=" stroke:none;fill-rule:nonzero;fill:#000000;fill-opacity:1;" d="M 333.945312 115.6875 L 244.128906 115.6875 C 243.777344 115.6875 243.496094 115.402344 243.496094 115.054688 C 243.496094 114.707031 243.777344 114.421875 244.128906 114.421875 L 333.945312 114.421875 C 334.292969 114.421875 334.578125 114.707031 334.578125 115.054688 C 334.578125 115.402344 334.292969 115.6875 333.945312 115.6875 "/><path style=" stroke:none;fill-rule:nonzero;fill:#99b9ff;fill-opacity:1;" d="M 252.382812 109.894531 C 252.257812 110.730469 251.285156 111.410156 250.210938 111.410156 C 249.136719 111.410156 248.367188 110.730469 248.492188 109.894531 C 248.617188 109.058594 249.589844 108.378906 250.660156 108.378906 C 251.734375 108.378906 252.503906 109.058594 252.382812 109.894531 "/><path style=" stroke:none;fill-rule:nonzero;fill:#99b9ff;fill-opacity:1;" d="M 260.160156 109.894531 C 260.035156 110.730469 259.0625 111.410156 257.988281 111.410156 C 256.914062 111.410156 256.148438 110.730469 256.269531 109.894531 C 256.394531 109.058594 257.367188 108.378906 258.441406 108.378906 C 259.515625 108.378906 260.285156 109.058594 260.160156 109.894531 "/><path style=" stroke:none;fill-rule:nonzero;fill:#99b9ff;fill-opacity:1;" d="M 267.9375 109.894531 C 267.8125 110.730469 266.839844 111.410156 265.765625 111.410156 C 264.695312 111.410156 263.921875 110.730469 264.046875 109.894531 C 264.175781 109.058594 265.144531 108.378906 266.21875 108.378906 C 267.292969 108.378906 268.0625 109.058594 267.9375 109.894531 "/><path style=" stroke:none;fill-rule:nonzero;fill:#000000;fill-opacity:1;" d="M 334.808594 110.527344 L 323.855469 110.527344 C 323.503906 110.527344 323.222656 110.242188 323.222656 109.894531 C 323.222656 109.546875 323.503906 109.261719 323.855469 109.261719 L 334.808594 109.261719 C 335.160156 109.261719 335.441406 109.546875 335.441406 109.894531 C 335.441406 110.242188 335.160156 110.527344 334.808594 110.527344 "/><path style=" stroke:none;fill-rule:nonzero;fill:#000000;fill-opacity:1;" d="M 318.925781 110.527344 L 294.191406 110.527344 C 293.839844 110.527344 293.558594 110.242188 293.558594 109.894531 C 293.558594 109.546875 293.839844 109.261719 294.191406 109.261719 L 318.925781 109.261719 C 319.277344 109.261719 319.558594 109.546875 319.558594 109.894531 C 319.558594 110.242188 319.277344 110.527344 318.925781 110.527344 "/><path style=" stroke:none;fill-rule:nonzero;fill:#000000;fill-opacity:1;" d="M 282.261719 110.527344 L 272.605469 110.527344 C 272.253906 110.527344 271.972656 110.242188 271.972656 109.894531 C 271.972656 109.546875 272.253906 109.261719 272.605469 109.261719 L 282.261719 109.261719 C 282.609375 109.261719 282.894531 109.546875 282.894531 109.894531 C 282.894531 110.242188 282.609375 110.527344 282.261719 110.527344 "/><path style=" stroke:none;fill-rule:nonzero;fill:#611f69;fill-opacity:1;" d="M 253.855469 170.355469 L 284.863281 123.769531 C 286.316406 121.585938 289.574219 121.71875 290.839844 124.019531 L 316.554688 170.605469 C 317.839844 172.9375 316.152344 175.796875 313.488281 175.796875 L 256.769531 175.796875 C 253.972656 175.796875 252.304688 172.683594 253.855469 170.355469 "/><path style=" stroke:none;fill-rule:nonzero;fill:#ffffff;fill-opacity:1;" d="M 285.363281 160.417969 L 281.734375 160.34375 C 281.25 160.265625 280.914062 159.816406 280.972656 159.328125 L 283.992188 135.28125 C 284.050781 134.765625 284.523438 134.402344 285.035156 134.484375 L 290.386719 134.59375 C 290.898438 134.675781 291.238281 135.167969 291.136719 135.675781 L 286.398438 159.691406 C 286.300781 160.171875 285.84375 160.496094 285.363281 160.417969 "/><path style=" stroke:none;fill-rule:nonzero;fill:#ffffff;fill-opacity:1;" d="M 280.1875 165.90625 C 281.007812 164.453125 282.742188 163.945312 284.066406 164.773438 C 285.386719 165.597656 285.792969 167.445312 284.96875 168.898438 C 284.152344 170.351562 282.414062 170.859375 281.09375 170.035156 C 279.769531 169.207031 279.367188 167.359375 280.1875 165.90625 "/><path style=" stroke:none;fill-rule:nonzero;fill:#ffffff;fill-opacity:1;" d="M 297.296875 173.574219 C 297.460938 172.3125 298.527344 171.371094 299.792969 171.371094 L 362.683594 171.371094 C 365.175781 171.371094 367.101562 173.566406 366.78125 176.039062 L 360.222656 224.410156 C 360.0625 225.671875 358.992188 226.613281 357.726562 226.613281 L 292.707031 226.613281 C 291.332031 226.613281 290.269531 225.402344 290.449219 224.039062 L 297.296875 173.574219 "/><path style=" stroke:none;fill-rule:nonzero;fill:#000000;fill-opacity:1;" d="M 297.296875 173.574219 L 297.300781 173.574219 Z M 299.792969 172 C 298.847656 172 298.042969 172.710938 297.925781 173.652344 C 297.921875 173.65625 297.921875 173.65625 297.921875 173.65625 L 291.078125 224.121094 C 291.015625 224.589844 291.160156 225.066406 291.472656 225.421875 C 291.78125 225.777344 292.234375 225.980469 292.707031 225.980469 L 357.726562 225.980469 C 358.671875 225.980469 359.476562 225.273438 359.597656 224.332031 L 366.15625 175.957031 C 366.285156 174.957031 365.976562 173.945312 365.308594 173.191406 C 364.644531 172.433594 363.6875 172 362.683594 172 Z M 357.726562 227.246094 L 292.707031 227.246094 C 291.871094 227.246094 291.070312 226.886719 290.519531 226.253906 C 289.96875 225.621094 289.714844 224.785156 289.824219 223.953125 L 296.667969 173.492188 C 296.875 171.917969 298.21875 170.738281 299.792969 170.738281 L 362.683594 170.738281 C 364.050781 170.738281 365.355469 171.328125 366.257812 172.355469 C 367.164062 173.386719 367.582031 174.757812 367.40625 176.121094 L 360.847656 224.496094 C 360.648438 226.0625 359.304688 227.246094 357.726562 227.246094 "/><path style=" stroke:none;fill-rule:nonzero;fill:#4682b4;fill-opacity:1;" d="M 331.8125 186.011719 L 303.195312 186.011719 C 302.378906 186.011719 301.722656 185.351562 301.722656 184.539062 C 301.722656 183.722656 302.378906 183.0625 303.195312 183.0625 L 331.8125 183.0625 C 332.628906 183.0625 333.289062 183.722656 333.289062 184.539062 C 333.289062 185.351562 332.628906 186.011719 331.8125 186.011719 "/><path style=" stroke:none;fill-rule:nonzero;fill:#99b9ff;fill-opacity:1;" d="M 318.53125 180.175781 L 304.171875 180.175781 C 303.355469 180.175781 302.695312 179.515625 302.695312 178.703125 C 302.695312 177.886719 303.355469 177.226562 304.171875 177.226562 L 318.53125 177.226562 C 319.34375 177.226562 320.007812 177.886719 320.007812 178.703125 C 320.007812 179.515625 319.34375 180.175781 318.53125 180.175781 "/><path style=" stroke:none;fill-rule:nonzero;fill:#611f69;fill-opacity:1;" d="M 340.871094 205.484375 C 340.871094 198.300781 335.046875 192.480469 327.863281 192.480469 C 320.679688 192.480469 314.859375 198.300781 314.859375 205.484375 C 314.859375 212.667969 320.679688 218.492188 327.863281 218.492188 C 335.046875 218.492188 340.871094 212.667969 340.871094 205.484375 "/><path style=" stroke:none;fill-rule:nonzero;fill:#ffffff;fill-opacity:1;" d="M 334.699219 210.449219 L 332.457031 212.691406 L 320.289062 200.519531 L 322.527344 198.28125 L 334.699219 210.449219 "/><path style=" stroke:none;fill-rule:nonzero;fill:#ffffff;fill-opacity:1;" d="M 320.289062 210.449219 L 322.527344 212.691406 L 334.699219 200.519531 L 332.457031 198.28125 L 320.289062 210.449219 "/><path style=" stroke:none;fill-rule:nonzero;fill:#99b9ff;fill-opacity:1;" d="M 43.445312 82.523438 C 43.347656 82.523438 43.25 82.5 43.160156 82.453125 C 42.847656 82.292969 42.726562 81.914062 42.886719 81.601562 C 46.929688 73.722656 52.015625 66.433594 58 59.941406 C 65.257812 52.058594 73.734375 45.449219 83.1875 40.292969 C 83.492188 40.125 83.878906 40.238281 84.042969 40.546875 C 84.210938 40.851562 84.097656 41.234375 83.792969 41.402344 C 74.460938 46.492188 66.09375 53.019531 58.929688 60.796875 C 53.023438 67.207031 48.003906 74.402344 44.011719 82.179688 C 43.898438 82.398438 43.675781 82.523438 43.445312 82.523438 "/><path style=" stroke:none;fill-rule:nonzero;fill:#99b9ff;fill-opacity:1;" d="M 62.507812 66.03125 C 62.351562 66.03125 62.195312 65.972656 62.070312 65.855469 C 61.820312 65.613281 61.808594 65.214844 62.050781 64.960938 C 68.796875 57.910156 76.238281 51.484375 84.167969 45.863281 C 96.503906 37.113281 110.101562 30.222656 124.585938 25.390625 C 124.917969 25.28125 125.273438 25.457031 125.382812 25.792969 C 125.496094 26.121094 125.316406 26.476562 124.984375 26.589844 C 110.621094 31.382812 97.132812 38.214844 84.898438 46.894531 C 77.035156 52.46875 69.65625 58.84375 62.964844 65.835938 C 62.839844 65.964844 62.675781 66.03125 62.507812 66.03125 "/><path style=" stroke:none;fill-rule:nonzero;fill:#000000;fill-opacity:1;" d="M 105.222656 88.121094 C 104.363281 88.121094 103.542969 87.8125 102.894531 87.238281 C 102.1875 86.617188 101.769531 85.753906 101.710938 84.816406 C 101.652344 83.875 101.964844 82.96875 102.589844 82.265625 C 102.820312 82.003906 103.21875 81.980469 103.480469 82.210938 C 103.742188 82.445312 103.769531 82.84375 103.535156 83.105469 C 103.136719 83.554688 102.9375 84.136719 102.972656 84.738281 C 103.050781 85.980469 104.121094 86.929688 105.367188 86.855469 C 106.609375 86.777344 107.558594 85.707031 107.480469 84.460938 C 107.425781 83.554688 106.835938 82.773438 105.976562 82.46875 C 105.648438 82.351562 105.476562 81.992188 105.59375 81.664062 C 105.707031 81.332031 106.066406 81.164062 106.398438 81.277344 C 107.734375 81.75 108.65625 82.96875 108.742188 84.386719 C 108.863281 86.324219 107.382812 87.996094 105.441406 88.113281 C 105.367188 88.121094 105.296875 88.121094 105.222656 88.121094 "/><path style=" stroke:none;fill-rule:nonzero;fill:#99b9ff;fill-opacity:1;" d="M 123.71875 63.5625 C 123.71875 63.5625 123.089844 67.472656 122.800781 71.433594 L 130.699219 68.222656 L 123.71875 63.5625 "/><path style=" stroke:none;fill-rule:nonzero;fill:#000000;fill-opacity:1;" d="M 97.136719 58.085938 L 100.855469 60.453125 L 100.730469 56.117188 C 99.886719 56.554688 98.535156 57.269531 97.136719 58.085938 Z M 101.523438 62.261719 C 101.40625 62.261719 101.289062 62.226562 101.183594 62.164062 L 95.59375 58.601562 C 95.40625 58.484375 95.296875 58.277344 95.300781 58.058594 C 95.300781 57.839844 95.417969 57.640625 95.605469 57.527344 C 98.238281 55.929688 101.027344 54.550781 101.054688 54.535156 C 101.246094 54.441406 101.476562 54.449219 101.660156 54.5625 C 101.84375 54.671875 101.960938 54.867188 101.964844 55.085938 L 102.15625 61.609375 C 102.164062 61.84375 102.039062 62.0625 101.835938 62.179688 C 101.738281 62.234375 101.632812 62.261719 101.523438 62.261719 "/><path style=" stroke:none;fill-rule:nonzero;fill:#611f69;fill-opacity:1;" d="M 160.742188 25.679688 L 165.792969 36.742188 C 165.917969 37.015625 165.695312 37.320312 165.367188 37.328125 L 161.464844 37.382812 C 161.097656 37.386719 160.878906 37.757812 161.078125 38.035156 L 170.101562 50.472656 C 170.402344 50.882812 171.113281 50.554688 170.921875 50.085938 L 167.628906 42.019531 C 167.519531 41.75 167.742188 41.457031 168.0625 41.453125 L 171.867188 41.398438 C 172.230469 41.394531 172.449219 41.03125 172.257812 40.757812 L 161.5625 25.285156 C 161.261719 24.855469 160.527344 25.207031 160.742188 25.679688 "/><path style=" stroke:none;fill-rule:nonzero;fill:#611f69;fill-opacity:1;" d="M 188.058594 22.449219 L 183.078125 36.332031 C 182.957031 36.667969 182.527344 36.804688 182.113281 36.640625 L 177.890625 34.953125 C 177.421875 34.769531 176.949219 34.96875 176.898438 35.375 L 174.761719 53.316406 C 174.667969 54.101562 176.011719 54.523438 176.277344 53.796875 L 180.40625 42.429688 C 180.527344 42.097656 180.953125 41.960938 181.363281 42.121094 L 185.480469 43.730469 C 185.9375 43.90625 186.398438 43.714844 186.460938 43.324219 L 189.570312 22.945312 C 189.691406 22.152344 188.324219 21.707031 188.058594 22.449219 "/><path style=" stroke:none;fill-rule:nonzero;fill:#611f69;fill-opacity:1;" d="M 198.71875 37.464844 L 191.722656 45.507812 C 191.554688 45.699219 191.25 45.738281 191.042969 45.59375 L 188.941406 44.089844 C 188.710938 43.921875 188.363281 43.996094 188.21875 44.238281 L 181.800781 55.097656 C 181.519531 55.570312 182.222656 55.980469 182.59375 55.558594 L 188.355469 48.984375 C 188.519531 48.792969 188.820312 48.753906 189.023438 48.898438 L 191.085938 50.339844 C 191.3125 50.5 191.652344 50.429688 191.800781 50.195312 L 199.503906 37.9375 C 199.800781 37.464844 199.09375 37.035156 198.71875 37.464844 "/></g></svg>