<?xml version="1.0" standalone="no"?>
<!DOCTYPE svg PUBLIC "-//W3C//DTD SVG 20010904//EN"
 "http://www.w3.org/TR/2001/REC-SVG-20010904/DTD/svg10.dtd">
<svg version="1.0" xmlns="http://www.w3.org/2000/svg"
 width="1080.000000pt" height="483.000000pt" viewBox="0 0 1080.000000 483.000000"
 preserveAspectRatio="xMidYMid meet">

<g transform="translate(0.000000,483.000000) scale(0.100000,-0.100000)"
fill="#000000" stroke="none">
<path d="M4663 4811 c-17 -11 -37 -29 -42 -40 -15 -28 -15 -705 0 -734 24 -47
48 -57 147 -57 55 0 92 4 92 10 0 6 -37 10 -90 10 -83 0 -93 2 -115 25 l-25
24 0 246 0 245 535 0 535 0 0 -245 0 -246 -25 -24 c-22 -23 -32 -25 -115 -25
-53 0 -90 -4 -90 -10 0 -6 39 -10 96 -10 92 0 97 1 125 29 l29 29 0 361 0 361
-29 32 -29 33 -484 3 c-465 2 -484 1 -515 -17z m1011 -30 c25 -23 26 -30 26
-123 l0 -98 -535 0 -535 0 0 93 c0 99 11 130 54 147 11 5 233 8 493 7 l471 -2
26 -24z"/>
<path d="M5300 4730 c-40 -40 -11 -110 45 -110 32 0 65 33 65 65 0 32 -33 65
-65 65 -14 0 -34 -9 -45 -20z m78 -12 c7 -7 12 -21 12 -33 0 -12 -5 -26 -12
-33 -7 -7 -21 -12 -33 -12 -12 0 -26 5 -33 12 -7 7 -12 21 -12 33 0 12 5 26
12 33 7 7 21 12 33 12 12 0 26 -5 33 -12z"/>
<path d="M5492 4734 c-28 -19 -30 -74 -4 -97 25 -23 68 -21 92 3 58 58 -20
142 -88 94z m80 -30 c14 -31 1 -57 -31 -62 -28 -4 -51 14 -51 42 0 50 62 65
82 20z"/>
<path d="M4735 4690 c-4 -7 72 -10 220 -10 148 0 224 3 220 10 -4 6 -88 10
-220 10 -132 0 -216 -4 -220 -10z"/>
<path d="M5776 4821 c-7 -10 119 -64 136 -59 15 5 -6 18 -80 47 -28 11 -54 17
-56 12z"/>
<path d="M6020 4701 c0 -13 112 -91 122 -85 8 5 -21 32 -79 72 -34 24 -43 27
-43 13z"/>
<path d="M6230 4533 c1 -20 88 -115 102 -111 6 2 -11 29 -37 58 -48 55 -65 69
-65 53z"/>
<path d="M4747 4452 c-14 -15 -17 -41 -17 -133 0 -76 4 -119 12 -127 7 -7 37
-11 73 -11 l60 2 -50 6 c-27 4 -56 10 -62 14 -18 11 -18 218 -1 235 9 9 111
12 399 12 213 0 394 -3 403 -6 13 -5 16 -25 16 -119 0 -80 -4 -116 -12 -122
-7 -4 -38 -11 -68 -14 l-55 -6 65 -2 c40 0 71 4 78 11 8 8 12 51 12 129 0 94
-3 121 -16 133 -13 14 -65 16 -418 16 -378 0 -404 -1 -419 -18z"/>
<path d="M4448 4419 c-43 -58 -61 -89 -54 -96 3 -3 7 -4 9 -2 51 68 78 111 75
121 -2 6 -16 -4 -30 -23z"/>
<path d="M5105 4321 c-52 -14 -111 -49 -143 -86 -57 -64 -67 -92 -67 -185 0
-75 3 -91 27 -131 32 -54 87 -105 137 -127 47 -20 165 -20 212 0 185 80 227
328 79 461 -23 22 -57 45 -75 53 -42 17 -131 25 -170 15z m136 -27 c67 -20
148 -97 167 -160 15 -50 15 -116 2 -165 -13 -46 -81 -124 -129 -148 -167 -85
-371 41 -371 229 0 107 78 213 180 245 60 18 86 18 151 -1z"/>
<path d="M5090 4233 c0 -5 -15 -13 -32 -18 l-33 -10 -3 -86 c-2 -75 0 -89 19
-112 11 -15 36 -34 55 -42 22 -9 32 -19 28 -28 -6 -17 13 -69 29 -79 39 -25
97 6 97 51 0 48 40 82 54 46 7 -18 47 -20 64 -3 7 7 12 21 12 33 0 43 -56 62
-82 28 -7 -10 -22 -23 -33 -29 -11 -6 -24 -28 -30 -50 -13 -51 -22 -64 -45
-64 -26 0 -50 27 -50 56 0 19 8 28 34 39 61 26 76 56 76 151 0 90 -2 93 -62
108 -25 6 -28 4 -28 -19 0 -26 9 -32 26 -15 6 6 18 8 27 4 14 -5 17 -20 17
-81 0 -69 -2 -77 -29 -104 -22 -21 -39 -29 -66 -29 -27 0 -44 8 -66 29 -27 27
-29 35 -29 106 0 59 3 77 16 82 8 3 20 1 27 -6 6 -6 15 -11 19 -11 12 0 10 48
-2 55 -5 3 -10 2 -10 -2z m268 -246 c4 -20 -25 -34 -40 -19 -15 15 -1 44 19
40 10 -2 19 -11 21 -21z"/>
<path d="M6396 4322 c-6 -10 63 -132 75 -132 5 0 -7 32 -26 70 -36 71 -40 76
-49 62z"/>
<path d="M4311 4188 c-5 -13 -16 -40 -25 -62 -18 -44 -20 -56 -7 -56 4 0 19
28 32 63 13 34 25 65 27 70 2 4 -1 7 -7 7 -7 0 -15 -10 -20 -22z"/>
<path d="M6510 4075 c0 -24 35 -145 42 -145 12 0 10 20 -8 81 -15 50 -34 86
-34 64z"/>
<path d="M5777 4003 c-4 -3 -7 -28 -7 -55 l0 -48 -34 0 c-68 0 -66 15 -66
-454 0 -315 3 -425 12 -434 14 -14 534 -17 555 -4 8 5 13 66 15 203 3 190 4
197 28 232 l25 37 5 -209 c5 -203 6 -210 29 -235 13 -14 36 -28 52 -31 32 -7
83 16 99 44 6 12 10 103 10 223 1 163 4 207 15 222 18 24 20 87 3 104 -7 7
-20 12 -30 12 -16 0 -18 11 -18 118 l0 117 -78 83 -77 82 -266 0 c-146 0 -269
-3 -272 -7z m535 -80 l3 -68 65 -5 65 -5 3 -117 3 -118 -35 0 -35 0 -3 98 -3
97 -290 5 -290 5 -3 88 -3 87 260 0 260 0 3 -67z m65 -5 c18 -18 33 -36 33
-41 0 -4 -17 -7 -37 -5 -36 3 -38 5 -40 41 0 20 2 37 5 37 3 0 21 -14 39 -32z
m-607 -74 c0 -34 -1 -35 -31 -32 -63 6 -67 68 -4 68 33 0 35 -2 35 -36z m271
-54 l319 0 0 -89 0 -90 -32 -3 c-33 -3 -33 -4 -38 -63 -4 -43 -12 -69 -30 -93
-24 -33 -25 -40 -30 -230 l-5 -197 -265 0 -265 0 -3 389 c-2 352 -1 388 14
382 8 -3 159 -6 335 -6z m467 -242 l3 -38 -100 0 -101 0 0 40 0 41 98 -3 97
-3 3 -37z m-28 -88 l0 -30 -70 0 c-73 0 -90 10 -76 45 4 11 22 15 76 15 l70 0
0 -30z m0 -170 l0 -121 -72 3 -73 3 -3 104 c-1 58 0 111 2 118 4 9 27 13 76
13 l70 0 0 -120z m0 -179 c0 -113 -132 -116 -147 -3 l-6 42 77 0 76 0 0 -39z"/>
<path d="M5900 3642 c-24 -25 -30 -39 -30 -74 0 -24 5 -49 11 -55 9 -9 4 -18
-19 -38 -34 -29 -57 -89 -67 -176 -6 -50 -4 -60 14 -78 19 -19 32 -21 161 -21
138 0 140 0 156 25 34 52 -1 202 -58 250 -24 20 -27 28 -18 44 33 63 -6 138
-77 148 -37 5 -45 2 -73 -25z m115 -17 c72 -71 -28 -182 -102 -113 -33 31 -32
90 3 117 35 28 69 26 99 -4z m55 -182 c42 -46 66 -183 38 -211 -8 -8 -55 -12
-145 -12 -124 0 -133 1 -143 21 -22 41 8 170 50 214 17 18 31 21 96 20 72 0
77 -2 104 -32z"/>
<path d="M6385 3350 c-4 -6 7 -10 24 -10 17 0 31 5 31 10 0 6 -11 10 -24 10
-14 0 -28 -4 -31 -10z"/>
<path d="M6385 3300 c-4 -6 7 -10 24 -10 17 0 31 5 31 10 0 6 -11 10 -24 10
-14 0 -28 -4 -31 -10z"/>
<path d="M6380 3240 c0 -5 14 -10 30 -10 17 0 30 5 30 10 0 6 -13 10 -30 10
-16 0 -30 -4 -30 -10z"/>
<path d="M4235 3948 c-8 -23 -23 -133 -19 -137 11 -12 22 20 29 82 6 61 1 87
-10 55z"/>
<path d="M6560 3741 c0 -39 5 -73 10 -76 6 -4 10 22 10 69 0 44 -4 76 -10 76
-6 0 -10 -30 -10 -69z"/>
<path d="M4744 3685 c-14 -22 -16 -41 -11 -116 8 -103 16 -122 60 -149 51 -31
100 -26 145 14 l37 34 3 105 c5 135 3 137 -123 137 -90 0 -95 -1 -111 -25z
m217 -22 c5 -15 9 -43 7 -62 l-3 -36 -107 -3 -108 -3 0 54 c0 29 5 58 12 65 8
8 45 12 100 12 87 0 89 0 99 -27z m-1 -149 c0 -41 -59 -94 -105 -94 -48 0 -95
44 -95 89 l0 31 100 0 100 0 0 -26z"/>
<path d="M4212 3620 c5 -65 12 -90 22 -79 8 9 -7 149 -17 149 -6 0 -8 -27 -5
-70z"/>
<path d="M5258 3624 c-77 -41 -75 -169 2 -209 84 -43 180 13 180 105 0 92 -99
149 -182 104z m133 -33 c49 -49 35 -128 -28 -160 -98 -50 -192 82 -114 160 23
23 38 29 71 29 33 0 48 -6 71 -29z"/>
<path d="M4251 3400 c1 -32 32 -120 42 -120 9 0 9 6 -10 70 -17 62 -33 87 -32
50z"/>
<path d="M4649 3341 l-29 -29 0 -151 0 -150 26 -20 c15 -12 35 -21 45 -21 18
0 19 -10 19 -120 0 -73 4 -120 10 -120 6 0 10 47 10 121 l0 121 63 -6 c34 -3
91 -9 127 -14 l65 -7 3 -168 c1 -106 6 -166 12 -162 6 4 10 75 10 171 0 97 4
164 10 164 5 0 21 -11 35 -25 14 -14 25 -30 25 -35 0 -19 40 -50 65 -50 l25 0
0 -119 c0 -67 4 -122 10 -126 6 -4 11 53 12 152 l3 158 125 0 125 0 3 -132 c3
-157 22 -184 22 -33 l0 100 25 0 c14 0 34 9 45 20 19 19 20 33 20 236 l0 216
-29 29 -29 29 -182 0 -182 0 -29 -29 c-16 -16 -29 -37 -29 -45 0 -9 -8 -16
-20 -16 -13 0 -20 7 -20 18 0 10 -13 30 -28 45 -28 27 -29 27 -181 27 l-153 0
-29 -29z m351 -11 c28 -28 26 -50 -4 -50 -46 0 -55 -11 -82 -101 l-27 -89 -79
0 -78 0 0 59 c0 33 -4 63 -10 66 -6 4 -10 -22 -10 -69 l0 -76 78 0 c43 0 81
-3 84 -6 3 -3 1 -21 -5 -40 l-10 -34 -90 0 c-129 0 -127 -2 -127 173 0 193 -6
187 192 187 135 0 150 -2 168 -20z m519 -6 c20 -25 21 -39 21 -233 0 -219 -2
-231 -47 -231 l-23 0 0 174 c0 219 -18 251 -22 40 l-3 -148 -125 1 -125 0 -3
119 c-1 65 -7 123 -11 127 -5 5 -4 25 1 45 8 30 7 38 -8 49 -10 7 -30 13 -46
13 -33 0 -35 9 -7 44 l20 26 179 0 179 0 20 -26z m-362 -72 c9 -6 6 -32 -15
-109 -25 -95 -28 -102 -55 -107 -17 -3 -34 -17 -45 -36 -16 -29 -19 -30 -89
-30 -52 0 -73 4 -73 13 0 25 74 262 84 269 14 10 178 10 193 0z m13 -252 l0
-140 -24 0 c-13 0 -29 7 -36 15 -11 13 -9 20 9 39 25 26 40 99 23 110 -6 4 -9
12 -7 19 2 7 9 31 15 55 6 23 13 42 15 42 3 0 5 -63 5 -140z m-47 -19 c-2 -48
-22 -66 -51 -45 -12 8 -22 22 -22 31 0 25 31 54 54 51 17 -2 21 -10 19 -37z"/>
<path d="M4340 3164 c0 -11 61 -113 71 -120 23 -14 17 6 -17 64 -32 54 -54 76
-54 56z"/>
<path d="M4497 2943 c-6 -10 90 -113 105 -113 13 0 11 2 -46 64 -29 32 -56 54
-59 49z"/>
<path d="M6155 2815 c-33 -30 -55 -54 -48 -55 18 0 124 90 118 101 -8 12 -2
16 -70 -46z"/>
<path d="M4857 2813 c-11 -10 -8 -131 3 -138 6 -4 10 22 10 69 0 76 -1 82 -13
69z"/>
<path d="M5320 2720 c0 -65 4 -99 10 -95 6 3 10 46 10 95 0 49 -4 92 -10 95
-6 4 -10 -30 -10 -95z"/>
<path d="M5935 2669 c-27 -16 -54 -30 -60 -32 -5 -3 -7 -8 -3 -12 9 -9 138 53
138 66 0 15 -23 8 -75 -22z"/>
<path d="M5680 2573 c-69 -18 -93 -38 -35 -29 63 9 115 26 115 36 0 12 -11 11
-80 -7z"/>
<path d="M5345 2530 c-4 -6 23 -10 74 -10 47 0 81 4 81 10 0 6 -31 10 -74 10
-41 0 -78 -4 -81 -10z"/>
<path d="M8439 1062 c-221 -58 -364 -291 -345 -563 10 -156 68 -284 168 -376
138 -126 359 -151 515 -57 l58 36 35 -41 c57 -65 60 -60 60 104 0 163 -12 188
-42 87 -34 -117 -142 -201 -270 -210 -92 -6 -148 11 -207 64 -178 160 -189
683 -18 862 147 154 421 77 483 -135 9 -29 20 -53 25 -53 5 0 9 62 9 145 0 80
-3 145 -6 145 -3 0 -26 -18 -51 -39 l-44 -40 -42 29 c-88 59 -204 74 -328 42z"/>
<path d="M10345 1071 c-76 -19 -152 -77 -188 -146 -32 -61 -29 -166 7 -239 37
-74 92 -116 276 -205 158 -76 209 -112 234 -165 36 -75 9 -190 -55 -238 -49
-36 -92 -48 -174 -48 -127 0 -232 72 -284 194 -12 26 -21 54 -21 62 0 8 -7 14
-15 14 -13 0 -15 -23 -15 -145 0 -122 2 -145 15 -145 8 0 15 3 15 8 1 4 16 25
35 46 l35 39 23 -21 c65 -61 207 -94 313 -72 74 15 109 33 157 79 61 57 80
103 85 204 4 83 3 91 -28 153 -42 86 -98 129 -276 214 -159 76 -218 122 -234
181 -32 117 49 208 184 209 92 0 134 -17 198 -81 46 -46 60 -68 75 -118 31
-104 43 -80 43 84 0 100 -3 145 -11 145 -6 0 -28 -19 -48 -41 l-36 -41 -49 30
c-72 46 -177 63 -261 43z"/>
<path d="M10 1055 c0 -12 13 -15 60 -15 l60 0 0 -495 0 -495 -60 0 c-48 0 -60
-3 -60 -16 0 -14 26 -16 253 -12 220 4 260 7 314 25 225 74 355 282 339 539
-16 263 -178 441 -430 474 -39 5 -162 10 -273 10 -174 0 -203 -2 -203 -15z
m501 -29 c133 -47 215 -206 226 -436 10 -217 -38 -384 -136 -472 -61 -55 -103
-68 -220 -68 l-91 0 0 495 0 495 93 0 c50 -1 108 -7 128 -14z"/>
<path d="M1040 1056 c0 -13 13 -16 75 -16 l75 0 0 -495 0 -495 -75 0 c-60 0
-75 -3 -75 -15 0 -13 32 -15 225 -15 193 0 225 2 225 15 0 12 -15 15 -75 15
l-75 0 0 246 0 246 119 -4 120 -3 35 -34 c42 -41 53 -82 62 -241 10 -190 47
-240 175 -240 85 0 129 9 129 26 0 10 -9 12 -32 7 -18 -3 -35 -6 -38 -5 -34 0
-43 6 -56 37 -7 19 -14 65 -14 102 -1 228 -52 319 -200 358 l-45 12 60 13
c146 30 207 100 207 235 0 122 -56 196 -182 237 -58 19 -94 21 -352 26 -260 4
-288 3 -288 -12z m555 -35 c47 -22 69 -44 89 -92 36 -86 28 -213 -17 -281 -12
-18 -42 -43 -67 -55 -38 -20 -60 -23 -152 -23 l-108 0 0 235 0 235 108 0 c82
0 116 -5 147 -19z"/>
<path d="M2410 1055 c0 -12 14 -15 65 -15 l65 0 0 -495 0 -495 -65 0 c-51 0
-65 -3 -65 -15 0 -13 29 -15 205 -15 176 0 205 2 205 15 0 12 -14 15 -65 15
l-65 0 0 240 0 240 218 -2 217 -3 3 -237 2 -238 -70 0 c-56 0 -70 -3 -70 -15
0 -13 27 -15 208 -13 131 2 206 7 205 13 -2 6 -30 11 -63 13 l-60 3 0 494 0
494 63 3 c34 2 62 8 62 13 0 6 -78 11 -207 13 -181 2 -208 0 -208 -13 0 -12
14 -15 70 -15 l70 0 0 -245 0 -245 -220 0 -220 0 0 245 0 245 65 0 c51 0 65 3
65 15 0 13 -29 15 -205 15 -176 0 -205 -2 -205 -15z"/>
<path d="M3490 1055 c0 -12 14 -15 65 -15 l65 0 0 -495 0 -495 -65 0 c-51 0
-65 -3 -65 -15 0 -13 49 -15 385 -15 l385 0 0 155 c0 150 -11 201 -25 113 -18
-115 -54 -176 -128 -213 -47 -23 -61 -25 -194 -25 l-143 0 0 250 0 250 61 0
c44 0 71 -6 94 -20 32 -20 65 -72 65 -104 0 -9 7 -16 15 -16 13 0 15 23 15
149 0 90 -4 152 -10 156 -6 3 -13 -2 -16 -12 -29 -93 -68 -123 -161 -123 l-63
0 0 231 0 230 154 -3 c153 -3 155 -3 197 -33 50 -35 87 -101 97 -171 14 -93
27 -47 27 94 l0 137 -377 3 c-332 2 -378 0 -378 -13z"/>
<path d="M4367 1063 c-18 -17 -1 -23 68 -23 l75 0 0 -495 0 -494 -72 -3 c-47
-2 -73 -7 -76 -16 -3 -10 32 -12 165 -10 103 2 168 7 168 13 0 6 -36 11 -82
13 l-83 3 0 491 c0 310 4 488 9 483 6 -6 152 -235 324 -510 235 -372 320 -501
336 -503 l21 -3 0 515 0 516 70 0 c56 0 70 3 70 15 0 13 -22 15 -162 13 -118
-2 -162 -6 -166 -15 -3 -10 17 -13 77 -13 l81 0 0 -382 c0 -322 -2 -379 -13
-363 -8 11 -118 190 -247 398 l-232 377 -162 0 c-90 0 -166 -3 -169 -7z"/>
<path d="M5450 1056 c0 -13 11 -16 60 -16 l60 0 0 -495 0 -495 -60 0 c-48 0
-60 -3 -60 -16 0 -14 26 -16 253 -12 280 5 323 13 431 82 153 98 240 293 222
495 -20 221 -141 380 -336 443 -57 18 -97 21 -317 26 -229 4 -253 3 -253 -12z
m526 -38 c79 -43 145 -140 180 -268 21 -78 25 -316 7 -396 -34 -145 -96 -238
-188 -280 -42 -20 -66 -24 -152 -24 l-103 0 0 496 0 496 113 -4 c78 -3 121 -9
143 -20z"/>
<path d="M6480 1056 c0 -13 13 -16 75 -16 l75 0 0 -495 0 -495 -75 0 c-60 0
-75 -3 -75 -15 0 -13 32 -15 225 -15 193 0 225 2 225 15 0 12 -15 15 -75 15
l-75 0 0 245 0 245 109 0 c96 0 112 -3 141 -23 60 -40 71 -71 81 -234 11 -166
23 -204 78 -240 27 -18 48 -23 101 -23 87 0 130 9 130 27 0 10 -6 12 -20 8
-37 -12 -81 -8 -97 8 -12 12 -19 54 -28 164 -13 153 -28 208 -68 251 -30 32
-86 60 -139 68 l-43 7 75 19 c141 34 200 102 200 232 0 124 -53 194 -178 237
-62 21 -88 23 -354 27 -260 4 -288 3 -288 -12z m558 -37 c57 -28 91 -80 102
-159 18 -128 -22 -234 -103 -271 -33 -14 -66 -19 -149 -19 l-108 0 0 235 0
235 107 0 c88 0 114 -4 151 -21z"/>
<path d="M7500 1055 c0 -12 15 -15 75 -15 l75 0 0 -495 0 -495 -75 0 c-60 0
-75 -3 -75 -15 0 -13 33 -15 235 -15 202 0 235 2 235 15 0 12 -16 15 -85 15
l-85 0 0 495 0 495 85 0 c69 0 85 3 85 15 0 13 -33 15 -235 15 -202 0 -235 -2
-235 -15z"/>
<path d="M9060 1055 c0 -12 14 -15 65 -15 l65 0 0 -495 0 -495 -65 0 c-51 0
-65 -3 -65 -15 0 -13 27 -15 208 -13 129 2 207 7 207 13 0 6 -30 11 -67 13
l-68 3 0 198 0 198 36 47 c20 26 40 44 44 39 10 -10 270 -471 270 -478 0 -3
-29 -5 -65 -5 -51 0 -65 -3 -65 -15 0 -13 32 -15 225 -15 190 0 225 2 225 15
0 10 -16 15 -66 17 l-65 3 -176 295 c-97 162 -178 302 -180 312 -3 10 47 83
134 196 l138 180 75 4 c43 2 74 7 73 13 -2 6 -65 10 -163 10 -98 0 -161 -4
-162 -10 -2 -6 29 -12 70 -15 l72 -5 -201 -260 c-111 -143 -205 -264 -210
-269 -5 -6 -9 103 -9 262 l0 272 70 0 c56 0 70 3 70 15 0 13 -30 15 -210 15
-180 0 -210 -2 -210 -15z"/>
</g>
</svg>
