<svg xmlns="http://www.w3.org/2000/svg" xmlns:xlink="http://www.w3.org/1999/xlink" width="500" zoomAndPan="magnify" viewBox="0 0 375 374.999991" height="500" preserveAspectRatio="xMidYMid meet" version="1.2"><defs><clipPath id="73eed1a8b4"><path d="M 111 86.933594 L 197 86.933594 L 197 206 L 111 206 Z M 111 86.933594 "/></clipPath><clipPath id="95266b3d16"><path d="M 164.132812 161.167969 L 196.554688 205.691406 L 165.265625 205.691406 L 137.945312 164.964844 L 137.945312 205.691406 L 111.332031 205.691406 L 111.332031 86.933594 L 137.945312 86.933594 L 137.945312 159.484375 L 165.09375 121.679688 L 194.652344 121.679688 L 177.148438 144.324219 Z M 164.132812 161.167969 "/></clipPath><clipPath id="0786a9c866"><path d="M 179 86.933594 L 264 86.933594 L 264 206 L 179 206 Z M 179 86.933594 "/></clipPath><clipPath id="8a632bbafa"><path d="M 38 249 L 78 249 L 78 287.933594 L 38 287.933594 Z M 38 249 "/></clipPath><clipPath id="1e0b6e51b1"><path d="M 85 232 L 99 232 L 99 287.933594 L 85 287.933594 Z M 85 232 "/></clipPath><clipPath id="90fb2f350d"><path d="M 103 250 L 137 250 L 137 287.933594 L 103 287.933594 Z M 103 250 "/></clipPath><clipPath id="566d412b04"><path d="M 139 249 L 179 249 L 179 287.933594 L 139 287.933594 Z M 139 249 "/></clipPath><clipPath id="535d6d6993"><path d="M 0 231 L 38 231 L 38 287.933594 L 0 287.933594 Z M 0 231 "/></clipPath><clipPath id="0393c31910"><path d="M 0.1875 287.222656 L 0.1875 231.65625 L 11.976562 231.65625 L 11.976562 287.222656 Z M 24.070312 287.222656 L 11.128906 267.929688 L 23.992188 250.023438 L 37.078125 250.023438 L 21.457031 270.230469 L 21.917969 265.25 L 37.914062 287.214844 L 24.058594 287.214844 Z M 24.070312 287.222656 "/></clipPath><clipPath id="5aaaafcccd"><path d="M 183 249 L 221 249 L 221 287.933594 L 183 287.933594 Z M 183 249 "/></clipPath><clipPath id="d08155f985"><path d="M 224 234 L 254 234 L 254 287.933594 L 224 287.933594 Z M 224 234 "/></clipPath><clipPath id="b01f955bff"><path d="M 256 249 L 295 249 L 295 287.933594 L 256 287.933594 Z M 256 249 "/></clipPath><clipPath id="c47c0190f5"><path d="M 298 249 L 334 249 L 334 287.933594 L 298 287.933594 Z M 298 249 "/></clipPath><clipPath id="853488c91d"><path d="M 338 231 L 375 231 L 375 287.933594 L 338 287.933594 Z M 338 231 "/></clipPath></defs><g id="ecb1befd55"><g clip-rule="nonzero" clip-path="url(#73eed1a8b4)"><g clip-rule="nonzero" clip-path="url(#95266b3d16)"><path style=" stroke:none;fill-rule:nonzero;fill:#ffffff;fill-opacity:1;" d="M 111.332031 86.933594 L 111.332031 205.691406 L 196.554688 205.691406 L 196.554688 86.933594 Z M 111.332031 86.933594 "/></g></g><g clip-rule="nonzero" clip-path="url(#0786a9c866)"><path style=" stroke:none;fill-rule:nonzero;fill:#ffffff;fill-opacity:1;" d="M 263.660156 121.679688 L 263.660156 144.324219 L 244.644531 144.324219 L 244.644531 205.691406 L 218.03125 205.691406 L 218.03125 144.324219 L 179.257812 144.324219 L 196.761719 121.679688 L 218.03125 121.679688 L 218.03125 86.933594 L 244.644531 86.933594 L 244.644531 121.679688 Z M 263.660156 121.679688 "/></g><g clip-rule="nonzero" clip-path="url(#8a632bbafa)"><path style=" stroke:none;fill-rule:nonzero;fill:#ffffff;fill-opacity:1;" d="M 55.910156 287.984375 C 52.539062 287.984375 49.507812 287.128906 46.800781 285.414062 C 44.09375 283.703125 41.96875 281.414062 40.414062 278.527344 C 38.855469 275.648438 38.078125 272.339844 38.078125 268.613281 C 38.078125 264.886719 38.855469 261.558594 40.414062 258.621094 C 41.96875 255.683594 44.085938 253.390625 46.765625 251.734375 C 49.445312 250.074219 52.496094 249.242188 55.910156 249.242188 C 58.410156 249.242188 60.664062 249.726562 62.6875 250.695312 C 64.699219 251.664062 66.34375 253.003906 67.621094 254.714844 C 68.894531 256.425781 69.609375 258.378906 69.765625 260.566406 L 69.765625 276.644531 C 69.609375 278.839844 68.910156 280.792969 67.65625 282.496094 C 66.402344 284.207031 64.769531 285.546875 62.757812 286.511719 C 60.742188 287.480469 58.460938 287.964844 55.902344 287.964844 Z M 58.355469 277.34375 C 60.855469 277.34375 62.859375 276.53125 64.363281 274.898438 C 65.867188 273.261719 66.621094 271.144531 66.621094 268.542969 C 66.621094 266.859375 66.292969 265.363281 65.625 264.066406 C 64.960938 262.769531 63.992188 261.742188 62.722656 261.007812 C 61.441406 260.273438 59.988281 259.902344 58.355469 259.902344 C 56.722656 259.902344 55.355469 260.273438 54.113281 261.007812 C 52.859375 261.75 51.867188 262.777344 51.128906 264.109375 C 50.386719 265.441406 50.023438 266.945312 50.023438 268.621094 C 50.023438 270.296875 50.394531 271.8125 51.128906 273.140625 C 51.875 274.472656 52.867188 275.503906 54.113281 276.246094 C 55.367188 276.988281 56.773438 277.351562 58.355469 277.351562 Z M 66.160156 287.222656 L 66.160156 277.195312 L 67.925781 268.085938 L 66.160156 259.132812 L 66.160156 250.023438 L 77.71875 250.023438 L 77.71875 287.222656 Z M 66.160156 287.222656 "/></g><g clip-rule="nonzero" clip-path="url(#1e0b6e51b1)"><path style=" stroke:none;fill-rule:nonzero;fill:#ffffff;fill-opacity:1;" d="M 91.882812 244.964844 C 90.09375 244.964844 88.589844 244.324219 87.371094 243.054688 C 86.144531 241.777344 85.53125 240.246094 85.53125 238.464844 C 85.53125 236.683594 86.144531 235.09375 87.371094 233.875 C 88.597656 232.648438 90.101562 232.035156 91.882812 232.035156 C 93.769531 232.035156 95.289062 232.648438 96.4375 233.875 C 97.589844 235.101562 98.160156 236.632812 98.160156 238.464844 C 98.160156 240.296875 97.589844 241.785156 96.4375 243.054688 C 95.289062 244.324219 93.769531 244.964844 91.882812 244.964844 Z M 85.988281 287.222656 L 85.988281 250.023438 L 97.777344 250.023438 L 97.777344 287.222656 Z M 85.988281 287.222656 "/></g><g clip-rule="nonzero" clip-path="url(#90fb2f350d)"><path style=" stroke:none;fill-rule:nonzero;fill:#ffffff;fill-opacity:1;" d="M 103.59375 280.332031 L 122.195312 256.910156 L 136.585938 256.910156 L 117.832031 280.332031 Z M 103.59375 287.222656 L 103.59375 280.332031 L 111.9375 277.351562 L 136.050781 277.351562 L 136.050781 287.222656 Z M 104.890625 259.890625 L 104.890625 250.023438 L 136.578125 250.023438 L 136.578125 256.910156 L 128.238281 259.890625 Z M 104.890625 259.890625 "/></g><g clip-rule="nonzero" clip-path="url(#566d412b04)"><path style=" stroke:none;fill-rule:nonzero;fill:#ffffff;fill-opacity:1;" d="M 160.234375 288.0625 C 156.207031 288.0625 152.628906 287.230469 149.515625 285.570312 C 146.40625 283.910156 143.949219 281.605469 142.171875 278.648438 C 140.382812 275.691406 139.492188 272.320312 139.492188 268.542969 C 139.492188 264.765625 140.355469 261.570312 142.09375 258.628906 C 143.828125 255.691406 146.199219 253.382812 149.214844 251.699219 C 152.222656 250.011719 155.621094 249.175781 159.394531 249.175781 C 163.171875 249.175781 166.390625 249.960938 169.199219 251.542969 C 172.007812 253.125 174.21875 255.320312 175.851562 258.128906 C 177.488281 260.9375 178.300781 264.152344 178.300781 267.773438 C 178.300781 268.492188 178.265625 269.21875 178.1875 269.953125 C 178.109375 270.695312 177.945312 271.527344 177.6875 272.441406 L 145.6875 272.597656 L 145.6875 264.480469 L 172.628906 264.328125 L 167.582031 267.773438 C 167.53125 265.683594 167.203125 263.9375 166.585938 262.527344 C 165.972656 261.128906 165.066406 260.039062 163.875 259.277344 C 162.671875 258.507812 161.230469 258.128906 159.550781 258.128906 C 157.710938 258.128906 156.121094 258.5625 154.773438 259.425781 C 153.414062 260.289062 152.371094 261.492188 151.632812 263.019531 C 150.890625 264.550781 150.527344 266.390625 150.527344 268.535156 C 150.527344 270.679688 150.925781 272.546875 151.710938 274.128906 C 152.5 275.710938 153.621094 276.917969 155.082031 277.765625 C 156.535156 278.605469 158.265625 279.027344 160.253906 279.027344 C 162.042969 279.027344 163.667969 278.707031 165.152344 278.070312 C 166.628906 277.429688 167.9375 276.46875 169.058594 275.199219 L 175.566406 281.628906 C 173.734375 283.824219 171.515625 285.441406 168.914062 286.488281 C 166.3125 287.535156 163.425781 288.050781 160.261719 288.050781 Z M 160.234375 288.0625 "/></g><g clip-rule="nonzero" clip-path="url(#535d6d6993)"><g clip-rule="nonzero" clip-path="url(#0393c31910)"><path style=" stroke:none;fill-rule:nonzero;fill:#ffffff;fill-opacity:1;" d="M 0.1875 231.65625 L 0.1875 287.222656 L 37.914062 287.222656 L 37.914062 231.65625 Z M 0.1875 231.65625 "/></g></g><g clip-rule="nonzero" clip-path="url(#5aaaafcccd)"><path style=" stroke:none;fill-rule:nonzero;fill:#ffffff;fill-opacity:1;" d="M 183.804688 287.222656 L 183.804688 250.023438 L 195.59375 250.023438 L 195.59375 287.222656 Z M 208.457031 287.222656 L 208.457031 266.019531 C 208.457031 264.136719 207.84375 262.589844 206.613281 261.386719 C 205.386719 260.1875 203.855469 259.589844 202.023438 259.589844 C 200.796875 259.589844 199.699219 259.859375 198.730469 260.394531 C 197.765625 260.929688 196.996094 261.679688 196.433594 262.648438 C 195.871094 263.617188 195.59375 264.742188 195.59375 266.019531 L 191.074219 263.800781 C 191.074219 260.886719 191.722656 258.335938 193.027344 256.140625 C 194.324219 253.945312 196.113281 252.25 198.386719 251.050781 C 200.660156 249.847656 203.21875 249.253906 206.078125 249.253906 C 208.785156 249.253906 211.203125 249.890625 213.347656 251.164062 C 215.492188 252.441406 217.175781 254.160156 218.394531 256.332031 C 219.621094 258.5 220.238281 260.859375 220.238281 263.410156 L 220.238281 287.214844 L 208.445312 287.214844 Z M 208.457031 287.222656 "/></g><g clip-rule="nonzero" clip-path="url(#d08155f985)"><path style=" stroke:none;fill-rule:nonzero;fill:#ffffff;fill-opacity:1;" d="M 224.871094 260.046875 L 224.871094 250.023438 L 253.417969 250.023438 L 253.417969 260.046875 Z M 233.210938 287.222656 L 233.210938 234.636719 L 245 234.636719 L 245 287.222656 Z M 233.210938 287.222656 "/></g><g clip-rule="nonzero" clip-path="url(#b01f955bff)"><path style=" stroke:none;fill-rule:nonzero;fill:#ffffff;fill-opacity:1;" d="M 276.839844 288.0625 C 272.8125 288.0625 269.234375 287.230469 266.125 285.570312 C 263.011719 283.910156 260.558594 281.605469 258.777344 278.648438 C 256.988281 275.691406 256.097656 272.320312 256.097656 268.542969 C 256.097656 264.765625 256.960938 261.570312 258.699219 258.628906 C 260.4375 255.699219 262.804688 253.382812 265.820312 251.707031 C 268.828125 250.023438 272.226562 249.183594 276.003906 249.183594 C 279.78125 249.183594 282.996094 249.976562 285.804688 251.558594 C 288.613281 253.140625 290.824219 255.335938 292.460938 258.144531 C 294.09375 260.957031 294.90625 264.171875 294.90625 267.792969 C 294.90625 268.507812 294.871094 269.234375 294.792969 269.96875 C 294.714844 270.714844 294.550781 271.542969 294.292969 272.460938 L 262.292969 272.613281 L 262.292969 264.5 L 289.234375 264.34375 L 284.1875 267.792969 C 284.136719 265.699219 283.808594 263.953125 283.195312 262.546875 C 282.582031 261.144531 281.671875 260.054688 280.480469 259.296875 C 279.277344 258.527344 277.835938 258.144531 276.160156 258.144531 C 274.316406 258.144531 272.726562 258.578125 271.378906 259.453125 C 270.03125 260.316406 268.976562 261.515625 268.242188 263.046875 C 267.496094 264.578125 267.136719 266.417969 267.136719 268.5625 C 267.136719 270.703125 267.53125 272.5625 268.320312 274.144531 C 269.105469 275.726562 270.230469 276.9375 271.691406 277.785156 C 273.140625 278.621094 274.863281 279.046875 276.859375 279.046875 C 278.648438 279.046875 280.273438 278.726562 281.757812 278.085938 C 283.238281 277.445312 284.542969 276.496094 285.664062 275.21875 L 292.175781 281.648438 C 290.34375 283.84375 288.121094 285.460938 285.519531 286.503906 C 282.917969 287.550781 280.03125 288.078125 276.867188 288.078125 Z M 276.839844 288.0625 "/></g><g clip-rule="nonzero" clip-path="url(#c47c0190f5)"><path style=" stroke:none;fill-rule:nonzero;fill:#ffffff;fill-opacity:1;" d="M 318.476562 288.0625 C 314.59375 288.0625 311.101562 287.222656 307.992188 285.535156 C 304.878906 283.851562 302.441406 281.535156 300.679688 278.570312 C 298.917969 275.613281 298.035156 272.296875 298.035156 268.621094 C 298.035156 264.949219 298.925781 261.570312 300.714844 258.628906 C 302.503906 255.699219 304.949219 253.382812 308.0625 251.707031 C 311.171875 250.023438 314.664062 249.183594 318.546875 249.183594 C 321.5 249.183594 324.199219 249.683594 326.617188 250.679688 C 329.039062 251.671875 331.199219 253.140625 333.082031 255.078125 L 325.503906 262.734375 C 324.636719 261.769531 323.628906 261.050781 322.476562 260.59375 C 321.328125 260.132812 320.015625 259.902344 318.535156 259.902344 C 316.902344 259.902344 315.433594 260.273438 314.136719 261.007812 C 312.832031 261.75 311.8125 262.769531 311.078125 264.066406 C 310.332031 265.371094 309.972656 266.859375 309.972656 268.542969 C 309.972656 270.230469 310.34375 271.8125 311.078125 273.132812 C 311.820312 274.464844 312.847656 275.492188 314.179688 276.238281 C 315.503906 276.980469 316.964844 277.34375 318.546875 277.34375 C 320.125 277.34375 321.441406 277.09375 322.640625 276.574219 C 323.84375 276.0625 324.871094 275.320312 325.746094 274.351562 L 333.324219 281.855469 C 331.335938 283.894531 329.125 285.441406 326.703125 286.488281 C 324.285156 287.535156 321.535156 288.0625 318.476562 288.0625 Z M 318.476562 288.0625 "/></g><g clip-rule="nonzero" clip-path="url(#853488c91d)"><path style=" stroke:none;fill-rule:nonzero;fill:#ffffff;fill-opacity:1;" d="M 338.371094 287.222656 L 338.371094 231.65625 L 350.160156 231.65625 L 350.160156 287.222656 Z M 363.023438 287.222656 L 363.023438 266.019531 C 363.023438 264.136719 362.410156 262.589844 361.183594 261.386719 C 359.953125 260.1875 358.425781 259.589844 356.59375 259.589844 C 355.367188 259.589844 354.269531 259.859375 353.300781 260.394531 C 352.332031 260.929688 351.5625 261.679688 351 262.648438 C 350.4375 263.617188 350.160156 264.742188 350.160156 266.019531 L 345.648438 263.800781 C 345.648438 260.886719 346.273438 258.335938 347.527344 256.140625 C 348.777344 253.945312 350.5 252.25 352.695312 251.050781 C 354.890625 249.847656 357.386719 249.253906 360.195312 249.253906 C 363.007812 249.253906 365.660156 249.847656 367.855469 251.050781 C 370.050781 252.25 371.761719 253.910156 372.980469 256.027344 C 374.207031 258.144531 374.820312 260.609375 374.820312 263.417969 L 374.820312 287.222656 Z M 363.023438 287.222656 "/></g></g></svg>