<?xml version="1.0" encoding="UTF-8"?>
<svg id="Layer_1" data-name="Layer 1" xmlns="http://www.w3.org/2000/svg" xmlns:xlink="http://www.w3.org/1999/xlink" viewBox="0 0 438 362.62">
  <defs>
    <style>
      .cls-1 {
        fill: url(#linear-gradient);
      }

      .cls-1, .cls-2 {
        stroke-width: 0px;
      }

      .cls-2 {
        fill: url(#linear-gradient-2);
      }
    </style>
    <linearGradient id="linear-gradient" x1="0" y1="191.89" x2="245.03" y2="191.89" gradientUnits="userSpaceOnUse">
      <stop offset="0" stop-color="#3d1c5c"/>
      <stop offset="1" stop-color="#4682b4"/>
    </linearGradient>
    <linearGradient id="linear-gradient-2" x1="195.3" y1="191.89" x2="438" y2="191.89" gradientUnits="userSpaceOnUse">
      <stop offset="0" stop-color="#4682b4"/>
      <stop offset="1" stop-color="#4682b4"/>
    </linearGradient>
  </defs>
  <polygon class="cls-1" points="245.03 362.62 155.07 362.62 76.54 245.52 76.54 362.62 0 362.62 0 21.16 76.54 21.16 76.54 229.76 154.57 121.06 239.56 121.06 189.24 186.17 151.82 234.61 245.03 362.62"/>
  <polygon class="cls-2" points="438 121.06 438 186.17 383.33 186.17 383.33 362.62 306.79 362.62 306.79 186.17 195.3 186.17 245.63 121.06 306.79 121.06 306.79 21.16 383.33 21.16 383.33 121.06 438 121.06"/>
</svg>