<svg width="8" height="8" viewBox="0 0 8 8" fill="none" xmlns="http://www.w3.org/2000/svg">
<path fill-rule="evenodd" clip-rule="evenodd" d="M0.875 0.25C0.529821 0.25 0.25 0.529821 0.25 0.875V7.125C0.25 7.47017 0.529821 7.75 0.875 7.75H7.125C7.47017 7.75 7.75 7.47017 7.75 7.125V0.875C7.75 0.529821 7.47017 0.25 7.125 0.25H0.875ZM2.55032 1.9178C2.55266 2.31624 2.25442 2.56175 1.90051 2.55999C1.56711 2.55823 1.27649 2.2928 1.27825 1.91839C1.28 1.56624 1.55832 1.28323 1.91985 1.29143C2.28665 1.29964 2.55266 1.56858 2.55032 1.9178ZM4.11654 3.0674H3.06655H3.06596V6.634H4.17571V6.55079C4.17571 6.3925 4.17558 6.23417 4.17546 6.07579C4.17512 5.65337 4.17475 5.2305 4.17692 4.80821C4.1775 4.70567 4.18217 4.59904 4.20854 4.50117C4.30754 4.13554 4.63629 3.89942 5.00308 3.95746C5.23862 3.99433 5.39446 4.13088 5.46008 4.35296C5.50054 4.49179 5.51871 4.64121 5.52046 4.78596C5.52521 5.22246 5.52454 5.65896 5.52387 6.0955C5.52362 6.24958 5.52337 6.40375 5.52337 6.55783V6.63342H6.63667V6.54788C6.63667 6.35954 6.63658 6.17125 6.63646 5.98296C6.63625 5.51233 6.636 5.04171 6.63725 4.57092C6.63783 4.35821 6.615 4.14846 6.56283 3.94279C6.48492 3.63692 6.32379 3.38379 6.06187 3.201C5.87612 3.07091 5.67221 2.98713 5.44429 2.97775C5.41833 2.97667 5.39217 2.97526 5.36587 2.97384C5.24933 2.96754 5.13087 2.96114 5.01946 2.98361C4.70071 3.04748 4.42067 3.19338 4.20912 3.45058C4.18454 3.48008 4.1605 3.51004 4.12462 3.55475L4.11654 3.56487V3.0674ZM1.36735 6.63517H2.47184V3.06972H1.36735V6.63517Z" fill="#611F69"/>
</svg>
