<svg width="378" height="330" viewBox="0 0 378 330" fill="none" xmlns="http://www.w3.org/2000/svg">
<g clip-path="url(#clip0_9_3)">
<rect width="378" height="330" fill="white"/>
<path d="M378 0.000579834H-0.000610352V330.001H378V0.000579834Z" fill="white"/>
<path d="M345.659 199.461C328.614 180.475 296.292 168.529 313.102 147.835C343.507 110.405 308.698 47.649 172.556 56.6236C124.116 59.8167 42.4978 66.3738 58.5794 139.867C73.6934 208.942 18.0064 215.36 39.8843 266.158C64.8346 324.089 201.767 299.563 264.809 303.414C358.528 309.14 388.838 247.558 345.659 199.461Z" fill="#F9ECF8"/>
<path d="M111.137 294.269H118.099C120.832 292.582 122.821 289.907 123.233 286.938L125.922 267.723H192.699L195.386 286.938C195.8 289.907 197.789 292.582 200.519 294.269H207.484C213.268 294.269 217.957 298.365 217.957 303.414H100.661C100.661 298.366 105.351 294.269 111.137 294.269Z" fill="#A6A7D8"/>
<path d="M36.1467 107.666H282.475C286.966 107.666 290.619 110.86 290.619 114.787V247.558V262.635C290.619 266.564 286.966 269.76 282.475 269.76H36.1467C31.6583 269.76 28 266.564 28 262.635V247.558V114.787C28 110.86 31.6583 107.666 36.1467 107.666Z" fill="#A6A7D8"/>
<path d="M291.691 107.666H45.3608C40.8724 107.666 37.2141 110.86 37.2141 114.787V247.558H299.833V114.787C299.833 110.86 296.179 107.666 291.691 107.666Z" fill="#4F5361"/>
<path d="M201.913 267.723H135.138L132.449 286.938C132.037 289.909 130.045 292.586 127.307 294.272H209.742C207.008 292.586 205.014 289.909 204.6 286.938L201.913 267.723Z" fill="#B8B9E7"/>
<path d="M109.878 303.414H227.174C227.174 298.365 222.485 294.269 216.699 294.269H120.353C114.567 294.269 109.878 298.366 109.878 303.414Z" fill="#C4C5EB"/>
<path d="M135.138 267.723L133.974 276.054H203.075L201.906 267.723H135.138Z" fill="#B1B3E0"/>
<path d="M37.2141 262.635C37.2141 266.565 40.8724 269.761 45.3608 269.761H291.691C296.18 269.761 299.833 266.565 299.833 262.635V247.558H37.2141V262.635Z" fill="#B8B9E7"/>
<path d="M283.491 122.584H53.5604V232.263H283.491V122.584Z" fill="#F9ECF8"/>
<path d="M168.526 262.445C170.919 262.445 172.859 260.746 172.859 258.658C172.859 256.569 170.919 254.869 168.526 254.869C166.137 254.869 164.192 256.568 164.192 258.658C164.192 260.746 166.137 262.445 168.526 262.445Z" fill="#4F5361"/>
<path d="M253.633 29H173.268C169.813 29 167.012 31.4453 167.012 34.4622V76.8784C167.012 79.8952 169.813 82.3405 173.268 82.3405H173.661V88.6944C173.661 89.7081 174.958 90.3107 175.921 89.7438L188.505 82.3399H253.634C257.089 82.3399 259.89 79.8946 259.89 76.8777V34.4622C259.889 31.4453 257.088 29 253.633 29Z" fill="#611F69"/>
<path d="M242.124 42.5029H184.777C184.023 42.5029 183.412 41.969 183.412 41.311C183.412 40.653 184.023 40.119 184.777 40.119H242.124C242.878 40.119 243.489 40.653 243.489 41.311C243.489 41.9683 242.878 42.5029 242.124 42.5029Z" fill="white"/>
<path d="M242.124 49.7497H184.777C184.023 49.7497 183.412 49.2158 183.412 48.5578C183.412 47.8998 184.023 47.3658 184.777 47.3658H242.124C242.878 47.3658 243.489 47.8998 243.489 48.5578C243.489 49.2158 242.878 49.7497 242.124 49.7497Z" fill="white"/>
<path d="M242.124 56.9972H184.777C184.023 56.9972 183.412 56.4633 183.412 55.8052C183.412 55.1472 184.023 54.6133 184.777 54.6133H242.124C242.878 54.6133 243.489 55.1472 243.489 55.8052C243.489 56.4633 242.878 56.9972 242.124 56.9972Z" fill="white"/>
<path d="M242.124 64.244H184.777C184.023 64.244 183.412 63.7101 183.412 63.052C183.412 62.394 184.023 61.8601 184.777 61.8601H242.124C242.878 61.8601 243.489 62.394 243.489 63.052C243.489 63.7101 242.878 64.244 242.124 64.244Z" fill="white"/>
<path d="M218.458 71.4908H184.777C184.023 71.4908 183.412 70.9569 183.412 70.2988C183.412 69.6408 184.023 69.1069 184.777 69.1069H218.458C219.211 69.1069 219.823 69.6408 219.823 70.2988C219.823 70.9569 219.211 71.4908 218.458 71.4908Z" fill="white"/>
<mask id="mask0_9_3" style="mask-type:luminance" maskUnits="userSpaceOnUse" x="70" y="84" width="114" height="149">
<path d="M183.485 84.6083H70.9937V232.264H183.485V84.6083Z" fill="white"/>
</mask>
<g mask="url(#mask0_9_3)">
<path opacity="0.08" d="M105.647 197.571V232.264H109.491L105.647 197.571Z" fill="#101010"/>
<path d="M100.993 194.678C100.004 203.358 146.034 195.08 145.779 187.8C145.537 180.941 143.263 168.65 141.749 164.008C137.461 150.878 125.952 161.918 114.957 160.626C112.034 168.604 106.531 173.257 100.993 194.678Z" fill="#FFBE9E"/>
<path d="M102.663 222.938C101.767 221.148 100.896 219.183 100.072 217.109C94.1991 202.327 85.5852 178.85 105.489 167.45C107.25 166.442 112.835 165.322 112.835 165.322C112.835 165.322 128.925 173.023 142.25 165.584C152.785 171.579 153.896 172.477 153.412 181.667C152.928 190.86 154.449 196.291 154.879 201.299C155.328 206.454 157.453 253.678 158.935 271.269C160.399 288.65 94.2853 281.104 94.2853 281.104C94.2853 281.104 110.982 239.529 102.663 222.938Z" fill="#611F69"/>
<path opacity="0.07" d="M112.868 185.807C112.868 185.807 102.79 210.166 108.88 213.234C114.968 216.303 128.241 216.29 128.241 216.29C128.241 216.29 129.185 225.964 129.185 227.007C125.305 229.521 107.756 229.419 105.033 229.419L104.574 227.772C104.574 227.772 100.438 214.684 101.99 207.37C103.539 200.058 112.868 185.807 112.868 185.807Z" fill="#030303"/>
<path d="M110.91 165.447C110.91 165.447 128.552 187.236 132.236 198.396C134.242 204.472 138.349 240.965 134.755 265.517C131.161 290.072 133.022 293.789 133.022 293.789C133.022 293.789 88.4566 294.795 80.4997 289.317C80.4997 289.317 79.1434 288.543 85.3804 270.843C91.6181 253.142 97.0772 214.861 97.0772 214.861C97.0772 214.861 79.0897 196.752 95.6023 175.725C102.726 166.656 110.91 165.447 110.91 165.447Z" fill="white"/>
<path opacity="0.07" d="M101.903 169.614L108.243 186.504L112.215 186.597L109.438 189.021L132.834 203.062L107.027 190.042L108.853 188.342H105.636L99.8925 171.083L101.903 169.614Z" fill="#030303"/>
<path d="M115.412 182.487C115.087 182.487 114.784 182.306 114.677 182.022C114.619 181.869 109.023 166.603 112.968 163.54C113.287 163.292 113.777 163.317 114.06 163.596C114.344 163.874 114.315 164.302 113.996 164.549C111.874 166.198 113.922 175.678 116.148 181.599C116.281 181.954 116.06 182.336 115.654 182.453C115.574 182.476 115.493 182.487 115.412 182.487Z" fill="#21373D"/>
<path d="M127.381 204.773C126.968 204.773 126.625 204.488 126.609 204.124C126.601 203.959 125.779 187.58 118.966 183.412C117.358 182.428 115.573 182.23 113.514 182.802C107.248 184.547 105.942 198.764 105.968 204.095C105.969 204.468 105.625 204.771 105.197 204.773H105.194C104.767 204.773 104.422 204.473 104.42 204.101C104.416 203.278 104.419 183.917 113.044 181.515C115.562 180.814 117.852 181.081 119.855 182.305C127.294 186.857 128.125 203.37 128.156 204.071C128.173 204.444 127.84 204.758 127.414 204.773C127.402 204.773 127.391 204.773 127.381 204.773Z" fill="#21373D"/>
<path d="M125.277 204.834C125.277 205.997 126.219 206.936 127.381 206.936C128.546 206.936 129.489 205.996 129.489 204.834C129.489 203.674 128.546 202.732 127.381 202.732C126.219 202.732 125.277 203.674 125.277 204.834Z" fill="#D3D7EF"/>
<path d="M103.087 205.51C103.087 206.671 104.031 207.613 105.193 207.613C106.357 207.613 107.301 206.671 107.301 205.51C107.301 204.349 106.357 203.407 105.193 203.407C104.031 203.407 103.087 204.349 103.087 205.51Z" fill="#D3D7EF"/>
<path d="M144.223 166.656C144.223 166.656 146.144 196.984 145.782 212.642C145.42 228.298 146.568 263.49 149.652 280.077C152.738 296.664 158.597 291.698 158.597 291.698H178.479C178.479 291.698 170.696 284.429 166.085 262.675C163.891 252.335 162.129 238.658 160.729 225.66C183.657 226.271 164.572 190.46 163.102 186.582C159.037 175.855 153.522 171.808 153.522 171.808L144.223 166.656Z" fill="white"/>
<path opacity="0.07" d="M153.522 171.807L153.298 186.504L150.813 185.99L153.298 189.659L145.782 203.144L151.105 189.404L148.57 184.045L151.398 184.299L150.297 170.019L153.522 171.807Z" fill="#030303"/>
<path d="M103.57 185.807L116.153 209.817L122.018 208.569L141.046 220.059C141.046 220.059 126.168 227.427 117.228 228.552C108.285 229.676 98.9861 223.258 94.5507 213.727C90.116 204.198 89.5429 203.073 89.5429 203.073L103.57 185.807Z" fill="#DFE1E3"/>
<path d="M103.57 185.807L116.153 209.817L122.018 208.569L140.215 219.555C140.215 219.555 126.167 226.429 117.227 227.552C108.284 228.676 99.2711 222.845 94.8357 213.314C90.401 203.783 89.5429 203.073 89.5429 203.073L103.57 185.807Z" fill="white"/>
<path d="M121.495 201.116L118.371 210.068C118.371 210.068 148.09 226.725 159.217 226.802C170.233 226.882 172.378 220.809 171.52 215.313C170.661 209.817 156.549 208.718 156.549 208.718L121.495 201.116Z" fill="#DFE1E3"/>
<path d="M121.304 201.699L119.014 209.693C119.014 209.693 148.232 225.601 159.359 225.679C170.375 225.759 172.378 220.809 171.521 215.313C170.662 209.817 170.805 211.815 170.805 211.815L121.304 201.699Z" fill="#FDFDFD"/>
<path d="M121.062 202.328L119.253 208.861L115.869 208.569L112.38 202.618C112.38 202.618 116.484 201.08 121.062 202.328Z" fill="#FFBE9E"/>
<path d="M154.638 205.106L155.353 208.57L165.511 210.693C165.511 210.693 168.23 207.194 165.511 204.446C163.909 202.828 160.752 202.449 160.752 202.449L154.638 204.697" fill="#FFBE9E"/>
<path opacity="0.07" d="M155.935 193.762L156.759 203.917L158.863 203.144L155.935 193.762Z" fill="#030303"/>
<path d="M140.729 198.357C140.277 201.711 142.438 204.69 145.556 205.01C148.673 205.332 151.567 202.874 152.021 199.52C152.474 196.166 150.314 193.187 147.196 192.866C144.077 192.545 141.183 195.004 140.729 198.357Z" fill="#D3D7EF"/>
<path d="M143.443 198.637C143.044 201.587 144.946 204.205 147.687 204.487C150.431 204.77 152.976 202.608 153.374 199.659C153.773 196.71 151.873 194.09 149.129 193.808C146.387 193.525 143.841 195.688 143.443 198.637Z" fill="#21373D"/>
<path d="M147.025 194.811C147.02 194.811 147.014 194.811 147.008 194.811C146.581 194.803 146.242 194.494 146.252 194.121C146.257 193.959 146.65 177.913 145.024 171.167C144.631 169.528 143.598 166.546 141.113 164.988C140.766 164.771 140.686 164.349 140.936 164.045C141.184 163.742 141.668 163.67 142.015 163.89C144.927 165.714 146.1 169.059 146.54 170.889C148.202 177.787 147.816 193.486 147.8 194.15C147.79 194.519 147.445 194.811 147.025 194.811Z" fill="#21373D"/>
<path d="M167.516 119.157C167.516 119.157 175.813 157.509 166.719 165.447C157.246 173.718 138.932 160.413 138.932 160.413C138.932 160.413 170.585 131.809 167.516 119.157Z" fill="#21373D"/>
<path opacity="0.07" d="M140.999 164.06C140.999 164.06 125.185 165.619 120.323 163.661C120.323 163.661 126.056 167.552 141.402 166.048L140.999 164.06Z" fill="#070707"/>
<path d="M118.428 101.327C118.428 101.327 111.595 102.75 104.432 106.405C97.0855 110.152 89.3917 116.248 88.3628 125.561C87.7678 130.924 88.3001 136.107 89.9292 140.857C93.8929 152.398 104.355 161.368 120.986 164.089C132.721 166.012 145.428 164.596 154.872 158.531C164.318 152.466 169.97 139.605 167.614 128.894C165.263 118.184 159.62 112.504 150.904 107.553C142.188 102.601 130.935 100.528 118.428 101.327Z" fill="#FFBE9E"/>
<path d="M133.121 144.018C135.01 146.069 139.075 146.713 139.976 143.496C140.276 142.422 142.216 142.75 141.912 143.833C141.403 145.65 139.835 147.149 137.664 147.479C135.181 147.853 132.987 146.615 131.493 144.994C130.696 144.127 132.33 143.158 133.121 144.018Z" fill="#EA9E7D"/>
<path d="M137.22 140.064C137.244 140.064 137.268 140.064 137.292 140.062C137.402 140.052 138.396 139.972 139.04 139.812C140.592 139.419 141.146 138.701 141.337 138.168C141.535 137.617 141.541 136.712 140.447 135.539C139.475 134.5 139.306 132.394 139.323 131.67C139.33 131.285 138.984 130.969 138.544 130.962C138.538 130.962 138.532 130.962 138.527 130.962C138.096 130.962 137.742 131.262 137.732 131.641C137.73 131.768 137.673 134.766 139.214 136.416C139.713 136.95 139.933 137.437 139.818 137.754C139.713 138.05 139.279 138.308 138.6 138.478C138.18 138.582 137.411 138.659 137.151 138.681C136.712 138.713 136.388 139.051 136.429 139.433C136.466 139.792 136.813 140.065 137.22 140.064Z" fill="#EA9E7D"/>
<path d="M119.564 133.031C119.619 134.554 120.663 135.76 121.897 135.727C123.13 135.693 124.087 134.432 124.032 132.91C123.977 131.385 122.933 130.179 121.699 130.212C120.466 130.246 119.508 131.507 119.564 133.031Z" fill="#2D2429"/>
<path d="M151.843 131.583C151.897 133.108 152.941 134.315 154.176 134.281C155.408 134.248 156.364 132.986 156.309 131.462C156.255 129.939 155.211 128.733 153.976 128.766C152.744 128.801 151.789 130.061 151.843 131.583Z" fill="#2D2429"/>
<path d="M97.6374 142.19C97.6374 146.399 101.545 149.808 106.362 149.808C111.183 149.808 115.089 146.399 115.089 142.19C115.089 137.985 111.183 134.575 106.362 134.575C101.545 134.575 97.6374 137.985 97.6374 142.19Z" fill="#F4A887"/>
<path d="M168.691 134.14C167.385 133.372 165.811 132.921 164.116 132.921C159.598 132.921 155.935 136.12 155.935 140.065C155.935 144.008 159.598 147.207 164.116 147.207" fill="#F4A887"/>
<path d="M158.436 155.764C175.281 144.318 170.399 111.287 156.026 98.7369C141.652 86.189 111.877 90.547 111.877 90.547C84.5646 95.5076 75.6272 109.344 75.6272 130.943C75.6272 144.792 75.3959 152.503 83.8653 158.948C93.5142 166.291 127.41 173.951 118.371 166.395C108.726 158.328 103.902 144.602 105.871 136.888C106.787 133.309 107.84 129.178 107.84 129.178C133.425 128.179 157.425 111.928 157.425 111.928C164.866 118.276 166.778 137.812 164.682 144.839C162.644 151.672 158.721 155.186 158.436 155.764Z" fill="#21373D"/>
<path d="M154.791 121.707C148.595 121.011 142.898 124.847 142.1 130.26C142.052 130.59 142.024 130.917 142.013 131.243C140.206 130.072 138.377 129.588 136.554 129.82C134.465 130.086 132.835 131.236 131.738 132.293C131.176 127.86 127.214 124.157 121.928 123.563C118.926 123.225 115.95 123.929 113.553 125.545C111.155 127.16 109.623 129.494 109.237 132.116C109.158 132.648 109.141 133.178 109.16 133.705L104.214 134.461C103.755 134.531 103.448 134.913 103.528 135.313C103.6 135.671 103.956 135.923 104.358 135.923C104.407 135.923 104.456 135.92 104.505 135.912L109.333 135.174C109.654 136.705 110.385 138.16 111.507 139.427C113.358 141.52 116.03 142.858 119.034 143.195C119.523 143.25 120.009 143.277 120.489 143.277C126.039 143.277 130.874 139.706 131.692 134.806C132.038 134.294 133.959 131.635 136.804 131.277C138.533 131.06 140.349 131.751 142.198 133.315C143.069 137.43 146.894 140.778 151.897 141.339C152.388 141.395 152.879 141.422 153.366 141.422C155.858 141.422 158.266 140.709 160.271 139.357C162.669 137.742 164.202 135.408 164.588 132.786C165.386 127.374 160.991 122.403 154.791 121.707ZM130.052 134.454C129.374 139.06 124.533 142.323 119.25 141.735C116.694 141.448 114.418 140.308 112.843 138.527C111.268 136.746 110.582 134.536 110.91 132.305C111.239 130.073 112.544 128.086 114.584 126.712C116.624 125.337 119.155 124.738 121.711 125.025C126.99 125.617 130.731 129.847 130.052 134.454ZM162.915 132.599C162.586 134.83 161.281 136.817 159.241 138.192C157.2 139.567 154.667 140.166 152.113 139.879C146.836 139.286 143.096 135.056 143.774 130.449C144.103 128.217 145.408 126.231 147.447 124.856C149.488 123.48 152.018 122.88 154.575 123.169C157.131 123.456 159.406 124.595 160.981 126.376C162.557 128.157 163.244 130.367 162.915 132.599Z" fill="#611F69"/>
</g>
<path d="M124.819 45.7759H76.5027C74.0767 45.7759 72.1104 47.4932 72.1104 49.6105V72.6425C72.1104 74.7604 74.0767 76.4771 76.5027 76.4771H112.685C113.668 76.4771 114.629 76.7345 115.442 77.217L124.543 82.6092V76.4778H124.819C127.245 76.4778 129.211 74.7604 129.211 72.6432V49.6105C129.212 47.4925 127.245 45.7759 124.819 45.7759Z" stroke="#611F69" stroke-width="3.6354" stroke-miterlimit="10" stroke-linecap="round" stroke-linejoin="round"/>
<path d="M108.153 61.1262C108.153 62.6508 109.569 63.8863 111.315 63.8863C113.061 63.8863 114.477 62.6508 114.477 61.1262C114.477 59.6016 113.061 58.366 111.315 58.366C109.569 58.366 108.153 59.6022 108.153 61.1262Z" fill="#611F69"/>
<path d="M97.3471 61.1262C97.3471 62.6508 98.7623 63.8863 100.509 63.8863C102.255 63.8863 103.67 62.6508 103.67 61.1262C103.67 59.6016 102.255 58.366 100.509 58.366C98.7623 58.366 97.3471 59.6022 97.3471 61.1262Z" fill="#611F69"/>
<path d="M86.5401 61.1262C86.5401 62.6508 87.9553 63.8863 89.7017 63.8863C91.4481 63.8863 92.8633 62.6508 92.8633 61.1262C92.8633 59.6016 91.4481 58.366 89.7017 58.366C87.9553 58.366 86.5401 59.6022 86.5401 61.1262Z" fill="#611F69"/>
<path opacity="0.13" d="M298.026 140.789H235.888C234.263 140.789 232.946 141.939 232.946 143.357V149.661C232.946 151.079 234.263 152.229 235.888 152.229H298.026C299.65 152.229 300.967 151.079 300.967 149.661V143.357C300.967 141.939 299.65 140.789 298.026 140.789Z" fill="#8A8A8A"/>
<path opacity="0.13" d="M298.026 156.327H235.888C234.263 156.327 232.946 157.477 232.946 158.895V165.199C232.946 166.617 234.263 167.767 235.888 167.767H298.026C299.65 167.767 300.967 166.617 300.967 165.199V158.895C300.967 157.477 299.65 156.327 298.026 156.327Z" fill="#8A8A8A"/>
<path opacity="0.13" d="M298.026 94.2126H235.888C234.263 94.2126 232.946 95.3624 232.946 96.7807V103.084C232.946 104.503 234.263 105.652 235.888 105.652H298.026C299.65 105.652 300.967 104.503 300.967 103.084V96.7807C300.967 95.3624 299.65 94.2126 298.026 94.2126Z" fill="#8A8A8A"/>
<path opacity="0.13" d="M298.026 109.75H235.888C234.263 109.75 232.946 110.9 232.946 112.318V118.622C232.946 120.04 234.263 121.19 235.888 121.19H298.026C299.65 121.19 300.967 120.04 300.967 118.622V112.318C300.967 110.901 299.65 109.75 298.026 109.75Z" fill="#8A8A8A"/>
<path opacity="0.13" d="M298.026 125.289H235.888C234.263 125.289 232.946 126.438 232.946 127.857V134.16C232.946 135.579 234.263 136.729 235.888 136.729H298.026C299.65 136.729 300.967 135.579 300.967 134.16V127.857C300.967 126.438 299.65 125.289 298.026 125.289Z" fill="#8A8A8A"/>
<path d="M300.02 103.783H237.882C236.258 103.783 234.941 102.634 234.941 101.215V94.9116C234.941 93.4932 236.258 92.3435 237.882 92.3435H300.02C301.645 92.3435 302.962 93.4932 302.962 94.9116V101.215C302.962 102.633 301.645 103.783 300.02 103.783Z" fill="white"/>
<path d="M252.224 96.4678H297.773" stroke="#E5E6E8" stroke-width="2" stroke-miterlimit="10" stroke-linecap="round" stroke-linejoin="round"/>
<path d="M252.224 99.6583H285.989" stroke="#E5E6E8" stroke-width="2" stroke-miterlimit="10" stroke-linecap="round" stroke-linejoin="round"/>
<path d="M248.063 98.0631C248.063 100.281 246.004 102.078 243.465 102.078C240.925 102.078 238.866 100.28 238.866 98.0631C238.866 95.8455 240.925 94.0483 243.465 94.0483C246.004 94.0483 248.063 95.8455 248.063 98.0631Z" fill="#611F69"/>
<path d="M240.568 97.9522L242.869 99.9236L246.359 96.9833" stroke="white" stroke-miterlimit="10" stroke-linecap="round" stroke-linejoin="round"/>
<path d="M300.02 119.321H237.882C236.258 119.321 234.941 118.171 234.941 116.753V110.449C234.941 109.031 236.258 107.881 237.882 107.881H300.02C301.645 107.881 302.962 109.031 302.962 110.449V116.753C302.962 118.171 301.645 119.321 300.02 119.321Z" fill="white"/>
<path d="M252.224 112.006H297.773" stroke="#E5E6E8" stroke-width="2" stroke-miterlimit="10" stroke-linecap="round" stroke-linejoin="round"/>
<path d="M252.224 115.196H285.989" stroke="#E5E6E8" stroke-width="2" stroke-miterlimit="10" stroke-linecap="round" stroke-linejoin="round"/>
<path d="M248.063 113.601C248.063 115.818 246.004 117.616 243.465 117.616C240.925 117.616 238.866 115.818 238.866 113.601C238.866 111.383 240.925 109.586 243.465 109.586C246.004 109.586 248.063 111.384 248.063 113.601Z" fill="#611F69"/>
<path d="M240.568 113.491L242.869 115.462L246.359 112.522" stroke="white" stroke-miterlimit="10" stroke-linecap="round" stroke-linejoin="round"/>
<path d="M300.02 134.859H237.882C236.258 134.859 234.941 133.709 234.941 132.291V125.987C234.941 124.569 236.258 123.419 237.882 123.419H300.02C301.645 123.419 302.962 124.569 302.962 125.987V132.291C302.962 133.709 301.645 134.859 300.02 134.859Z" fill="white"/>
<path d="M252.224 127.544H297.773" stroke="#E5E6E8" stroke-width="2" stroke-miterlimit="10" stroke-linecap="round" stroke-linejoin="round"/>
<path d="M252.224 130.734H285.989" stroke="#E5E6E8" stroke-width="2" stroke-miterlimit="10" stroke-linecap="round" stroke-linejoin="round"/>
<path d="M248.063 129.139C248.063 131.357 246.004 133.154 243.465 133.154C240.925 133.154 238.866 131.356 238.866 129.139C238.866 126.922 240.925 125.124 243.465 125.124C246.004 125.124 248.063 126.922 248.063 129.139Z" fill="#611F69"/>
<path d="M240.568 129.028L242.869 131L246.359 128.059" stroke="white" stroke-miterlimit="10" stroke-linecap="round" stroke-linejoin="round"/>
<path d="M300.02 150.397H237.882C236.258 150.397 234.941 149.247 234.941 147.829V141.525C234.941 140.107 236.258 138.957 237.882 138.957H300.02C301.645 138.957 302.962 140.107 302.962 141.525V147.829C302.962 149.247 301.645 150.397 300.02 150.397Z" fill="white"/>
<path d="M252.224 143.082H297.773" stroke="#E5E6E8" stroke-width="2" stroke-miterlimit="10" stroke-linecap="round" stroke-linejoin="round"/>
<path d="M252.224 146.272H285.989" stroke="#E5E6E8" stroke-width="2" stroke-miterlimit="10" stroke-linecap="round" stroke-linejoin="round"/>
<path d="M248.063 144.677C248.063 146.894 246.004 148.692 243.465 148.692C240.925 148.692 238.866 146.894 238.866 144.677C238.866 142.459 240.925 140.662 243.465 140.662C246.004 140.662 248.063 142.459 248.063 144.677Z" fill="#611F69"/>
<path d="M240.568 144.566L242.869 146.537L246.359 143.598" stroke="white" stroke-miterlimit="10" stroke-linecap="round" stroke-linejoin="round"/>
<path d="M300.02 165.935H237.882C236.258 165.935 234.941 164.785 234.941 163.367V157.063C234.941 155.645 236.258 154.495 237.882 154.495H300.02C301.645 154.495 302.962 155.645 302.962 157.063V163.367C302.962 164.785 301.645 165.935 300.02 165.935Z" fill="white"/>
<path d="M252.224 158.62H297.773" stroke="#E5E6E8" stroke-width="2" stroke-miterlimit="10" stroke-linecap="round" stroke-linejoin="round"/>
<path d="M252.224 161.81H285.989" stroke="#E5E6E8" stroke-width="2" stroke-miterlimit="10" stroke-linecap="round" stroke-linejoin="round"/>
<path d="M248.063 160.215C248.063 162.433 246.004 164.23 243.465 164.23C240.925 164.23 238.866 162.432 238.866 160.215C238.866 157.998 240.925 156.2 243.465 156.2C246.004 156.2 248.063 157.998 248.063 160.215Z" fill="#611F69"/>
<path d="M240.568 160.104L242.869 162.076L246.359 159.136" stroke="white" stroke-miterlimit="10" stroke-linecap="round" stroke-linejoin="round"/>
<path opacity="0.13" d="M350.662 202.723H292.754C290.814 202.723 289.241 204.096 289.241 205.79V209.902V240.122C289.241 241.816 290.814 243.189 292.754 243.189H350.662C352.603 243.189 354.175 241.816 354.175 240.122V209.902V205.79C354.175 204.096 352.602 202.723 350.662 202.723Z" fill="#8A8A8A"/>
<path d="M353.394 241.28H295.486C293.545 241.28 291.973 239.907 291.973 238.213V203.881C291.973 202.187 293.546 200.814 295.486 200.814H353.394C355.334 200.814 356.907 202.187 356.907 203.881V238.213C356.908 239.907 355.334 241.28 353.394 241.28Z" fill="white"/>
<path d="M356.908 210.133H291.973V203.88C291.973 202.187 293.546 200.813 295.486 200.813H353.394C355.334 200.813 356.907 202.187 356.907 203.88V210.133H356.908Z" fill="#611F69"/>
<path d="M305.959 222.487H300.698C299.565 222.487 298.638 221.678 298.638 220.688V216.096C298.638 215.107 299.566 214.298 300.698 214.298H305.959C307.092 214.298 308.019 215.107 308.019 216.096V220.688C308.019 221.677 307.092 222.487 305.959 222.487Z" stroke="#EA96C3" stroke-width="0.9111" stroke-miterlimit="10"/>
<path d="M319.647 222.487H314.387C313.254 222.487 312.327 221.678 312.327 220.688V216.096C312.327 215.107 313.255 214.298 314.387 214.298H319.647C320.781 214.298 321.708 215.107 321.708 216.096V220.688C321.708 221.677 320.781 222.487 319.647 222.487Z" fill="#611F69"/>
<path d="M333.336 222.487H328.076C326.943 222.487 326.016 221.678 326.016 220.688V216.096C326.016 215.107 326.943 214.298 328.076 214.298H333.336C334.47 214.298 335.396 215.107 335.396 216.096V220.688C335.397 221.677 334.47 222.487 333.336 222.487Z" stroke="#EA96C3" stroke-width="0.9111" stroke-miterlimit="10"/>
<path d="M347.025 222.487H341.765C340.632 222.487 339.705 221.678 339.705 220.688V216.096C339.705 215.107 340.632 214.298 341.765 214.298H347.025C348.158 214.298 349.086 215.107 349.086 216.096V220.688C349.086 221.677 348.158 222.487 347.025 222.487Z" stroke="#EA96C3" stroke-width="0.9111" stroke-miterlimit="10"/>
<path d="M305.959 234.513H300.698C299.565 234.513 298.638 233.704 298.638 232.714V228.122C298.638 227.133 299.566 226.323 300.698 226.323H305.959C307.092 226.323 308.019 227.133 308.019 228.122V232.714C308.019 233.704 307.092 234.513 305.959 234.513Z" stroke="#EA96C3" stroke-width="0.9111" stroke-miterlimit="10"/>
<path d="M319.647 234.513H314.387C313.254 234.513 312.327 233.704 312.327 232.714V228.122C312.327 227.133 313.255 226.323 314.387 226.323H319.647C320.781 226.323 321.708 227.133 321.708 228.122V232.714C321.708 233.704 320.781 234.513 319.647 234.513Z" stroke="#EA96C3" stroke-width="0.9111" stroke-miterlimit="10"/>
<path d="M333.336 234.513H328.076C326.943 234.513 326.016 233.704 326.016 232.714V228.122C326.016 227.133 326.943 226.323 328.076 226.323H333.336C334.47 226.323 335.396 227.133 335.396 228.122V232.714C335.397 233.704 334.47 234.513 333.336 234.513Z" fill="#F4C3DF"/>
<path d="M347.025 234.513H341.765C340.632 234.513 339.705 233.704 339.705 232.714V228.122C339.705 227.133 340.632 226.323 341.765 226.323H347.025C348.158 226.323 349.086 227.133 349.086 228.122V232.714C349.086 233.704 348.158 234.513 347.025 234.513Z" stroke="#EA96C3" stroke-width="0.9111" stroke-miterlimit="10"/>
<path d="M185.279 141.432L202.972 141.697" stroke="#716B99" stroke-width="3.8258" stroke-miterlimit="10" stroke-linecap="round" stroke-linejoin="round"/>
<path d="M186.883 148.494L202.619 148.864" stroke="#716B99" stroke-width="3.8258" stroke-miterlimit="10" stroke-linecap="round" stroke-linejoin="round"/>
<path d="M189.225 167.492L200.963 166.873" stroke="#716B99" stroke-width="3.8258" stroke-miterlimit="10" stroke-linecap="round" stroke-linejoin="round"/>
<path d="M187.298 175.058L204.41 175.367" stroke="#716B99" stroke-width="3.8258" stroke-miterlimit="10" stroke-linecap="round" stroke-linejoin="round"/>
<path d="M187.717 182.971L202.562 183.385" stroke="#716B99" stroke-width="3.8258" stroke-miterlimit="10" stroke-linecap="round" stroke-linejoin="round"/>
<path d="M189.45 202.125L202.009 201.889" stroke="#716B99" stroke-width="3.8258" stroke-miterlimit="10" stroke-linecap="round" stroke-linejoin="round"/>
<path d="M186.728 209.975L205.606 210.015" stroke="#716B99" stroke-width="3.8258" stroke-miterlimit="10" stroke-linecap="round" stroke-linejoin="round"/>
<path d="M185.631 135.952C185.631 135.952 183.13 145.996 190.692 154.643C194.879 159.43 211.013 170.672 202.016 185.44C195.958 195.385 185.291 200.776 186.48 216.738" stroke="#611F69" stroke-width="3.8258" stroke-miterlimit="10" stroke-linecap="round" stroke-linejoin="round"/>
<path d="M203.563 135.716C203.563 135.716 206.48 145.674 199.284 154.555C195.3 159.471 179.644 171.218 189.25 185.691C195.717 195.437 206.602 200.486 206.08 216.476" stroke="#611F69" stroke-width="3.8258" stroke-miterlimit="10" stroke-linecap="round" stroke-linejoin="round"/>
<path d="M66.2279 303.279H326.016" stroke="#611F69" stroke-width="8" stroke-miterlimit="10" stroke-linecap="round" stroke-linejoin="round"/>
<path d="M319.987 60.2299H322.776L325.753 51.0645C325.896 50.6256 326.358 50.3279 326.89 50.3583C327.412 50.384 327.842 50.7226 327.926 51.1734L330.271 63.7008L333.401 43.6824C333.476 43.2052 333.94 42.8468 334.491 42.8409C335.029 42.8072 335.517 43.1821 335.607 43.6573L338.745 60.4503H357.125C357.741 60.4503 358.24 60.8866 358.24 61.4238C358.24 61.9611 357.741 62.3973 357.125 62.3973H337.797C337.251 62.3973 336.785 62.0515 336.697 61.5802L334.604 50.3847L331.475 70.3972C331.4 70.8744 330.937 71.2327 330.385 71.2387C330.38 71.2387 330.375 71.2387 330.37 71.2387C329.825 71.2387 329.358 70.8935 329.269 70.4216L326.532 55.7993L324.691 61.4667C324.555 61.8852 324.117 62.1749 323.618 62.1749H319.7" fill="#611F69"/>
<path d="M308.594 62.0878C308.035 62.0878 307.581 61.6918 307.581 61.2034C307.581 60.7156 308.035 60.319 308.594 60.319H319.987C320.053 60.319 320.116 60.3256 320.177 60.3355C320.41 59.0696 320.302 58.2875 320.271 58.1166C319.784 53.4306 315.984 50.0302 311.229 50.0302C308.062 50.0302 305.161 51.5185 303.529 53.9038C301.912 51.4875 299.131 50.0296 296.014 50.0296C291.26 50.0296 287.46 53.4292 286.973 58.1159C286.935 58.3231 286.777 59.4121 287.257 61.1889C287.95 63.751 289.55 66.0821 291.883 67.9275L303.522 77.149L315.361 67.9281C317.418 66.3006 318.903 64.2955 319.701 62.0878H308.594Z" fill="#611F69"/>
<path d="M349.553 165.353H338.455V155.665H322.957V165.353H311.859V178.884H322.957V188.573H338.455V178.884H349.553V165.353Z" fill="#611F69"/>
<path d="M233.076 210.562H226.087V225.212H233.076V210.562Z" fill="#611F69"/>
<path d="M245.397 205.786H238.408V225.211H245.397V205.786Z" fill="#611F69"/>
<path d="M257.718 199.349H250.729V225.211H257.718V199.349Z" fill="#611F69"/>
<path d="M270.039 194.739H263.049V225.211H270.039V194.739Z" fill="#611F69"/>
<path d="M220.265 195.567V225.211H275.861" stroke="#B8B9E7" stroke-width="1.5111" stroke-miterlimit="10" stroke-linecap="round" stroke-linejoin="round"/>
</g>
<defs>
<clipPath id="clip0_9_3">
<rect width="378" height="330" fill="white"/>
</clipPath>
</defs>
</svg>
