<svg width="20" height="20" viewBox="0 0 20 20" fill="none" xmlns="http://www.w3.org/2000/svg">
<path d="M15.4821 10.8314C15.3845 10.7336 15.2685 10.656 15.1409 10.6031C15.0132 10.5502 14.8763 10.5229 14.7381 10.5229C14.6 10.5229 14.4631 10.5502 14.3354 10.6031C14.2078 10.656 14.0918 10.7336 13.9941 10.8314L12.3167 12.5088C11.539 12.2773 10.0879 11.7511 9.16814 10.8314C8.2484 9.91173 7.72224 8.46063 7.49072 7.68295L9.16814 6.00561C9.2659 5.90796 9.34356 5.792 9.3965 5.66434C9.44943 5.53669 9.47668 5.39984 9.47668 5.26164C9.47668 5.12343 9.44943 4.98659 9.3965 4.85893C9.34356 4.73128 9.2659 4.61532 9.16814 4.51767L4.95881 0.30853C4.86117 0.21072 4.7452 0.133125 4.61753 0.0801841C4.48987 0.0272436 4.35302 0 4.21482 0C4.0766 0 3.93976 0.0272436 3.81209 0.0801841C3.68443 0.133125 3.56846 0.21072 3.47082 0.30853L0.616894 3.16233C0.217008 3.5622 -0.00819078 4.11149 0.000227877 4.67236C0.0244315 6.17081 0.421161 11.3755 4.52315 15.4773C8.62514 19.5791 13.83 19.9747 15.3295 20H15.359C15.9146 20 16.4398 19.7811 16.8375 19.3834L19.6915 16.5296C19.7892 16.4319 19.8669 16.3159 19.9198 16.1883C19.9727 16.0606 20 15.9238 20 15.7856C20 15.6473 19.9727 15.5105 19.9198 15.3829C19.8669 15.2551 19.7892 15.1392 19.6915 15.0416L15.4821 10.8314ZM15.3485 17.8944C14.0352 17.8723 9.54172 17.5198 6.01115 13.9883C2.469 10.4463 2.12594 5.93721 2.10489 4.65026L4.21482 2.54043L6.93615 5.26164L5.57548 6.62225C5.45179 6.74584 5.36085 6.89829 5.31087 7.06586C5.2609 7.23341 5.25347 7.41078 5.28925 7.58193C5.3145 7.70294 5.93222 10.5726 7.67909 12.3194C9.42596 14.0662 12.2957 14.6839 12.4167 14.7091C12.5877 14.7458 12.7653 14.739 12.933 14.6892C13.1007 14.6393 13.2532 14.5481 13.3764 14.4239L14.7381 13.0633L17.4595 15.7845L15.3485 17.8944Z" fill="#611F69"/>
</svg>
