<svg width="1068" height="396" viewBox="0 0 1068 396" fill="none" xmlns="http://www.w3.org/2000/svg">
<g clip-path="url(#clip0_17_623)">
<rect width="1068" height="396" fill="white"/>
<path d="M1068 0H0V396H1068V0Z" fill="#D7E0F4"/>
<mask id="mask0_17_623" style="mask-type:luminance" maskUnits="userSpaceOnUse" x="0" y="0" width="1068" height="396">
<path d="M1068 0H0V396H1068V0Z" fill="white"/>
</mask>
<g mask="url(#mask0_17_623)">
<path d="M-195.328 90.8046C-107.558 76.2477 -13.6991 84.3949 69.4356 99.5089C152.57 114.623 229.569 136.446 313.883 150.139C398.197 163.831 494.444 168.765 579.428 150.028C654.543 133.467 710.727 100.961 772.973 73.8413C835.219 46.7216 916.3 23.1749 993.334 31.6216C1045.71 37.3649 1082.99 56.1825 1112.74 78.4511L1118.24 381.12L1095.95 458.337C1092.43 421.091 951.466 311.134 686.828 300.427C578.679 296.051 472.139 316.361 365.041 307.653C279.442 300.693 213.708 264.636 157.961 228.934C102.215 193.234 45.9761 154.346 -34.8455 137.962C-123.9 119.907 -231.82 134.78 -300.573 171.935C-320.606 182.762 -337.204 195.269 -350.234 208.807L-351.252 152.752C-315.959 124.044 -259.189 101.398 -195.328 90.8046Z" fill="#CBD8EF"/>
</g>
<path d="M438.932 308.494H187.36C185.179 308.494 183.413 306.772 183.413 304.648V273.018H445.801V301.802C445.801 305.498 442.726 308.494 438.932 308.494Z" fill="#4D68B5"/>
<path d="M163.373 246.259V264.763C163.373 267.587 164.937 270.193 167.465 271.575L206.193 292.767C207.391 293.423 208.743 293.767 210.119 293.767H392.11L453.93 276.531L488.446 277.034V248.473L163.373 246.259Z" fill="white"/>
<path d="M484.897 237.874H166.922C164.962 237.874 163.373 239.423 163.373 241.333V251.931H488.446V241.333C488.446 239.423 486.857 237.874 484.897 237.874Z" fill="#5E76CC"/>
<path d="M476.598 237.874H199.95V237.372C199.95 233.644 203.052 230.622 206.877 230.622H471.59C474.356 230.622 476.599 232.807 476.599 235.503V237.874H476.598Z" fill="#AFE3CF"/>
<path d="M205.188 337.582C211.642 334.995 214.722 327.799 212.067 321.509C209.413 315.22 202.029 312.219 195.575 314.806C189.12 317.393 186.041 324.589 188.695 330.878C191.35 337.167 198.734 340.169 205.188 337.582Z" fill="#090D33"/>
<path d="M200.393 333.714C204.657 333.714 208.113 330.346 208.113 326.191C208.113 322.036 204.657 318.668 200.393 318.668C196.13 318.668 192.674 322.036 192.674 326.191C192.674 330.346 196.13 333.714 200.393 333.714Z" fill="#4D68B5"/>
<path d="M202.153 327.572H199.006C198.358 327.572 197.831 327.059 197.831 326.428V305.288C197.831 304.656 198.358 304.143 199.006 304.143H202.153C202.801 304.143 203.326 304.656 203.326 305.288V326.428C203.328 327.059 202.801 327.572 202.153 327.572Z" fill="#4D68B5"/>
<path d="M430.247 334.913C435.181 330.104 435.181 322.307 430.247 317.498C425.312 312.689 417.311 312.689 412.377 317.498C407.442 322.307 407.442 330.104 412.377 334.913C417.311 339.721 425.312 339.721 430.247 334.913Z" fill="#090D33"/>
<path d="M429.036 326.205C429.036 330.359 425.58 333.728 421.317 333.728C417.054 333.728 413.597 330.359 413.597 326.205C413.597 322.051 417.054 318.682 421.317 318.682C425.58 318.682 429.036 322.051 429.036 326.205Z" fill="#4D68B5"/>
<path d="M423.076 328.241H419.93C419.281 328.241 418.756 327.728 418.756 327.097V305.957C418.756 305.325 419.282 304.812 419.93 304.812H423.076C423.725 304.812 424.251 305.325 424.251 305.957V327.097C424.25 327.729 423.725 328.241 423.076 328.241Z" fill="#4D68B5"/>
<path d="M436.863 159.716C436.382 159.716 435.991 160.058 435.991 160.478V197.718C435.991 198.739 436.841 199.566 437.888 199.566H518.145C519.193 199.566 520.043 198.739 520.043 197.718V160.478C520.043 160.058 519.652 159.716 519.172 159.716H436.863Z" fill="white"/>
<path d="M520.043 165.792H435.991V160.521C435.991 160.077 436.361 159.716 436.817 159.716H519.167C519.65 159.716 520.043 160.098 520.043 160.57V165.792Z" fill="#0A0E4D"/>
<path d="M514.453 162.693C514.453 163.307 514.964 163.804 515.593 163.804C516.223 163.804 516.734 163.307 516.734 162.693C516.734 162.078 516.223 161.581 515.593 161.581C514.964 161.581 514.453 162.078 514.453 162.693Z" fill="white"/>
<path d="M510.633 162.693C510.633 163.307 511.143 163.804 511.774 163.804C512.403 163.804 512.914 163.307 512.914 162.693C512.914 162.078 512.403 161.581 511.774 161.581C511.143 161.581 510.633 162.078 510.633 162.693Z" fill="white"/>
<path d="M507.954 163.804C508.584 163.804 509.095 163.307 509.095 162.693C509.095 162.078 508.584 161.581 507.954 161.581C507.324 161.581 506.813 162.078 506.813 162.693C506.813 163.307 507.324 163.804 507.954 163.804Z" fill="white"/>
<path d="M449.026 175.986H443.817C443.576 175.986 443.38 175.796 443.38 175.561V170.484C443.38 170.25 443.576 170.059 443.817 170.059H449.026C449.267 170.059 449.463 170.25 449.463 170.484V175.561C449.463 175.796 449.267 175.986 449.026 175.986Z" fill="#95A4FC"/>
<path d="M449.026 184.176H443.817C443.576 184.176 443.38 183.985 443.38 183.75V178.673C443.38 178.439 443.576 178.248 443.817 178.248H449.026C449.267 178.248 449.463 178.439 449.463 178.673V183.75C449.463 183.985 449.267 184.176 449.026 184.176Z" fill="#95A4FC"/>
<path d="M449.026 192.366H443.817C443.576 192.366 443.38 192.176 443.38 191.941V186.864C443.38 186.629 443.576 186.439 443.817 186.439H449.026C449.267 186.439 449.463 186.629 449.463 186.864V191.941C449.463 192.176 449.267 192.366 449.026 192.366Z" fill="#95A4FC"/>
<path d="M511.774 172.56H453.228V173.426H511.774V172.56Z" fill="#95A4FC"/>
<path d="M511.774 180.779H453.228V181.646H511.774V180.779Z" fill="#95A4FC"/>
<path d="M511.774 188.968H453.228V189.835H511.774V188.968Z" fill="#95A4FC"/>
<path d="M514.852 186.849C514.32 186.849 513.81 186.642 513.434 186.272L507.39 180.321C506.616 179.558 506.623 178.329 507.404 177.574C508.186 176.82 509.448 176.827 510.223 177.588L514.801 182.097L527.014 169.205C527.76 168.417 529.022 168.367 529.83 169.096C530.638 169.823 530.689 171.052 529.942 171.84L516.314 186.224C515.946 186.614 515.429 186.84 514.884 186.849C514.874 186.849 514.863 186.849 514.852 186.849Z" fill="#5E76CC"/>
<path d="M324.843 163.034H212.848C209.394 163.034 206.594 160.305 206.594 156.939V79.5503C206.594 76.1843 209.394 73.4554 212.848 73.4554H324.843C328.297 73.4554 331.097 76.1843 331.097 79.5503V156.939C331.097 160.305 328.297 163.034 324.843 163.034Z" fill="#0A0E4D"/>
<mask id="mask1_17_623" style="mask-type:luminance" maskUnits="userSpaceOnUse" x="206" y="73" width="126" height="91">
<path d="M331.097 73.4554H206.595V163.034H331.097V73.4554Z" fill="white"/>
</mask>
<g mask="url(#mask1_17_623)">
<path d="M280.482 71.5656L278.736 95.9449C278.736 95.9449 279.318 115.221 258.083 124.859C258.083 124.859 236.558 138.278 226.861 141.49C226.861 141.49 220.074 143.002 218.716 143.191C218.716 143.191 212.219 143.474 215.806 147.821C215.806 147.821 218.522 151.318 227.054 150.75C227.054 150.75 243.538 152.954 251.877 150.813C251.877 150.813 276.506 148.589 291.051 151.748C291.051 151.748 315.486 152.073 308.505 133.552C308.505 133.552 303.85 118.056 304.82 107.283C304.82 107.283 309.862 76.4787 308.893 71.5656H280.482Z" fill="#95A4FC"/>
<path d="M289.208 71.5656V100.197C289.208 100.197 283.099 105.299 285.717 109.551C285.717 109.551 289.498 116.071 295.316 112.953C295.316 112.953 304.043 109.126 299.389 101.33L298.226 100.48L298.516 71.5656H289.208Z" fill="#FEFEFC"/>
<path d="M300.563 118.786C299.945 116.517 297.761 115.11 295.684 115.647C294.875 115.857 294.203 116.331 293.719 116.965L293.718 116.962C290.7 118.809 288.983 115.605 288.983 115.605L288.98 115.607C288.557 113.757 287.031 112.387 285.209 112.387C283.06 112.387 281.319 114.29 281.319 116.638C281.319 118.038 281.942 119.277 282.896 120.051C277.136 125.433 283.779 130.906 283.779 130.906C286.348 133.748 287.967 132.519 288.678 131.593C288.934 131.259 289.095 130.868 289.207 130.465C290.607 125.434 297.418 123.967 297.893 123.871C297.902 123.868 297.911 123.868 297.92 123.865C299.996 123.331 301.18 121.055 300.563 118.786Z" fill="#FEFEFC"/>
<path d="M283.541 133.816C284.962 134.571 286.853 134.98 287.404 136.464C287.734 137.352 287.411 138.387 286.757 139.084C286.103 139.78 285.166 140.173 284.217 140.362C282.396 140.725 280.509 140.401 278.693 140.013C277.615 139.783 276.525 139.523 275.561 138.997C273.934 138.109 272.805 136.518 272.158 134.815C271.51 133.111 271.299 131.283 271.142 129.473C271.015 128.026 270.936 126.491 271.622 125.202C272.361 123.816 274.019 122.927 275.607 123.139C278.262 123.495 278.568 125.659 279.016 127.691C279.533 130.035 281.368 132.661 283.541 133.816Z" fill="#FEFEFC"/>
<path d="M265.895 129.456C267.009 130.242 267.903 131.282 268.782 132.311C270.514 134.342 272.343 136.692 272.052 139.318C272.018 139.624 271.947 139.945 271.729 140.168C271.539 140.363 271.264 140.456 270.998 140.533C269.165 141.075 267.232 141.297 265.32 141.185C264.884 141.16 264.439 141.116 264.04 140.943C262.852 140.43 262.447 139.03 261.876 137.893C260.611 135.372 258.035 133.658 256.906 131.043C256.778 130.746 256.695 130.429 256.674 130.108C256.407 126.113 264.131 128.213 265.895 129.456Z" fill="#FEFEFC"/>
<path d="M249.809 137.025C250.566 135.747 250.932 134.031 252.333 133.474C253.569 132.981 254.959 133.701 255.97 134.55C257.736 136.031 259.069 137.996 259.778 140.16C259.916 140.581 260.031 141.041 259.881 141.458C259.747 141.833 259.42 142.111 259.08 142.329C258.007 143.022 256.66 143.303 255.389 143.098C254.153 142.899 252.96 142.263 251.721 142.438C249.879 142.698 248.834 144.553 247.488 145.807C245.653 147.518 242.304 148.711 240.222 146.879C238.857 145.677 237.898 143.556 238.237 141.754C238.655 139.527 240.563 139.035 242.616 139.353C245.43 139.787 248.169 139.793 249.809 137.025Z" fill="#FEFEFC"/>
<path d="M234.104 143.506C234.577 143.399 235.095 143.297 235.529 143.511C235.941 143.714 236.166 144.149 236.348 144.562C236.697 145.354 236.989 146.17 237.221 147.002C237.299 147.284 237.362 147.613 237.177 147.843C237.079 147.963 236.928 148.032 236.782 148.09C234.68 148.926 232.298 148.659 230.068 148.236C228.707 147.978 225.882 146.507 227.932 145.123C229.529 144.042 232.252 143.922 234.104 143.506Z" fill="#FEFEFC"/>
<path d="M219.275 145.592C218.629 145.865 218.117 146.615 218.419 147.236C218.716 147.848 219.549 147.95 220.244 147.969C221.551 148.005 222.858 148.041 224.165 148.075C224.496 148.084 224.857 148.084 225.12 147.888C225.44 147.65 225.502 147.209 225.517 146.817C225.528 146.539 225.525 146.25 225.41 145.995C225.133 145.373 224.333 145.18 223.64 145.114C222.315 144.984 220.52 145.065 219.275 145.592Z" fill="#FEFEFC"/>
<path d="M290.403 131.942C291.371 130.49 292.276 128.548 294.052 128.464C295.376 128.402 296.438 129.474 297.263 130.486C298.469 131.962 299.597 133.499 300.641 135.088C301.901 137.008 303.067 139.092 303.223 141.367C303.38 143.641 302.265 146.142 300.092 146.987C298.839 147.474 297.441 147.363 296.094 147.444C293.915 147.577 291.66 148.23 289.604 147.516C287.821 146.898 286.544 145.362 284.884 144.475C283.738 143.862 282.434 143.574 281.275 142.984C280.116 142.394 279.048 141.357 279.014 140.082C278.941 137.258 282.358 136.941 284.361 136.229C286.75 135.381 288.996 134.052 290.403 131.942Z" fill="#FEFEFC"/>
</g>
<path d="M265.283 95.9348H215.005C214.698 95.9348 214.449 95.6924 214.449 95.3928V94.4257C214.449 94.1262 214.698 93.8837 215.005 93.8837H265.283C265.591 93.8837 265.839 94.1262 265.839 94.4257V95.3928C265.839 95.6924 265.591 95.9348 265.283 95.9348Z" fill="#FEFEFC"/>
<path d="M265.283 90.453H215.005C214.698 90.453 214.449 90.2106 214.449 89.911V88.9439C214.449 88.6443 214.698 88.4019 215.005 88.4019H265.283C265.591 88.4019 265.839 88.6443 265.839 88.9439V89.911C265.839 90.2106 265.591 90.453 265.283 90.453Z" fill="#FEFEFC"/>
<path d="M265.283 85.437H215.005C214.698 85.437 214.449 85.1946 214.449 84.895V83.9279C214.449 83.6284 214.698 83.3859 215.005 83.3859H265.283C265.591 83.3859 265.839 83.6284 265.839 83.9279V84.895C265.839 85.1933 265.591 85.437 265.283 85.437Z" fill="#FEFEFC"/>
<path d="M291.094 117.555C291.094 120.857 288.347 123.535 284.958 123.535C281.569 123.535 278.821 120.859 278.821 117.555C278.821 114.252 281.568 111.576 284.958 111.576C288.347 111.574 291.094 114.252 291.094 117.555Z" fill="#5D8ADB"/>
<path d="M288.661 117.555C288.661 119.548 287.003 121.163 284.958 121.163C282.913 121.163 281.255 119.548 281.255 117.555C281.255 115.562 282.913 113.946 284.958 113.946C287.003 113.945 288.661 115.562 288.661 117.555Z" fill="#3E69C7"/>
<path d="M343.492 157.955V77.7061C343.492 75.2311 345.551 73.2245 348.091 73.2245H406.483C409.023 73.2245 411.082 75.2311 411.082 77.7061V157.955C411.082 160.43 409.023 162.436 406.483 162.436H348.09C345.55 162.436 343.492 160.43 343.492 157.955Z" fill="#0A0E4D"/>
<mask id="mask2_17_623" style="mask-type:luminance" maskUnits="userSpaceOnUse" x="343" y="73" width="69" height="90">
<path d="M343.492 157.955V77.7061C343.492 75.2311 345.551 73.2245 348.091 73.2245H406.483C409.023 73.2245 411.082 75.2311 411.082 77.7061V157.955C411.082 160.43 409.023 162.436 406.483 162.436H348.09C345.55 162.436 343.492 160.43 343.492 157.955Z" fill="white"/>
</mask>
<g mask="url(#mask2_17_623)">
<path d="M369.099 70.8688L367.29 115.431C367.29 115.431 367.873 134.707 346.636 144.346C346.636 144.346 325.111 157.764 315.414 160.977C315.414 160.977 308.627 162.488 307.269 162.677C307.269 162.677 300.772 162.96 304.36 167.307C304.36 167.307 307.075 170.804 315.608 170.237C315.608 170.237 332.092 172.44 340.432 170.299C340.432 170.299 365.061 168.075 379.605 171.234C379.605 171.234 404.04 171.559 397.059 153.039C397.059 153.039 392.404 137.543 393.374 126.77C393.374 126.77 398.374 75.782 397.404 70.8688H369.099Z" fill="#95A4FC"/>
<path d="M377.763 70.8688V119.683C377.763 119.683 371.655 124.786 374.273 129.038C374.273 129.038 378.055 135.558 383.872 132.439C383.872 132.439 392.598 128.612 387.944 120.817L386.781 119.966L389.312 70.8688H377.763Z" fill="#FEFEFC"/>
<path d="M389.117 138.271C388.499 136.002 386.315 134.596 384.238 135.132C383.429 135.342 382.757 135.817 382.274 136.45L382.272 136.446C379.255 138.293 377.537 135.089 377.537 135.089L377.534 135.091C377.112 133.241 375.586 131.871 373.763 131.871C371.614 131.871 369.873 133.774 369.873 136.122C369.873 137.522 370.496 138.761 371.45 139.535C365.69 144.917 372.333 150.39 372.333 150.39C374.903 153.232 376.521 152.003 377.232 151.077C377.488 150.743 377.647 150.352 377.761 149.949C379.161 144.918 385.973 143.451 386.447 143.355C386.456 143.352 386.465 143.352 386.474 143.349C388.551 142.816 389.734 140.542 389.117 138.271Z" fill="#FEFEFC"/>
<path d="M372.095 153.303C373.516 154.059 375.407 154.467 375.958 155.95C376.288 156.839 375.965 157.873 375.311 158.57C374.656 159.267 373.721 159.659 372.771 159.849C370.95 160.212 369.063 159.889 367.247 159.5C366.169 159.269 365.079 159.01 364.115 158.485C362.488 157.597 361.359 156.007 360.712 154.303C360.064 152.6 359.853 150.771 359.696 148.961C359.57 147.514 359.49 145.979 360.176 144.69C360.915 143.304 362.573 142.414 364.161 142.627C366.816 142.983 367.122 145.147 367.57 147.179C368.088 149.522 369.924 152.146 372.095 153.303Z" fill="#FEFEFC"/>
<path d="M354.45 148.943C355.563 149.727 356.457 150.768 357.336 151.797C359.068 153.828 360.897 156.179 360.606 158.805C360.572 159.111 360.501 159.432 360.283 159.654C360.093 159.849 359.818 159.942 359.553 160.02C357.719 160.561 355.786 160.784 353.874 160.672C353.438 160.647 352.994 160.602 352.594 160.43C351.406 159.917 351.001 158.517 350.429 157.38C349.164 154.859 346.589 153.144 345.46 150.529C345.331 150.232 345.249 149.915 345.228 149.594C344.961 145.599 352.686 147.699 354.45 148.943Z" fill="#FEFEFC"/>
<path d="M338.363 156.511C339.12 155.233 339.486 153.517 340.887 152.96C342.123 152.468 343.513 153.187 344.524 154.036C346.29 155.518 347.624 157.482 348.332 159.646C348.47 160.068 348.585 160.527 348.435 160.945C348.301 161.319 347.974 161.597 347.634 161.816C346.561 162.509 345.214 162.789 343.943 162.585C342.708 162.387 341.514 161.75 340.275 161.925C338.434 162.185 337.388 164.039 336.042 165.293C334.207 167.004 330.859 168.197 328.776 166.366C327.411 165.164 326.452 163.043 326.791 161.241C327.209 159.013 329.117 158.522 331.17 158.838C333.984 159.272 336.723 159.28 338.363 156.511Z" fill="#FEFEFC"/>
<path d="M378.958 151.428C379.925 149.976 380.831 148.033 382.606 147.95C383.93 147.888 384.992 148.961 385.818 149.972C387.024 151.448 388.152 152.985 389.195 154.575C390.456 156.495 391.621 158.579 391.778 160.853C391.934 163.128 390.819 165.628 388.646 166.474C387.394 166.961 385.995 166.848 384.648 166.931C382.469 167.064 380.216 167.716 378.158 167.003C376.375 166.385 375.098 164.849 373.438 163.962C372.292 163.349 370.988 163.059 369.829 162.469C368.67 161.879 367.602 160.842 367.568 159.568C367.495 156.744 370.912 156.426 372.916 155.714C375.306 154.868 377.551 153.539 378.958 151.428Z" fill="#FEFEFC"/>
</g>
<path d="M383.899 119.683C383.899 122.986 381.152 125.664 377.763 125.664C374.374 125.664 371.628 122.987 371.628 119.683C371.628 116.381 374.374 113.704 377.763 113.704C381.152 113.703 383.899 116.381 383.899 119.683Z" fill="#5D8ADB"/>
<path d="M377.763 123.292C379.808 123.292 381.466 121.676 381.466 119.683C381.466 117.69 379.808 116.075 377.763 116.075C375.718 116.075 374.061 117.69 374.061 119.683C374.061 121.676 375.718 123.292 377.763 123.292Z" fill="#3E69C7"/>
<path d="M164.554 130.539C164.554 130.539 169.3 128.376 166.857 125.099C166.857 125.099 170.86 116.796 162.999 113.93C162.999 113.93 154.425 101.379 143.345 109.758C143.345 109.758 137.479 107.887 136.813 115.17C136.813 115.17 131.822 116.487 133.719 121.148C133.719 121.148 131.561 129.26 136.612 131.582" fill="#0A0E4D"/>
<path d="M134.649 128.115C134.649 128.115 136.248 144.888 150.66 144.88C150.66 144.88 165.294 146.378 164.62 126.318L134.649 128.115Z" fill="#0A0E4D"/>
<path d="M167.417 194.395C169.215 189.095 175.549 169.423 174.281 158.659C173.998 156.263 172.41 154.237 170.118 153.709C168.103 153.244 165.591 153.831 163.598 158.034C159.942 165.748 159.231 181.142 157.003 191.904C156.455 194.54 157.572 197.228 159.885 198.353C161.424 199.102 163.401 199.126 165.688 197.063C166.486 196.345 167.07 195.413 167.417 194.395Z" fill="#E4AE9D"/>
<path d="M174.36 176.603C174.36 176.603 175.548 169.423 174.279 158.659C173.997 156.263 172.409 154.237 170.117 153.709C168.102 153.244 165.589 153.831 163.597 158.034C159.941 165.748 160.826 163.996 158.597 174.759L174.36 176.603Z" fill="#60A998"/>
<path d="M189.205 174.994C188.415 174.075 187.108 173.755 185.966 174.199L155.427 186.525C152.426 187.691 151.212 190.495 152.574 193.351C153.891 196.111 156.653 197.409 159.477 196.104C165.643 193.253 176.839 187.726 188.739 179C190.041 178.043 190.254 176.211 189.205 174.994Z" fill="#E4AE9D"/>
<path d="M187.011 173.166L187.701 169.257L188.219 165.859C188.219 165.859 190.229 165.541 190.17 168.52C190.133 170.456 189.902 172.28 190.81 171.999C191.435 171.806 186.671 176.644 187.011 173.166Z" fill="#E4AE9D"/>
<path d="M190.315 172.48L190.393 172.603C190.819 173.27 191.602 173.508 192.134 173.131L199.508 167.313C200.039 166.936 200.435 166.448 200.009 165.781L199.931 165.659C199.505 164.991 198.954 165.235 198.423 165.612L190.509 170.581C189.976 170.958 189.889 171.812 190.315 172.48Z" fill="#E4AE9D"/>
<path d="M192.239 173.27L192.306 173.397C192.678 174.09 193.458 174.416 194.043 174.119L202.193 169.449C202.777 169.152 203.231 168.734 202.861 168.04L202.794 167.913C202.422 167.22 201.834 167.385 201.249 167.682L192.627 171.471C192.042 171.768 191.868 172.577 192.239 173.27Z" fill="#E4AE9D"/>
<path d="M191.39 174.856L191.429 174.983C191.643 175.673 192.335 176.084 192.965 175.898L201.866 172.799C202.495 172.613 203.025 172.294 202.809 171.605L202.77 171.478C202.554 170.788 201.947 170.855 201.317 171.042L192.142 173.263C191.512 173.448 191.173 174.165 191.39 174.856Z" fill="#E4AE9D"/>
<path d="M190.043 177.559L190.077 177.667C190.26 178.255 190.849 178.605 191.386 178.446L198.967 175.806C199.504 175.648 199.954 175.376 199.771 174.788L199.737 174.68C199.553 174.093 199.035 174.149 198.5 174.309L190.685 176.201C190.148 176.361 189.859 176.971 190.043 177.559Z" fill="#E4AE9D"/>
<path d="M188.006 171.149C187.467 171.745 186.599 172.92 185.895 173.905C185.377 174.633 185.199 175.507 185.153 175.819C185.153 175.819 185.151 175.821 185.151 175.827C185.135 175.857 185.12 175.887 185.109 175.919C184.906 176.447 184.94 177.036 185.215 177.541C185.741 178.505 186.715 179.778 188.127 179.629C188.714 179.566 189.311 179.366 189.899 179.076L190.799 178.845C191.332 178.708 191.838 178.478 192.296 178.177L195.48 177.035C195.48 177.035 195.477 176.541 195.447 175.804C195.392 174.429 195.237 172.209 194.819 170.8C194.51 169.752 194.057 169.15 193.389 169.672C193.236 169.79 193.083 169.895 192.925 169.983C191.008 171.095 188.963 170.091 188.006 171.149Z" fill="#E4AE9D"/>
<path d="M159.45 330.006H167.297V318.892C167.297 317.859 166.439 317.022 165.379 317.022H161.368C160.309 317.022 159.45 317.859 159.45 318.892V330.006Z" fill="#E4AE9D"/>
<path d="M163.102 271.405C158.908 271.821 155.171 268.642 154.709 264.264L150.92 228.396C150.322 222.728 154.348 217.678 159.788 217.271C165.352 216.854 170.086 221.462 170.086 227.293V263.379C170.084 267.537 167.061 271.012 163.102 271.405Z" fill="#599B89"/>
<path d="M161.906 257.489C157.662 257.764 154.434 261.585 154.697 266.022L157.953 324.46H168.968L170.083 265.693C170.178 260.986 166.404 257.197 161.906 257.489Z" fill="#599B89"/>
<path d="M141.829 329.983H133.982V318.869C133.982 317.837 134.84 316.999 135.9 316.999H139.911C140.97 316.999 141.829 317.837 141.829 318.869V329.983Z" fill="#E4AE9D"/>
<path d="M138.176 271.48C142.37 271.896 146.106 268.716 146.569 264.339L150.357 228.47C150.957 222.805 146.929 217.753 141.49 217.346C135.926 216.929 131.193 221.537 131.193 227.367V263.454C131.193 267.611 134.218 271.086 138.176 271.48Z" fill="#599B89"/>
<path d="M145.64 282.616C145.645 282.749 145.645 282.877 145.631 283.005L145.749 280.945L145.64 282.616Z" fill="#4D4B4A"/>
<path d="M139.371 257.562C143.616 257.838 146.843 261.658 146.58 266.095L143.324 324.535H132.311L131.196 265.767C131.1 261.059 134.875 257.271 139.371 257.562Z" fill="#599B89"/>
<path d="M134.94 235.374L143.606 237.304C148.191 238.326 152.996 238.326 157.582 237.304L166.35 235.351C168.55 234.861 170.112 233.145 170.171 231.152L170.623 213.717H131.118V231.058C131.118 233.095 132.692 234.872 134.94 235.374Z" fill="#599B89"/>
<path d="M146.455 138.741L146.642 153.32L155.471 153.093L155.119 138.568L146.455 138.741Z" fill="#E4AE9D"/>
<path d="M146.497 141.999L155.351 148.129L155.179 139.733L146.497 141.999Z" fill="#D09384"/>
<path d="M129.791 166.458L131.195 200.155C131.398 202.772 130.447 217.933 130.447 217.933L171.594 217.319C171.543 214.585 171.065 204.439 171.139 202.926L169.817 165.477C171.117 161.932 170.149 155.09 169.79 153.648L162.098 151.144C160.678 150.437 158.926 149.819 157.004 149.333C149.201 147.355 140.917 147.972 133.762 151.585L127.896 153.648C123.943 155.421 125.394 165.962 129.791 166.458Z" fill="#60A998"/>
<path d="M183.805 338.015L158.481 337.994C158.293 337.66 158.19 337.186 158.149 336.623C157.992 334.535 158.638 327.779 158.638 327.564C158.64 325.85 159.378 326.148 159.378 326.148C164.064 328.669 167.445 325.244 168.184 326.131C168.184 326.131 168.64 326.642 170.648 328.407C172.657 330.171 176.075 331.338 178.985 332.527C182.741 334.06 183.807 335.591 184.014 336.644C184.178 337.48 183.805 338.015 183.805 338.015Z" fill="#090D33"/>
<path d="M183.805 338.015L158.481 337.994C158.293 337.66 158.19 337.186 158.149 336.623L184.014 336.644C184.178 337.48 183.805 338.015 183.805 338.015Z" fill="#090D33"/>
<path d="M169.925 327.766L168.295 329.218C167.964 329.513 167.959 330.02 168.283 330.321C168.577 330.594 169.037 330.599 169.337 330.334L171.103 328.776L169.925 327.766Z" fill="white"/>
<path d="M171.728 329.219L170.325 330.948C170.046 331.291 170.126 331.792 170.496 332.038C170.831 332.262 171.285 332.194 171.538 331.886L173.068 330L171.728 329.219Z" fill="white"/>
<path d="M173.831 330.382L172.434 332.103C172.155 332.446 172.235 332.947 172.604 333.195C172.939 333.418 173.394 333.351 173.646 333.042L175.237 331.014L173.831 330.382Z" fill="white"/>
<path d="M132.389 336.549C132.389 336.604 132.39 336.657 132.392 336.709C132.397 336.953 132.407 337.172 132.419 337.36C132.445 337.774 132.475 338.028 132.475 338.028H146.56C146.56 338.028 146.63 337.497 146.575 336.709C146.483 335.307 145.764 333.353 144.06 331.628C142.192 329.736 142.058 329.117 142.058 329.117C142.058 329.117 141.876 327.473 141.825 327.365C141.368 326.416 140.407 325.965 137.884 325.965C134.537 325.965 134.242 327.548 133.886 328.382C133.738 328.727 133.536 329.454 133.329 330.319C133.245 330.665 133.16 331.036 133.078 331.413C132.872 332.358 132.679 333.346 132.548 334.134C132.409 334.979 132.379 335.849 132.389 336.549Z" fill="#090D33"/>
<path d="M132.392 336.71C132.41 337.492 132.475 338.029 132.475 338.029H146.56C146.56 338.029 146.63 337.499 146.575 336.71H132.392Z" fill="#090D33"/>
<path d="M136.697 329.884C136.73 329.882 136.763 329.873 136.795 329.857C138.501 328.973 139.991 329.497 140.007 329.502C140.226 329.582 140.428 329.363 140.458 329.014C140.488 328.665 140.337 328.317 140.118 328.238C140.049 328.213 138.398 327.634 136.496 328.618C136.291 328.723 136.192 329.086 136.274 329.429C136.345 329.717 136.522 329.898 136.697 329.884Z" fill="white"/>
<path d="M137.429 331.739C137.462 331.737 137.496 331.73 137.528 331.713C139.269 330.895 140.738 331.472 140.752 331.479C140.967 331.566 141.178 331.354 141.222 331.006C141.266 330.659 141.128 330.306 140.912 330.218C140.844 330.19 139.218 329.551 137.278 330.463C137.07 330.561 136.957 330.92 137.026 331.265C137.084 331.559 137.254 331.746 137.429 331.739Z" fill="white"/>
<path d="M138.336 333.696C138.369 333.695 138.402 333.687 138.435 333.672C140.183 332.87 141.645 333.462 141.66 333.469C141.875 333.559 142.087 333.349 142.134 333.002C142.182 332.654 142.047 332.3 141.833 332.211C141.765 332.183 140.146 331.527 138.197 332.42C137.987 332.517 137.87 332.875 137.936 333.22C137.992 333.512 138.159 333.701 138.336 333.696Z" fill="white"/>
<path d="M158.692 149.807C158.692 149.807 154.917 147.726 151.073 147.379C148.234 147.123 142.741 148.744 140.919 149.025C140.919 149.025 148.09 157.923 152.215 158.357C152.215 158.357 158.711 154.621 158.692 149.807Z" fill="#E4AE9D"/>
<path d="M140.096 130.49C140.702 132.299 141.104 134.931 138.585 135.526C136.828 135.941 135.067 133.537 134.459 131.728C133.852 129.92 134.499 128.466 136.248 128.021C137.997 127.578 139.489 128.681 140.096 130.49Z" fill="#E4AE9D"/>
<path d="M135.734 130.471C135.734 130.471 137.815 130.478 138.173 133.282" stroke="#CE826E" stroke-width="0.2513" stroke-miterlimit="10" stroke-linecap="round" stroke-linejoin="round"/>
<path d="M159.082 130.306C158.335 132.067 158.487 134.872 160.199 135.446C161.91 136.018 163.865 133.721 164.613 131.959C165.36 130.198 164.828 128.7 163.115 128.126C161.403 127.553 159.83 128.544 159.082 130.306Z" fill="#D09384"/>
<path d="M150.331 112.041C143.732 112.228 138.052 117.367 138.234 123.502L138.833 130.855C138.833 130.855 139.28 141.292 149.543 144.181C150.68 144.501 151.91 144.466 153.027 144.083C163.102 140.619 162.929 130.176 162.929 130.176L163.09 122.802C162.908 116.665 156.931 111.856 150.331 112.041Z" fill="#E4AE9D"/>
<path d="M147.763 128.162C147.72 129.154 147.19 129.937 146.58 129.913C145.971 129.888 145.511 129.063 145.554 128.072C145.597 127.079 146.126 126.295 146.737 126.32C147.348 126.344 147.806 127.169 147.763 128.162Z" fill="#090A21"/>
<path d="M158.657 128.444C158.614 129.436 158.084 130.219 157.474 130.195C156.864 130.171 156.405 129.345 156.448 128.353C156.491 127.361 157.019 126.577 157.63 126.602C158.241 126.626 158.7 127.451 158.657 128.444Z" fill="#090A21"/>
<path d="M154.401 136.672C154.202 137.271 153.792 137.803 153.248 138.2C152.704 138.599 151.969 138.816 151.251 138.743C150.533 138.66 149.908 138.327 149.399 137.918C149.155 137.701 148.935 137.464 148.731 137.224C148.554 136.959 148.378 136.697 148.237 136.418C148.525 136.574 148.775 136.748 149.025 136.919L149.79 137.371C150.312 137.623 150.82 137.831 151.341 137.893C151.86 137.942 152.38 137.847 152.898 137.628C153.409 137.398 153.905 137.068 154.401 136.672Z" fill="#CE826E"/>
<path d="M154.616 125.238C154.556 125.142 154.778 124.867 155.268 124.595C155.753 124.326 156.521 124.084 157.391 124.094C158.263 124.105 159.021 124.338 159.519 124.668C159.766 124.835 159.93 125.029 159.999 125.185C160.07 125.342 160.059 125.444 160.01 125.474C159.899 125.531 159.676 125.33 159.235 125.203C158.797 125.073 158.112 124.952 157.381 124.946C155.902 124.918 154.748 125.442 154.616 125.238Z" fill="#0A0E4D"/>
<path d="M144.112 125.182C144.052 125.086 144.279 124.814 144.773 124.548C145.262 124.287 146.033 124.055 146.903 124.076C147.776 124.1 148.53 124.341 149.024 124.679C149.269 124.849 149.43 125.047 149.497 125.203C149.566 125.359 149.554 125.463 149.503 125.491C149.391 125.547 149.171 125.344 148.733 125.21C148.297 125.073 147.615 124.943 146.884 124.927C145.402 124.88 144.24 125.389 144.112 125.182Z" fill="#0A0E4D"/>
<path opacity="0.37" d="M147.776 132.315C147.756 133.202 146.791 133.9 145.622 133.875C144.452 133.849 143.52 133.111 143.541 132.223C143.56 131.336 144.525 130.638 145.695 130.663C146.864 130.689 147.797 131.428 147.776 132.315Z" fill="#CE826E"/>
<path opacity="0.37" d="M160.052 132.369C160.031 133.256 159.067 133.955 157.896 133.929C156.726 133.904 155.794 133.164 155.815 132.278C155.836 131.391 156.799 130.693 157.97 130.718C159.14 130.743 160.071 131.482 160.052 132.369Z" fill="#CE826E"/>
<path d="M151.716 129.374C151.867 129.904 151.949 130.389 152.099 130.818C152.239 131.254 152.422 131.576 152.708 131.755C152.781 131.803 152.869 131.84 152.962 131.878C153.033 131.9 153.257 131.934 153.378 132.173C153.472 132.41 153.39 132.541 153.357 132.627C153.177 132.954 152.971 133.1 152.76 133.281C152.341 133.616 151.893 133.892 151.414 134.122C151.743 133.715 152.086 133.326 152.393 132.935C152.469 132.838 152.542 132.739 152.603 132.641C152.665 132.548 152.725 132.443 152.738 132.385C152.753 132.357 152.71 132.352 152.747 132.471C152.809 132.591 152.891 132.584 152.837 132.585C152.677 132.571 152.509 132.547 152.35 132.478C152.026 132.357 151.751 132.1 151.591 131.821C151.423 131.542 151.351 131.243 151.325 130.959C151.291 130.388 151.405 129.845 151.716 129.374Z" fill="#CE826E"/>
<path d="M115.504 191.345C116.198 185.804 119.086 165.379 124.948 156.172C126.253 154.123 128.577 152.951 130.88 153.427C132.905 153.845 134.92 155.42 134.882 160.051C134.81 168.547 128.711 182.765 126.015 193.424C125.355 196.036 123.169 198.002 120.584 198.058C118.865 198.095 117.065 197.295 115.899 194.479C115.492 193.495 115.371 192.41 115.504 191.345Z" fill="#E4AE9D"/>
<path d="M117.016 172.367C117.016 172.367 119.086 165.379 124.948 156.171C126.253 154.121 128.577 152.95 130.88 153.426C132.905 153.843 134.92 155.419 134.882 160.05C134.81 168.546 134.776 166.594 132.079 177.254L117.016 172.367Z" fill="#60A998"/>
<path d="M138.682 128.365C138.682 128.365 139.93 127.339 140.919 120.975C140.919 120.975 152.744 119.79 155.813 117.834C155.813 117.834 158.655 121.745 163.614 125.502L164.942 118.513L156.84 112.647L150.658 111.18L143.538 112.809L136.953 119.653L138.682 128.365Z" fill="#0A0E4D"/>
<path opacity="0.37" d="M246.47 148.581C248.233 136.934 239.973 126.101 228.022 124.383C216.072 122.666 204.955 130.714 203.192 142.361C201.43 154.007 209.689 164.84 221.64 166.558C233.591 168.276 244.708 160.227 246.47 148.581Z" fill="#B0DCF7"/>
<path d="M200.574 157.971L188.774 165.812L188.778 165.817C189.05 166.013 189.293 166.245 189.494 166.51L194.095 172.52C194.298 172.784 194.458 173.076 194.573 173.386L194.577 173.391L205.651 164.601C203.617 162.661 201.904 160.423 200.574 157.971Z" fill="#0A0E4D"/>
<path d="M251.441 138.917C248.714 128.433 239.775 120.582 228.792 119.026C221.584 117.967 214.242 119.763 208.399 124.01C202.557 128.257 198.7 134.604 197.687 141.639C196.089 152.342 201.266 162.929 210.801 168.462C220.338 173.998 232.354 173.39 241.251 166.922C250.148 160.455 254.168 149.402 251.441 138.917ZM245.209 148.376C243.573 159.337 233.129 166.93 221.881 165.335C210.633 163.741 202.841 153.563 204.476 142.602C206.112 131.641 216.557 124.047 227.804 125.642C239.054 127.235 246.845 137.413 245.209 148.376Z" fill="#5C7DC4"/>
<path d="M147.288 202.267L146.881 201.737C144.67 198.847 145.282 194.756 148.248 192.601L186.348 164.917C187.843 163.831 189.958 164.132 191.073 165.589L195.452 171.311C196.567 172.768 196.258 174.829 194.763 175.915L156.663 203.599C153.696 205.754 149.499 205.157 147.288 202.267Z" fill="#0A0E4D"/>
<path d="M185.517 182.617L177.103 171.62L156.494 186.593L164.908 197.59L185.517 182.617Z" fill="#5C7DC4"/>
<path d="M153.749 188.232L156.036 184.951L157.951 182.066C157.951 182.066 159.915 182.586 158.599 185.273C157.742 187.022 156.76 188.59 157.706 188.699C158.354 188.775 151.965 191.262 153.749 188.232Z" fill="#E4AE9D"/>
<path d="M157.048 188.938L157.068 189.081C157.172 189.86 157.785 190.392 158.429 190.263L167.61 187.934C168.254 187.804 168.821 187.52 168.717 186.741L168.697 186.597C168.593 185.818 167.989 185.818 167.344 185.947L158.03 187.284C157.385 187.415 156.944 188.158 157.048 188.938Z" fill="#E4AE9D"/>
<path d="M158.465 190.433L158.473 190.576C158.516 191.357 159.09 191.967 159.747 191.933L169.149 190.962C169.807 190.928 170.398 190.73 170.355 189.949L170.347 189.806C170.304 189.025 169.696 188.939 169.04 188.973L159.581 188.95C158.924 188.985 158.422 189.652 158.465 190.433Z" fill="#E4AE9D"/>
<path d="M157.019 191.533L157.001 191.664C156.905 192.379 157.359 193.032 158.012 193.116L167.43 193.879C168.082 193.963 168.7 193.886 168.796 193.172L168.814 193.041C168.911 192.326 168.329 192.141 167.676 192.057L158.382 190.385C157.729 190.302 157.116 190.819 157.019 191.533Z" fill="#E4AE9D"/>
<path d="M154.646 193.454L154.631 193.565C154.549 194.174 154.937 194.73 155.492 194.801L163.515 195.451C164.071 195.522 164.596 195.458 164.678 194.848L164.693 194.737C164.775 194.128 164.281 193.97 163.724 193.899L155.806 192.474C155.251 192.405 154.728 192.844 154.646 193.454Z" fill="#E4AE9D"/>
<path d="M155.51 186.796C154.766 187.121 153.478 187.842 152.418 188.455C151.638 188.91 151.105 189.633 150.931 189.9C150.931 189.9 150.927 189.901 150.925 189.906C150.898 189.928 150.871 189.949 150.848 189.973C150.44 190.372 150.221 190.921 150.257 191.493C150.327 192.582 150.674 194.134 152.023 194.567C152.586 194.746 153.212 194.804 153.873 194.776L154.79 194.928C155.333 195.017 155.892 195.012 156.436 194.923L159.82 195.166C159.82 195.166 160.025 194.714 160.312 194.031C160.845 192.758 161.646 190.673 161.863 189.222C162.027 188.143 161.87 187.412 161.04 187.618C160.851 187.665 160.666 187.698 160.485 187.714C158.266 187.957 156.831 186.219 155.51 186.796Z" fill="#E4AE9D"/>
<path d="M154.692 190.826C154.335 189.735 153.3 188.988 152.124 188.977L120.526 189.066C117.438 189.035 115.319 191.085 115.46 194.092C115.595 197 117.666 198.891 120.649 198.736C127.164 198.397 139.011 197.705 152.787 194.201C154.295 193.818 155.165 192.274 154.692 190.826Z" fill="#E4AE9D"/>
<path d="M515.171 338.029H85.4921V340.537H515.171V338.029Z" fill="#768AE2"/>
<path d="M740.431 129.284C746.122 129.284 750.735 124.788 750.735 119.243C750.735 113.698 746.122 109.202 740.431 109.202C734.741 109.202 730.128 113.698 730.128 119.243C730.128 124.788 734.741 129.284 740.431 129.284Z" fill="#4D68B5"/>
<path d="M745.954 116.892H742.844V113.861C742.844 113.479 742.526 113.168 742.134 113.168H738.729C738.337 113.168 738.019 113.478 738.019 113.861V116.892H734.909C734.517 116.892 734.199 117.202 734.199 117.584V120.902C734.199 121.284 734.517 121.594 734.909 121.594H738.019V124.625C738.019 125.007 738.337 125.316 738.729 125.316H742.134C742.526 125.316 742.844 125.007 742.844 124.625V121.594H745.954C746.346 121.594 746.664 121.284 746.664 120.902V117.584C746.664 117.202 746.346 116.892 745.954 116.892Z" fill="white"/>
<path d="M139.155 52.9536H79.9476C78.6321 52.9536 77.5654 53.9931 77.5654 55.275V87.252C77.5654 88.5339 78.6321 89.5721 79.9476 89.5721H130.993L139.782 96.7598C140.477 97.3284 141.536 96.8461 141.536 95.9627V87.252V82.4771V55.275C141.536 53.9931 140.471 52.9536 139.155 52.9536Z" fill="white"/>
<path d="M85.9779 71.7661L98.7053 61.9447C100.473 60.5803 103.041 60.871 104.44 62.5946C105.84 64.3169 105.541 66.8199 103.773 68.183L91.0457 78.0043C89.2782 79.3687 86.7098 79.0768 85.311 77.3545C83.9122 75.6321 84.2105 73.1292 85.9779 71.7661Z" fill="#95A4FC"/>
<mask id="mask3_17_623" style="mask-type:luminance" maskUnits="userSpaceOnUse" x="90" y="56" width="21" height="19">
<path d="M98.6615 74.6407L110.41 65.5749L102.718 56.108L90.9691 65.1738L98.6615 74.6407Z" fill="white"/>
</mask>
<g mask="url(#mask3_17_623)">
<path d="M85.9779 71.7661L98.7053 61.9447C100.473 60.5803 103.041 60.871 104.44 62.5946C105.84 64.3169 105.541 66.8199 103.773 68.183L91.0457 78.0043C89.2782 79.3687 86.7098 79.0768 85.311 77.3545C83.9122 75.6321 84.2105 73.1292 85.9779 71.7661Z" fill="#3E69C7"/>
</g>
<path d="M129.572 72.2732C130.339 67.1487 126.698 62.3888 121.439 61.6415C116.181 60.8942 111.296 64.4425 110.53 69.567C109.763 74.6914 113.404 79.4514 118.662 80.1987C123.921 80.946 128.805 77.3976 129.572 72.2732Z" fill="#BECCED"/>
<path d="M124.757 76.6285L114.196 66.3376C113.944 66.0914 113.944 65.6916 114.196 65.4441L114.44 65.2067C114.693 64.9605 115.103 64.9605 115.356 65.2067L125.916 75.4976C126.168 75.7439 126.168 76.1437 125.916 76.3899L125.672 76.6272C125.42 76.8747 125.009 76.8747 124.757 76.6285Z" fill="white"/>
<path d="M143.301 71.973C142.667 71.973 142.06 71.7268 141.613 71.2863L134.408 64.1913C133.484 63.2826 133.493 61.8166 134.426 60.918C135.359 60.0194 136.863 60.0257 137.785 60.9358L143.242 66.3084L157.801 50.9418C158.69 50.0026 160.193 49.9442 161.157 50.8111C162.121 51.678 162.181 53.1427 161.291 54.0819L145.046 71.2292C144.606 71.6938 143.99 71.9628 143.343 71.973C143.328 71.973 143.314 71.973 143.301 71.973Z" fill="#5E76CC"/>
<mask id="mask4_17_623" style="mask-type:luminance" maskUnits="userSpaceOnUse" x="0" y="0" width="1068" height="396">
<path d="M1068 0H0V396H1068V0Z" fill="white"/>
</mask>
<g mask="url(#mask4_17_623)">
<path d="M563.237 86.4727H656.039C660.882 86.4727 664.809 82.646 664.809 77.9257V31.4858C664.809 26.7655 668.736 22.9388 673.58 22.9388H741.966C746.809 22.9388 750.736 19.1121 750.736 14.3918V-12.9081" stroke="#3D4F9B" stroke-width="0.9348" stroke-miterlimit="10" stroke-linecap="round" stroke-linejoin="round" stroke-dasharray="7.41 7.41"/>
</g>
<path d="M576.754 72.8272L561.747 66.1028C560.525 65.5557 559.12 65.5557 557.898 66.1028L542.892 72.8272C541.262 73.557 540.218 75.1384 540.21 76.8849C540.188 81.4135 540.455 90.3616 542.613 97.0238C545.228 105.096 559.599 110.19 559.823 110.122C560.046 110.188 574.417 105.096 577.034 97.0238C579.192 90.3629 579.459 81.4135 579.437 76.8849C579.428 75.1372 578.383 73.557 576.754 72.8272Z" fill="#0A0E4D"/>
<path d="M568.84 83.0089H564.459C563.753 83.0089 563.18 82.4505 563.18 81.7625V77.4928C563.18 76.8049 562.607 76.2465 561.901 76.2465H557.353C556.647 76.2465 556.074 76.8049 556.074 77.4928V81.7625C556.074 82.4505 555.501 83.0089 554.795 83.0089H550.413C549.707 83.0089 549.134 83.5674 549.134 84.2553V88.6875C549.134 89.3754 549.707 89.9338 550.413 89.9338H554.795C555.501 89.9338 556.074 90.4923 556.074 91.1802V95.4499C556.074 96.1378 556.647 96.6963 557.353 96.6963H561.901C562.607 96.6963 563.18 96.1378 563.18 95.4499V91.1815C563.18 90.4936 563.753 89.9351 564.459 89.9351H568.84C569.546 89.9351 570.119 89.3766 570.119 88.6887V84.2566C570.119 83.5674 569.546 83.0089 568.84 83.0089Z" fill="white"/>
<mask id="mask5_17_623" style="mask-type:luminance" maskUnits="userSpaceOnUse" x="0" y="0" width="1068" height="396">
<path d="M1068 0H0V396H1068V0Z" fill="white"/>
</mask>
<g mask="url(#mask5_17_623)">
<path d="M897.168 330.928H975.76C979.792 330.928 983.061 333.831 983.061 337.411V351.196C983.061 354.777 986.331 357.679 990.363 357.679H1094.72" stroke="#3D4F9B" stroke-width="0.9792" stroke-miterlimit="10" stroke-linecap="round" stroke-linejoin="round" stroke-dasharray="7.77 7.77"/>
</g>
<path d="M901.645 324.407C901.425 319.553 897.449 315.524 892.475 315.196C887.386 314.859 883.051 318.288 882.111 322.906C881.212 318.497 877.223 315.173 872.434 315.173C866.984 315.173 862.566 319.478 862.566 324.789C862.566 327.633 864.14 329.996 865.85 331.948L880.644 346.169C881.353 346.85 882.491 346.855 883.206 346.18L897.692 332.492C899.938 330.239 901.797 327.748 901.645 324.407Z" fill="#0A0E4D"/>
<mask id="mask6_17_623" style="mask-type:luminance" maskUnits="userSpaceOnUse" x="862" y="315" width="40" height="32">
<path d="M901.645 324.407C901.425 319.553 897.449 315.524 892.475 315.196C887.386 314.859 883.051 318.288 882.111 322.906C881.212 318.497 877.223 315.173 872.434 315.173C866.984 315.173 862.566 319.478 862.566 324.789C862.566 327.633 864.14 329.996 865.85 331.948L880.644 346.169C881.353 346.85 882.491 346.855 883.206 346.18L897.692 332.492C899.938 330.239 901.797 327.748 901.645 324.407Z" fill="white"/>
</mask>
<g mask="url(#mask6_17_623)">
<path d="M864.67 332.756L873.478 332.822C873.625 332.822 873.754 332.729 873.8 332.593L876.032 325.787C876.135 325.473 876.597 325.487 876.681 325.807L879.626 337.151C879.714 337.494 880.218 337.477 880.285 337.131L881.932 328.487C882 328.133 882.517 328.127 882.594 328.478L883.907 334.43C883.982 334.772 884.481 334.777 884.564 334.437L886.674 325.89C886.755 325.563 887.229 325.551 887.327 325.875L889.481 333.012C889.523 333.149 889.65 333.245 889.798 333.248L897.808 333.41" stroke="#D9E5FC" stroke-width="0.6651" stroke-miterlimit="10"/>
</g>
<mask id="mask7_17_623" style="mask-type:luminance" maskUnits="userSpaceOnUse" x="0" y="0" width="1068" height="396">
<path d="M1068 0H0V396H1068V0Z" fill="white"/>
</mask>
<g mask="url(#mask7_17_623)">
<path d="M-20.6202 254.799H33.5013C37.3266 254.799 40.4264 251.777 40.4264 248.051V230.89C40.4264 227.162 43.5275 224.141 47.3514 224.141H94.8201" stroke="#3D4F9B" stroke-width="0.9348" stroke-miterlimit="10" stroke-linecap="round" stroke-linejoin="round" stroke-dasharray="7.41 7.41"/>
</g>
<path d="M907.75 69.135H906.551C904.322 69.135 902.516 67.3746 902.516 65.2029V64.034C902.516 63.5796 902.167 63.1722 901.701 63.148C901.204 63.1227 900.793 63.5072 900.793 63.9857V65.2029C900.793 67.3746 898.986 69.135 896.758 69.135H895.557C895.091 69.135 894.673 69.4752 894.648 69.9295C894.622 70.4131 895.016 70.8142 895.509 70.8142H896.758C898.986 70.8142 900.793 72.5746 900.793 74.7463V75.9152C900.793 76.3696 901.142 76.777 901.608 76.8012C902.104 76.8265 902.516 76.442 902.516 75.9635V74.7463C902.516 72.5746 904.322 70.8142 906.551 70.8142H907.8C908.291 70.8142 908.686 70.4144 908.661 69.9295C908.635 69.4752 908.217 69.135 907.75 69.135Z" fill="#5E76CC"/>
<path d="M1027.77 160.74H1026.57C1024.34 160.74 1022.53 158.98 1022.53 156.808V155.639C1022.53 155.185 1022.18 154.778 1021.72 154.754C1021.22 154.728 1020.81 155.113 1020.81 155.591V156.808C1020.81 158.98 1019 160.74 1016.77 160.74H1015.57C1015.11 160.74 1014.69 161.081 1014.66 161.535C1014.64 162.019 1015.03 162.42 1015.52 162.42H1016.77C1019 162.42 1020.81 164.18 1020.81 166.352V167.521C1020.81 167.975 1021.16 168.383 1021.62 168.407C1022.12 168.432 1022.53 168.047 1022.53 167.569V166.352C1022.53 164.18 1024.34 162.42 1026.57 162.42H1027.82C1028.31 162.42 1028.7 162.02 1028.68 161.535C1028.65 161.081 1028.23 160.74 1027.77 160.74Z" fill="#5E76CC"/>
<path d="M555.231 257.92H554.031C551.803 257.92 549.995 256.16 549.995 253.988V252.819C549.995 252.365 549.646 251.958 549.18 251.933C548.682 251.908 548.272 252.293 548.272 252.771V253.988C548.272 256.16 546.466 257.92 544.237 257.92H543.038C542.571 257.92 542.153 258.261 542.128 258.715C542.102 259.199 542.497 259.6 542.988 259.6H544.237C546.466 259.6 548.272 261.36 548.272 263.532V264.701C548.272 265.155 548.621 265.562 549.087 265.587C549.584 265.612 549.995 265.227 549.995 264.749V263.532C549.995 261.36 551.802 259.6 554.031 259.6H555.28C555.772 259.6 556.167 259.199 556.141 258.715C556.115 258.261 555.697 257.92 555.231 257.92Z" fill="#5E76CC"/>
<path d="M716.119 337.19H714.919C712.691 337.19 710.884 335.43 710.884 333.258V332.089C710.884 331.635 710.535 331.227 710.069 331.203C709.571 331.178 709.161 331.562 709.161 332.041V333.258C709.161 335.43 707.355 337.19 705.126 337.19H703.927C703.46 337.19 703.042 337.53 703.018 337.985C702.992 338.468 703.386 338.869 703.877 338.869H705.126C707.355 338.869 709.161 340.63 709.161 342.801V343.97C709.161 344.425 709.51 344.832 709.976 344.856C710.474 344.882 710.884 344.497 710.884 344.019V342.801C710.884 340.63 712.691 338.869 714.919 338.869H716.168C716.659 338.869 717.054 338.47 717.028 337.985C717.003 337.53 716.585 337.19 716.119 337.19Z" fill="#5E76CC"/>
<path d="M468.68 61.8649H467.48C465.252 61.8649 463.444 60.1044 463.444 57.9328V56.7638C463.444 56.3094 463.095 55.902 462.629 55.8779C462.131 55.8525 461.721 56.2371 461.721 56.7169V57.934C461.721 60.1057 459.915 61.8661 457.686 61.8661H456.487C456.02 61.8661 455.602 62.2063 455.577 62.6607C455.551 63.1442 455.946 63.5453 456.437 63.5453H457.686C459.915 63.5453 461.721 65.3057 461.721 67.4774V68.6464C461.721 69.1007 462.07 69.5082 462.536 69.5323C463.034 69.5577 463.444 69.1731 463.444 68.6946V67.4774C463.444 65.3057 465.251 63.5453 467.48 63.5453H468.729C469.22 63.5453 469.615 63.1442 469.589 62.6607C469.564 62.205 469.146 61.8649 468.68 61.8649Z" fill="#5E76CC"/>
<path d="M76.6563 143.092H75.4568C73.2283 143.092 71.4218 141.331 71.4218 139.158V137.99C71.4218 137.535 71.0728 137.128 70.6065 137.104C70.1103 137.078 69.6987 137.463 69.6987 137.941V139.158C69.6987 141.33 67.8922 143.092 65.6638 143.092H64.4642C63.9979 143.092 63.5799 143.432 63.5551 143.886C63.5291 144.37 63.9237 144.771 64.4147 144.771H65.6638C67.8922 144.771 69.6987 146.531 69.6987 148.703V149.872C69.6987 150.326 70.0478 150.734 70.514 150.758C71.0116 150.783 71.4218 150.399 71.4218 149.92V148.703C71.4218 146.531 73.2283 144.771 75.4568 144.771H76.7058C77.1969 144.771 77.5928 144.371 77.5654 143.886C77.5407 143.432 77.1226 143.092 76.6563 143.092Z" fill="#5E76CC"/>
</g>
<defs>
<clipPath id="clip0_17_623">
<rect width="1068" height="396" fill="white"/>
</clipPath>
</defs>
</svg>
