<?xml version="1.0" encoding="utf-8"?>
<!-- Generator: Adobe Illustrator 16.0.0, SVG Export Plug-In . SVG Version: 6.00 Build 0)  -->
<!DOCTYPE svg PUBLIC "-//W3C//DTD SVG 1.1//EN" "http://www.w3.org/Graphics/SVG/1.1/DTD/svg11.dtd">
<svg version="1.1"
	 id="svg2" sodipodi:docname="Redgum Logo__Medical Group.eps" xmlns:dc="http://purl.org/dc/elements/1.1/" xmlns:cc="http://creativecommons.org/ns#" xmlns:rdf="http://www.w3.org/1999/02/22-rdf-syntax-ns#" xmlns:svg="http://www.w3.org/2000/svg" xmlns:sodipodi="http://sodipodi.sourceforge.net/DTD/sodipodi-0.dtd" xmlns:inkscape="http://www.inkscape.org/namespaces/inkscape"
	 xmlns="http://www.w3.org/2000/svg" xmlns:xlink="http://www.w3.org/1999/xlink" x="0px" y="0px" width="659.373px"
	 height="264.707px" viewBox="0 0 659.373 264.707" enable-background="new 0 0 659.373 264.707" xml:space="preserve">
<sodipodi:namedview  inkscape:pageopacity="0" inkscape:window-height="480" inkscape:window-width="640" inkscape:pageshadow="2" guidetolerance="10" gridtolerance="10" pagecolor="#ffffff" borderopacity="1" bordercolor="#666666" objecttolerance="10" id="namedview4">
	</sodipodi:namedview>
<g id="g12" transform="scale(0.1)">
	<path id="path14" fill="#231F20" d="M3182.949,1294.714c0-3.662,2.754-6.431,6.421-6.431h217.925
		c114.922,0,209.629,82.759,209.629,196.772c0,102.051-72.627,180.215-167.344,197.676l143.428,239.971
		c1.855,2.754,1.855,5.518-0.908,7.354l-8.271,4.6c-2.754,0.928-4.609-0.908-5.527-2.764l-146.191-246.396
		c-8.271,0.918-15.625,0.918-23.896,0.918h-209.629v239.043c0,3.691-2.764,6.436-5.527,6.436h-3.687
		c-3.667,0-6.421-2.744-6.421-6.436V1294.714z M3408.213,1670.788c105.742,0,193.066-79.082,193.066-185.732
		c0-104.834-87.324-180.22-193.984-180.22h-208.711v365.952H3408.213"/>
	<path id="path16" fill="#231F20" d="M3940.566,1924.538c57.93,0,104.805-22.988,125.049-39.531
		c3.672-2.754,6.436-0.918,7.344,0.918l3.682,5.527c1.836,2.754,0,4.58-1.846,6.416c-22.979,17.48-72.627,43.232-134.229,43.232
		c-112.178,0-181.123-86.436-181.123-194.941c0-106.641,68.945-191.24,181.123-191.24c97.451,0,167.334,68.965,167.334,168.271
		c0,6.436-0.928,22.969-3.691,27.578c-0.908,1.836-3.672,3.662-5.498,3.662h-321.816
		C3779.648,1850.066,3840.342,1924.538,3940.566,1924.538 M4090.429,1738.816c0.928-5.518,0.928-11.953,0.928-15.625
		c0-90.127-64.375-151.729-150.791-151.729c-100.225,0-159.99,73.564-163.672,167.354H4090.429"/>
	<path id="path18" fill="#231F20" d="M4438.867,1554.919c79.063,0,132.412,52.402,132.412,52.402v-312.607
		c0-3.672,2.764-6.431,6.436-6.431h3.672c2.754,0,5.518,2.759,5.518,6.431v630.752c0,3.682-2.764,6.426-5.518,6.426h-3.672
		c-3.672,0-6.436-2.744-6.436-6.426v-44.131c-22.061,24.824-65.293,59.766-137.93,59.766c-96.533,0-175.596-85.508-175.596-194.014
		C4257.753,1636.745,4331.298,1554.919,4438.867,1554.919 M4433.349,1924.538c92.871,0,134.248-62.51,137.93-68.945v-224.346
		c0,0-49.658-59.766-132.412-59.766c-98.389,0-165.498,74.473-165.498,175.605
		C4273.369,1846.384,4346.015,1924.538,4433.349,1924.538"/>
	<path id="path20" fill="#231F20" d="M4816.757,1795.818c-19.326-25.732-27.607-58.848-27.607-92.861
		c0-80.928,58.848-148.037,152.656-148.037h28.477h0.938h131.475c3.672,0,6.436,2.764,6.436,6.445v3.682
		c0,3.662-2.764,6.416-6.436,6.416h-83.662c34.932,18.398,73.545,51.504,73.545,131.494c0,80-58.838,148.965-150.771,148.965
		c-52.432,0-90.117-17.49-114.014-43.223c-13.799,6.436-53.35,28.506-53.35,77.227c0,39.531,30.352,62.52,60.713,62.52h169.16
		c79.98,0,134.238,34.033,134.238,117.686c0,79.082-72.646,150.791-185.723,150.791c-125.967,0-182.061-81.826-182.061-145.273
		c0-53.32,33.096-89.17,62.52-107.578c-36.777-0.898-75.381-30.322-75.381-78.145
		C4757.91,1832.605,4796.513,1805.935,4816.757,1795.818 M4952.832,2200.388c104.805,0,169.18-63.457,169.18-134.258
		c0-72.637-46.895-102.061-117.695-102.061H4873.75c-17.471,1.865-86.416,35.869-86.416,107.578
		C4787.333,2127.751,4836.982,2200.388,4952.832,2200.388 M5076.035,1702.956c0-124.131-106.67-131.494-106.67-131.494h-27.559
		c-84.6,0-136.074,59.775-136.074,131.494c0,68.955,38.594,132.402,136.074,132.402
		C5024.541,1835.359,5076.035,1773.747,5076.035,1702.956"/>
	<path id="path22" fill="#231F20" d="M5276.455,1570.554c0-3.672,2.764-6.436,6.426-6.436h3.691c3.662,0,6.416,2.764,6.416,6.436
		v201.357c0,100.215,47.813,152.627,136.084,152.627c82.754,0,128.721-67.119,134.248-75.4v-278.584
		c0-3.672,2.764-6.436,6.426-6.436h3.691c3.672,0,6.426,2.764,6.426,6.436v354.902c0,3.691-2.754,6.436-6.426,6.436h-3.691
		c-3.662,0-6.426-2.744-6.426-6.436v-48.721c-21.162,25.742-66.201,64.365-134.248,64.365c-99.307,0-152.617-57.939-152.617-169.189
		V1570.554"/>
	<path id="path24" fill="#231F20" d="M5788.564,1570.554c0-3.672,2.754-6.436,6.426-6.436h3.672c3.682,0,6.426,2.764,6.426,6.436
		v50.566c20.234-26.66,62.51-66.201,135.166-66.201c57.93,0,101.152,25.752,123.223,73.555
		c17.461-24.834,60.693-73.555,137.92-73.555c94.688,0,145.264,59.766,145.264,171.025v199.512c0,3.691-2.764,6.436-6.426,6.436
		h-3.672c-3.701,0-6.465-2.744-6.465-6.436v-199.512c0-100.225-45.059-154.482-128.701-154.482
		c-79.072,0-120.459,57.012-130.566,73.564c7.354,22.998,11.953,49.658,11.953,80.918v199.512c0,3.691-2.773,6.436-6.455,6.436
		h-3.662c-3.691,0-6.455-2.744-6.455-6.436v-199.512c0-100.225-45.039-154.482-125.957-154.482
		c-83.652,0-125.967,60.693-135.166,75.41v278.584c0,3.691-2.744,6.436-6.426,6.436h-3.672c-3.672,0-6.426-2.744-6.426-6.436
		V1570.554"/>
	<path id="path26" fill="#231F20" d="M3222.934,2334.792c0.298-1.211,1.504-2.109,2.71-2.109h3.32c1.504,0,2.407,0.605,3.018,2.109
		l62.129,185.195h0.601l62.437-185.195c0.615-1.504,1.504-2.109,3.018-2.109h3.311c1.211,0,2.412,0.898,2.734,2.109l42.822,208.125
		c0.596,3.008-0.605,3.916-3.32,3.916h-7.236c-1.807,0-3.33-1.504-3.613-3.311l-34.092-176.758h-0.605l-60.938,180.674
		c-0.591,1.797-2.412,2.412-4.209,2.412h-1.206c-1.514,0-3.325-0.303-3.916-2.412l-60.933-180.674h-0.605l-34.092,176.758
		c-0.303,1.807-1.792,3.311-3.608,3.311h-7.246c-2.715,0-3.906-0.908-3.315-3.916L3222.934,2334.792"/>
	<path id="path28" fill="#231F20" d="M3519.326,2339.616c0-2.1,1.807-3.926,3.906-3.926h120.957c2.1,0,3.926,1.826,3.926,3.926
		v5.137c0,2.119-1.826,3.916-3.926,3.916h-110.391v83.252h95.596c2.119,0,3.936,1.807,3.936,3.916v5.127
		c0,2.1-1.816,3.916-3.936,3.916h-95.596v89.287h110.391c2.1,0,3.926,1.797,3.926,3.926v4.824c0,2.1-1.826,3.916-3.926,3.916
		h-120.957c-2.1,0-3.906-1.816-3.906-3.916V2339.616"/>
	<path id="path30" fill="#231F20" d="M3762.949,2339.616c0-2.1,1.816-3.926,3.604-3.926h63.945
		c58.516,0,106.182,47.354,106.182,105.273c0,58.818-47.666,105.869-106.182,105.869h-63.945c-1.787,0-3.604-1.816-3.604-3.916
		V2339.616z M3828.095,2533.865c52.793,0,93.496-40.117,93.496-92.9c0-52.168-40.703-92.295-93.496-92.295h-50.986v185.195H3828.095
		"/>
	<path id="path32" fill="#231F20" d="M4048.789,2339.616c0-2.1,1.826-3.926,3.916-3.926h6.65c2.1,0,3.896,1.826,3.896,3.926v203.301
		c0,2.412-2.1,3.916-4.209,3.916h-6.338c-2.09,0-3.916-1.816-3.916-3.916V2339.616"/>
	<path id="path34" fill="#231F20" d="M4284.619,2332.683c30.752,0,53.682,10.254,73.291,28.047c1.504,1.514,1.807,3.916,0.293,5.439
		l-4.834,5.127c-1.797,1.797-3.301,1.514-5.107-0.313c-17.188-15.371-38.906-24.727-63.643-24.727
		c-52.803,0-94.121,43.135-94.121,95.313c0,51.885,41.318,94.707,94.121,94.707c25.938,0,45.537-10.244,63.643-25.332
		c1.807-1.504,3.604-1.504,4.824-0.605l5.117,5.127c1.514,1.221,1.514,3.613,0,5.137c-20.488,19.893-46.738,29.248-73.584,29.248
		c-60.332,0-109.199-47.666-109.199-108.281C4175.419,2381.247,4224.287,2332.683,4284.619,2332.683"/>
	<path id="path36" fill="#231F20" d="M4440.156,2543.2l92.9-209.912c0.615-1.221,2.119-2.129,3.633-2.129h0.898
		c1.504,0,3.027,0.313,3.926,2.129l91.982,209.912c0.625,1.816,0.625,3.633-2.695,3.633h-7.861c-2.109,0-3.604-1.514-4.219-2.715
		l-24.424-55.508h-115.215l-24.131,55.508c-0.605,1.201-2.119,2.715-4.229,2.715h-8.457
		C4440.156,2546.833,4439.267,2545.622,4440.156,2543.2 M4589.169,2476.853l-51.582-121.563h-0.605l-52.471,121.563H4589.169"/>
	<path id="path38" fill="#231F20" d="M4730.537,2339.616c0-2.1,1.826-3.926,3.916-3.926h6.65c1.787,0,3.604,1.826,3.604,3.926
		v194.551h96.221c3.623,0,3.926,1.797,3.926,3.926v5.43c0,2.1-1.826,3.311-3.926,3.311h-106.475c-2.09,0-3.916-1.816-3.916-3.916
		V2339.616"/>
	<path id="path40" fill="#231F20" d="M5164.179,2332.683c30.459,0,53.369,10.254,72.988,28.047c1.504,1.514,1.797,3.916,0.303,5.439
		c-1.514,1.807-3.33,3.623-4.844,5.127c-1.797,2.09-3.311,1.797-5.127,0c-16.875-15.684-38.896-25.352-63.643-25.352
		c-52.471,0-93.789,42.852-93.789,95.02c0,52.178,41.318,95.02,93.789,95.02c36.826,0,59.727-14.189,62.744-16.602v-56.699h-51.563
		c-3.33,0-3.926-1.221-3.926-3.926v-6.045c0-2.393,0.596-3.604,3.926-3.604h61.807c2.119,0,3.936,1.807,3.936,3.604v69.99
		c0,4.531-1.816,6.045-4.238,7.842c-5.4,3.623-32.861,19.307-72.363,19.307c-60.645,0-109.199-47.666-109.199-108.281
		C5054.98,2381.247,5103.535,2332.683,5164.179,2332.683"/>
	<path id="path42" fill="#231F20" d="M5357.412,2339.616c0-2.1,1.514-3.926,3.926-3.926h74.814
		c36.787,0,67.246,27.754,67.246,64.561c0,30.459-21.123,54.893-49.766,63.027l44.053,78.125c1.484,2.412,0.889,5.43-2.129,5.43
		h-9.346c-2.109,0-3.32-0.908-4.229-2.715l-43.73-79.014c-3.926,0.283-7.246,0.283-11.152,0.283h-55.508v77.529
		c0,2.1-1.816,3.916-4.814,3.916h-5.449c-2.1,0-3.916-1.816-3.916-3.916V2339.616z M5435.537,2452.712
		c28.955,0,53.369-22.617,53.369-52.461c0-28.672-24.414-50.674-53.682-50.674h-63.33v103.135H5435.537"/>
	<path id="path44" fill="#231F20" d="M5710.234,2332.683c60.625,0,108.877,48.564,108.877,108.887
		c0.01,60.615-48.252,108.281-108.877,108.281c-60.322,0-108.584-47.666-108.584-108.281
		C5601.65,2381.247,5649.912,2332.683,5710.234,2332.683 M5710.234,2536.579c52.783,0,95.605-42.227,95.605-95.01
		c0-52.773-42.822-95.625-95.605-95.625c-52.793,0-95.322,42.852-95.322,95.625
		C5614.912,2494.353,5657.441,2536.579,5710.234,2536.579"/>
	<path id="path46" fill="#231F20" d="M5928.798,2339.616c0-2.1,1.826-3.926,3.936-3.926h6.318c2.109,0,3.936,1.826,3.936,3.926
		v128.799c0,38.896,24.424,67.549,64.551,67.549c40.41,0,65.137-28.34,65.137-67.256v-129.092c0-2.412,1.221-3.926,4.229-3.926
		h6.035c2.1,0,3.926,1.826,3.926,3.926v130.303c0,46.133-31.377,79.932-79.326,79.932c-47.656,0-78.74-33.799-78.74-79.932V2339.616
		"/>
	<path id="path48" fill="#231F20" d="M6211.64,2339.616c0-2.1,1.816-3.926,3.916-3.926h64.854c37.393,0,68.174,30.479,68.174,67.568
		c0,37.705-30.781,68.467-67.881,68.467h-54.893v71.191c0,2.1-1.826,3.916-4.834,3.916h-5.42c-2.1,0-3.916-1.816-3.916-3.916
		V2339.616z M6279.785,2457.859c29.58,0,54.609-24.443,54.609-54.902c0-29.57-25.029-53.096-54.912-53.096h-53.672v107.998H6279.785
		"/>
	<path id="path50" fill="#B5D818" d="M1817.632,2152.82c-50.171-76.191-101.362-146.23-153.052-210.791
		c-152.505,8.789-321.074,33.662-498.188,74.004c-628.213,143.105-1054.526,460.986-1054.526,460.986
		s640.268-404.971,1666.963,2.383c307.539,122.012,500.596,63.643,579.648-57.656
		C2223.823,2501.189,2015.044,2452.663,1817.632,2152.82"/>
	<path id="path52" fill="#F1DA26" d="M1960.41,1947.859c-0.659-22.393-0.747-45.557-0.054-69.736
		c2.788-97.324,0.439-189.375-5.728-276.865c-111.743-63.477-237.046-123.936-372.895-179.277
		c-596.675-243.13-1128.227-227.246-1128.227-227.246s636.894,30.015,1211.059,747.295
		C1772.129,1935.818,1871.543,1937.761,1960.41,1947.859"/>
	<path id="path54" fill="#F1DA26" d="M2358.476,2421.745c23.892-14.092,45.493-32.158,64.243-53.623
		c3.042-3.486,5.513-7.051,8.345-10.576c-16.152,11.367-34.067,21.074-53.74,29.121
		C2371.977,2398.796,2365.752,2410.573,2358.476,2421.745"/>
	<path id="path56" fill="#98BC22" d="M2332.529,2401.55c-173.096,42.783-361.284-84.893-372.109-453.691
		c-88.877-10.098-188.281-12.041-295.84-5.83c51.689,64.561,102.881,134.6,153.052,210.791
		c197.412,299.844,406.191,348.369,540.845,268.936c7.29-11.182,13.501-22.939,18.848-35.088
		C2363.208,2392.429,2348.506,2397.605,2332.529,2401.55"/>
	<path id="path58" fill="#F46C28" d="M2263.349,1654.509c42.397-57.012,81.079-113.32,116.46-168.838
		c-53.433-110.244-118.34-225.068-193.491-341.533c-349.336-541.392-793.862-833.266-793.862-833.266
		s498.281,385.371,562.173,1290.385c89.36,50.771,169.902,103.477,239.819,157.148
		C2213.955,1724.948,2236.689,1690.349,2263.349,1654.509"/>
	<path id="path60" fill="#F46C28" d="M2431.064,2357.546c28.74-20.205,52.183-45.361,70.254-75.264
		c-10.649,6.143-21.538,11.309-32.583,15.898C2459.155,2318.435,2446.631,2338.24,2431.064,2357.546"/>
	<path id="path62" fill="#E25F1B" d="M1960.356,1878.122c-0.693,24.18-0.605,47.344,0.054,69.736
		c53.896,6.133,103.862,15.313,149.312,27.588c11.216-64.648,38.228-137.314,84.727-217.031
		c-69.917-53.682-150.459-106.387-239.819-157.158C1960.796,1688.747,1963.144,1780.798,1960.356,1878.122"/>
	<path id="path64" fill="#DF6229" d="M2396.919,2316.316c-3.315,24.561-9.839,48.174-19.595,70.352
		c19.673-8.047,37.573-17.754,53.74-29.121c15.566-19.307,28.091-39.111,37.671-59.365
		C2445.62,2307.741,2421.699,2313.962,2396.919,2316.316"/>
	<path id="path66" fill="#A36320" d="M2267.993,2296.745c-113.325-43.789-186.885-156.465-158.271-321.299
		c-45.449-12.285-95.4-21.455-149.302-27.588c10.84,368.799,199.014,496.475,372.109,453.691
		c15.977-3.945,30.679-9.141,44.795-14.883c9.756-22.178,16.289-45.791,19.609-70.352
		C2356.079,2320.193,2313.081,2314.157,2267.993,2296.745"/>
	<path id="path68" fill="#E83933" d="M2697.099,44.963c0,0,197.324,633.232-317.29,1440.708
		c164.57,339.463,219.258,634.814,121.519,796.621c213.511-123.125,347.578-556.631,368.125-1099.433
		C2893.823,539.021,2697.099,44.963,2697.099,44.963"/>
	<path id="path70" fill="#DB282A" d="M2379.809,1485.671c-35.381,55.508-74.048,111.826-116.46,168.838
		c-26.66,35.84-49.395,70.439-68.901,103.896c237.397,182.285,352.065,375.42,274.287,539.775
		c11.045-4.59,21.934-9.756,32.583-15.898C2599.067,2120.486,2544.365,1825.134,2379.809,1485.671"/>
	<path id="path72" fill="#C82128" d="M2397.978,2308.698c-0.278,2.568-0.713,5.068-1.06,7.617
		c24.78-2.354,48.701-8.574,71.816-18.135c77.778-164.355-36.89-357.48-274.287-539.775
		c-46.499,79.727-73.511,152.393-84.727,217.041C2304.482,2028.083,2416.328,2137.595,2397.978,2308.698"/>
	<path id="path74" fill="#B4242B" d="M2109.721,1975.447c-28.623,164.834,44.932,277.51,158.271,321.299
		c45.073,17.412,88.086,23.447,128.926,19.57c0.347-2.549,0.796-5.049,1.06-7.617
		C2416.338,2137.595,2304.482,2028.083,2109.721,1975.447"/>
	<path id="path76" fill="none" stroke="#231F20" stroke-width="2" stroke-miterlimit="10" d="M3182.27,2136.296H4593.3
		 M5315.771,2136.296h1035.811"/>
</g>
</svg>
