<svg xmlns="http://www.w3.org/2000/svg" width="697.3034" height="671.7049" viewBox="0 0 697.3034 671.7049"><defs><style>.a{isolation:isolate;}.b,.d,.h,.j,.r,.s,.t{fill:none;}.b{stroke:#ffc645;stroke-width:2px;}.b,.h,.j{stroke-miterlimit:10;}.c,.e{fill:#00cba5;}.d,.r{stroke:#4e77f7;}.d,.r,.s,.t{stroke-linecap:round;stroke-linejoin:round;}.d{stroke-width:2.5px;}.e,.i{opacity:0.5;}.f{fill:#fff;}.g{fill:#4e77f7;}.h,.j{stroke:#000;}.h{stroke-width:0.6925px;}.j{stroke-width:0.8963px;}.k{opacity:0.3;}.l{fill:#0c1f72;}.m{fill:#f3a99a;}.n{fill:#e48572;}.o{fill:#ef6c90;}.p{fill:#1b319f;}.q,.s{mix-blend-mode:multiply;}.r,.s,.t{stroke-width:3px;}.s{stroke:#0c1f72;}.t{stroke:#e48572;}.u{fill:#ffc645;}</style></defs><g class="a"><path class="b" d="M214.6661,396.0825H1.618l1.5843-3.1686a10.51,10.51,0,0,1,11.6806-5.56h0a8.0233,8.0233,0,0,0,9.4131-5.4861l.2175-.7114a19.04,19.04,0,0,1,17.1447-13.4429l6.4452-.3606a10.9775,10.9775,0,0,0,7.56-3.6324l4.8308-5.3882A21.7854,21.7854,0,0,1,90.836,356.286l1.2415,1.0568a24.2368,24.2368,0,0,0,24.5854,4.097h0a16.6418,16.6418,0,0,1,20.1221,6.5318l1.1369,1.7813a16.5615,16.5615,0,0,0,18.7464,6.944l.826-.2493a25.944,25.944,0,0,1,25.0067,5.6918h0a47.7186,47.7186,0,0,0,20.71,11.1Z" data-index="0"></path><path class="b" d="M503.2722,425.342H675.8848l-1.2836-2.5673a8.5154,8.5154,0,0,0-9.4636-4.5044h0a6.5005,6.5005,0,0,1-7.6266-4.4448l-.1762-.5764a15.4268,15.4268,0,0,0-13.8908-10.8915l-5.2218-.2922a8.8937,8.8937,0,0,1-6.1254-2.9429l-3.914-4.3656A17.6506,17.6506,0,0,0,603.6,393.0987l-1.0058.8561a19.6364,19.6364,0,0,1-19.9192,3.3194h0a13.4833,13.4833,0,0,0-16.303,5.2922l-.9212,1.4432a13.4182,13.4182,0,0,1-15.1884,5.6261l-.6692-.202a21.02,21.02,0,0,0-20.26,4.6115h0a38.6609,38.6609,0,0,1-16.779,8.9934Z" data-index="1"></path><path class="b" d="M195.9323,281H355.0166l-1.183-2.3661a7.8479,7.8479,0,0,0-8.7219-4.1513h0a5.9912,5.9912,0,0,1-7.0289-4.0965l-.1624-.5312a14.2179,14.2179,0,0,0-12.802-10.038l-4.8127-.2692a8.197,8.197,0,0,1-5.6453-2.7123l-3.6072-4.0234a16.2672,16.2672,0,0,0-22.6562-1.5283l-.9271.7891a18.0978,18.0978,0,0,1-18.358,3.0592h0a12.4264,12.4264,0,0,0-15.0253,4.8774l-.849,1.33a12.3666,12.3666,0,0,1-13.998,5.1851l-.6168-.1861a19.3722,19.3722,0,0,0-18.6727,4.25h0a35.6307,35.6307,0,0,1-15.464,8.2885Z" data-index="2"></path><path class="c" d="M456.7613,424.07c-1.2037,38.3356,28.9625,76.56,71.5545,76.56,28.75,0,58.0457-17.1987,69.75-43.9555,10.742-24.5567,2.4929-64.6588-14.381-84.697-13.629-16.1849-9.37-35.3664-4.2588-55.59,5.0168-19.8509-.437-44.52-19.4738-54.9612-20.7431-11.3765-57.5953-11.4187-71.9045,10.159-10.2012,15.3833-7.9,36.208-5.8729,53.1919,1.6818,14.0929,5.2383,30.6589-4.1176,42.9412C464.4279,385.607,457.6131,396.9406,456.7613,424.07Z" data-index="3"></path><line class="d" x1="529.8081" y1="328.5338" x2="529.8081" y2="587.5596"></line><line class="d" x1="529.8081" y1="396.6809" x2="556.4264" y2="366.8665"></line><line class="d" x1="529.8081" y1="464.828" x2="492.5385" y2="407.7548"></line><path class="c" d="M53.623,468.6985c-1.01,32.1554,24.2933,64.2175,60.0189,64.2175,24.1152,0,48.688-14.426,58.5055-36.8692,9.01-20.5979,2.091-54.2349-12.0626-71.0427-11.4318-13.5757-7.8593-29.6649-3.5723-46.6279,4.2081-16.6507-.3666-37.3432-16.3343-46.1007-17.399-9.5425-48.31-9.5779-60.3125,8.5212C71.3091,353.7,73.24,371.1675,74.94,385.4134c1.4106,11.8209,4.3938,25.7162-3.4539,36.0184C60.0536,436.4366,54.3375,445.943,53.623,468.6985Z" data-index="4" style="opacity: 1;"></path><line class="d" x1="114.8937" y1="388.5643" x2="114.8937" y2="571.7958"></line><line class="d" x1="114.8937" y1="445.7252" x2="137.2207" y2="420.7173"></line><line class="d" x1="114.8937" y1="502.886" x2="83.6324" y2="455.0138"></line><path class="e" d="M458.7392,583.559a47.0227,47.0227,0,0,1,16.0675-28.963c6.4944-5.4763,15.2153-9.1966,23.4724-7.2007s14.7926,11.3467,11.6111,19.2241c9.8233,2.5964,16.8127,13.2006,15.326,23.2517,13.6294-7.4066,32.5586-2.7107,41.1464,10.2075a41.93,41.93,0,0,1,44.1706-5.0425c2.36,1.1695,4.837,2.6124,7.4432,2.2237,2.1344-.3189,3.87-1.8078,5.69-2.9671,11.5146-7.3342,29.411.9868,31.2247,14.5179,0,0,21.1265-.6525,26.6751,16.7859,0,0,27.7736,9.1584,9.5272,44.6084H224.4416c-.06-.35-.075-.7035-.1242-1.0547l-1.5474,1.0547H4.2032c-2.7545-7.5893-3.0413-17.7633-2.0969-25.7814S8.9929,628.3546,17.0526,627.89c-4.53-7.2663-.5906-17.7052,6.8178-22.0009,9.7814-5.6719,18.0215-2.9939,18.0215-2.9939s.7228-5.7778,9.75-7.2216A22.2608,22.2608,0,0,1,67.2,599.011s1.3866-11.8264,14.5327-17.0624,24.833,1.3388,24.833,1.3388c4.1911-12.1383,18.3182-19.8843,30.8057-16.8891-1.6153-7.2145,6.4346-12.6135,13.3578-15.2067,7.7443-2.9006,16.42-5.2155,24.1416-2.26s12.8315,13.397,7.688,19.8718c13.2782-1.3688,25.5791,13.0066,22.1742,25.9141,9.6786-1.6837,20.1086,4.7053,23.0051,14.0926,0,0,4.913-4.8866,14.3057-4.4725a18.7448,18.7448,0,0,1,.1858-2.3225,21.1688,21.1688,0,0,1,17.2166-16.978,20.78,20.78,0,0,1-5.3937-25.4263c5.8458-10.8678,16.6081-15.5154,28.7606-14.7426,11.68.7425,24.0245,10.0811,21.7293,23.1972a28.5772,28.5772,0,0,1,26.4064,20.9716c15.7745-3.3124,33.2439,4.1849,41.71,17.9009,3.6783-3.41,7.546-6.8951,12.3348-8.3831,4.7906-1.4875,10.7748-.3743,13.4319,3.88a21.9409,21.9409,0,0,1,25.5148,3.2065c2.7875-15.1692,19.8861-26.02,34.7985-22.0826" data-index="5"></path><path class="f" d="M472.8688,265.0723a1,1,0,0,0-1-.9639H411.7067a9.0454,9.0454,0,0,1-9.0351-9.0352V27.1538a9.0455,9.0455,0,0,1,9.0351-9.0352H614.2731a9.0455,9.0455,0,0,1,9.0352,9.0352V255.0732a9.0455,9.0455,0,0,1-9.0352,9.0352H505.9587a1.0007,1.0007,0,0,0-.6983.2842l-31.3139,30.5405Z" data-index="6"></path><path class="g" d="M614.2734,19.1189a8.0441,8.0441,0,0,1,8.035,8.0347v227.92a8.044,8.044,0,0,1-8.035,8.0346H505.9585a2,2,0,0,0-1.3963.5684l-29.6978,28.9644-.9963-27.605a2,2,0,0,0-1.9988-1.9278H411.7067a8.044,8.044,0,0,1-8.035-8.0346V27.1536a8.0441,8.0441,0,0,1,8.035-8.0347H614.2734m0-2H411.7067a10.035,10.035,0,0,0-10.035,10.0347v227.92a10.0349,10.0349,0,0,0,10.035,10.0346h60.1626l1.1593,32.1172,32.93-32.1172H614.2734a10.0349,10.0349,0,0,0,10.035-10.0346V27.1536a10.035,10.035,0,0,0-10.035-10.0347Z" data-index="7"></path><path d="M430.69,41.23a5.8415,5.8415,0,0,1,5.4883,3.0642,7.8069,7.8069,0,0,1,.9116,3.8789c0,3.0254-1.3384,5.2364-3.2192,6.2254a6.8558,6.8558,0,0,1-3.1807.7177,5.9085,5.9085,0,0,1-5.5078-3.0644,7.7989,7.7989,0,0,1-.8926-3.8787c0-3.0254,1.3384-5.2558,3.22-6.206A6.8618,6.8618,0,0,1,430.69,41.23Zm0,2.3274a3.6328,3.6328,0,0,0-2.7539,1.1636,4.91,4.91,0,0,0-1.0864,3.4521,4.911,4.911,0,0,0,1.0864,3.4522,3.6332,3.6332,0,0,0,2.7539,1.1636,3.5629,3.5629,0,0,0,2.7344-1.1636,4.8271,4.8271,0,0,0,1.1055-3.4522,4.826,4.826,0,0,0-1.1055-3.4521A3.5625,3.5625,0,0,0,430.69,43.5576Z" data-index="8"></path><path d="M439.4919,45.1868h2.4048v1.5708a3.5751,3.5751,0,0,1,3.0253-1.7261,2.7369,2.7369,0,0,1,3.0059,2.9477v6.982h-2.4048V48.697c0-1.0666-.4653-1.61-1.3965-1.61-1.2412,0-2.23,1.5126-2.23,3.9758v3.8982h-2.4048Z" data-index="9"></path><path d="M450.8346,41.23h2.4048v13.731h-2.4048Z" data-index="10"></path><path d="M455.8762,41.269a1.5634,1.5634,0,1,1,0,2.211A1.5809,1.5809,0,0,1,455.8762,41.269Zm-.0967,3.9178h2.4048v9.7744H455.78Z" data-index="11"></path><path d="M460.6276,45.1868h2.4048v1.5708a3.5751,3.5751,0,0,1,3.0254-1.7261,2.737,2.737,0,0,1,3.0059,2.9477v6.982h-2.4048V48.697c0-1.0666-.4654-1.61-1.3965-1.61-1.2412,0-2.23,1.5126-2.23,3.9758v3.8982h-2.4048Z" data-index="12"></path><path d="M480.465,50.85h-6.73a2.2453,2.2453,0,0,0,2.3081,2.2109,2.6537,2.6537,0,0,0,2.3663-1.5127l1.9389.7176a4.4647,4.4647,0,0,1-4.4409,2.851c-3.355,0-4.6934-2.7153-4.6934-5.0424s1.3384-5.0425,4.6934-5.0425a4.1921,4.1921,0,0,1,3.51,1.6291,5.4407,5.4407,0,0,1,1.0473,3.2Zm-6.6714-1.9006h4.208a2.0281,2.0281,0,0,0-2.0942-1.8618A2.1369,2.1369,0,0,0,473.7936,48.949Z" data-index="13"></path><path d="M495.0646,54.9612l-.9892-3.2H489.77l-.9893,3.2h-2.7148l4.5962-13.5757h2.521L497.78,54.9612Zm-3.1416-10.24-1.4355,4.7126h2.8706Z" data-index="14"></path><path d="M501.7345,54.0691v4.8484H499.33V45.1868h2.4047v1.0083A2.8263,2.8263,0,0,1,504.1,45.0315c2.8706,0,4.4609,1.9587,4.4609,5.0425s-1.59,5.0424-4.4609,5.0424A3.2272,3.2272,0,0,1,501.7345,54.0691ZM506.04,50.074a3.3913,3.3913,0,0,0-.64-2.1917,2.0661,2.0661,0,0,0-3.2578,0,3.4675,3.4675,0,0,0-.6206,2.1917,3.5277,3.5277,0,0,0,.6206,2.2109,2.082,2.082,0,0,0,3.2578-.02A3.39,3.39,0,0,0,506.04,50.074Z" data-index="15"></path><path d="M513.31,54.0691v4.8484H510.905V45.1868H513.31v1.0083a2.8263,2.8263,0,0,1,2.3658-1.1636c2.8706,0,4.4609,1.9587,4.4609,5.0425s-1.59,5.0424-4.4609,5.0424A3.227,3.227,0,0,1,513.31,54.0691Zm4.3052-3.9951a3.3913,3.3913,0,0,0-.64-2.1917,2.0661,2.0661,0,0,0-3.2578,0,3.4675,3.4675,0,0,0-.6206,2.1917,3.5277,3.5277,0,0,0,.6206,2.2109,2.082,2.082,0,0,0,3.2578-.02A3.39,3.39,0,0,0,517.6154,50.074Z" data-index="16"></path><path d="M521.9377,50.074a5.0609,5.0609,0,0,1,1.3384-3.6075,5.3,5.3,0,0,1,7.2529,0,5.5569,5.5569,0,0,1,0,7.2342,5.3526,5.3526,0,0,1-7.2529,0A5.1078,5.1078,0,0,1,521.9377,50.074Zm2.521,0a3.4079,3.4079,0,0,0,.66,2.1333,2.2921,2.2921,0,0,0,3.5684,0,3.4076,3.4076,0,0,0,.6592-2.1333,3.3141,3.3141,0,0,0-.6592-2.114,2.26,2.26,0,0,0-3.5684,0A3.3143,3.3143,0,0,0,524.4587,50.074Z" data-index="17"></path><path d="M533.9982,41.269a1.5634,1.5634,0,1,1,0,2.211A1.581,1.581,0,0,1,533.9982,41.269Zm-.0967,3.9178h2.4048v9.7744h-2.4048Z" data-index="18"></path><path d="M538.7487,45.1868h2.4053v1.5708a3.5751,3.5751,0,0,1,3.0254-1.7261,2.7369,2.7369,0,0,1,3.0058,2.9477v6.982H544.78V48.697c0-1.0666-.4653-1.61-1.3964-1.61-1.2412,0-2.23,1.5126-2.23,3.9758v3.8982h-2.4053Z" data-index="19"></path><path d="M555.6193,54.7673a3.7307,3.7307,0,0,1-1.59.3491,3.2471,3.2471,0,0,1-3.5879-3.6074V47.2424h-1.5127V45.1868h1.5127V42.7429l2.4048-1.5127v3.9566h2.58v2.0556h-2.58V51.47c0,1.1638.4267,1.59,1.28,1.59a1.95,1.95,0,0,0,.9306-.2326Z" data-index="20"></path><path d="M565.8576,54.9612h-2.4048V48.4448c0-.9116-.4077-1.3576-1.2026-1.3576-1.2412,0-2.1138,1.4934-2.1138,4.2861v3.5879h-2.4053V45.1868h2.4053v1.5708a3.3385,3.3385,0,0,1,2.812-1.7261,2.7259,2.7259,0,0,1,2.7344,2.0171,3.3814,3.3814,0,0,1,2.9868-2.0171,2.7276,2.7276,0,0,1,2.9092,3.0061v6.9236H569.174V48.4448c0-.9116-.4077-1.3576-1.2026-1.3576-1.2412,0-2.1138,1.4353-2.1138,4.0727Z" data-index="21"></path><path d="M582.9987,50.85h-6.73a2.245,2.245,0,0,0,2.3081,2.2109,2.6535,2.6535,0,0,0,2.3662-1.5127l1.939.7176a4.4647,4.4647,0,0,1-4.4409,2.851c-3.3555,0-4.6934-2.7153-4.6934-5.0424s1.3379-5.0425,4.6934-5.0425a4.1917,4.1917,0,0,1,3.51,1.6291,5.44,5.44,0,0,1,1.0474,3.2Zm-6.6719-1.9006h4.2085a2.0282,2.0282,0,0,0-2.0942-1.8618A2.1378,2.1378,0,0,0,576.3268,48.949Z" data-index="22"></path><path d="M585.1882,45.1868h2.4047v1.5708a3.5754,3.5754,0,0,1,3.0254-1.7261,2.737,2.737,0,0,1,3.0059,2.9477v6.982h-2.4048V48.697c0-1.0666-.4653-1.61-1.3965-1.61-1.2412,0-2.23,1.5126-2.23,3.9758v3.8982h-2.4047Z" data-index="23"></path><path d="M602.0583,54.7673a3.7311,3.7311,0,0,1-1.59.3491A3.247,3.247,0,0,1,596.88,51.509V47.2424h-1.5127V45.1868H596.88V42.7429l2.4047-1.5127v3.9566h2.58v2.0556h-2.58V51.47c0,1.1638.4268,1.59,1.28,1.59a1.95,1.95,0,0,0,.9307-.2326Z" data-index="24"></path><path d="M478.9216,62.3157h4.9648c2.3853,0,3.8784,1.2605,3.8784,3.6653a2.7181,2.7181,0,0,1-1.3379,2.5019,3.2456,3.2456,0,0,1,2.0362,3.3164c0,2.6182-1.687,4.0921-4.48,4.0921h-5.0615Zm2.521,2.3271v2.948h2.3081c1.0664,0,1.59-.4072,1.59-1.4739s-.5435-1.4741-1.6489-1.4741Zm0,5.2752v3.6462h2.3081c1.4546,0,2.1914-.6013,2.1914-1.8232s-.7368-1.823-2.1914-1.823Z" data-index="25"></path><path d="M490.1091,71.0041a5.0626,5.0626,0,0,1,1.3379-3.6074,5.3,5.3,0,0,1,7.2534,0,5.5572,5.5572,0,0,1,0,7.2342,5.3532,5.3532,0,0,1-7.2534,0A5.11,5.11,0,0,1,490.1091,71.0041Zm2.521,0a3.4077,3.4077,0,0,0,.66,2.1333,2.292,2.292,0,0,0,3.5684,0,3.4074,3.4074,0,0,0,.6592-2.1333,3.3143,3.3143,0,0,0-.6592-2.114,2.26,2.26,0,0,0-3.5684,0A3.3145,3.3145,0,0,0,492.63,71.0041Z" data-index="26"></path><path d="M501.84,71.0041a5.0626,5.0626,0,0,1,1.3379-3.6074,5.3,5.3,0,0,1,7.2534,0,5.5569,5.5569,0,0,1,0,7.2342,5.3532,5.3532,0,0,1-7.2534,0A5.11,5.11,0,0,1,501.84,71.0041Zm2.521,0a3.4077,3.4077,0,0,0,.66,2.1333,2.292,2.292,0,0,0,3.5684,0,3.408,3.408,0,0,0,.6591-2.1333,3.3148,3.3148,0,0,0-.6591-2.114,2.26,2.26,0,0,0-3.5684,0A3.3145,3.3145,0,0,0,504.3605,71.0041Z" data-index="27"></path><path d="M514.0554,62.16h2.4052v7.7964l3.1807-3.84h2.9668l-3.9175,4.4993,4.17,5.2752h-2.9477l-3.4522-4.6158v4.6158h-2.4052Z" data-index="28"></path><path d="M524.2931,62.1992a1.5634,1.5634,0,1,1,0,2.2109A1.5809,1.5809,0,0,1,524.2931,62.1992Zm-.0966,3.9177h2.4047v9.7745h-2.4047Z" data-index="29"></path><path d="M529.0436,66.1169h2.4053v1.5708a3.5753,3.5753,0,0,1,3.0254-1.726,2.737,2.737,0,0,1,3.0059,2.9477v6.982h-2.4048V69.6272c0-1.0667-.4654-1.61-1.3965-1.61-1.2412,0-2.23,1.5127-2.23,3.9759v3.8982h-2.4053Z" data-index="30"></path><path d="M541.4147,66.8733a3.7253,3.7253,0,0,1,2.56-.9116,3.86,3.86,0,0,1,1.8037.4267l1.8423-.97.9507,1.59-1.3965.698a3.1234,3.1234,0,0,1,.3877,1.5515,3.0384,3.0384,0,0,1-1.0279,2.3855,3.7951,3.7951,0,0,1-2.56.8728,4.9043,4.9043,0,0,1-1.4155-.2133.8178.8178,0,0,0-.4659.737c0,.4849.3106.7175.9117.7175h1.9975c2.0947,0,3.4326,1.0279,3.4326,2.87a2.8651,2.8651,0,0,1-.6787,1.92,4.648,4.648,0,0,1-3.7622,1.4546,5.6081,5.6081,0,0,1-3.2-.834,2.7307,2.7307,0,0,1-1.2217-2.3855,2.5417,2.5417,0,0,1,.7955-1.9394,2.33,2.33,0,0,1-.5044-1.5127,2.2866,2.2866,0,0,1,1.2021-2.0557,3.13,3.13,0,0,1-.6787-2.0171A3.0386,3.0386,0,0,1,541.4147,66.8733Zm1.7261,8.9016a6.2584,6.2584,0,0,1-1.1245-.0774,1.636,1.636,0,0,0-.2134.8921c0,.9114.8726,1.3962,2.1914,1.3962,1.3574,0,2.0361-.4072,2.0361-1.2024,0-.6787-.5234-1.0085-1.5708-1.0085Zm.834-5.1975a1.2783,1.2783,0,0,0,1.3384-1.3189,1.3383,1.3383,0,1,0-2.6763,0A1.2779,1.2779,0,0,0,543.9748,70.5774Z" data-index="31"></path><rect class="h" x="452.1171" y="86.2706" width="121.7448" height="119.1174" rx="2.6677"></rect><circle class="g" cx="530.4587" cy="166.4836" r="7.4218"></circle><path d="M486.8493,94.7869h-1.5786l-.3623,1.1733h-.9956l1.685-4.9775h.9243l1.6856,4.9775h-.9956Zm-1.3154-.8533h1.0522l-.5259-1.7278Z" data-index="32"></path><path d="M490.5246,96.0171a1.1711,1.1711,0,0,1-.8672-.3841v1.7779h-.8818V92.3765h.8818v.37a1.0163,1.0163,0,0,1,.8672-.4267c1.081,0,1.6357.7466,1.6357,1.8486S491.6056,96.0171,490.5246,96.0171Zm-.1206-2.9439c-.4624,0-.8247.3841-.8247,1.095s.3623,1.0952.8247,1.0952.832-.384.832-1.0952S490.8659,93.0732,490.404,93.0732Z" data-index="33"></path><path d="M492.9347,95.96V92.3765h.8819v.583a1.2487,1.2487,0,0,1,1.06-.64,1.4557,1.4557,0,0,1,.4335.071l-.1635.8179a.6812.6812,0,0,0-.37-.1c-.5122,0-.96.4194-.96,1.5786V95.96Z" data-index="34"></path><path d="M496.4113,90.7766a.5689.5689,0,1,1-.5688.5689A.5572.5572,0,0,1,496.4113,90.7766Zm.4409,1.6V95.96H495.97V92.3765Z" data-index="35"></path><path d="M498.7365,90.926V95.96h-.8818V90.926Z" data-index="36"></path><g class="i"><path d="M458.9181,104.4634c-.1279-.2469-.2656-.3511-.46-.3511a.3035.3035,0,0,0-.3184.3037c0,.5789,1.419.5029,1.419,1.49a.977.977,0,0,1-1.063,1.0347,1.1547,1.1547,0,0,1-1.1436-.93l.4986-.3132c.1.3559.2988.6738.66.6738a.388.388,0,0,0,.4317-.4319c0-.55-1.3907-.4414-1.3907-1.4949a.888.888,0,0,1,.9068-.9016,1.0079,1.0079,0,0,1,.9585.6028Z" data-index="37"></path><path d="M461.506,106.9026v-.3843a.9043.9043,0,0,1-.74.4224.6717.6717,0,0,1-.7354-.7215V104.511h.5884v1.5327c0,.2847.1421.3938.3418.3938.2847,0,.5454-.3416.5454-.9729v-.9536h.5884v2.3916Z" data-index="38"></path><path d="M463.3351,104.511v.3843a.9044.9044,0,0,1,.74-.4224.6717.6717,0,0,1,.7353.7212v1.7085h-.5884V105.37c0-.2849-.1425-.3941-.3418-.3941-.2846,0-.5454.3418-.5454.9729v.9539h-.5883V104.511Z" data-index="39"></path></g><g class="i"><path d="M474.0612,103.5808h.6929l.7827,2.0737.7832-2.0737h.6929v3.3218h-.6172v-2.05l-.6358,1.7464h-.4462l-.6358-1.7464v2.05h-.6167Z" data-index="40"></path><path d="M478.8019,104.4729a1.2341,1.2341,0,1,1-1.2148,1.2339A1.16,1.16,0,0,1,478.8019,104.4729Zm0,1.9646c.3794,0,.5977-.3369.5977-.7307s-.2183-.731-.5977-.731-.5981.3369-.5981.731S478.422,106.4375,478.8019,106.4375Z" data-index="41"></path><path d="M481.1335,104.511v.3843a.9043.9043,0,0,1,.74-.4224.6717.6717,0,0,1,.7354.7212v1.7085h-.5884V105.37c0-.2849-.1426-.3941-.3418-.3941-.2847,0-.5454.3418-.5454.9729v.9539h-.5889V104.511Z" data-index="42"></path></g><g class="i"><path d="M492.15,103.5808h2.458v.5693h-.92v2.7525h-.6172V104.15h-.92Z" data-index="43"></path><path d="M496.2707,106.9026v-.3843a.9044.9044,0,0,1-.74.4224.6717.6717,0,0,1-.7353-.7215V104.511h.5884v1.5327c0,.2847.1421.3938.3418.3938.2846,0,.5454-.3416.5454-.9729v-.9536h.5884v2.3916Z" data-index="44"></path><path d="M499.6657,105.8965h-1.647a.5492.5492,0,0,0,.565.541.62.62,0,0,0,.5791-.37l.4741.1755a1.0816,1.0816,0,0,1-1.0864.6978,1.2371,1.2371,0,0,1,0-2.4678,1.11,1.11,0,0,1,1.1152,1.1816Zm-1.6328-.4651h1.03a.5116.5116,0,0,0-.5122-.4556A.5291.5291,0,0,0,498.0329,105.4314Z" data-index="45"></path></g><g class="i"><path d="M512.66,103.5808l-.8681,3.3218h-.6265l-.6025-1.9551-.6031,1.9551h-.6264l-.8682-3.3218h.6548l.5552,2.4439.6216-2.0928h.5317l.6216,2.0928.5552-2.4439Z" data-index="46"></path><path d="M514.9948,105.8965h-1.647a.5492.5492,0,0,0,.565.541.62.62,0,0,0,.5791-.37l.4741.1755a1.0816,1.0816,0,0,1-1.0864.6978,1.2371,1.2371,0,0,1,0-2.4678,1.11,1.11,0,0,1,1.1152,1.1816Zm-1.6328-.4651h1.03a.5116.5116,0,0,0-.5122-.4556A.5291.5291,0,0,0,513.362,105.4314Z" data-index="47"></path><path d="M516.5568,104.4729a.782.782,0,0,1,.5791.2563v-1.1865h.5884v3.36h-.5884v-.2468a.6786.6786,0,0,1-.5791.2849c-.7212,0-1.0913-.4983-1.0913-1.2339S515.8356,104.4729,516.5568,104.4729Zm.0806,1.9646c.3086,0,.5508-.2561.5508-.7307s-.2422-.731-.5508-.731-.5552.2564-.5552.731S516.3293,106.4375,516.6374,106.4375Z" data-index="48"></path></g><g class="i"><path d="M526.5651,103.5808h2.458v.5693h-.92v2.7525h-.6172V104.15h-.92Z" data-index="49"></path><path d="M530.04,103.5427v1.3526a.8778.8778,0,0,1,.7593-.4224.6635.6635,0,0,1,.7446.7212v1.7085h-.5884v-1.5c0-.29-.1137-.4273-.3559-.4273-.27,0-.56.27-.56.916v1.0108h-.5884v-3.36Z" data-index="50"></path><path d="M533.6149,106.9026v-.3843a.9043.9043,0,0,1-.74.4224.6717.6717,0,0,1-.7354-.7215V104.511h.5884v1.5327c0,.2847.1421.3938.3418.3938.2847,0,.5454-.3416.5454-.9729v-.9536h.5884v2.3916Z" data-index="51"></path></g><g class="i"><path d="M547.6056,103.5808v.5693H546.12v.7593h1.1958v.57H546.12v1.4236h-.6167v-3.3218Z" data-index="52"></path><path d="M547.9772,106.9026V104.511h.5889V104.9a.834.834,0,0,1,.707-.427.9775.9775,0,0,1,.29.0474l-.1094.5459a.4547.4547,0,0,0-.2466-.0665c-.3418,0-.6406.28-.6406,1.0535v.8494Z" data-index="53"></path><path d="M550.2951,103.4431a.38.38,0,1,1-.3794.38A.3721.3721,0,0,1,550.2951,103.4431Zm.2944,1.0679v2.3916h-.5883V104.511Z" data-index="54"></path></g><g class="i"><path d="M563.7184,104.4634c-.1279-.2469-.2656-.3511-.46-.3511a.3035.3035,0,0,0-.3184.3037c0,.5789,1.419.5029,1.419,1.49a.977.977,0,0,1-1.063,1.0347,1.1547,1.1547,0,0,1-1.1436-.93l.4986-.3132c.1.3559.2988.6738.66.6738a.388.388,0,0,0,.4317-.4319c0-.55-1.3907-.4414-1.3907-1.4949a.888.888,0,0,1,.9068-.9016,1.0075,1.0075,0,0,1,.9585.6028Z" data-index="55"></path><path d="M564.8923,105.1372a.8573.8573,0,0,1,.9111-.6643.8866.8866,0,0,1,1.0059,1.0012v1.4285h-.4839l-.0616-.3037a.8917.8917,0,0,1-.7358.3418.68.68,0,0,1-.7261-.7261c0-.4746.418-.7832,1.02-.7832h.3985v-.1043c0-.2658-.1992-.3513-.4175-.3513a.3916.3916,0,0,0-.4131.2754Zm.7734,1.3a.5253.5253,0,0,0,.5552-.4934v-.0476h-.3936c-.2519,0-.4082.0949-.4082.3086A.23.23,0,0,0,565.6657,106.4375Z" data-index="56"></path><path d="M568.8088,106.8552a.9069.9069,0,0,1-.3892.0855.7945.7945,0,0,1-.8779-.8828v-1.044h-.37v-.5029h.37v-.5982l.5884-.37v.9683h.6313v.5029H568.13v1.0344c0,.2942.1137.3892.3134.3892a.45.45,0,0,0,.2276-.0569Z" data-index="57"></path></g><path d="M525.5246,95.6047l1.7778-2.2968a1.3606,1.3606,0,0,0,.3838-.9029.5738.5738,0,0,0-.6113-.6543c-.3555,0-.59.2346-.6475.6543l-.8247-.1565a1.4272,1.4272,0,0,1,1.4932-1.3225,1.37,1.37,0,0,1,1.4863,1.4434,1.9,1.9,0,0,1-.4268,1.18L526.94,95.1355h1.7491V95.96h-3.1641Z" data-index="58"></path><path d="M533.2531,93.4714c0,1.5928-.647,2.5457-1.8345,2.5457s-1.8344-.9529-1.8344-2.5457.6469-2.5454,1.8344-2.5454S533.2531,91.8787,533.2531,93.4714Zm-2.7871,0c0,1.1094.2983,1.7207.9526,1.7207s.9527-.6113.9527-1.7207-.2984-1.7207-.9527-1.7207S530.466,92.3623,530.466,93.4714Z" data-index="59"></path><path d="M534.0417,95.6047l1.7778-2.2968a1.3606,1.3606,0,0,0,.3838-.9029.5738.5738,0,0,0-.6113-.6543c-.356,0-.59.2346-.6475.6543l-.8247-.1565a1.4269,1.4269,0,0,1,1.4932-1.3225,1.37,1.37,0,0,1,1.4863,1.4434,1.9,1.9,0,0,1-.4268,1.18l-1.2158,1.5857h1.749V95.96h-3.164Z" data-index="60"></path><path d="M538.884,94.467a.8057.8057,0,0,0,.8032.7251.8561.8561,0,0,0,.0073-1.7065.8728.8728,0,0,0-.4341.1067l-.3554-.4976.9384-1.2871H538.258v-.8249H541.11v.3129l-1.1733,1.5857a1.5571,1.5571,0,0,1,.1992-.0141c.7676,0,1.2368.6042,1.2368,1.479a1.6837,1.6837,0,0,1-3.3491.2346Z" data-index="61"></path><polyline class="j" points="517.703 92.714 519.255 94.266 520.785 92.735"></polyline><polyline class="h" points="565.604 97.968 568.249 95.323 565.64 92.714"></polyline><polyline class="h" points="460.668 97.968 458.023 95.323 460.632 92.714"></polyline><path d="M566.0412,117.4294v3.3218h-.5982v-2.4866l-.6357.38v-.6455l.9727-.5694Z" data-index="62"></path><path d="M566.4211,134.1a.8283.8283,0,0,1-.313.6643.8665.8665,0,0,1,.4409.7974,1.0831,1.0831,0,0,1-2.1636,0,.8623.8623,0,0,1,.4366-.7974.8244.8244,0,0,1-.3086-.6643.9551.9551,0,0,1,1.9077,0Zm-1.438,1.4617a.4841.4841,0,1,0,.4839-.48A.4545.4545,0,0,0,564.9831,135.5613Zm.0854-1.4522a.3994.3994,0,1,0,.7974,0,.3989.3989,0,1,0-.7974,0Z" data-index="63"></path><path d="M477.35,149.0281V152.35h-.5982v-2.4865l-.6357.38v-.6455l.9727-.5693Z" data-index="64"></path><path d="M480.4982,150.689c0,1.0629-.4316,1.6989-1.2241,1.6989s-1.2241-.636-1.2241-1.6989.4316-1.699,1.2241-1.699S480.4982,149.626,480.4982,150.689Zm-1.86,0c0,.74.1992,1.1484.6357,1.1484s.6357-.4082.6357-1.1484-.1992-1.1485-.6357-1.1485S478.6384,149.9487,478.6384,150.689Z" data-index="65"></path><path d="M495.6213,149.0281V152.35h-.5982v-2.4865l-.6357.38v-.6455l.9726-.5693Z" data-index="66"></path><path d="M497.4743,149.0281V152.35h-.5981v-2.4865l-.6358.38v-.6455l.9727-.5693Z" data-index="67"></path><path d="M512.3854,149.0281V152.35h-.5981v-2.4865l-.6358.38v-.6455l.9727-.5693Z" data-index="68"></path><path d="M513.0329,152.1125l1.1865-1.5327a.907.907,0,0,0,.2559-.6028.3827.3827,0,0,0-.4077-.4365c-.2373,0-.3941.1565-.4322.4365l-.55-.1042a.9524.9524,0,0,1,.9966-.8828.9145.9145,0,0,1,.9917.9634,1.2688,1.2688,0,0,1-.2847.7878l-.8115,1.0581h1.1675v.55h-2.1118Z" data-index="69"></path><path d="M529.4806,149.0281V152.35h-.5981v-2.4865l-.6357.38v-.6455l.9726-.5693Z" data-index="70"></path><path d="M530.6647,151.3533a.5383.5383,0,0,0,.5362.4841.5714.5714,0,0,0,.0048-1.1389.5827.5827,0,0,0-.2895.071l-.2373-.332.6265-.8591h-1.0582v-.55H532.15v.2087l-.7827,1.0584a.987.987,0,0,1,.1328-.01c.5122,0,.8257.4034.8257.9871a1.1238,1.1238,0,0,1-2.2354.1565Z" data-index="71"></path><path d="M547.1262,149.0281V152.35h-.5982v-2.4865l-.6357.38v-.6455l.9726-.5693Z" data-index="72"></path><path d="M549.1359,151.7329h-1.4287v-.3037l1.4-2.4011h.6265v2.1543h.37v.55h-.37v.6169h-.5977Zm0-.55v-1.2669l-.7026,1.2669Z" data-index="73"></path><path d="M564.6877,149.0281V152.35H564.09v-2.4865l-.6357.38v-.6455l.9726-.5693Z" data-index="74"></path><path d="M565.9426,151.3769c.0712.3655.28.46.4985.46.3227,0,.4932-.2136.4932-.5886,0-.37-.1851-.574-.522-.574a.8135.8135,0,0,0-.5884.2988l-.3745-.0759.1851-1.87h1.708v.55h-1.2193l-.0762.6928a.923.923,0,0,1,.47-.1233.9654.9654,0,0,1,1.0156,1.1009,1.0568,1.0568,0,0,1-1.0913,1.1391,1.0091,1.0091,0,0,1-1.063-.9065Z" data-index="75"></path><path d="M477.71,164.8259v3.3218h-.5981v-2.4866l-.6357.38v-.6455l.9726-.5694Z" data-index="76"></path><path d="M480.3171,165.0725l-1.253,3.0752h-.5883l1.1342-2.7715h-1.3051v-.55h2.0122Z" data-index="77"></path><path d="M495.1545,164.8259v3.3218h-.5982v-2.4866l-.6357.38v-.6455l.9726-.5694Z" data-index="78"></path><path d="M497.8947,165.6943a.8283.8283,0,0,1-.313.6643.8665.8665,0,0,1,.4409.7974,1.0831,1.0831,0,0,1-2.1635,0,.8624.8624,0,0,1,.4365-.7974.8246.8246,0,0,1-.3086-.6643.9551.9551,0,0,1,1.9077,0Zm-1.438,1.4617a.4842.4842,0,1,0,.4839-.48A.4545.4545,0,0,0,496.4567,167.156Zm.0855-1.4521a.3993.3993,0,1,0,.7973,0,.3989.3989,0,1,0-.7973,0Z" data-index="79"></path><path d="M512.3615,164.8259v3.3218h-.5981v-2.4866l-.6358.38v-.6455l.9727-.5694Z" data-index="80"></path><path d="M514.0959,166.9519a1.0392,1.0392,0,0,1-1.0723-1.082,1.1107,1.1107,0,0,1,2.2207,0,1.24,1.24,0,0,1-.1611.5837l-.9683,1.7322h-.664l.7211-1.2339Zm.5508-1.082a.5128.5128,0,1,0-1.0249,0,.5128.5128,0,1,0,1.0249,0Z" data-index="81"></path><path class="f" d="M527.6994,167.91l1.1865-1.5327a.9084.9084,0,0,0,.2564-.6028.383.383,0,0,0-.4082-.4365c-.2373,0-.3941.1565-.4322.4365l-.55-.1043a.9524.9524,0,0,1,.9966-.8828.9146.9146,0,0,1,.9917.9634,1.2693,1.2693,0,0,1-.2846.7879l-.8116,1.0581h1.1675v.55h-2.1118Z" data-index="82"></path><path class="f" d="M532.8542,166.4868c0,1.063-.4317,1.699-1.2241,1.699s-1.2242-.636-1.2242-1.699.4317-1.699,1.2242-1.699S532.8542,165.4238,532.8542,166.4868Zm-1.86,0c0,.74.1992,1.1484.6358,1.1484s.6357-.4082.6357-1.1484-.1992-1.1484-.6357-1.1484S530.9943,165.7466,530.9943,166.4868Z" data-index="83"></path><path d="M545.9845,167.91l1.1866-1.5327a.9082.9082,0,0,0,.2563-.6028.383.383,0,0,0-.4082-.4365c-.2373,0-.394.1565-.4321.4365l-.55-.1043a.9524.9524,0,0,1,.9966-.8828.9146.9146,0,0,1,.9917.9634,1.27,1.27,0,0,1-.2847.7879l-.8115,1.0581h1.1675v.55h-2.1119Z" data-index="84"></path><path d="M549.8254,164.8259v3.3218h-.5982v-2.4866l-.6357.38v-.6455l.9726-.5694Z" data-index="85"></path><path d="M563.0485,167.91l1.1865-1.5327a.9069.9069,0,0,0,.2559-.6028.3827.3827,0,0,0-.4077-.4365c-.2373,0-.3941.1565-.4321.4365l-.55-.1043a.9524.9524,0,0,1,.9965-.8828.9146.9146,0,0,1,.9917.9634,1.2693,1.2693,0,0,1-.2846.7879l-.8115,1.0581H565.16v.55h-2.1118Z" data-index="86"></path><path d="M565.7453,167.91l1.1865-1.5327a.9084.9084,0,0,0,.2564-.6028.383.383,0,0,0-.4082-.4365c-.2373,0-.3941.1565-.4322.4365l-.55-.1043a.9524.9524,0,0,1,.9966-.8828.9146.9146,0,0,1,.9917.9634,1.2693,1.2693,0,0,1-.2846.7879l-.8116,1.0581h1.1675v.55h-2.1118Z" data-index="87"></path><path d="M475.8644,183.7122l1.1866-1.5328a.9078.9078,0,0,0,.2563-.6027.3831.3831,0,0,0-.4082-.4366c-.2373,0-.394.1565-.4321.4366l-.55-.1043a.9524.9524,0,0,1,.9966-.8828.9146.9146,0,0,1,.9917.9634,1.2694,1.2694,0,0,1-.2847.7878l-.8115,1.0581h1.1674v.5506h-2.1118Z" data-index="88"></path><path d="M479.8146,183.3325h-1.4287v-.3037l1.4-2.4011h.6265v2.1543h.37v.55h-.37v.617h-.5977Zm0-.55v-1.2669l-.7026,1.2669Z" data-index="89"></path><path d="M493.5837,183.7122l1.1865-1.5328a.907.907,0,0,0,.2559-.6027.3828.3828,0,0,0-.4078-.4366c-.2373,0-.394.1565-.4321.4366l-.55-.1043a.9524.9524,0,0,1,.9966-.8828.9145.9145,0,0,1,.9917.9634,1.2694,1.2694,0,0,1-.2847.7878l-.8115,1.0581h1.1675v.5506h-2.1118Z" data-index="90"></path><path d="M496.8073,182.9766c.0713.3654.28.46.4985.46.3228,0,.4937-.2136.4937-.5886,0-.37-.1856-.574-.5225-.574a.8135.8135,0,0,0-.5883.2988l-.3746-.0759.1851-1.87h1.708v.55H496.988l-.0762.6928a.9209.9209,0,0,1,.47-.1232.9652.9652,0,0,1,1.0156,1.1008,1.0568,1.0568,0,0,1-1.0913,1.1391,1.009,1.009,0,0,1-1.0629-.9065Z" data-index="91"></path><path d="M510.7673,183.7122l1.1865-1.5328a.9068.9068,0,0,0,.2558-.6027.3827.3827,0,0,0-.4077-.4366c-.2373,0-.394.1565-.4321.4366l-.55-.1043a.9524.9524,0,0,1,.9966-.8828.9145.9145,0,0,1,.9917.9634,1.2694,1.2694,0,0,1-.2847.7878l-.8115,1.0581h1.1675v.5506h-2.1118Z" data-index="92"></path><path d="M514.5085,181.8235a1.04,1.04,0,0,1,1.0727,1.082,1.111,1.111,0,0,1-2.2212,0,1.2321,1.2321,0,0,1,.1617-.5837l.9677-1.7322h.6646l-.7212,1.2339Zm-.55,1.082a.5128.5128,0,1,0,1.0249,0,.5128.5128,0,1,0-1.0249,0Z" data-index="93"></path><path d="M528.06,183.7122l1.1866-1.5328a.9078.9078,0,0,0,.2563-.6027.3831.3831,0,0,0-.4082-.4366c-.2373,0-.394.1565-.4321.4366l-.55-.1043a.9524.9524,0,0,1,.9966-.8828.9146.9146,0,0,1,.9917.9634,1.2694,1.2694,0,0,1-.2847.7878l-.8115,1.0581h1.1675v.5506H528.06Z" data-index="94"></path><path d="M532.674,180.8743l-1.2529,3.0752h-.5884l1.1343-2.7715h-1.3052v-.55h2.0122Z" data-index="95"></path><path d="M545.4987,183.7122l1.1865-1.5328a.9065.9065,0,0,0,.2559-.6027.3827.3827,0,0,0-.4077-.4366c-.2373,0-.3941.1565-.4322.4366l-.55-.1043a.9523.9523,0,0,1,.9965-.8828.9145.9145,0,0,1,.9917.9634,1.2693,1.2693,0,0,1-.2846.7878l-.8116,1.0581h1.1675v.5506h-2.1118Z" data-index="96"></path><path d="M550.2648,181.4961a.828.828,0,0,1-.313.6643.8663.8663,0,0,1,.441.7974,1.0831,1.0831,0,0,1-2.1636,0,.8623.8623,0,0,1,.4365-.7974.8246.8246,0,0,1-.3086-.6643.9551.9551,0,0,1,1.9077,0Zm-1.438,1.4617a.4842.4842,0,1,0,.4839-.48A.4545.4545,0,0,0,548.8268,182.9578Zm.0855-1.4522a.3993.3993,0,1,0,.7973,0,.3989.3989,0,1,0-.7973,0Z" data-index="97"></path><path d="M563.0627,183.7122l1.1865-1.5328a.9078.9078,0,0,0,.2563-.6027.383.383,0,0,0-.4082-.4366c-.2373,0-.394.1565-.4321.4366l-.55-.1043a.9524.9524,0,0,1,.9966-.8828.9145.9145,0,0,1,.9917.9634,1.2688,1.2688,0,0,1-.2847.7878l-.8115,1.0581h1.1675v.5506h-2.1118Z" data-index="98"></path><path d="M566.77,182.7537a1.0393,1.0393,0,0,1-1.0723-1.0821,1.1107,1.1107,0,0,1,2.2207,0,1.2408,1.2408,0,0,1-.1611.5838l-.9683,1.7321h-.664l.7212-1.2338Zm.5508-1.0821a.5128.5128,0,1,0-1.0249,0,.5128.5128,0,1,0,1.0249,0Z" data-index="99"></path><path d="M476.8556,198.75a.5384.5384,0,0,0,.5362.4842.5714.5714,0,0,0,.0049-1.1389.583.583,0,0,0-.29.071l-.2373-.332.6265-.8592h-1.0581v-.55h1.9028v.2087l-.7827,1.0583a1.0082,1.0082,0,0,1,.1328-.01c.5122,0,.8257.4033.8257.9871a1.1238,1.1238,0,0,1-2.2354.1565Z" data-index="100"></path><path d="M480.16,196.4246v3.3217h-.5981V197.26l-.6358.38v-.6455l.9727-.5693Z" data-index="101"></path><g class="k"><path d="M458.7839,120.5139l1.1865-1.5327a.907.907,0,0,0,.2558-.6028.3827.3827,0,0,0-.4077-.4365c-.2373,0-.394.1565-.4321.4365l-.55-.1042a.9524.9524,0,0,1,.9966-.8828.9145.9145,0,0,1,.9917.9633,1.27,1.27,0,0,1-.2847.7879l-.8115,1.0581h1.1675v.55h-2.1118Z" data-index="102"></path><path d="M462.5251,118.6252a1.04,1.04,0,0,1,1.0727,1.0821,1.111,1.111,0,0,1-2.2212,0,1.2325,1.2325,0,0,1,.1617-.5838l.9677-1.7321h.6646l-.7212,1.2338Zm-.55,1.0821a.5128.5128,0,1,0,1.0249,0,.5128.5128,0,1,0-1.0249,0Z" data-index="103"></path><path d="M476.08,120.5139l1.1865-1.5327a.908.908,0,0,0,.2563-.6028.383.383,0,0,0-.4082-.4365c-.2373,0-.394.1565-.4321.4365l-.55-.1042a.9524.9524,0,0,1,.9966-.8828.9146.9146,0,0,1,.9917.9633,1.27,1.27,0,0,1-.2847.7879l-.8115,1.0581h1.1675v.55H476.08Z" data-index="104"></path><path d="M480.6945,117.676l-1.2529,3.0752h-.5884l1.1343-2.7715h-1.3052v-.55h2.0122Z" data-index="105"></path><path d="M493.5153,120.5139l1.1865-1.5327a.9067.9067,0,0,0,.2559-.6028.3827.3827,0,0,0-.4077-.4365c-.2373,0-.3941.1565-.4321.4365l-.55-.1042a.9523.9523,0,0,1,.9965-.8828.9145.9145,0,0,1,.9917.9633,1.2693,1.2693,0,0,1-.2846.7879l-.8116,1.0581h1.1675v.55h-2.1118Z" data-index="106"></path><path d="M498.2814,118.2978a.8281.8281,0,0,1-.313.6644.8662.8662,0,0,1,.441.7973,1.0831,1.0831,0,0,1-2.1636,0,.8621.8621,0,0,1,.4365-.7973.8247.8247,0,0,1-.3086-.6644.9551.9551,0,0,1,1.9077,0Zm-1.438,1.4617a.4842.4842,0,1,0,.4839-.48A.4545.4545,0,0,0,496.8434,119.76Zm.0855-1.4521a.3993.3993,0,1,0,.7973,0,.3989.3989,0,1,0-.7973,0Z" data-index="107"></path><path d="M510.7482,120.5139l1.1865-1.5327a.9077.9077,0,0,0,.2564-.6028.383.383,0,0,0-.4082-.4365c-.2373,0-.3941.1565-.4321.4365l-.55-.1042a.9523.9523,0,0,1,.9965-.8828.9145.9145,0,0,1,.9917.9633,1.2693,1.2693,0,0,1-.2846.7879l-.8115,1.0581H512.86v.55h-2.1118Z" data-index="108"></path><path d="M514.4557,119.5554a1.0391,1.0391,0,0,1-1.0722-1.082,1.1107,1.1107,0,0,1,2.2207,0,1.239,1.239,0,0,1-.1612.5837l-.9682,1.7322h-.6641l.7212-1.2339Zm.5508-1.082a.5128.5128,0,1,0-1.0249,0,.5128.5128,0,1,0,1.0249,0Z" data-index="109"></path><path d="M528.214,119.7546a.5384.5384,0,0,0,.5362.4842.5714.5714,0,0,0,.0049-1.139.5832.5832,0,0,0-.29.0711l-.2373-.332.6265-.8592h-1.0581v-.55h1.9028v.2088l-.7827,1.0583a.9913.9913,0,0,1,.1328-.01c.5122,0,.8257.4033.8257.9871a1.1238,1.1238,0,0,1-2.2354.1565Z" data-index="110"></path><path d="M532.8752,119.09c0,1.063-.4317,1.699-1.2241,1.699s-1.2242-.636-1.2242-1.699.4317-1.6989,1.2242-1.6989S532.8752,118.0273,532.8752,119.09Zm-1.86,0c0,.74.1992,1.1485.6358,1.1485s.6357-.4082.6357-1.1485-.1992-1.1484-.6357-1.1484S531.0153,118.35,531.0153,119.09Z" data-index="111"></path><path d="M546.5207,119.7546a.5383.5383,0,0,0,.5361.4842.5714.5714,0,0,0,.0049-1.139.5834.5834,0,0,0-.29.0711l-.2373-.332.6265-.8592h-1.0581v-.55h1.9028v.2088l-.7827,1.0583a.9913.9913,0,0,1,.1328-.01c.5122,0,.8257.4033.8257.9871a1.1238,1.1238,0,0,1-2.2353.1565Z" data-index="112"></path><path d="M549.8254,117.4294v3.3218h-.5982v-2.4866l-.6357.38v-.6455l.9726-.5694Z" data-index="113"></path><path d="M460.0993,136.3157l1.1865-1.5327a.9074.9074,0,0,0,.2559-.6028.3827.3827,0,0,0-.4077-.4366c-.2373,0-.3941.1565-.4322.4366l-.55-.1043a.9524.9524,0,0,1,.9966-.8828.9145.9145,0,0,1,.9917.9634,1.2691,1.2691,0,0,1-.2846.7878l-.8116,1.0581h1.1675v.5506h-2.1118Z" data-index="114"></path><path d="M461.1716,151.154a1.0391,1.0391,0,0,1-1.0723-1.082,1.1107,1.1107,0,0,1,2.2207,0,1.2408,1.2408,0,0,1-.1611.5838l-.9683,1.7321h-.6641l.7212-1.2339Zm.5507-1.082a.5128.5128,0,1,0-1.0249,0,.5128.5128,0,1,0,1.0249,0Z" data-index="115"></path><path d="M460.3688,164.8259v3.3218h-.5981v-2.4866l-.6358.38v-.6455l.9727-.5694Z" data-index="116"></path><path d="M462.193,166.0217a1.04,1.04,0,0,1,1.0728,1.0821,1.111,1.111,0,0,1-2.2212,0,1.2336,1.2336,0,0,1,.1616-.5838l.9678-1.7322h.6646l-.7212,1.2339Zm-.55,1.0821a.5128.5128,0,1,0,1.0249,0,.5128.5128,0,1,0-1.0249,0Z" data-index="117"></path><path d="M458.73,183.7122l1.1865-1.5328a.9078.9078,0,0,0,.2563-.6027.3831.3831,0,0,0-.4082-.4366c-.2373,0-.394.1565-.4321.4366l-.55-.1043a.9524.9524,0,0,1,.9966-.8828.9145.9145,0,0,1,.9917.9634,1.2694,1.2694,0,0,1-.2847.7878l-.8115,1.0581h1.1675v.5506H458.73Z" data-index="118"></path><path d="M461.9582,182.9529a.5382.5382,0,0,0,.5361.4841.5714.5714,0,0,0,.0049-1.1389.5833.5833,0,0,0-.29.071l-.2373-.332.6265-.8591h-1.0581v-.55h1.9028v.2087l-.7827,1.0584a.99.99,0,0,1,.1328-.01c.5122,0,.8257.4034.8257.9871a1.1238,1.1238,0,0,1-2.2353.1565Z" data-index="119"></path><path d="M459.1115,198.75a.5383.5383,0,0,0,.5361.4842.5714.5714,0,0,0,.0049-1.1389.5827.5827,0,0,0-.2895.071l-.2373-.332.6264-.8592H458.694v-.55h1.9029v.2087l-.7828,1.0583a1.0085,1.0085,0,0,1,.1329-.01c.5122,0,.8256.4033.8256.9871a1.1238,1.1238,0,0,1-2.2353.1565Z" data-index="120"></path><path d="M463.7726,198.0854c0,1.063-.4316,1.699-1.2241,1.699s-1.2241-.636-1.2241-1.699.4316-1.6989,1.2241-1.6989S463.7726,197.0225,463.7726,198.0854Zm-1.86,0c0,.74.1992,1.1485.6357,1.1485s.6358-.4082.6358-1.1485-.1993-1.1484-.6358-1.1484S461.9128,197.3452,461.9128,198.0854Z" data-index="121"></path><path d="M496.548,196.4246v3.3217H495.95V197.26l-.6358.38v-.6455l.9727-.5693Z" data-index="122"></path><path d="M512.0827,199.509l1.1865-1.5327a.9072.9072,0,0,0,.2559-.6028.3827.3827,0,0,0-.4077-.4365c-.2373,0-.3941.1565-.4322.4365l-.55-.1042a.9524.9524,0,0,1,.9966-.8828.9145.9145,0,0,1,.9917.9633,1.2693,1.2693,0,0,1-.2846.7879l-.8116,1.0581h1.1675v.55h-2.1118Z" data-index="123"></path><path d="M529.714,198.75a.5384.5384,0,0,0,.5362.4842.5714.5714,0,0,0,.0049-1.1389.583.583,0,0,0-.29.071l-.2373-.332.6265-.8592h-1.0581v-.55h1.9028v.2087l-.7827,1.0583a1.0082,1.0082,0,0,1,.1328-.01c.5122,0,.8257.4033.8257.9871a1.1238,1.1238,0,0,1-2.2354.1565Z" data-index="124"></path><path d="M548.2067,199.1294H546.778v-.3037l1.4-2.4011h.6265v2.1543h.37v.55h-.37v.6169h-.5977Zm0-.55V197.312l-.7026,1.2669Z" data-index="125"></path><path d="M564.99,198.7734c.0713.3655.28.46.4986.46.3227,0,.4936-.2136.4936-.5886,0-.37-.1855-.574-.5225-.574a.8135.8135,0,0,0-.5883.2988l-.3745-.0759.185-1.87h1.708v.55h-1.2192l-.0762.6929a.9212.9212,0,0,1,.47-.1233.9654.9654,0,0,1,1.0157,1.1009,1.0569,1.0569,0,0,1-1.0913,1.1391,1.009,1.009,0,0,1-1.063-.9065Z" data-index="126"></path><path d="M477.7345,135.5564a.5383.5383,0,0,0,.5362.4841.5714.5714,0,0,0,.0049-1.1389.583.583,0,0,0-.29.071l-.2373-.332.6265-.8591h-1.0581v-.55H479.22v.2087l-.7827,1.0584a.9913.9913,0,0,1,.1328-.01c.5122,0,.8257.4033.8257.987a1.1238,1.1238,0,0,1-2.2354.1565Z" data-index="127"></path><path d="M496.2233,135.936h-1.4287v-.3037l1.4-2.4011h.6265v2.1543h.37v.55h-.37v.617h-.5977Zm0-.55v-1.2669l-.7026,1.2669Z" data-index="128"></path><path d="M512.6755,135.58c.0713.3654.28.46.4985.46.3228,0,.4937-.2136.4937-.5886,0-.37-.1856-.574-.5225-.574a.8134.8134,0,0,0-.5884.2989l-.3745-.076.1851-1.87h1.708v.55h-1.2193l-.0761.6929a.92.92,0,0,1,.47-.1233.9652.9652,0,0,1,1.0156,1.1008,1.0568,1.0568,0,0,1-1.0913,1.1392,1.0092,1.0092,0,0,1-1.063-.9065Z" data-index="129"></path><path d="M530.3454,134.427a1.04,1.04,0,0,1,1.0727,1.082,1.1109,1.1109,0,0,1-2.2211,0,1.2335,1.2335,0,0,1,.1616-.5837l.9677-1.7322h.6646l-.7212,1.2339Zm-.55,1.082a.5128.5128,0,1,0,1.0249,0,.5128.5128,0,1,0-1.0249,0Z" data-index="130"></path><path d="M549.0226,133.4778,547.77,136.553h-.5884l1.1343-2.7715H547.01v-.55h2.0122Z" data-index="131"></path></g><rect class="h" x="441.9403" y="214.6434" width="31.0883" height="14.3956" rx="1.5753"></rect><path d="M451.8571,222.1394c0,1.251-.5083,1.9993-1.4409,1.9993s-1.4409-.7483-1.4409-1.9993.5083-1.9995,1.4409-1.9995S451.8571,220.8884,451.8571,222.1394Zm-2.1894,0c0,.8711.2348,1.3516.7485,1.3516s.7485-.4805.7485-1.3516-.2348-1.3516-.7485-1.3516S449.6677,221.2681,449.6677,222.1394Z" data-index="132"></path><path d="M454.1271,222.6868a1.2234,1.2234,0,0,1-1.2622-1.2735,1.3073,1.3073,0,0,1,2.6138,0,1.454,1.454,0,0,1-.19.687l-1.1391,2.0384h-.7822l.8491-1.4519Zm.648-1.2735a.6037.6037,0,1,0-1.2066,0,.6037.6037,0,1,0,1.2066,0Z" data-index="133"></path><path d="M456.9831,221.2346a.4691.4691,0,1,1-.4693.4693A.4579.4579,0,0,1,456.9831,221.2346Zm0,1.9546a.4691.4691,0,1,1-.4693.4692A.4578.4578,0,0,1,456.9831,223.1892Z" data-index="134"></path><path d="M461.5866,222.1394c0,1.251-.5083,1.9993-1.4409,1.9993s-1.4409-.7483-1.4409-1.9993.5083-1.9995,1.4409-1.9995S461.5866,220.8884,461.5866,222.1394Zm-2.1895,0c0,.8711.2349,1.3516.7486,1.3516s.7485-.4805.7485-1.3516-.2348-1.3516-.7485-1.3516S459.3971,221.2681,459.3971,222.1394Z" data-index="135"></path><path d="M465.5763,222.1394c0,1.251-.5083,1.9993-1.4409,1.9993s-1.4409-.7483-1.4409-1.9993.5083-1.9995,1.4409-1.9995S465.5763,220.8884,465.5763,222.1394Zm-2.1894,0c0,.8711.2349,1.3516.7485,1.3516s.7486-.4805.7486-1.3516-.2349-1.3516-.7486-1.3516S463.3869,221.2681,463.3869,222.1394Z" data-index="136"></path><rect class="h" x="478.9436" y="214.6434" width="31.0883" height="14.3956" rx="1.5753"></rect><path d="M489.0221,222.1394c0,1.251-.5083,1.9993-1.4409,1.9993s-1.4409-.7483-1.4409-1.9993.5083-1.9995,1.4409-1.9995S489.0221,220.8884,489.0221,222.1394Zm-2.1894,0c0,.8711.2349,1.3516.7485,1.3516s.7486-.4805.7486-1.3516-.2349-1.3516-.7486-1.3516S486.8327,221.2681,486.8327,222.1394Z" data-index="137"></path><path d="M491.2922,222.6868a1.2233,1.2233,0,0,1-1.2622-1.2735,1.3073,1.3073,0,0,1,2.6137,0,1.455,1.455,0,0,1-.19.687l-1.1392,2.0384h-.7822l.8491-1.4519Zm.6479-1.2735a.6036.6036,0,1,0-1.2065,0,.6036.6036,0,1,0,1.2065,0Z" data-index="138"></path><path d="M494.1481,221.2346a.4691.4691,0,1,1-.4692.4693A.4579.4579,0,0,1,494.1481,221.2346Zm0,1.9546a.4691.4691,0,1,1-.4692.4692A.4579.4579,0,0,1,494.1481,223.1892Z" data-index="139"></path><path d="M496.5119,222.9211a.6338.6338,0,0,0,.6313.57.6725.6725,0,0,0,.0054-1.34.6815.6815,0,0,0-.34.0838l-.2793-.3911.7373-1.0108h-1.2456v-.6477H498.26v.2456l-.9213,1.2454a1.198,1.198,0,0,1,.1562-.0113c.6035,0,.9722.4749.9722,1.1617a1.3224,1.3224,0,0,1-2.63.1843Z" data-index="140"></path><path d="M502.4177,222.1394c0,1.251-.5083,1.9993-1.441,1.9993s-1.4409-.7483-1.4409-1.9993.5083-1.9995,1.4409-1.9995S502.4177,220.8884,502.4177,222.1394Zm-2.19,0c0,.8711.2349,1.3516.7485,1.3516s.7486-.4805.7486-1.3516-.2349-1.3516-.7486-1.3516S500.2282,221.2681,500.2282,222.1394Z" data-index="141"></path><rect class="h" x="515.947" y="214.6434" width="31.0883" height="14.3956" rx="1.5753"></rect><path d="M524.8512,220.1848v3.9092h-.7036v-2.9263l-.748.4468v-.76l1.1445-.67Z" data-index="142"></path><path d="M528.9748,222.1394c0,1.251-.5083,1.9993-1.4409,1.9993s-1.441-.7483-1.441-1.9993.5083-1.9995,1.441-1.9995S528.9748,220.8884,528.9748,222.1394Zm-2.1895,0c0,.8711.2349,1.3516.7486,1.3516s.7485-.4805.7485-1.3516-.2349-1.3516-.7485-1.3516S526.7853,221.2681,526.7853,222.1394Z" data-index="143"></path><path d="M530.6081,221.2346a.4691.4691,0,1,1-.4693.4693A.4579.4579,0,0,1,530.6081,221.2346Zm0,1.9546a.4691.4691,0,1,1-.4693.4692A.4578.4578,0,0,1,530.6081,223.1892Z" data-index="144"></path><path d="M535.2116,222.1394c0,1.251-.5083,1.9993-1.4409,1.9993s-1.4409-.7483-1.4409-1.9993.5083-1.9995,1.4409-1.9995S535.2116,220.8884,535.2116,222.1394Zm-2.1895,0c0,.8711.2349,1.3516.7486,1.3516s.7485-.4805.7485-1.3516-.2348-1.3516-.7485-1.3516S533.0221,221.2681,533.0221,222.1394Z" data-index="145"></path><path d="M539.2013,222.1394c0,1.251-.5083,1.9993-1.4409,1.9993s-1.4409-.7483-1.4409-1.9993.5083-1.9995,1.4409-1.9995S539.2013,220.8884,539.2013,222.1394Zm-2.1894,0c0,.8711.2349,1.3516.7485,1.3516s.7486-.4805.7486-1.3516-.2349-1.3516-.7486-1.3516S537.0119,221.2681,537.0119,222.1394Z" data-index="146"></path><rect class="h" x="552.9503" y="214.6434" width="31.0883" height="14.3956" rx="1.5753"></rect><path d="M562.0182,220.1848v3.9092h-.7036v-2.9263l-.748.4468v-.76l1.1445-.67Z" data-index="147"></path><path d="M566.1418,222.1394c0,1.251-.5083,1.9993-1.4409,1.9993s-1.441-.7483-1.441-1.9993.5083-1.9995,1.441-1.9995S566.1418,220.8884,566.1418,222.1394Zm-2.1895,0c0,.8711.2349,1.3516.7486,1.3516s.7485-.4805.7485-1.3516-.2349-1.3516-.7485-1.3516S563.9523,221.2681,563.9523,222.1394Z" data-index="148"></path><path d="M567.7751,221.2346a.4691.4691,0,1,1-.4693.4693A.4579.4579,0,0,1,567.7751,221.2346Zm0,1.9546a.4691.4691,0,1,1-.4693.4692A.4579.4579,0,0,1,567.7751,223.1892Z" data-index="149"></path><path d="M570.1388,222.9211a.6338.6338,0,0,0,.6314.57.6725.6725,0,0,0,.0054-1.34.6816.6816,0,0,0-.34.0838l-.2793-.3911.7373-1.0108h-1.2456v-.6477h2.2393v.2456l-.9214,1.2454a1.201,1.201,0,0,1,.1563-.0113c.6035,0,.9721.4749.9721,1.1617a1.3223,1.3223,0,0,1-2.63.1843Z" data-index="150"></path><path d="M576.0441,222.1394c0,1.251-.5083,1.9993-1.4409,1.9993s-1.4409-.7483-1.4409-1.9993.5083-1.9995,1.4409-1.9995S576.0441,220.8884,576.0441,222.1394Zm-2.1894,0c0,.8711.2348,1.3516.7485,1.3516s.7485-.4805.7485-1.3516-.2348-1.3516-.7485-1.3516S573.8547,221.2681,573.8547,222.1394Z" data-index="151"></path><rect class="h" x="441.9403" y="233.282" width="31.0883" height="14.3956" rx="1.5753"></rect><path d="M451.5593,238.8235v3.9092h-.7041v-2.9263l-.7481.4468v-.76l1.1445-.67Z" data-index="152"></path><path d="M454.1579,238.8235v3.9092h-.7041v-2.9263l-.7481.4468v-.76l1.1446-.67Z" data-index="153"></path><path d="M455.8849,239.8733a.4691.4691,0,1,1-.4692.4692A.4579.4579,0,0,1,455.8849,239.8733Zm0,1.9546a.4691.4691,0,1,1-.4692.4692A.4579.4579,0,0,1,455.8849,241.8279Z" data-index="154"></path><path d="M460.488,240.7781c0,1.2509-.5083,1.9992-1.441,1.9992s-1.4409-.7483-1.4409-1.9992.5083-1.9995,1.4409-1.9995S460.488,239.5271,460.488,240.7781Zm-2.19,0c0,.8711.2349,1.3515.7485,1.3515s.7486-.48.7486-1.3515-.2349-1.3516-.7486-1.3516S458.2985,239.9067,458.2985,240.7781Z" data-index="155"></path><path d="M464.4782,240.7781c0,1.2509-.5083,1.9992-1.4409,1.9992s-1.4409-.7483-1.4409-1.9992.5083-1.9995,1.4409-1.9995S464.4782,239.5271,464.4782,240.7781Zm-2.19,0c0,.8711.2349,1.3515.7486,1.3515s.7485-.48.7485-1.3515-.2348-1.3516-.7485-1.3516S462.2887,239.9067,462.2887,240.7781Z" data-index="156"></path><rect class="h" x="478.9436" y="233.282" width="31.0883" height="14.3956" rx="1.5753"></rect><path d="M488.7243,238.8235v3.9092H488.02v-2.9263l-.7481.4468v-.76l1.1446-.67Z" data-index="157"></path><path d="M491.3229,238.8235v3.9092h-.7041v-2.9263l-.748.4468v-.76l1.1445-.67Z" data-index="158"></path><path d="M493.05,239.8733a.4691.4691,0,1,1-.4693.4692A.4579.4579,0,0,1,493.05,239.8733Zm0,1.9546a.4691.4691,0,1,1-.4693.4692A.4578.4578,0,0,1,493.05,241.8279Z" data-index="159"></path><path d="M495.4133,241.56a.6336.6336,0,0,0,.6313.57.6724.6724,0,0,0,.0054-1.34.6825.6825,0,0,0-.34.0837l-.2792-.3911.7373-1.0107H494.922v-.6477h2.2393v.2456l-.9214,1.2453a1.2027,1.2027,0,0,1,.1563-.0112c.6035,0,.9721.4749.9721,1.1616a1.3223,1.3223,0,0,1-2.63.1844Z" data-index="160"></path><path d="M501.319,240.7781c0,1.2509-.5083,1.9992-1.4409,1.9992s-1.4409-.7483-1.4409-1.9992.5083-1.9995,1.4409-1.9995S501.319,239.5271,501.319,240.7781Zm-2.1894,0c0,.8711.2348,1.3515.7485,1.3515s.7485-.48.7485-1.3515-.2348-1.3516-.7485-1.3516S499.13,239.9067,499.13,240.7781Z" data-index="161"></path><rect class="h" x="515.947" y="233.282" width="31.0883" height="14.3956" rx="1.5753"></rect><path d="M525.0583,238.8235v3.9092h-.7041v-2.9263l-.7481.4468v-.76l1.1446-.67Z" data-index="162"></path><path d="M526.238,242.4534l1.396-1.8037a1.0675,1.0675,0,0,0,.3017-.7095.4509.4509,0,0,0-.48-.5137c-.2789,0-.4634.1843-.5079.5137l-.6479-.1228a1.1208,1.1208,0,0,1,1.1728-1.0388,1.0762,1.0762,0,0,1,1.167,1.1337,1.494,1.494,0,0,1-.3349.927l-.9551,1.2454h1.374v.648H526.238Z" data-index="163"></path><path d="M530.4011,239.8733a.4691.4691,0,1,1-.4693.4692A.4579.4579,0,0,1,530.4011,239.8733Zm0,1.9546a.4691.4691,0,1,1-.4693.4692A.4578.4578,0,0,1,530.4011,241.8279Z" data-index="164"></path><path d="M535.0046,240.7781c0,1.2509-.5083,1.9992-1.4409,1.9992s-1.441-.7483-1.441-1.9992.5083-1.9995,1.441-1.9995S535.0046,239.5271,535.0046,240.7781Zm-2.1895,0c0,.8711.2349,1.3515.7486,1.3515s.7485-.48.7485-1.3515-.2349-1.3516-.7485-1.3516S532.8151,239.9067,532.8151,240.7781Z" data-index="165"></path><path d="M538.9943,240.7781c0,1.2509-.5083,1.9992-1.4409,1.9992s-1.4409-.7483-1.4409-1.9992.5083-1.9995,1.4409-1.9995S538.9943,239.5271,538.9943,240.7781Zm-2.1894,0c0,.8711.2348,1.3515.7485,1.3515s.7485-.48.7485-1.3515-.2348-1.3516-.7485-1.3516S536.8049,239.9067,536.8049,240.7781Z" data-index="166"></path><rect class="g" x="552.9503" y="233.282" width="31.0883" height="14.3956" rx="1.5753"></rect><path class="f" d="M562.2253,238.8235v3.9092h-.7041v-2.9263l-.7481.4468v-.76l1.1446-.67Z" data-index="167"></path><path class="f" d="M563.405,242.4534l1.396-1.8037a1.0675,1.0675,0,0,0,.3017-.7095.4509.4509,0,0,0-.4805-.5137c-.2788,0-.4633.1843-.5078.5137l-.6479-.1228a1.1207,1.1207,0,0,1,1.1728-1.0388,1.0762,1.0762,0,0,1,1.167,1.1337,1.494,1.494,0,0,1-.3349.927l-.9551,1.2454h1.374v.648H563.405Z" data-index="168"></path><path class="f" d="M567.568,239.8733a.4691.4691,0,1,1-.4692.4692A.4579.4579,0,0,1,567.568,239.8733Zm0,1.9546a.4691.4691,0,1,1-.4692.4692A.4579.4579,0,0,1,567.568,241.8279Z" data-index="169"></path><path class="f" d="M569.9318,241.56a.6337.6337,0,0,0,.6314.57.6724.6724,0,0,0,.0053-1.34.6824.6824,0,0,0-.34.0837l-.2793-.3911.7373-1.0107h-1.2456v-.6477H571.68v.2456l-.9214,1.2453a1.201,1.201,0,0,1,.1562-.0112c.6035,0,.9722.4749.9722,1.1616a1.3224,1.3224,0,0,1-2.63.1844Z" data-index="170"></path><path class="f" d="M575.8376,240.7781c0,1.2509-.5083,1.9992-1.4409,1.9992s-1.441-.7483-1.441-1.9992.5083-1.9995,1.441-1.9995S575.8376,239.5271,575.8376,240.7781Zm-2.1895,0c0,.8711.2349,1.3515.7486,1.3515s.7485-.48.7485-1.3515-.2349-1.3516-.7485-1.3516S573.6481,239.9067,573.6481,240.7781Z" data-index="171"></path><path class="l" d="M468.5262,326.6758c1.6488-2.0132,3.89-4.8043,5.4908-6.8044a3.1593,3.1593,0,0,0-.5346-4.472l-3.5864-2.7825a3.1639,3.1639,0,0,0-4.5105.6557l-38.1428,53.1812a3.1639,3.1639,0,0,0,.77,4.4453l3.068,2.1241a3.164,3.164,0,0,0,4.3623-.7436l32.9762-45.4649C468.4544,326.7661,468.4881,326.7222,468.5262,326.6758Z" data-index="172"></path><path class="m" d="M439.3947,369.1474s.1158-2.2941,0-5.524c0,0-7.4452-4.5964-6.5756-8.199s5.59-3.0966,5.59-3.0966-2.5916-4.73-.55-7.7111a5.608,5.608,0,0,1,5.4016-2.36,4.8859,4.8859,0,0,1,.739-6.46c3.23-2.9815,9.5654,1.4907,9.5654,1.4907s-1.7392-7.7021-2.9814-12.1742,4.2237-7.4536,7.8262-2.1119a83.5277,83.5277,0,0,1,5.72,9.8139l4.3426-6.0734s3.1056,6.6946,2.8572,13.2786-1.1181,19.255-2.2361,28.0751-2.8277,12.402-2.8277,12.402l-15.8063,3.25Z" data-index="173"></path><path class="l" d="M234.799,528.475c-1.7623,26.9407,3.1018,76.3411,13.9108,102.84,6.9083,16.9361,17.0239,38.89,17.0239,38.89h84.6012s15.5976-13.8,13.7578-48.2993,8.0691-88.35,8.0691-88.35Z" data-index="174"></path><path class="g" d="M302.9166,327.3513c-24.9229.8554-46.5759-7.1872-63.8984,17.25s-42.9967,66.8152-52.2766,85.9936-22.5811,49.1833-28.7676,67.1244-17.6318,64.65-17.6318,64.65,16.3944,15.2187,33.7169,14.1053c0,0,6.4959-30.19,17.0131-44.42s37.7382-51.658,42.3781-60.6286c0,0-5.2586,35.8822-6.4959,50.4207,0,0,17.0964,15.8383,57.26,22.97s89.7117-11.2609,89.7117-11.2609V476.501s16.8212,23.6479,39.19,9.76,38.8851-58.5566,43.7648-76.1986,9.3841-29.5644,9.3841-29.5644-22.9618-4.5936-26.8708-11.35l-30.56,51.8s-5.2551-18.0174-13.8884-42.416-15.39-31.53-37.9116-37.1609S302.9166,327.3513,302.9166,327.3513Z" data-index="175" style="opacity: 1;"></path><path class="m" d="M375.8779,290.5637c.448,8.4366.3536,15.9316.2093,20.5329a4.69,4.69,0,0,1-4.9326,4.5364l-8.2552-.4058s-2.8715,12.1241-7.0193,17.7077-13.56,1.7548-13.56,1.7548.1595,9.5717-10.6884,15.9528-27.5985-6.2216-28.7152-23.2912l1.493-34.66,47.9837-12.9136,21.9056,3.1778Z" data-index="176"></path><path class="n" d="M342.32,334.6893c-8.4767-3.4457-15.5943-7.4684-21.164-12.7288,0,0,5.3991,13.8306,15.7935,24.5092C342.4032,340.77,342.32,334.6893,342.32,334.6893Z" data-index="177"></path><path d="M377.3089,277.2519s4.4078,9.8843,3.8968,14.9927c0,0-5.3507-.2688-10.728-5.6462a27.5537,27.5537,0,0,1-10.1441-3.7641s-7.87,7.7971-19.1623,4.5707S318.61,298.6974,318.61,298.6974s-3.7879,6.1839-8.6275,2.1509c0,0-2.418,3.2264-8.3339,3.2264,0,0-1.8812-17.9925,0-31.3121l46.244-23.5138Z" data-index="178"></path><path class="o" d="M301.649,272.7626l75.66,4.4893s-4.4893-34.4178-37.83-34.9166S301.649,272.7626,301.649,272.7626Z" data-index="179"></path><path class="o" d="M377.3089,277.2519c12.5832,1.0425,26.4891,2.5258,26.4891,2.5258v-4.0791l-32.0762-2.4356Z" data-index="180"></path><path class="p" d="M326.3837,269.66s-8.6037,4.84-10.2169,14.5187-.2689,19.6273,10.2169,22.8537,17.7452-9.41,18.2829-15.0565-.1584-15.3254-5.1877-20.4339c0,0,.3452-5.28,4.4383-15.5883s7.125-14.8564,3.6383-16.0692-9.4577-1.9-11.8539,2.5365S328.5577,259.4141,326.3837,269.66Z" data-index="181"></path><g class="q"><path class="r" d="M233.45,471.4261c12.0545-20.7328,18.1638-27.453,23.6621-44.5589s10.3857-31.7682,10.3857-31.7682" data-index="182"></path><path class="r" d="M373.9263,476.501c-1.349-20.3094-8.0692-76.5146-8.0692-76.5146" data-index="183"></path><path class="r" d="M408.835,420.9474c-13.7114,22.8019-24.7784,38.1424-24.7784,38.1424" data-index="184"></path></g><path class="s" d="M331.7381,670.2049c2.1706-20.7-6.3985-57.8291-10.582-79.4092l-4.1835-21.58" data-index="185"></path><path class="m" d="M140.3422,562.369c-5.0514,14.8807-6.0606,21.9454-8.836,31.0285s-4.2893,22.2033-3.7847,28.2588,5.46,4.9387,6.2623-1.9461c0,0,4.5871,11.0292,10.8948,10.2723,0,0,2.0185,6.56,8.5786,3.7847,0,0,7.317,1.7661,6.3077-11.8586s-.2523-20.6895,2.0185-20.9418.5046,11.354,1.5139,16.6525,5.5508,6.0555,7.8216-2.5231,1.0092-21.951,1.2615-27.7541a53.6685,53.6685,0,0,1,1.6787-10.8678Z" data-index="186"></path><path class="t" d="M133.9838,619.71c-1.2133-9.3334,2.76-23.9864,2.76-23.9864" data-index="187"></path><path class="t" d="M144.8786,629.9825c-2.4221-10.1681-3.0417-21.5625,0-30.6426" data-index="188"></path><path class="t" d="M153.4572,633.7672c-2.5566-9.4823-3.3017-23.6387-1.0665-33.0763" data-index="189"></path><path class="t" d="M438.4093,352.3278a36.3005,36.3005,0,0,1,6.46,3.7178" data-index="190"></path><path class="t" d="M443.2605,342.2564a26.1614,26.1614,0,0,1,7.6956,6.3356" data-index="191"></path><path class="t" d="M464.13,332.8152a23.3307,23.3307,0,0,1,2.136,6.9567" data-index="192"></path><circle class="u" cx="318.6104" cy="433.2626" r="30.4711"></circle><path d="M365.3137,298.7064a2.6286,2.6286,0,0,0-.9323,1.25,1.2881,1.2881,0,0,0,.6049,1.5061,1.7949,1.7949,0,0,0,1.842-2.9819,1.5052,1.5052,0,0,0-1.7268-.2077,2.2417,2.2417,0,0,0-.9247,1.2541,2.3546,2.3546,0,0,0-.0468,1.3274,1.5546,1.5546,0,0,0,.98,1.0673,1.719,1.719,0,0,0,1.647-.3947,2.3383,2.3383,0,0,0,.7655-2.7263,1.2827,1.2827,0,0,0-1.4951-.594,2.4333,2.4333,0,0,0-1.2245,1.0825,2.005,2.005,0,0,0-.368,1.5437,1.2379,1.2379,0,0,0,1.659.7157,1.642,1.642,0,0,0,1.1294-1.186,1.3,1.3,0,0,0-.9234-1.476,1.016,1.016,0,0,0-1.2929.9665,1.0578,1.0578,0,0,0,.9632,1.1011,1.018,1.018,0,0,0,.4652-.1186c.0246-.0116.0482-.0246.0724-.0371l.0359-.0193q.0734-.036-.0026,0l-.0387.018q-.8209-.2787-.5917-.73l.0245-.0558q-.1569.26.4707-.2523l.3155.0854-.01-.0058.2243.2242.0484.1186a.6251.6251,0,1,0-1.2053.3323.6789.6789,0,0,0,.4612.473.691.691,0,0,0,.6439-.1738.7558.7558,0,0,0,.1343-.91.7086.7086,0,0,0-.5259-.3285.9547.9547,0,0,0-.5793.1252.6077.6077,0,0,0-.054.0289c-.0675.0436.1062-.0336.0467-.0165-.1042.03.11-.01.0756-.008a.3591.3591,0,0,1,.203.0589c-.1122-.0535.0956.0812.0395.0356-.0086-.007-.0144-.0173-.0227-.0244-.05-.0436.0827.1334.057.0714-.0106-.0254-.0535-.1108-.0067.0014.0483.1157.01.0119,0-.0165-.0038-.0115-.004-.0241-.0075-.0356-.0211-.0692.0157.176.0132.082,0-.0115.0017-.0246,0-.0359-.0091-.0695-.037.1619-.0145.0957.01-.0289.0384-.1122-.0085-.0029-.0452.1054-.022.0459-.0065.0235.036-.0519-.0771.0974-.0642.08a.272.272,0,0,1,.0245-.0247c.0481-.0484-.139.0934-.0575.0495.01-.0055-.1353.0606-.0748.0328.0139-.0063.0323-.0044.0455-.0114-.07.0371-.1473.0159-.0743.0151.0231,0,.0844.0084-.022-.0046-.1083-.0131-.0344-.0048-.0076.0059.06.0239-.0827-.041-.0761-.0344l.0424.0223q.0213.0117.0412.0254l-.0743-.0588a.468.468,0,0,0,.0719.0677c.07.0627-.0326-.0341-.0353-.0492.0023.0131.021.03.0269.0419.0572.119-.0254-.1168-.0006-.0147a.2921.2921,0,0,0,.0134.0474c.0283.062,0-.155-.006-.0528a.2543.2543,0,0,0-.0007.0493c.01.0527.0085-.0725.0119-.0791a.7244.7244,0,0,0-.0326.1181c-.0164.06.0292-.07.0289-.0692a.41.41,0,0,0-.0337.0611c-.0091.015-.02.0291-.0287.0441-.0374.0627.0959-.1055.021-.03-.0251.0254-.0506.05-.076.0756-.0717.0711.1116-.0742-.0022.0019a1.2011,1.2011,0,0,1-.11.0655c-.0161.0085-.0333.0156-.0491.0245-.0624.0351.15-.0512.0313-.0142-.0346.0109-.0687.0228-.1039.0319-.0217.0056-.1758.0361-.07.017.125-.0225-.08,0-.0769-.005s.1314.03.0685.01a.3067.3067,0,0,1-.0379-.0089q-.0686-.02.0585.03a.235.235,0,0,0-.05-.0283c-.0588-.026.0516.0391.0532.0405-.0553-.0474.0234-.0277.0342.0509-.0017-.0122-.019-.03-.0242-.0414-.0255-.057.0305.0827.0321.0764.0021-.0085-.0222-.0513-.0161-.0619.01-.0173-.0033.156.0122.0852a.4373.4373,0,0,0-.0006-.0841c-.0037-.1054-.0313.1325-.005.0271.01-.0413.0185-.0829.0306-.1238s.0271-.0824.0417-.1233c.0066-.0185.0331-.0813-.0033.0054-.0421.1.0079-.0139.0142-.0269a3.0716,3.0716,0,0,1,.2633-.4422c.089-.1254-.0594.0663.0115-.0179.03-.0357.06-.0717.0911-.1063.0616-.0678.1286-.128.1964-.1892.06-.0539-.1045.0713-.0373.0294.0155-.01.03-.021.0456-.0309.0351-.0225.0732-.04.1086-.0614.0527-.0322-.0691.0284-.07.0283a.345.345,0,0,0,.0644-.0213.2678.2678,0,0,0,.0488-.012c.0449-.025-.1184.0015-.0676.0087a.2265.2265,0,0,0,.0663-.0007c.0527-.0108-.0754-.01-.0826-.0133.0215.01.16.054.06.0093-.0964-.0431.02.0168.0394.0277.0829.046-.1207-.0932-.0249-.0137.02.0165.0632.0758-.0021-.009s-.0253-.0358-.0152-.017c.0134.0253.0677.1371.0224.0272-.044-.1065-.0037-.0045.0041.0218.0117.039.0177.0784.027.1177.0176.0747-.0107-.1511-.0109-.0737,0,.0155.0024.0316.0031.0472.0017.0374.0016.0748,0,.1122-.0012.0326-.0056.0651-.0068.0977-.0028.0786.0262-.1451.01-.0679-.0047.0216-.0076.0438-.0119.0655a1.8647,1.8647,0,0,1-.06.2253c-.01.0313-.0233.0618-.0337.093-.0243.0731.06-.1273.0251-.06-.01.0188-.0181.0386-.0275.0576a2.19,2.19,0,0,1-.1366.2349c-.0223.0335-.0462.0657-.0693.0985-.0475.0674.0787-.0921.023-.0313-.0182.02-.0348.0412-.0527.0612a2.0385,2.0385,0,0,1-.1851.1832.625.625,0,0,0-.0609.05c0-.005.1033-.072.0481-.0393-.044.0263-.0851.057-.13.0823-.0166.0092-.0336.0175-.05.0269-.0887.05.0333-.013.0474-.0166-.0351.0089-.0691.026-.1041.0362-.0245.0071-.1715.0327-.0584.0188.11-.0135-.044-.0009-.0785-.0023-.1383-.0055.1089.0316.0033,0-.035-.01-.073-.0263-.1086-.0332.1359.0262.1145.0543.067.0272l-.0386-.0207c-.0285-.0161-.1355-.0935-.0427-.0228s-.0008-.0062-.0195-.0257a.2636.2636,0,0,0-.0279-.0307c-.052-.0376.0734.0746.0543.0727-.0125-.0013-.0462-.0689-.0535-.0812-.0167-.0284-.0707-.1473-.0253-.0385.0468.1121-.0009-.0081-.0087-.0326q-.013-.0419-.0233-.0844c-.0081-.0335-.0111-.0689-.02-.1019-.0182-.0654.0215.1045.0122.0916a.2535.2535,0,0,1-.0064-.0759,1.7383,1.7383,0,0,1,0-.2016c.0021-.0367.0083-.0734.01-.11.0024-.0694-.0093.1014-.0117.0875a.2945.2945,0,0,1,.014-.0784,2.0153,2.0153,0,0,1,.051-.2012c.011-.0356.0241-.07.0359-.1055.0426-.127-.0625.1255-.0019.0036.03-.06.06-.12.0957-.1775.0229-.0371.0472-.0733.0724-.1088.0113-.016.0258-.0319.0355-.0489-.03.0518-.07.0863-.0086.0178.0267-.03.0546-.0584.0839-.0855.0173-.0161.0861-.0729.0127-.0147-.07.0552-.0155.0114.0007.0027.0263-.0142.1567-.0827.0635-.04-.1144.0528.1515-.018.0108-.0031-.1127.0119.01.0022.0365.0024.0229,0,.0457.0029.0686.0035.0647.0015-.0841-.012-.0808-.01a.9574.9574,0,0,0,.1173.0311c.1307.0439-.1135-.061.0106.0074.0309.017.0594.0372.0894.0557.0661.0407-.0981-.0877-.0434-.0328.0124.0124.0264.0234.0389.0357.0185.0179.1126.1275.0436.0421-.0652-.0807.0152.0346.03.059.0537.0888-.01-.02-.0125-.0394a.34.34,0,0,0,.02.0568c.0147.0449.0248.09.0353.1361.0042.0184.0175.0908.0007-.0034-.0173-.0967-.0037-.0088-.0026.0175.0019.0476-.0007.0946-.0021.1421-.003.108.0021-.0292.0084-.0446a.3545.3545,0,0,0-.0112.06c-.01.0468-.0215.0931-.0358.1387-.0061.0194-.0143.0386-.02.0581-.0223.08.0547-.1095.0166-.036-.0188.0362-.0353.073-.0563.108-.0125.0209-.0908.1292-.0209.0372.0672-.0885-.0114.0084-.0324.03-.0253.0257-.0556.0477-.08.074-.0409.0438.0688-.051.0652-.0492a.556.556,0,0,0-.0512.036c-.0612.0407-.1289.0671-.1911.1047-.0013.0008.1341-.0434.0779-.0343a.3365.3365,0,0,0-.0433.015c-.0384.0125-.0777.02-.1164.031-.0911.0258.1616-.0065.0354-.004-.0334.0006-.0666.0031-.1.0017-.0138-.0006-.0282-.0032-.042-.003-.0535.0007.0975.0075.0974.0127a.86.86,0,0,1-.1052-.0288c.0033-.0107.1525.08.0751.03a.3972.3972,0,0,0-.0353-.02c-.1043-.0529.09.0933.0288.0221a.2242.2242,0,0,0-.0294-.0306c-.04-.03.0515.0658.0524.07a.3088.3088,0,0,0-.0358-.0568c-.0494-.0705.0214.026.0178.0523.0021-.0156-.0369-.1753-.0212-.0489.0139.1129.0057-.0194.0051-.0508-.002-.1042-.0322.133-.0022.0313.0128-.0435.0332-.09.0425-.1345-.0028.013-.0677.1384-.0182.0492l.0263-.05c.0215-.0391.0448-.0772.07-.1143.0217-.0326.0474-.0629.0682-.0958-.0909.1439-.0032.0094.03-.0275a3.2792,3.2792,0,0,1,.4062-.3761.625.625,0,0,0,.1831-.4419.6362.6362,0,0,0-.1831-.442.6288.6288,0,0,0-.4419-.183.7257.7257,0,0,0-.442.183Z" data-index="193"></path><path d="M352.3063,318.2687c1.1628,3.3957,4.366,5.3459,7.7443,6.0316a.8968.8968,0,0,0,1.0764-.6111.8835.8835,0,0,0-.6112-1.0763c-2.7375-.5557-5.56-2.0016-6.522-4.8094a.896.896,0,0,0-1.0764-.6112.8834.8834,0,0,0-.6111,1.0764Z" data-index="194"></path><path d="M363.6238,291.3826a11.5347,11.5347,0,0,1,2.4552-.0188c.0316.0032.339.04.1541.0152-.2118-.0281.1869.0311.2263.0379q.2938.051.585.1167a11.8754,11.8754,0,0,1,1.22.3453c.1885.0644.3726.14.56.207.24.0861-.2055-.0994.0244.01.09.0426.1814.0817.2713.1243a11.71,11.71,0,0,1,1.1144.6029q.2541.156.5.3249c.0756.052.4882.3571.2711.1879a11.1376,11.1376,0,0,1,1.0011.8929,1.625,1.625,0,1,0,2.2981-2.2981,13.3015,13.3015,0,0,0-10.68-3.7978,1.6648,1.6648,0,0,0-1.625,1.625c.0357.799.72,1.7268,1.625,1.625Z" data-index="195"></path><circle class="c" cx="512.99" cy="17.1187" r="17.1187"></circle><path class="f" d="M509.926,25.1188,503.7674,18.96a1.7509,1.7509,0,0,1,2.4764-2.4758l3.6822,3.6829,9.811-9.8108a1.7507,1.7507,0,0,1,2.4758,2.4758Z" data-index="196"></path></g></svg>