<svg width="1469" height="870" viewBox="0 0 1469 870" fill="none" xmlns="http://www.w3.org/2000/svg">
<g clip-path="url(#clip0_37_2635)">
<rect width="1469" height="870" fill="white"/>
<path d="M111.768 388.528V168.167H246.495" stroke="#00CBA5" stroke-width="2" stroke-linecap="round" stroke-linejoin="round"/>
<path d="M1342.27 388.528V168.167H1207.54" stroke="#00CBA5" stroke-width="2" stroke-linecap="round" stroke-linejoin="round"/>
<path d="M1342.27 233.611L1298.79 284.39H1342.27H1385.75L1342.27 233.611Z" fill="#00CBA5"/>
<path d="M111.768 284.39L155.252 233.611H111.768H68.2849L111.768 284.39Z" fill="#00CBA5"/>
<path d="M857.163 860.639C851.702 860.271 846.564 857.495 842.788 852.873C836.015 846.803 831.569 837.855 830.417 827.977L824.932 744.04H644.067L638.582 827.977C637.43 837.855 632.984 846.803 626.211 852.873C622.435 857.495 617.297 860.271 611.836 860.639H594.508V870H874.489V860.639H857.163Z" fill="#611F69"/>
<g style="mix-blend-mode:multiply">
<path d="M824.934 744.041H734.501H676.035L828.314 795.77L824.934 744.041Z" fill="#4E77F7"/>
</g>
<path d="M1201.49 0H267.511C251.956 0 239.346 14.7251 239.346 32.8894V711.15C239.346 729.315 251.956 744.04 267.511 744.04H1201.49C1217.04 744.04 1229.65 729.315 1229.65 711.15V32.8894C1229.65 14.7251 1217.04 0 1201.49 0Z" fill="#0C1F72"/>
<path d="M1202.62 39.9146H266.376V595.812H1202.62V39.9146Z" fill="white"/>
<path d="M239.346 637.649H1229.65V711.15C1229.65 719.873 1226.69 728.239 1221.4 734.407C1216.12 740.575 1208.96 744.04 1201.49 744.04H267.511C260.041 744.04 252.877 740.575 247.596 734.407C242.314 728.239 239.346 719.873 239.346 711.15V637.649Z" fill="#611F69"/>
<path d="M744.204 683.54L735.748 668.362C735.613 668.119 735.428 667.919 735.21 667.781C734.992 667.643 734.748 667.571 734.5 667.571C734.252 667.571 734.008 667.643 733.79 667.781C733.572 667.919 733.387 668.119 733.251 668.362L724.796 683.54C722.695 687.306 721.468 691.646 721.236 696.133C721.054 699.905 721.935 703.644 723.745 706.777C725.554 709.91 728.192 712.265 731.256 713.482C733.357 714.331 735.642 714.331 737.744 713.482C740.808 712.265 743.446 709.91 745.255 706.777C747.064 703.644 747.946 699.905 747.764 696.133C747.532 691.646 746.305 687.306 744.204 683.54Z" fill="white"/>
<path d="M1445.06 355.502H1213.72C1200.5 355.502 1189.78 368.021 1189.78 383.464V842.038C1189.78 857.481 1200.5 870 1213.72 870H1445.06C1458.28 870 1469 857.481 1469 842.038V383.464C1469 368.021 1458.28 355.502 1445.06 355.502Z" fill="#34323A"/>
<path d="M1423.35 355.502H1192.02C1178.79 355.502 1168.07 368.021 1168.07 383.464V842.038C1168.07 857.481 1178.79 870 1192.02 870H1423.35C1436.57 870 1447.29 857.481 1447.29 842.038V383.464C1447.29 368.021 1436.57 355.502 1423.35 355.502Z" fill="#EF6C90"/>
<path d="M1323.08 379.337H1292.29C1290.59 379.337 1289.21 380.947 1289.21 382.933C1289.21 384.919 1290.59 386.529 1292.29 386.529H1323.08C1324.78 386.529 1326.16 384.919 1326.16 382.933C1326.16 380.947 1324.78 379.337 1323.08 379.337Z" fill="white"/>
<path d="M1186.59 717.754V408.235H1428.78V795.77H1186.59V717.754Z" fill="#0C1F72"/>
<path opacity="0.1" d="M1428.78 408.233H1186.59V427.94H1428.78V408.233Z" fill="#383838"/>
<path d="M1314.29 824.998L1308.53 814.665C1308.44 814.5 1308.32 814.364 1308.17 814.27C1308.02 814.176 1307.85 814.126 1307.68 814.126C1307.52 814.126 1307.35 814.176 1307.2 814.27C1307.05 814.364 1306.93 814.5 1306.83 814.665L1301.08 824.998C1299.65 827.561 1298.81 830.516 1298.65 833.57C1298.53 836.139 1299.13 838.684 1300.36 840.816C1301.59 842.949 1303.39 844.552 1305.47 845.381C1306.91 845.959 1308.46 845.959 1309.89 845.381C1311.98 844.552 1313.77 842.949 1315.01 840.816C1316.24 838.684 1316.84 836.139 1316.71 833.57C1316.56 830.516 1315.72 827.562 1314.29 824.998Z" fill="white"/>
<path d="M1249.62 771.94H1201.48" stroke="white" stroke-linecap="round" stroke-linejoin="round"/>
<path d="M1222.01 753.225H1201.48" stroke="white" stroke-linecap="round" stroke-linejoin="round"/>
<path d="M1238.63 734.511H1201.48" stroke="white" stroke-linecap="round" stroke-linejoin="round"/>
<path d="M1231.69 715.797H1201.48" stroke="white" stroke-linecap="round" stroke-linejoin="round"/>
<path d="M1249.62 697.083H1201.48" stroke="white" stroke-linecap="round" stroke-linejoin="round"/>
<path d="M1239.47 678.368H1201.48" stroke="white" stroke-linecap="round" stroke-linejoin="round"/>
<path opacity="0.5" d="M1230.69 661.643H1201.48" stroke="white" stroke-linecap="round" stroke-linejoin="round"/>
<path opacity="0.5" d="M1219.71 644.917H1201.48" stroke="white" stroke-linecap="round" stroke-linejoin="round"/>
<path opacity="0.5" d="M1234.59 628.191H1201.48" stroke="white" stroke-linecap="round" stroke-linejoin="round"/>
<path opacity="0.5" d="M1230.69 611.466H1201.48" stroke="white" stroke-linecap="round" stroke-linejoin="round"/>
<path opacity="0.5" d="M1239.47 594.74H1201.48" stroke="white" stroke-linecap="round" stroke-linejoin="round"/>
<path opacity="0.5" d="M1226.78 577.155H1201.48" stroke="white" stroke-linecap="round" stroke-linejoin="round"/>
<path opacity="0.5" d="M1238.63 559.57H1201.48" stroke="white" stroke-linecap="round" stroke-linejoin="round"/>
<path d="M1251.82 541.985H1201.48" stroke="white" stroke-linecap="round" stroke-linejoin="round"/>
<path d="M1237.94 524.4H1201.48" stroke="white" stroke-linecap="round" stroke-linejoin="round"/>
<path d="M1258.04 506.815H1201.48" stroke="white" stroke-linecap="round" stroke-linejoin="round"/>
<path d="M1249.62 491.865H1201.48" stroke="white" stroke-linecap="round" stroke-linejoin="round"/>
<path d="M1222.01 476.914H1201.48" stroke="white" stroke-linecap="round" stroke-linejoin="round"/>
<path d="M1245.6 461.963H1201.48" stroke="white" stroke-linecap="round" stroke-linejoin="round"/>
<path d="M1237.94 447.013H1201.48" stroke="white" stroke-linecap="round" stroke-linejoin="round"/>
<path d="M1264.13 432.062H1201.48" stroke="white" stroke-linecap="round" stroke-linejoin="round"/>
<path d="M1280.13 771.94H1413.88" stroke="white" stroke-linecap="round" stroke-linejoin="round"/>
<path opacity="0.7" d="M1375.16 737.952H1413.87" stroke="white" stroke-linecap="round" stroke-linejoin="round"/>
<path d="M1346.55 703.964H1413.88" stroke="white" stroke-linecap="round" stroke-linejoin="round"/>
<path opacity="0.7" d="M1280.13 669.977H1413.88" stroke="white" stroke-linecap="round" stroke-linejoin="round"/>
<path d="M1387.76 635.989H1413.88" stroke="white" stroke-linecap="round" stroke-linejoin="round"/>
<path opacity="0.7" d="M1357.96 602.001H1413.88" stroke="white" stroke-linecap="round" stroke-linejoin="round"/>
<path d="M1321.72 568.014H1413.87" stroke="white" stroke-linecap="round" stroke-linejoin="round"/>
<path opacity="0.7" d="M1367.8 534.025H1413.87" stroke="white" stroke-linecap="round" stroke-linejoin="round"/>
<path d="M1390.84 500.038H1413.88" stroke="white" stroke-linecap="round" stroke-linejoin="round"/>
<path opacity="0.7" d="M1280.13 466.051H1413.88" stroke="white" stroke-linecap="round" stroke-linejoin="round"/>
<path d="M1328.17 432.062H1413.87" stroke="white" stroke-linecap="round" stroke-linejoin="round"/>
<path d="M276.982 355.502H45.6499C32.4258 355.502 21.7056 368.021 21.7056 383.464V842.038C21.7056 857.481 32.4258 870 45.6499 870H276.982C290.206 870 300.926 857.481 300.926 842.038V383.464C300.926 368.021 290.206 355.502 276.982 355.502Z" fill="#34323A"/>
<path d="M255.276 355.502H23.9443C10.7202 355.502 0 368.021 0 383.464V842.038C0 857.481 10.7202 870 23.9443 870H255.276C268.5 870 279.22 857.481 279.22 842.038V383.464C279.22 368.021 268.5 355.502 255.276 355.502Z" fill="#FFC645"/>
<path d="M155.008 379.337H124.213C122.512 379.337 121.133 380.947 121.133 382.933C121.133 384.919 122.512 386.529 124.213 386.529H155.008C156.709 386.529 158.087 384.919 158.087 382.933C158.087 380.947 156.709 379.337 155.008 379.337Z" fill="white"/>
<path d="M18.5129 717.754V408.235H260.709V795.77H18.5129V717.754Z" fill="#0C1F72"/>
<path opacity="0.1" d="M260.709 408.233H18.5117V427.94H260.709V408.233Z" fill="#383838"/>
<path d="M146.216 824.998L140.46 814.665C140.368 814.5 140.242 814.364 140.094 814.27C139.945 814.176 139.779 814.127 139.61 814.127C139.441 814.127 139.275 814.176 139.127 814.27C138.978 814.364 138.852 814.5 138.76 814.665L133.004 824.998C131.573 827.562 130.738 830.516 130.58 833.571C130.457 836.139 131.056 838.684 132.288 840.817C133.52 842.95 135.316 844.553 137.401 845.381C138.832 845.959 140.388 845.959 141.819 845.381C143.904 844.553 145.7 842.949 146.931 840.817C148.163 838.684 148.763 836.139 148.639 833.571C148.482 830.516 147.647 827.562 146.216 824.998Z" fill="white"/>
<path d="M81.5468 771.94H33.4026" stroke="white" stroke-linecap="round" stroke-linejoin="round"/>
<path d="M53.9324 753.225H33.4026" stroke="white" stroke-linecap="round" stroke-linejoin="round"/>
<path d="M70.5607 734.511H33.4026" stroke="white" stroke-linecap="round" stroke-linejoin="round"/>
<path d="M63.617 715.797H33.4026" stroke="white" stroke-linecap="round" stroke-linejoin="round"/>
<path d="M81.5468 697.083H33.4026" stroke="white" stroke-linecap="round" stroke-linejoin="round"/>
<path d="M71.3967 678.368H33.4026" stroke="white" stroke-linecap="round" stroke-linejoin="round"/>
<path opacity="0.5" d="M62.6182 661.643H33.4026" stroke="white" stroke-linecap="round" stroke-linejoin="round"/>
<path opacity="0.5" d="M51.6334 644.917H33.4026" stroke="white" stroke-linecap="round" stroke-linejoin="round"/>
<path opacity="0.5" d="M66.5197 628.191H33.4026" stroke="white" stroke-linecap="round" stroke-linejoin="round"/>
<path opacity="0.5" d="M62.6182 611.466H33.4026" stroke="white" stroke-linecap="round" stroke-linejoin="round"/>
<path opacity="0.5" d="M71.3967 594.74H33.4026" stroke="white" stroke-linecap="round" stroke-linejoin="round"/>
<path opacity="0.5" d="M58.7033 577.155H33.4026" stroke="white" stroke-linecap="round" stroke-linejoin="round"/>
<path opacity="0.5" d="M70.5607 559.57H33.4026" stroke="white" stroke-linecap="round" stroke-linejoin="round"/>
<path d="M83.743 541.985H33.4026" stroke="white" stroke-linecap="round" stroke-linejoin="round"/>
<path d="M69.8642 524.4H33.4026" stroke="white" stroke-linecap="round" stroke-linejoin="round"/>
<path d="M89.9692 506.815H33.4026" stroke="white" stroke-linecap="round" stroke-linejoin="round"/>
<path d="M81.5468 491.865H33.4026" stroke="white" stroke-linecap="round" stroke-linejoin="round"/>
<path d="M53.9324 476.914H33.4026" stroke="white" stroke-linecap="round" stroke-linejoin="round"/>
<path d="M77.5282 461.963H33.4026" stroke="white" stroke-linecap="round" stroke-linejoin="round"/>
<path d="M69.8642 447.013H33.4026" stroke="white" stroke-linecap="round" stroke-linejoin="round"/>
<path d="M96.0609 432.062H33.4026" stroke="white" stroke-linecap="round" stroke-linejoin="round"/>
<path d="M112.053 771.94H245.801" stroke="white" stroke-linecap="round" stroke-linejoin="round"/>
<path opacity="0.7" d="M207.089 737.952H245.801" stroke="white" stroke-linecap="round" stroke-linejoin="round"/>
<path d="M178.473 703.964H245.801" stroke="white" stroke-linecap="round" stroke-linejoin="round"/>
<path opacity="0.7" d="M112.053 669.977H245.801" stroke="white" stroke-linecap="round" stroke-linejoin="round"/>
<path d="M219.682 635.989H245.801" stroke="white" stroke-linecap="round" stroke-linejoin="round"/>
<path opacity="0.7" d="M189.89 602.001H245.801" stroke="white" stroke-linecap="round" stroke-linejoin="round"/>
<path d="M153.648 568.014H245.801" stroke="white" stroke-linecap="round" stroke-linejoin="round"/>
<path opacity="0.7" d="M199.724 534.025H245.801" stroke="white" stroke-linecap="round" stroke-linejoin="round"/>
<path d="M222.763 500.038H245.801" stroke="white" stroke-linecap="round" stroke-linejoin="round"/>
<path opacity="0.7" d="M112.053 466.051H245.801" stroke="white" stroke-linecap="round" stroke-linejoin="round"/>
<path d="M160.097 432.062H245.801" stroke="white" stroke-linecap="round" stroke-linejoin="round"/>
<g clip-path="url(#clip1_37_2635)">
<path d="M548.35 390.06H501.228L460.093 327.853V390.06H420V208.667H460.093V319.483L500.967 261.738H545.486L519.126 296.327L499.522 322.058L548.35 390.06Z" fill="url(#paint0_linear_37_2635)"/>
<path d="M649.429 261.738V296.327H620.791V390.06H580.698V296.327H522.303L548.663 261.738H580.698V208.667H620.791V261.738H649.429Z" fill="#4682B4"/>
<path d="M775.528 289.806C769.943 280.076 762.367 272.472 752.773 266.98C743.18 261.501 732.024 258.755 719.293 258.755C706.562 258.755 694.782 261.672 684.498 267.508C674.201 273.356 666.091 281.356 660.169 291.522C654.246 301.7 651.278 313.146 651.278 325.886C651.278 338.626 654.324 350.64 660.429 360.898C666.534 371.155 674.904 379.169 685.539 384.912C696.174 390.655 708.385 393.533 722.17 393.533C732.974 393.533 742.828 391.711 751.732 388.093C760.623 384.476 768.212 378.852 774.486 371.248L752.253 348.963C748.413 353.386 743.961 356.699 738.91 358.917C733.846 361.122 728.275 362.231 722.17 362.231C715.362 362.231 709.478 360.766 704.505 357.848C699.546 354.93 695.706 350.732 692.998 345.253C692.152 343.55 691.449 341.742 690.863 339.854L781.815 339.405C782.687 336.223 783.247 333.359 783.507 330.784C783.768 328.223 783.898 325.701 783.898 323.233C783.898 310.665 781.112 299.535 775.528 289.806ZM690.837 311.721C691.371 309.991 691.996 308.341 692.738 306.783C695.263 301.476 698.843 297.317 703.464 294.307C708.085 291.311 713.539 289.806 719.814 289.806C725.567 289.806 730.488 291.126 734.588 293.779C738.689 296.433 741.787 300.195 743.883 305.054C744.716 306.981 745.393 309.094 745.913 311.391L690.837 311.721Z" fill="#4682B4"/>
<path d="M889.325 346.045L915.216 372.04C908.421 379.116 900.871 384.476 892.592 388.093C884.313 391.711 874.941 393.533 864.475 393.533C851.21 393.533 839.273 390.615 828.638 384.78C817.99 378.944 809.672 370.891 803.645 360.634C797.631 350.376 794.624 338.877 794.624 326.15C794.624 313.424 797.67 301.7 803.788 291.522C809.88 281.356 818.25 273.356 828.898 267.508C839.534 261.672 851.483 258.755 864.735 258.755C874.849 258.755 884.04 260.484 892.332 263.93C900.611 267.376 907.978 272.472 914.435 279.191L888.544 305.714C885.576 302.361 882.126 299.879 878.208 298.294C874.277 296.697 869.786 295.905 864.735 295.905C859.151 295.905 854.139 297.185 849.687 299.747C845.248 302.308 841.76 305.846 839.234 310.361C836.696 314.876 835.433 320.038 835.433 325.886C835.433 331.735 836.696 337.2 839.234 341.794C841.76 346.402 845.287 349.98 849.817 352.541C854.36 355.115 859.32 356.396 864.735 356.396C870.15 356.396 874.628 355.511 878.729 353.742C882.829 351.973 886.357 349.399 889.325 346.045Z" fill="#4682B4"/>
<path d="M1057 308.103V390.615H1016.71V317.12C1016.71 310.585 1014.62 305.239 1010.44 301.08C1006.25 296.921 1001.01 294.836 994.739 294.836C990.56 294.836 986.798 295.773 983.492 297.621C980.172 299.483 977.556 302.097 975.642 305.45C973.729 308.816 972.766 312.711 972.766 317.12V390.615H932.477V198H972.766V271.442C975.356 269.079 978.233 267.019 981.396 265.263C988.894 261.105 997.446 259.019 1007.04 259.019C1016.63 259.019 1025.69 261.105 1033.19 265.263C1040.69 269.422 1046.53 275.165 1050.73 282.505C1054.9 289.845 1057 298.387 1057 308.103Z" fill="#4682B4"/>
<path d="M719.02 447V446.709" stroke="black" stroke-miterlimit="10"/>
</g>
</g>
<defs>
<linearGradient id="paint0_linear_37_2635" x1="420" y1="299.364" x2="548.35" y2="299.364" gradientUnits="userSpaceOnUse">
<stop stop-color="#3D1C5C"/>
<stop offset="1" stop-color="#4682B4"/>
</linearGradient>
<clipPath id="clip0_37_2635">
<rect width="1469" height="870" fill="white"/>
</clipPath>
<clipPath id="clip1_37_2635">
<rect width="637" height="249" fill="white" transform="translate(420 198)"/>
</clipPath>
</defs>
</svg>
