<svg width="8" height="9" viewBox="0 0 8 9" fill="none" xmlns="http://www.w3.org/2000/svg">
<path fill-rule="evenodd" clip-rule="evenodd" d="M5.91667 0.625H2.58333C1.43274 0.625 0.5 1.55774 0.5 2.70833V6.04167C0.5 7.19225 1.43274 8.125 2.58333 8.125H5.91667C7.06725 8.125 8 7.19225 8 6.04167V2.70833C8 1.55774 7.06725 0.625 5.91667 0.625ZM7.27083 6.04167C7.26854 6.78858 6.66358 7.39354 5.91667 7.39583H2.58333C1.8364 7.39354 1.23145 6.78858 1.22917 6.04167V2.70833C1.23145 1.9614 1.8364 1.35645 2.58333 1.35417H5.91667C6.66358 1.35645 7.26854 1.9614 7.27083 2.70833V6.04167ZM6.22917 2.8125C6.45929 2.8125 6.64583 2.62595 6.64583 2.39583C6.64583 2.16572 6.45929 1.97917 6.22917 1.97917C5.99904 1.97917 5.8125 2.16572 5.8125 2.39583C5.8125 2.62595 5.99904 2.8125 6.22917 2.8125ZM4.25 2.5C3.21447 2.5 2.375 3.33947 2.375 4.375C2.375 5.41054 3.21447 6.25 4.25 6.25C5.28554 6.25 6.125 5.41054 6.125 4.375C6.12612 3.87737 5.92892 3.39982 5.57704 3.04795C5.22517 2.69608 4.74762 2.49889 4.25 2.5ZM3.10417 4.375C3.10417 5.00783 3.61717 5.52083 4.25 5.52083C4.88283 5.52083 5.39583 5.00783 5.39583 4.375C5.39583 3.74217 4.88283 3.22917 4.25 3.22917C3.61717 3.22917 3.10417 3.74217 3.10417 4.375Z" fill="#611F69"/>
</svg>
