<svg width="562" height="113" viewBox="0 0 562 113" fill="none" xmlns="http://www.w3.org/2000/svg">
<mask id="mask0_74_77" style="mask-type:luminance" maskUnits="userSpaceOnUse" x="0" y="1" width="141" height="111">
<path d="M0.5 1.58716H140.09V111.255H0.5V1.58716Z" fill="white"/>
</mask>
<g mask="url(#mask0_74_77)">
<path d="M107.932 1.58716L82.8602 49.5083H82.8528L61.5633 8.81488H79.5775L74.6645 18.2029L78.7623 26.0311L91.5478 1.58716H49.593L82.8528 65.1501V65.1647L86.9506 57.3365L86.9433 57.3219L112.323 8.81488H128.685L82.8381 96.4336L70.5741 72.9856L33.2091 1.58716H0.5L58.0016 111.482H66.1752L12.463 8.81488H28.8175L82.5297 111.482H83.1466L140.641 1.58716H107.932Z" fill="#DDB661"/>
</g>
<path d="M171.719 1.70773H183.91V54.1984H171.719V1.70773Z" fill="#DDB661"/>
<path d="M244.675 1.70773V54.1984H234.688L208.426 22.3291V54.1984H196.383V1.70773H206.488L232.631 33.5771V1.70773H244.675Z" fill="#DDB661"/>
<path d="M307.751 1.70773L284.986 54.1984H272.942L250.235 1.70773H263.395L279.404 39.2011L295.649 1.70773H307.751Z" fill="#DDB661"/>
<path d="M313.232 1.70773H325.422V54.1984H313.232V1.70773Z" fill="#DDB661"/>
<path d="M363.099 55.1064C357.73 55.1064 352.876 53.9494 348.529 51.6207C344.196 49.2993 340.788 46.0772 338.306 41.9544C335.839 37.817 334.605 33.1523 334.605 27.953C334.605 22.7611 335.839 18.1037 338.306 13.9809C340.788 9.84345 344.196 6.61405 348.529 4.28536C352.876 1.964 357.76 0.799652 363.187 0.799652C367.747 0.799652 371.867 1.60517 375.554 3.20157C379.233 4.80529 382.325 7.11201 384.836 10.1144L377.022 17.2909C373.453 13.212 369.04 11.1689 363.774 11.1689C360.521 11.1689 357.613 11.8865 355.05 13.3072C352.502 14.7132 350.512 16.6977 349.087 19.2534C347.655 21.8164 346.942 24.7163 346.942 27.953C346.942 31.1971 347.655 34.097 349.087 36.6527C350.512 39.2157 352.502 41.2075 355.05 42.6282C357.613 44.0342 360.521 44.7372 363.774 44.7372C369.04 44.7372 373.453 42.6721 377.022 38.5273L384.836 45.7331C382.325 48.7794 379.211 51.1081 375.495 52.7045C371.794 54.3009 367.659 55.1064 363.099 55.1064Z" fill="#DDB661"/>
<path d="M403.939 11.6083H387.077V1.70773H432.961V11.6083H416.1V54.1984H403.939V11.6083Z" fill="#DDB661"/>
<path d="M462.892 55.1064C455.372 55.1064 449.512 53.0414 445.326 48.8966C441.133 44.7372 439.04 38.813 439.04 31.1166V1.70773H451.23V30.6479C451.23 40.0432 455.137 44.7372 462.951 44.7372C466.77 44.7372 469.678 43.6095 471.675 41.3394C473.687 39.0546 474.701 35.4957 474.701 30.6479V1.70773H486.715V31.1166C486.715 38.813 484.615 44.7372 480.429 48.8966C476.258 53.0414 470.412 55.1064 462.892 55.1064Z" fill="#DDB661"/>
<path d="M516.034 55.1064C511.877 55.1064 507.853 54.5499 503.961 53.4368C500.083 52.309 496.969 50.8298 494.619 49.0137L498.732 39.8747C501.001 41.537 503.681 42.8625 506.781 43.8584C509.894 44.8543 513.008 45.3523 516.122 45.3523C519.566 45.3523 522.114 44.847 523.759 43.8291C525.419 42.7966 526.256 41.4272 526.256 39.7283C526.256 38.4834 525.764 37.4435 524.787 36.6234C523.825 35.7885 522.57 35.1222 521.027 34.6315C519.5 34.1262 517.429 33.577 514.829 32.9912C510.834 32.0392 507.552 31.0872 504.989 30.1499C502.418 29.1979 500.23 27.6748 498.409 25.5804C496.587 23.4714 495.677 20.6594 495.677 17.1444C495.677 14.0981 496.499 11.3447 498.144 8.88415C499.789 6.40901 502.271 4.44647 505.606 2.99653C508.954 1.53194 513.037 0.799652 517.855 0.799652C521.204 0.799652 524.479 1.20241 527.696 2.00061C530.905 2.80613 533.717 3.95583 536.126 5.45703L532.366 14.6839C527.49 11.9305 522.621 10.5538 517.767 10.5538C514.359 10.5538 511.84 11.1103 510.217 12.2234C508.587 13.3218 507.779 14.7645 507.779 16.5586C507.779 18.36 508.719 19.6928 510.599 20.5715C512.479 21.4503 515.343 22.3144 519.206 23.1492C523.216 24.1085 526.498 25.0678 529.047 26.0198C531.61 26.9571 533.806 28.451 535.627 30.5014C537.463 32.5518 538.388 35.3272 538.388 38.8202C538.388 41.83 537.543 44.576 535.862 47.0512C534.173 49.5117 531.646 51.4742 528.283 52.9388C524.934 54.3814 520.851 55.1064 516.034 55.1064Z" fill="#DDB661"/>
<path d="M144.269 76.237H561.731" stroke="#DDB661" stroke-width="4"/>
<path d="M245.841 93.9248V112.291H242.316L233.151 101.131V112.291H228.921V93.9248H232.446L241.611 105.085V93.9248H245.841Z" fill="#DDB661"/>
<path d="M270.61 112.613C267.981 112.613 265.94 111.895 264.471 110.445C263.002 108.981 262.268 106.901 262.268 104.206V93.9248H266.527V104.06C266.527 107.34 267.893 108.981 270.64 108.981C271.969 108.981 272.99 108.593 273.695 107.809C274.4 107.011 274.752 105.759 274.752 104.06V93.9248H278.953V104.206C278.953 106.901 278.218 108.981 276.75 110.445C275.281 111.895 273.232 112.613 270.61 112.613Z" fill="#DDB661"/>
<path d="M299.201 97.3812H293.326V93.9248H309.365V97.3812H303.461V112.291H299.201V97.3812Z" fill="#DDB661"/>
<path d="M335.629 112.291L332.074 107.165H328.167V112.291H323.879V93.9248H331.869C333.492 93.9248 334.902 94.2031 336.099 94.745C337.31 95.2722 338.243 96.0338 338.889 97.0297C339.536 98.0256 339.859 99.212 339.859 100.574C339.859 101.943 339.521 103.122 338.86 104.118C338.214 105.114 337.281 105.868 336.069 106.374L340.211 112.291H335.629ZM335.541 100.574C335.541 99.5635 335.203 98.7799 334.542 98.2307C333.874 97.6668 332.904 97.3812 331.634 97.3812H328.167V103.796H331.634C332.904 103.796 333.874 103.518 334.542 102.947C335.203 102.383 335.541 101.592 335.541 100.574Z" fill="#DDB661"/>
<path d="M355.452 93.9248H359.741V112.291H355.452V93.9248Z" fill="#DDB661"/>
<path d="M380.139 97.3812H374.264V93.9248H390.302V97.3812H384.398V112.291H380.139V97.3812Z" fill="#DDB661"/>
<path d="M404.816 93.9248H409.105V112.291H404.816V93.9248Z" fill="#DDB661"/>
<path d="M434.613 112.613C432.689 112.613 430.971 112.203 429.443 111.383C427.916 110.563 426.712 109.435 425.83 107.985C424.964 106.542 424.538 104.909 424.538 103.093C424.538 101.299 424.964 99.6807 425.83 98.2307C426.712 96.7881 427.916 95.653 429.443 94.8329C430.971 94.0127 432.689 93.6026 434.613 93.6026C436.53 93.6026 438.256 94.0127 439.783 94.8329C441.311 95.653 442.501 96.7881 443.367 98.2307C444.248 99.6807 444.689 101.299 444.689 103.093C444.689 104.909 444.248 106.542 443.367 107.985C442.501 109.435 441.311 110.563 439.783 111.383C438.256 112.203 436.53 112.613 434.613 112.613ZM434.613 108.981C435.708 108.981 436.684 108.739 437.551 108.248C438.432 107.743 439.115 107.048 439.607 106.169C440.114 105.275 440.371 104.25 440.371 103.093C440.371 101.965 440.114 100.955 439.607 100.076C439.115 99.1827 438.432 98.487 437.551 97.9964C436.684 97.4911 435.708 97.2348 434.613 97.2348C433.534 97.2348 432.557 97.4911 431.676 97.9964C430.795 98.487 430.097 99.1827 429.59 100.076C429.098 100.955 428.856 101.965 428.856 103.093C428.856 104.25 429.098 105.275 429.59 106.169C430.097 107.048 430.795 107.743 431.676 108.248C432.557 108.739 433.534 108.981 434.613 108.981Z" fill="#DDB661"/>
<path d="M477.045 93.9248V112.291H473.52L464.355 101.131V112.291H460.125V93.9248H463.65L472.815 105.085V93.9248H477.045Z" fill="#DDB661"/>
</svg>
